%TF.GenerationSoftware,KiCad,Pcbnew,8.0.1*%
%TF.CreationDate,2024-04-12T19:13:52-04:00*%
%TF.ProjectId,adc_fpga,6164635f-6670-4676-912e-6b696361645f,rev?*%
%TF.SameCoordinates,Original*%
%TF.FileFunction,Paste,Top*%
%TF.FilePolarity,Positive*%
%FSLAX46Y46*%
G04 Gerber Fmt 4.6, Leading zero omitted, Abs format (unit mm)*
G04 Created by KiCad (PCBNEW 8.0.1) date 2024-04-12 19:13:52*
%MOMM*%
%LPD*%
G01*
G04 APERTURE LIST*
G04 Aperture macros list*
%AMRoundRect*
0 Rectangle with rounded corners*
0 $1 Rounding radius*
0 $2 $3 $4 $5 $6 $7 $8 $9 X,Y pos of 4 corners*
0 Add a 4 corners polygon primitive as box body*
4,1,4,$2,$3,$4,$5,$6,$7,$8,$9,$2,$3,0*
0 Add four circle primitives for the rounded corners*
1,1,$1+$1,$2,$3*
1,1,$1+$1,$4,$5*
1,1,$1+$1,$6,$7*
1,1,$1+$1,$8,$9*
0 Add four rect primitives between the rounded corners*
20,1,$1+$1,$2,$3,$4,$5,0*
20,1,$1+$1,$4,$5,$6,$7,0*
20,1,$1+$1,$6,$7,$8,$9,0*
20,1,$1+$1,$8,$9,$2,$3,0*%
G04 Aperture macros list end*
%ADD10RoundRect,0.237500X-0.300000X-0.237500X0.300000X-0.237500X0.300000X0.237500X-0.300000X0.237500X0*%
%ADD11RoundRect,0.237500X-0.237500X0.300000X-0.237500X-0.300000X0.237500X-0.300000X0.237500X0.300000X0*%
%ADD12R,0.330200X1.473200*%
%ADD13R,1.473200X0.330200*%
%ADD14RoundRect,0.200000X0.275000X-0.200000X0.275000X0.200000X-0.275000X0.200000X-0.275000X-0.200000X0*%
%ADD15RoundRect,0.200000X-0.200000X-0.275000X0.200000X-0.275000X0.200000X0.275000X-0.200000X0.275000X0*%
%ADD16RoundRect,0.237500X0.300000X0.237500X-0.300000X0.237500X-0.300000X-0.237500X0.300000X-0.237500X0*%
%ADD17RoundRect,0.190000X0.635000X0.190000X-0.635000X0.190000X-0.635000X-0.190000X0.635000X-0.190000X0*%
%ADD18RoundRect,0.237500X0.237500X-0.300000X0.237500X0.300000X-0.237500X0.300000X-0.237500X-0.300000X0*%
%ADD19RoundRect,0.200000X-0.275000X0.200000X-0.275000X-0.200000X0.275000X-0.200000X0.275000X0.200000X0*%
%ADD20RoundRect,0.375000X-0.625000X-0.375000X0.625000X-0.375000X0.625000X0.375000X-0.625000X0.375000X0*%
%ADD21RoundRect,0.500000X-0.500000X-1.400000X0.500000X-1.400000X0.500000X1.400000X-0.500000X1.400000X0*%
%ADD22RoundRect,0.040000X0.160000X-0.555000X0.160000X0.555000X-0.160000X0.555000X-0.160000X-0.555000X0*%
G04 APERTURE END LIST*
D10*
%TO.C,C20*%
X98197500Y-104140000D03*
X99922500Y-104140000D03*
%TD*%
%TO.C,C14*%
X94387500Y-104140000D03*
X96112500Y-104140000D03*
%TD*%
D11*
%TO.C,C13*%
X119888000Y-99975500D03*
X119888000Y-101700500D03*
%TD*%
D12*
%TO.C,U3*%
X122103799Y-89306400D03*
X121303801Y-89306400D03*
X120503800Y-89306400D03*
X119703799Y-89306400D03*
X118903801Y-89306400D03*
X118103800Y-89306400D03*
X117303801Y-89306400D03*
X116503801Y-89306400D03*
D13*
X114985800Y-90824401D03*
X114985800Y-91624399D03*
X114985800Y-92424400D03*
X114985800Y-93224401D03*
X114985800Y-94024399D03*
X114985800Y-94824400D03*
X114985800Y-95624399D03*
X114985800Y-96424399D03*
D12*
X116503801Y-97942400D03*
X117303799Y-97942400D03*
X118103800Y-97942400D03*
X118903801Y-97942400D03*
X119703799Y-97942400D03*
X120503800Y-97942400D03*
X121303799Y-97942400D03*
X122103799Y-97942400D03*
D13*
X123621800Y-96424399D03*
X123621800Y-95624401D03*
X123621800Y-94824400D03*
X123621800Y-94024399D03*
X123621800Y-93224401D03*
X123621800Y-92424400D03*
X123621800Y-91624401D03*
X123621800Y-90824401D03*
%TD*%
D14*
%TO.C,R5*%
X134620000Y-86423000D03*
X134620000Y-84773000D03*
%TD*%
D15*
%TO.C,R4*%
X130747000Y-84328000D03*
X132397000Y-84328000D03*
%TD*%
%TO.C,R1*%
X130747000Y-86868000D03*
X132397000Y-86868000D03*
%TD*%
D16*
%TO.C,C12*%
X125375500Y-86868000D03*
X127100500Y-86868000D03*
%TD*%
D10*
%TO.C,C10*%
X125375500Y-84328000D03*
X127100500Y-84328000D03*
%TD*%
%TO.C,C9*%
X139345500Y-89154000D03*
X141070500Y-89154000D03*
%TD*%
D16*
%TO.C,C7*%
X125629500Y-93218000D03*
X127354500Y-93218000D03*
%TD*%
%TO.C,C6*%
X127354500Y-89408000D03*
X125629500Y-89408000D03*
%TD*%
%TO.C,C5*%
X125629500Y-91186000D03*
X127354500Y-91186000D03*
%TD*%
%TO.C,C3*%
X127354500Y-94742000D03*
X125629500Y-94742000D03*
%TD*%
D10*
%TO.C,C2*%
X116485500Y-87376000D03*
X118210500Y-87376000D03*
%TD*%
D17*
%TO.C,T1*%
X141290000Y-86871000D03*
X141290000Y-84331000D03*
X138110000Y-84331000D03*
X138110000Y-85601000D03*
X138110000Y-86871000D03*
%TD*%
D11*
%TO.C,C11*%
X143510000Y-86460500D03*
X143510000Y-84735500D03*
%TD*%
D18*
%TO.C,C17*%
X136906000Y-130806500D03*
X136906000Y-129081500D03*
%TD*%
D19*
%TO.C,R3*%
X139954000Y-129119000D03*
X139954000Y-130769000D03*
%TD*%
D10*
%TO.C,C1*%
X91540500Y-104140000D03*
X89815500Y-104140000D03*
%TD*%
D20*
%TO.C,U4*%
X80822000Y-93712000D03*
X80822000Y-96012000D03*
D21*
X87122000Y-96012000D03*
D20*
X80822000Y-98312000D03*
%TD*%
D18*
%TO.C,C18*%
X132842000Y-130806500D03*
X132842000Y-129081500D03*
%TD*%
D22*
%TO.C,U1*%
X127874000Y-130698000D03*
X128524000Y-130698000D03*
X129174000Y-130698000D03*
X129174000Y-128778000D03*
X127874000Y-128778000D03*
%TD*%
D11*
%TO.C,C16*%
X123698000Y-129081500D03*
X123698000Y-130806500D03*
%TD*%
D19*
%TO.C,R2*%
X143764000Y-129119000D03*
X143764000Y-130769000D03*
%TD*%
M02*
