%TF.GenerationSoftware,KiCad,Pcbnew,8.0.1*%
%TF.CreationDate,2024-06-11T21:54:47-04:00*%
%TF.ProjectId,adc_fpga,6164635f-6670-4676-912e-6b696361645f,rev?*%
%TF.SameCoordinates,Original*%
%TF.FileFunction,Copper,L3,Inr*%
%TF.FilePolarity,Positive*%
%FSLAX46Y46*%
G04 Gerber Fmt 4.6, Leading zero omitted, Abs format (unit mm)*
G04 Created by KiCad (PCBNEW 8.0.1) date 2024-06-11 21:54:47*
%MOMM*%
%LPD*%
G01*
G04 APERTURE LIST*
%TA.AperFunction,ComponentPad*%
%ADD10C,1.500000*%
%TD*%
%TA.AperFunction,ComponentPad*%
%ADD11R,1.200000X1.200000*%
%TD*%
%TA.AperFunction,ComponentPad*%
%ADD12C,1.200000*%
%TD*%
%TA.AperFunction,ComponentPad*%
%ADD13C,3.800000*%
%TD*%
%TA.AperFunction,ComponentPad*%
%ADD14R,1.700000X1.700000*%
%TD*%
%TA.AperFunction,ComponentPad*%
%ADD15O,1.700000X1.700000*%
%TD*%
%TA.AperFunction,ComponentPad*%
%ADD16C,1.524000*%
%TD*%
%TA.AperFunction,ComponentPad*%
%ADD17R,2.200000X2.200000*%
%TD*%
%TA.AperFunction,ComponentPad*%
%ADD18C,2.200000*%
%TD*%
%TA.AperFunction,ComponentPad*%
%ADD19R,2.250000X2.250000*%
%TD*%
%TA.AperFunction,ComponentPad*%
%ADD20C,2.250000*%
%TD*%
%TA.AperFunction,ViaPad*%
%ADD21C,0.600000*%
%TD*%
G04 APERTURE END LIST*
D10*
%TO.N,Net-(U3-VRM)*%
%TO.C,TP2*%
X137668000Y-92710000D03*
%TD*%
D11*
%TO.N,Net-(U1--)*%
%TO.C,C19*%
X119844600Y-130302000D03*
D12*
%TO.N,Net-(J2-Pin_1)*%
X117844600Y-130302000D03*
%TD*%
D13*
%TO.N,GND*%
%TO.C,REF\u002A\u002A*%
X157480000Y-132334000D03*
%TD*%
D14*
%TO.N,Net-(U2-A3)*%
%TO.C,J3*%
X140716000Y-125984000D03*
D15*
%TO.N,Net-(U2-B4)*%
X138176000Y-125984000D03*
%TO.N,Net-(U2-B3)*%
X135636000Y-125984000D03*
%TO.N,Net-(U2-C1)*%
X133096000Y-125984000D03*
%TO.N,Net-(U2-B1)*%
X130556000Y-125984000D03*
%TO.N,Net-(U2-B2)*%
X128016000Y-125984000D03*
%TO.N,Net-(U2-A2)*%
X125476000Y-125984000D03*
%TO.N,Net-(U2-C5)*%
X122936000Y-125984000D03*
%TO.N,GND*%
X120396000Y-125984000D03*
%TD*%
D16*
%TO.N,Net-(U2-L1)*%
%TO.C,U2*%
X148615000Y-105990000D03*
%TO.N,Net-(U2-M4)*%
X146075000Y-105990000D03*
%TO.N,Net-(U2-M3)*%
X143535000Y-105990000D03*
%TO.N,Net-(U2-N2)*%
X140995000Y-105990000D03*
%TO.N,Net-(U2-M2)*%
X138455000Y-105990000D03*
%TO.N,Net-(U2-P3)*%
X135915000Y-105990000D03*
%TO.N,Net-(U2-N3)*%
X133375000Y-105990000D03*
%TO.N,Net-(U2-P1)*%
X130835000Y-105990000D03*
%TO.N,Net-(U2-N1)*%
X128295000Y-105990000D03*
%TO.N,Net-(U2-P14)*%
X110515000Y-105990000D03*
%TO.N,Net-(U2-P15)*%
X107975000Y-105990000D03*
%TO.N,Net-(U2-N13)*%
X105435000Y-105990000D03*
%TO.N,Net-(U2-N15)*%
X102895000Y-105990000D03*
%TO.N,Net-(U2-N14)*%
X100355000Y-105990000D03*
%TO.N,Net-(U2-M15)*%
X97815000Y-105990000D03*
%TO.N,Net-(U2-M14)*%
X95275000Y-105990000D03*
%TO.N,Net-(U2-L15)*%
X92735000Y-105990000D03*
%TO.N,+5V*%
X90195000Y-105990000D03*
%TO.N,GND*%
X90195000Y-121230000D03*
%TO.N,Net-(U2-L14)*%
X92735000Y-121230000D03*
%TO.N,Net-(U2-K14)*%
X95275000Y-121230000D03*
%TO.N,Net-(U2-J15)*%
X97815000Y-121230000D03*
%TO.N,SCL3.3V*%
X100355000Y-121230000D03*
%TO.N,SDA3.3V*%
X102895000Y-121230000D03*
%TO.N,Net-(U2-J11)*%
X105435000Y-121230000D03*
%TO.N,Net-(U2-A32)*%
X107975000Y-121230000D03*
%TO.N,Net-(U2-A33)*%
X110515000Y-121230000D03*
%TO.N,Net-(U2-C5)*%
X128295000Y-121230000D03*
%TO.N,Net-(U2-A2)*%
X130835000Y-121230000D03*
%TO.N,Net-(U2-B2)*%
X133375000Y-121230000D03*
%TO.N,Net-(U2-B1)*%
X135915000Y-121230000D03*
%TO.N,Net-(U2-C1)*%
X138455000Y-121230000D03*
%TO.N,Net-(U2-B3)*%
X140995000Y-121230000D03*
%TO.N,Net-(U2-B4)*%
X143535000Y-121230000D03*
%TO.N,Net-(U2-A3)*%
X146075000Y-121230000D03*
%TO.N,Net-(U2-A4)*%
X148615000Y-121230000D03*
%TD*%
D10*
%TO.N,Net-(U2-A4)*%
%TO.C,TP1*%
X148336000Y-128016000D03*
%TD*%
D13*
%TO.N,GND*%
%TO.C,REF\u002A\u002A*%
X157480000Y-84000000D03*
%TD*%
D17*
%TO.N,Net-(J2-Pin_1)*%
%TO.C,J2*%
X109220000Y-128524000D03*
D18*
%TO.N,GND*%
X111760000Y-128524000D03*
%TD*%
D14*
%TO.N,+3.3V*%
%TO.C,J6*%
X103124000Y-96774000D03*
D15*
X103124000Y-94234000D03*
X103124000Y-91694000D03*
%TO.N,GND*%
X103124000Y-89154000D03*
X103124000Y-86614000D03*
X103124000Y-84074000D03*
%TD*%
D14*
%TO.N,Net-(U2-A33)*%
%TO.C,J5*%
X102870000Y-125984000D03*
D15*
%TO.N,Net-(U2-A32)*%
X100330000Y-125984000D03*
%TO.N,Net-(U2-J11)*%
X97790000Y-125984000D03*
%TO.N,SDA5V*%
X95250000Y-125984000D03*
%TO.N,SCL5V*%
X92710000Y-125984000D03*
%TO.N,Net-(U2-J15)*%
X90170000Y-125984000D03*
%TO.N,Net-(U2-K14)*%
X87630000Y-125984000D03*
%TO.N,Net-(U2-L14)*%
X85090000Y-125984000D03*
%TO.N,GND*%
X82550000Y-125984000D03*
%TD*%
D11*
%TO.N,+3.3V*%
%TO.C,C15*%
X90932000Y-96012000D03*
D12*
%TO.N,GND*%
X92932000Y-96012000D03*
%TD*%
D11*
%TO.N,Net-(U3-VRP)*%
%TO.C,C8*%
X132588000Y-90975401D03*
D12*
%TO.N,Net-(U3-VRN)*%
X132588000Y-92975401D03*
%TD*%
D11*
%TO.N,+3.3V*%
%TO.C,C4*%
X113792000Y-84836000D03*
D12*
%TO.N,GND*%
X111792000Y-84836000D03*
%TD*%
D19*
%TO.N,Net-(J1-In)*%
%TO.C,J1*%
X149860000Y-85705500D03*
D20*
%TO.N,GND*%
X152400000Y-83165500D03*
X147320000Y-83165500D03*
X152400000Y-88245500D03*
X147320000Y-88245500D03*
%TD*%
D13*
%TO.N,GND*%
%TO.C,REF\u002A\u002A*%
X77216000Y-132334000D03*
%TD*%
D17*
%TO.N,GND*%
%TO.C,J4*%
X85598000Y-85344000D03*
D18*
%TO.N,+5V*%
X83058000Y-85344000D03*
%TD*%
D10*
%TO.N,+3.3V*%
%TO.C,TP4*%
X88900000Y-89154000D03*
%TD*%
D13*
%TO.N,GND*%
%TO.C,REF\u002A\u002A*%
X76962000Y-84000000D03*
%TD*%
D21*
%TO.N,GND*%
X142240000Y-89154000D03*
X128524000Y-94742000D03*
X128524000Y-93218000D03*
X124206000Y-86868000D03*
X118872000Y-96520000D03*
X130302000Y-129794000D03*
X122428000Y-93980000D03*
X115316000Y-87376000D03*
X119634000Y-90424000D03*
X116586000Y-90424000D03*
X128524000Y-91186000D03*
X136736000Y-83312000D03*
X99822000Y-102108000D03*
X123698000Y-132588000D03*
X120904000Y-102870000D03*
X141224000Y-83312000D03*
X138176000Y-129032000D03*
X96012000Y-102108000D03*
X116332000Y-92456000D03*
X117348000Y-90424000D03*
X116332000Y-91186000D03*
X128524000Y-89408000D03*
X124206000Y-84328000D03*
X92710000Y-100838000D03*
%TO.N,+3.3V*%
X120142000Y-96520000D03*
X90424000Y-132588000D03*
X118364000Y-90932000D03*
X95504000Y-132588000D03*
X121920000Y-92456000D03*
%TD*%
%TA.AperFunction,Conductor*%
%TO.N,GND*%
G36*
X103374000Y-88720988D02*
G01*
X103316993Y-88688075D01*
X103189826Y-88654000D01*
X103058174Y-88654000D01*
X102931007Y-88688075D01*
X102874000Y-88720988D01*
X102874000Y-87047012D01*
X102931007Y-87079925D01*
X103058174Y-87114000D01*
X103189826Y-87114000D01*
X103316993Y-87079925D01*
X103374000Y-87047012D01*
X103374000Y-88720988D01*
G37*
%TD.AperFunction*%
%TA.AperFunction,Conductor*%
G36*
X103374000Y-86180988D02*
G01*
X103316993Y-86148075D01*
X103189826Y-86114000D01*
X103058174Y-86114000D01*
X102931007Y-86148075D01*
X102874000Y-86180988D01*
X102874000Y-84507012D01*
X102931007Y-84539925D01*
X103058174Y-84574000D01*
X103189826Y-84574000D01*
X103316993Y-84539925D01*
X103374000Y-84507012D01*
X103374000Y-86180988D01*
G37*
%TD.AperFunction*%
%TA.AperFunction,Conductor*%
G36*
X146511916Y-81546185D02*
G01*
X146557671Y-81598989D01*
X146567615Y-81668147D01*
X146538590Y-81731703D01*
X146509667Y-81756227D01*
X146361893Y-81846782D01*
X146358086Y-81850032D01*
X146995975Y-82487921D01*
X146964742Y-82500859D01*
X146841903Y-82582937D01*
X146737437Y-82687403D01*
X146655359Y-82810242D01*
X146642421Y-82841475D01*
X146004532Y-82203586D01*
X146001282Y-82207393D01*
X145867636Y-82425484D01*
X145867634Y-82425487D01*
X145769752Y-82661797D01*
X145710042Y-82910510D01*
X145689975Y-83165500D01*
X145710042Y-83420489D01*
X145769752Y-83669202D01*
X145867634Y-83905512D01*
X145867636Y-83905515D01*
X146001277Y-84123598D01*
X146001284Y-84123607D01*
X146004533Y-84127412D01*
X146642421Y-83489524D01*
X146655359Y-83520758D01*
X146737437Y-83643597D01*
X146841903Y-83748063D01*
X146964742Y-83830141D01*
X146995974Y-83843077D01*
X146358087Y-84480965D01*
X146361897Y-84484219D01*
X146579984Y-84617863D01*
X146579987Y-84617865D01*
X146816297Y-84715747D01*
X147065011Y-84775457D01*
X147065010Y-84775457D01*
X147320000Y-84795524D01*
X147574989Y-84775457D01*
X147823700Y-84715747D01*
X148063047Y-84616607D01*
X148132517Y-84609138D01*
X148194996Y-84640413D01*
X148230648Y-84700502D01*
X148234500Y-84731168D01*
X148234500Y-86679831D01*
X148214815Y-86746870D01*
X148162011Y-86792625D01*
X148092853Y-86802569D01*
X148063048Y-86794392D01*
X147823702Y-86695252D01*
X147574988Y-86635542D01*
X147574989Y-86635542D01*
X147320000Y-86615475D01*
X147065010Y-86635542D01*
X146816297Y-86695252D01*
X146579987Y-86793134D01*
X146579984Y-86793136D01*
X146361893Y-86926782D01*
X146358086Y-86930032D01*
X146995975Y-87567921D01*
X146964742Y-87580859D01*
X146841903Y-87662937D01*
X146737437Y-87767403D01*
X146655359Y-87890242D01*
X146642421Y-87921475D01*
X146004532Y-87283586D01*
X146001282Y-87287393D01*
X145867636Y-87505484D01*
X145867634Y-87505487D01*
X145769752Y-87741797D01*
X145710042Y-87990510D01*
X145689975Y-88245500D01*
X145710042Y-88500489D01*
X145769752Y-88749202D01*
X145867634Y-88985512D01*
X145867636Y-88985515D01*
X146001277Y-89203598D01*
X146001284Y-89203607D01*
X146004533Y-89207412D01*
X146642421Y-88569524D01*
X146655359Y-88600758D01*
X146737437Y-88723597D01*
X146841903Y-88828063D01*
X146964742Y-88910141D01*
X146995974Y-88923078D01*
X146358087Y-89560965D01*
X146361897Y-89564219D01*
X146579984Y-89697863D01*
X146579987Y-89697865D01*
X146816297Y-89795747D01*
X147065011Y-89855457D01*
X147065010Y-89855457D01*
X147320000Y-89875524D01*
X147574989Y-89855457D01*
X147823702Y-89795747D01*
X148060012Y-89697865D01*
X148060015Y-89697863D01*
X148278095Y-89564224D01*
X148278110Y-89564213D01*
X148281911Y-89560966D01*
X148281911Y-89560964D01*
X147644025Y-88923077D01*
X147675258Y-88910141D01*
X147798097Y-88828063D01*
X147902563Y-88723597D01*
X147984641Y-88600758D01*
X147997578Y-88569525D01*
X148635464Y-89207411D01*
X148635466Y-89207411D01*
X148638713Y-89203610D01*
X148638724Y-89203595D01*
X148772363Y-88985515D01*
X148772365Y-88985512D01*
X148870247Y-88749202D01*
X148929957Y-88500489D01*
X148950024Y-88245500D01*
X148929957Y-87990510D01*
X148870247Y-87741799D01*
X148771107Y-87502452D01*
X148763638Y-87432982D01*
X148794913Y-87370503D01*
X148855002Y-87334851D01*
X148885660Y-87330999D01*
X150834331Y-87330999D01*
X150901370Y-87350684D01*
X150947125Y-87403488D01*
X150957069Y-87472646D01*
X150948892Y-87502451D01*
X150849752Y-87741797D01*
X150790042Y-87990510D01*
X150769975Y-88245500D01*
X150790042Y-88500489D01*
X150849752Y-88749202D01*
X150947634Y-88985512D01*
X150947636Y-88985515D01*
X151081277Y-89203598D01*
X151081284Y-89203607D01*
X151084533Y-89207412D01*
X151722421Y-88569524D01*
X151735359Y-88600758D01*
X151817437Y-88723597D01*
X151921903Y-88828063D01*
X152044742Y-88910141D01*
X152075974Y-88923078D01*
X151438087Y-89560965D01*
X151441897Y-89564219D01*
X151659984Y-89697863D01*
X151659987Y-89697865D01*
X151896297Y-89795747D01*
X152145011Y-89855457D01*
X152145010Y-89855457D01*
X152400000Y-89875524D01*
X152654989Y-89855457D01*
X152903702Y-89795747D01*
X153140012Y-89697865D01*
X153140015Y-89697863D01*
X153358095Y-89564224D01*
X153358110Y-89564213D01*
X153361911Y-89560966D01*
X153361911Y-89560964D01*
X152724025Y-88923077D01*
X152755258Y-88910141D01*
X152878097Y-88828063D01*
X152982563Y-88723597D01*
X153064641Y-88600758D01*
X153077578Y-88569525D01*
X153715464Y-89207411D01*
X153715466Y-89207411D01*
X153718713Y-89203610D01*
X153718724Y-89203595D01*
X153852363Y-88985515D01*
X153852365Y-88985512D01*
X153950247Y-88749202D01*
X154009957Y-88500489D01*
X154030024Y-88245500D01*
X154009957Y-87990510D01*
X153950247Y-87741797D01*
X153852365Y-87505487D01*
X153852363Y-87505484D01*
X153718719Y-87287397D01*
X153715465Y-87283587D01*
X153077578Y-87921474D01*
X153064641Y-87890242D01*
X152982563Y-87767403D01*
X152878097Y-87662937D01*
X152755258Y-87580859D01*
X152724024Y-87567921D01*
X153361912Y-86930033D01*
X153358107Y-86926784D01*
X153358098Y-86926777D01*
X153140015Y-86793136D01*
X153140012Y-86793134D01*
X152903702Y-86695252D01*
X152654988Y-86635542D01*
X152654989Y-86635542D01*
X152400000Y-86615475D01*
X152145010Y-86635542D01*
X151896297Y-86695252D01*
X151656951Y-86794392D01*
X151587482Y-86801861D01*
X151525003Y-86770585D01*
X151489351Y-86710496D01*
X151485499Y-86679838D01*
X151485499Y-84731167D01*
X151505184Y-84664129D01*
X151557988Y-84618374D01*
X151627146Y-84608430D01*
X151656952Y-84616607D01*
X151896299Y-84715747D01*
X152145011Y-84775457D01*
X152145010Y-84775457D01*
X152400000Y-84795524D01*
X152654989Y-84775457D01*
X152903702Y-84715747D01*
X153140012Y-84617865D01*
X153140015Y-84617863D01*
X153358095Y-84484224D01*
X153358110Y-84484213D01*
X153361911Y-84480966D01*
X153361911Y-84480964D01*
X152724025Y-83843078D01*
X152755258Y-83830141D01*
X152878097Y-83748063D01*
X152982563Y-83643597D01*
X153064641Y-83520758D01*
X153077578Y-83489525D01*
X153715464Y-84127411D01*
X153715466Y-84127411D01*
X153718713Y-84123610D01*
X153718724Y-84123595D01*
X153852363Y-83905515D01*
X153852365Y-83905512D01*
X153950247Y-83669202D01*
X154009957Y-83420489D01*
X154030024Y-83165500D01*
X154009957Y-82910510D01*
X153950247Y-82661797D01*
X153852365Y-82425487D01*
X153852363Y-82425484D01*
X153718719Y-82207397D01*
X153715465Y-82203587D01*
X153077578Y-82841474D01*
X153064641Y-82810242D01*
X152982563Y-82687403D01*
X152878097Y-82582937D01*
X152755258Y-82500859D01*
X152724024Y-82487921D01*
X153361912Y-81850033D01*
X153358107Y-81846784D01*
X153358098Y-81846777D01*
X153210333Y-81756227D01*
X153163458Y-81704416D01*
X153152035Y-81635486D01*
X153179692Y-81571323D01*
X153237648Y-81532298D01*
X153275123Y-81526500D01*
X156557785Y-81526500D01*
X156624824Y-81546185D01*
X156670579Y-81598989D01*
X156680523Y-81668147D01*
X156651498Y-81731703D01*
X156603432Y-81765792D01*
X156456117Y-81824117D01*
X156456109Y-81824121D01*
X156191476Y-81969604D01*
X156191471Y-81969607D01*
X155966565Y-82133010D01*
X155966564Y-82133011D01*
X156897262Y-83063709D01*
X156763398Y-83160967D01*
X156640967Y-83283398D01*
X156543709Y-83417262D01*
X155615311Y-82488864D01*
X155534520Y-82586525D01*
X155534518Y-82586528D01*
X155372707Y-82841502D01*
X155372704Y-82841508D01*
X155244127Y-83114747D01*
X155244125Y-83114752D01*
X155150805Y-83401959D01*
X155094216Y-83698609D01*
X155094215Y-83698616D01*
X155075255Y-83999994D01*
X155075255Y-84000005D01*
X155094215Y-84301383D01*
X155094216Y-84301390D01*
X155150805Y-84598040D01*
X155244125Y-84885247D01*
X155244127Y-84885252D01*
X155372704Y-85158491D01*
X155372707Y-85158497D01*
X155534516Y-85413469D01*
X155615311Y-85511133D01*
X156543708Y-84582736D01*
X156640967Y-84716602D01*
X156763398Y-84839033D01*
X156897262Y-84936290D01*
X155966564Y-85866987D01*
X155966565Y-85866989D01*
X156191461Y-86030385D01*
X156191479Y-86030397D01*
X156456109Y-86175878D01*
X156456117Y-86175882D01*
X156736889Y-86287047D01*
X156736892Y-86287048D01*
X157029399Y-86362150D01*
X157328995Y-86399999D01*
X157329007Y-86400000D01*
X157630993Y-86400000D01*
X157631004Y-86399999D01*
X157930600Y-86362150D01*
X158223107Y-86287048D01*
X158223110Y-86287047D01*
X158503882Y-86175882D01*
X158503890Y-86175878D01*
X158768520Y-86030397D01*
X158768530Y-86030390D01*
X158993433Y-85866987D01*
X158993434Y-85866987D01*
X158062737Y-84936290D01*
X158196602Y-84839033D01*
X158319033Y-84716602D01*
X158416290Y-84582737D01*
X159344697Y-85511144D01*
X159412549Y-85527638D01*
X159460742Y-85578227D01*
X159474500Y-85634997D01*
X159474500Y-130699001D01*
X159454815Y-130766040D01*
X159402011Y-130811795D01*
X159344696Y-130822855D01*
X158416289Y-131751261D01*
X158319033Y-131617398D01*
X158196602Y-131494967D01*
X158062736Y-131397709D01*
X158993434Y-130467011D01*
X158993433Y-130467009D01*
X158768538Y-130303614D01*
X158768520Y-130303602D01*
X158503890Y-130158121D01*
X158503882Y-130158117D01*
X158223110Y-130046952D01*
X158223107Y-130046951D01*
X157930600Y-129971849D01*
X157631004Y-129934000D01*
X157328995Y-129934000D01*
X157029399Y-129971849D01*
X156736892Y-130046951D01*
X156736889Y-130046952D01*
X156456117Y-130158117D01*
X156456109Y-130158121D01*
X156191476Y-130303604D01*
X156191471Y-130303607D01*
X155966565Y-130467010D01*
X155966564Y-130467011D01*
X156897262Y-131397709D01*
X156763398Y-131494967D01*
X156640967Y-131617398D01*
X156543709Y-131751262D01*
X155615311Y-130822864D01*
X155534520Y-130920525D01*
X155534518Y-130920528D01*
X155372707Y-131175502D01*
X155372704Y-131175508D01*
X155244127Y-131448747D01*
X155244125Y-131448752D01*
X155150805Y-131735959D01*
X155094216Y-132032609D01*
X155094215Y-132032616D01*
X155075255Y-132333994D01*
X155075255Y-132334005D01*
X155094215Y-132635383D01*
X155094216Y-132635390D01*
X155150805Y-132932040D01*
X155229107Y-133173027D01*
X155231102Y-133242868D01*
X155195022Y-133302701D01*
X155132321Y-133333529D01*
X155110806Y-133335344D01*
X96314093Y-133159831D01*
X96247112Y-133139947D01*
X96201515Y-133087007D01*
X96191778Y-133017819D01*
X96209468Y-132969861D01*
X96229789Y-132937522D01*
X96289368Y-132767255D01*
X96290608Y-132756253D01*
X96309565Y-132588003D01*
X96309565Y-132587996D01*
X96289369Y-132408750D01*
X96289368Y-132408745D01*
X96263211Y-132333994D01*
X96229789Y-132238478D01*
X96133816Y-132085738D01*
X96006262Y-131958184D01*
X95932358Y-131911747D01*
X95853523Y-131862211D01*
X95683254Y-131802631D01*
X95683249Y-131802630D01*
X95504004Y-131782435D01*
X95503996Y-131782435D01*
X95324750Y-131802630D01*
X95324745Y-131802631D01*
X95154476Y-131862211D01*
X95001737Y-131958184D01*
X94874184Y-132085737D01*
X94778211Y-132238476D01*
X94718631Y-132408745D01*
X94718630Y-132408750D01*
X94698435Y-132587996D01*
X94698435Y-132588003D01*
X94718630Y-132767249D01*
X94718631Y-132767254D01*
X94778212Y-132937525D01*
X94795484Y-132965014D01*
X94814484Y-133032251D01*
X94794116Y-133099086D01*
X94740847Y-133144299D01*
X94690120Y-133154984D01*
X91243604Y-133144695D01*
X91176623Y-133124811D01*
X91131026Y-133071871D01*
X91121289Y-133002683D01*
X91138980Y-132954723D01*
X91149789Y-132937522D01*
X91209368Y-132767255D01*
X91210608Y-132756253D01*
X91229565Y-132588003D01*
X91229565Y-132587996D01*
X91209369Y-132408750D01*
X91209368Y-132408745D01*
X91183211Y-132333994D01*
X91149789Y-132238478D01*
X91053816Y-132085738D01*
X90926262Y-131958184D01*
X90852358Y-131911747D01*
X90773523Y-131862211D01*
X90603254Y-131802631D01*
X90603249Y-131802630D01*
X90424004Y-131782435D01*
X90423996Y-131782435D01*
X90244750Y-131802630D01*
X90244745Y-131802631D01*
X90074476Y-131862211D01*
X89921737Y-131958184D01*
X89794184Y-132085737D01*
X89698211Y-132238476D01*
X89638631Y-132408745D01*
X89638630Y-132408750D01*
X89618435Y-132587996D01*
X89618435Y-132588003D01*
X89638630Y-132767249D01*
X89638631Y-132767254D01*
X89698211Y-132937523D01*
X89705940Y-132949824D01*
X89724938Y-133017061D01*
X89704568Y-133083896D01*
X89651299Y-133129108D01*
X89600574Y-133139792D01*
X79657636Y-133110111D01*
X79590655Y-133090227D01*
X79545058Y-133037287D01*
X79535321Y-132968099D01*
X79540076Y-132947790D01*
X79545194Y-132932037D01*
X79601783Y-132635390D01*
X79601784Y-132635383D01*
X79620745Y-132334005D01*
X79620745Y-132333994D01*
X79601784Y-132032616D01*
X79601783Y-132032609D01*
X79545194Y-131735959D01*
X79451874Y-131448752D01*
X79451872Y-131448747D01*
X79323295Y-131175508D01*
X79323292Y-131175502D01*
X79161483Y-130920530D01*
X79080686Y-130822864D01*
X78152289Y-131751261D01*
X78055033Y-131617398D01*
X77932602Y-131494967D01*
X77798736Y-131397709D01*
X78729434Y-130467011D01*
X78729433Y-130467009D01*
X78504538Y-130303614D01*
X78504520Y-130303602D01*
X78239890Y-130158121D01*
X78239882Y-130158117D01*
X77959110Y-130046952D01*
X77959107Y-130046951D01*
X77666600Y-129971849D01*
X77367004Y-129934000D01*
X77064995Y-129934000D01*
X76765399Y-129971849D01*
X76472892Y-130046951D01*
X76472889Y-130046952D01*
X76192117Y-130158117D01*
X76192109Y-130158121D01*
X75927476Y-130303604D01*
X75927471Y-130303607D01*
X75702565Y-130467010D01*
X75702564Y-130467011D01*
X76633262Y-131397709D01*
X76499398Y-131494967D01*
X76376967Y-131617398D01*
X76279709Y-131751262D01*
X75351311Y-130822864D01*
X75270522Y-130920523D01*
X75196197Y-131037641D01*
X75143655Y-131083696D01*
X75074554Y-131094035D01*
X75010834Y-131065373D01*
X74972724Y-131006812D01*
X74967500Y-130971198D01*
X74967500Y-129671870D01*
X107619500Y-129671870D01*
X107619501Y-129671876D01*
X107625908Y-129731483D01*
X107676202Y-129866328D01*
X107676206Y-129866335D01*
X107762452Y-129981544D01*
X107762455Y-129981547D01*
X107877664Y-130067793D01*
X107877671Y-130067797D01*
X108012517Y-130118091D01*
X108012516Y-130118091D01*
X108019444Y-130118835D01*
X108072127Y-130124500D01*
X108776427Y-130124499D01*
X108843464Y-130144183D01*
X108889219Y-130196987D01*
X108899163Y-130266146D01*
X108870138Y-130329702D01*
X108845316Y-130351601D01*
X108709711Y-130442210D01*
X108709707Y-130442213D01*
X108598213Y-130553707D01*
X108598210Y-130553711D01*
X108510609Y-130684814D01*
X108510602Y-130684827D01*
X108450264Y-130830498D01*
X108450261Y-130830510D01*
X108419500Y-130985153D01*
X108419500Y-131142846D01*
X108450261Y-131297489D01*
X108450264Y-131297501D01*
X108510602Y-131443172D01*
X108510609Y-131443185D01*
X108598210Y-131574288D01*
X108598213Y-131574292D01*
X108709707Y-131685786D01*
X108709711Y-131685789D01*
X108840814Y-131773390D01*
X108840827Y-131773397D01*
X108911408Y-131802632D01*
X108986503Y-131833737D01*
X109141153Y-131864499D01*
X109141156Y-131864500D01*
X109141158Y-131864500D01*
X109298844Y-131864500D01*
X109298845Y-131864499D01*
X109453497Y-131833737D01*
X109599179Y-131773394D01*
X109730289Y-131685789D01*
X109841789Y-131574289D01*
X109929394Y-131443179D01*
X109989737Y-131297497D01*
X110020500Y-131142842D01*
X110020500Y-130985158D01*
X110020500Y-130985155D01*
X110020499Y-130985153D01*
X110013481Y-130949872D01*
X109989737Y-130830503D01*
X109963036Y-130766040D01*
X109929397Y-130684827D01*
X109929390Y-130684814D01*
X109841789Y-130553711D01*
X109841786Y-130553707D01*
X109730292Y-130442213D01*
X109730288Y-130442210D01*
X109594683Y-130351601D01*
X109549878Y-130297989D01*
X109541171Y-130228664D01*
X109571326Y-130165636D01*
X109630769Y-130128917D01*
X109663571Y-130124499D01*
X110367872Y-130124499D01*
X110427483Y-130118091D01*
X110562331Y-130067796D01*
X110677546Y-129981546D01*
X110735229Y-129904491D01*
X110791161Y-129862622D01*
X110860853Y-129857638D01*
X110899284Y-129873077D01*
X111031368Y-129954019D01*
X111264044Y-130050396D01*
X111431828Y-130090677D01*
X111492421Y-130125467D01*
X111524585Y-130187493D01*
X111518109Y-130257062D01*
X111475050Y-130312087D01*
X111450335Y-130325812D01*
X111380824Y-130354604D01*
X111380814Y-130354609D01*
X111249711Y-130442210D01*
X111249707Y-130442213D01*
X111138213Y-130553707D01*
X111138210Y-130553711D01*
X111050609Y-130684814D01*
X111050602Y-130684827D01*
X110990264Y-130830498D01*
X110990261Y-130830510D01*
X110959500Y-130985153D01*
X110959500Y-131142846D01*
X110990261Y-131297489D01*
X110990264Y-131297501D01*
X111050602Y-131443172D01*
X111050609Y-131443185D01*
X111138210Y-131574288D01*
X111138213Y-131574292D01*
X111249707Y-131685786D01*
X111249711Y-131685789D01*
X111380814Y-131773390D01*
X111380827Y-131773397D01*
X111451408Y-131802632D01*
X111526503Y-131833737D01*
X111681153Y-131864499D01*
X111681156Y-131864500D01*
X111681158Y-131864500D01*
X111838844Y-131864500D01*
X111838845Y-131864499D01*
X111993497Y-131833737D01*
X112139179Y-131773394D01*
X112270289Y-131685789D01*
X112381789Y-131574289D01*
X112469394Y-131443179D01*
X112529737Y-131297497D01*
X112560500Y-131142842D01*
X112560500Y-130985158D01*
X112560500Y-130985155D01*
X112560499Y-130985153D01*
X112553481Y-130949872D01*
X112529737Y-130830503D01*
X112503036Y-130766040D01*
X112469397Y-130684827D01*
X112469390Y-130684814D01*
X112381789Y-130553711D01*
X112381786Y-130553707D01*
X112270292Y-130442213D01*
X112270288Y-130442210D01*
X112139185Y-130354609D01*
X112139172Y-130354602D01*
X112069665Y-130325812D01*
X112040116Y-130302000D01*
X116739385Y-130302000D01*
X116758202Y-130505082D01*
X116814017Y-130701247D01*
X116814022Y-130701260D01*
X116904927Y-130883821D01*
X117027837Y-131046581D01*
X117178558Y-131183980D01*
X117178560Y-131183982D01*
X117178562Y-131183983D01*
X117351963Y-131291348D01*
X117542144Y-131365024D01*
X117742624Y-131402500D01*
X117742626Y-131402500D01*
X117946574Y-131402500D01*
X117946576Y-131402500D01*
X118147056Y-131365024D01*
X118337237Y-131291348D01*
X118510641Y-131183981D01*
X118602617Y-131100133D01*
X118665418Y-131069518D01*
X118734805Y-131077715D01*
X118788746Y-131122125D01*
X118796273Y-131136698D01*
X118796553Y-131136546D01*
X118800806Y-131144335D01*
X118887052Y-131259544D01*
X118887055Y-131259547D01*
X119002264Y-131345793D01*
X119002271Y-131345797D01*
X119137117Y-131396091D01*
X119137116Y-131396091D01*
X119144044Y-131396835D01*
X119196727Y-131402500D01*
X120492472Y-131402499D01*
X120552083Y-131396091D01*
X120686931Y-131345796D01*
X120802146Y-131259546D01*
X120888396Y-131144331D01*
X120938691Y-131009483D01*
X120945100Y-130949873D01*
X120945099Y-129654128D01*
X120938691Y-129594517D01*
X120891570Y-129468180D01*
X120888397Y-129459671D01*
X120888393Y-129459664D01*
X120802147Y-129344455D01*
X120802144Y-129344452D01*
X120686935Y-129258206D01*
X120686928Y-129258202D01*
X120552082Y-129207908D01*
X120552083Y-129207908D01*
X120492483Y-129201501D01*
X120492481Y-129201500D01*
X120492473Y-129201500D01*
X120492464Y-129201500D01*
X119196729Y-129201500D01*
X119196723Y-129201501D01*
X119137116Y-129207908D01*
X119002271Y-129258202D01*
X119002264Y-129258206D01*
X118887055Y-129344452D01*
X118887052Y-129344455D01*
X118800806Y-129459664D01*
X118796553Y-129467454D01*
X118794341Y-129466246D01*
X118760440Y-129511511D01*
X118694970Y-129535913D01*
X118626701Y-129521045D01*
X118602615Y-129503864D01*
X118510641Y-129420019D01*
X118510639Y-129420017D01*
X118337242Y-129312655D01*
X118337235Y-129312651D01*
X118230435Y-129271277D01*
X118147056Y-129238976D01*
X117946576Y-129201500D01*
X117742624Y-129201500D01*
X117542144Y-129238976D01*
X117542141Y-129238976D01*
X117542141Y-129238977D01*
X117351964Y-129312651D01*
X117351957Y-129312655D01*
X117178560Y-129420017D01*
X117178558Y-129420019D01*
X117027837Y-129557418D01*
X116904927Y-129720178D01*
X116814022Y-129902739D01*
X116814017Y-129902752D01*
X116758202Y-130098917D01*
X116739385Y-130301999D01*
X116739385Y-130302000D01*
X112040116Y-130302000D01*
X112015261Y-130281971D01*
X111993196Y-130215677D01*
X112010475Y-130147978D01*
X112061612Y-130100367D01*
X112088171Y-130090677D01*
X112255955Y-130050396D01*
X112488631Y-129954019D01*
X112703361Y-129822432D01*
X112703363Y-129822430D01*
X112704180Y-129821732D01*
X111930235Y-129047787D01*
X111972292Y-129036518D01*
X112097708Y-128964110D01*
X112200110Y-128861708D01*
X112272518Y-128736292D01*
X112283787Y-128694234D01*
X113057732Y-129468180D01*
X113058430Y-129467363D01*
X113058432Y-129467361D01*
X113190019Y-129252631D01*
X113286396Y-129019956D01*
X113345187Y-128775072D01*
X113364947Y-128524000D01*
X113345187Y-128272927D01*
X113286396Y-128028043D01*
X113281408Y-128016002D01*
X147080723Y-128016002D01*
X147099793Y-128233975D01*
X147099793Y-128233979D01*
X147156422Y-128445322D01*
X147156424Y-128445326D01*
X147156425Y-128445330D01*
X147202661Y-128544484D01*
X147248897Y-128643638D01*
X147248898Y-128643639D01*
X147374402Y-128822877D01*
X147529123Y-128977598D01*
X147708361Y-129103102D01*
X147906670Y-129195575D01*
X148118023Y-129252207D01*
X148300926Y-129268208D01*
X148335998Y-129271277D01*
X148336000Y-129271277D01*
X148336002Y-129271277D01*
X148364254Y-129268805D01*
X148553977Y-129252207D01*
X148765330Y-129195575D01*
X148963639Y-129103102D01*
X149142877Y-128977598D01*
X149297598Y-128822877D01*
X149423102Y-128643639D01*
X149515575Y-128445330D01*
X149572207Y-128233977D01*
X149588805Y-128044254D01*
X149591277Y-128016002D01*
X149591277Y-128015997D01*
X149587569Y-127973618D01*
X149572207Y-127798023D01*
X149515575Y-127586670D01*
X149423102Y-127388362D01*
X149423100Y-127388359D01*
X149423099Y-127388357D01*
X149297599Y-127209124D01*
X149231981Y-127143506D01*
X149142877Y-127054402D01*
X149004978Y-126957844D01*
X148963638Y-126928897D01*
X148862774Y-126881864D01*
X148765330Y-126836425D01*
X148765326Y-126836424D01*
X148765322Y-126836422D01*
X148553977Y-126779793D01*
X148336002Y-126760723D01*
X148335998Y-126760723D01*
X148190682Y-126773436D01*
X148118023Y-126779793D01*
X148118020Y-126779793D01*
X147906677Y-126836422D01*
X147906668Y-126836426D01*
X147708361Y-126928898D01*
X147708357Y-126928900D01*
X147529121Y-127054402D01*
X147374402Y-127209121D01*
X147248900Y-127388357D01*
X147248898Y-127388361D01*
X147156426Y-127586668D01*
X147156422Y-127586677D01*
X147099793Y-127798020D01*
X147099793Y-127798024D01*
X147080723Y-128015997D01*
X147080723Y-128016002D01*
X113281408Y-128016002D01*
X113190019Y-127795368D01*
X113058429Y-127580634D01*
X113057733Y-127579819D01*
X113057732Y-127579819D01*
X112283787Y-128353764D01*
X112272518Y-128311708D01*
X112200110Y-128186292D01*
X112097708Y-128083890D01*
X111972292Y-128011482D01*
X111930234Y-128000212D01*
X112704179Y-127226266D01*
X112703362Y-127225568D01*
X112488631Y-127093980D01*
X112255956Y-126997603D01*
X112011072Y-126938812D01*
X111760000Y-126919052D01*
X111508927Y-126938812D01*
X111264043Y-126997603D01*
X111031373Y-127093978D01*
X110899284Y-127174923D01*
X110831838Y-127193167D01*
X110765235Y-127172051D01*
X110735228Y-127143506D01*
X110677547Y-127066455D01*
X110677544Y-127066452D01*
X110562335Y-126980206D01*
X110562328Y-126980202D01*
X110427482Y-126929908D01*
X110427483Y-126929908D01*
X110367883Y-126923501D01*
X110367881Y-126923500D01*
X110367873Y-126923500D01*
X110367864Y-126923500D01*
X108072129Y-126923500D01*
X108072123Y-126923501D01*
X108012516Y-126929908D01*
X107877671Y-126980202D01*
X107877664Y-126980206D01*
X107762455Y-127066452D01*
X107762452Y-127066455D01*
X107676206Y-127181664D01*
X107676202Y-127181671D01*
X107625908Y-127316517D01*
X107619501Y-127376116D01*
X107619500Y-127376135D01*
X107619500Y-129671870D01*
X74967500Y-129671870D01*
X74967500Y-126234000D01*
X81219364Y-126234000D01*
X81276567Y-126447486D01*
X81276570Y-126447492D01*
X81376399Y-126661578D01*
X81511894Y-126855082D01*
X81678917Y-127022105D01*
X81872421Y-127157600D01*
X82086507Y-127257429D01*
X82086516Y-127257433D01*
X82300000Y-127314634D01*
X82300000Y-126417012D01*
X82357007Y-126449925D01*
X82484174Y-126484000D01*
X82615826Y-126484000D01*
X82742993Y-126449925D01*
X82800000Y-126417012D01*
X82800000Y-127314633D01*
X83013483Y-127257433D01*
X83013492Y-127257429D01*
X83227578Y-127157600D01*
X83421082Y-127022105D01*
X83588105Y-126855082D01*
X83718119Y-126669405D01*
X83772696Y-126625781D01*
X83842195Y-126618588D01*
X83904549Y-126650110D01*
X83921269Y-126669405D01*
X84051505Y-126855401D01*
X84218599Y-127022495D01*
X84315384Y-127090265D01*
X84412165Y-127158032D01*
X84412167Y-127158033D01*
X84412170Y-127158035D01*
X84626337Y-127257903D01*
X84854592Y-127319063D01*
X85031034Y-127334500D01*
X85089999Y-127339659D01*
X85090000Y-127339659D01*
X85090001Y-127339659D01*
X85148966Y-127334500D01*
X85325408Y-127319063D01*
X85553663Y-127257903D01*
X85767830Y-127158035D01*
X85961401Y-127022495D01*
X86128495Y-126855401D01*
X86258425Y-126669842D01*
X86313002Y-126626217D01*
X86382500Y-126619023D01*
X86444855Y-126650546D01*
X86461575Y-126669842D01*
X86591281Y-126855082D01*
X86591505Y-126855401D01*
X86758599Y-127022495D01*
X86855384Y-127090265D01*
X86952165Y-127158032D01*
X86952167Y-127158033D01*
X86952170Y-127158035D01*
X87166337Y-127257903D01*
X87394592Y-127319063D01*
X87571034Y-127334500D01*
X87629999Y-127339659D01*
X87630000Y-127339659D01*
X87630001Y-127339659D01*
X87688966Y-127334500D01*
X87865408Y-127319063D01*
X88093663Y-127257903D01*
X88307830Y-127158035D01*
X88501401Y-127022495D01*
X88668495Y-126855401D01*
X88798425Y-126669842D01*
X88853002Y-126626217D01*
X88922500Y-126619023D01*
X88984855Y-126650546D01*
X89001575Y-126669842D01*
X89131281Y-126855082D01*
X89131505Y-126855401D01*
X89298599Y-127022495D01*
X89395384Y-127090265D01*
X89492165Y-127158032D01*
X89492167Y-127158033D01*
X89492170Y-127158035D01*
X89706337Y-127257903D01*
X89934592Y-127319063D01*
X90111034Y-127334500D01*
X90169999Y-127339659D01*
X90170000Y-127339659D01*
X90170001Y-127339659D01*
X90228966Y-127334500D01*
X90405408Y-127319063D01*
X90633663Y-127257903D01*
X90847830Y-127158035D01*
X91041401Y-127022495D01*
X91208495Y-126855401D01*
X91338425Y-126669842D01*
X91393002Y-126626217D01*
X91462500Y-126619023D01*
X91524855Y-126650546D01*
X91541575Y-126669842D01*
X91671281Y-126855082D01*
X91671505Y-126855401D01*
X91838599Y-127022495D01*
X91935384Y-127090265D01*
X92032165Y-127158032D01*
X92032167Y-127158033D01*
X92032170Y-127158035D01*
X92246337Y-127257903D01*
X92474592Y-127319063D01*
X92651034Y-127334500D01*
X92709999Y-127339659D01*
X92710000Y-127339659D01*
X92710001Y-127339659D01*
X92768966Y-127334500D01*
X92945408Y-127319063D01*
X93173663Y-127257903D01*
X93387830Y-127158035D01*
X93581401Y-127022495D01*
X93748495Y-126855401D01*
X93878425Y-126669842D01*
X93933002Y-126626217D01*
X94002500Y-126619023D01*
X94064855Y-126650546D01*
X94081575Y-126669842D01*
X94211281Y-126855082D01*
X94211505Y-126855401D01*
X94378599Y-127022495D01*
X94475384Y-127090265D01*
X94572165Y-127158032D01*
X94572167Y-127158033D01*
X94572170Y-127158035D01*
X94786337Y-127257903D01*
X95014592Y-127319063D01*
X95191034Y-127334500D01*
X95249999Y-127339659D01*
X95250000Y-127339659D01*
X95250001Y-127339659D01*
X95308966Y-127334500D01*
X95485408Y-127319063D01*
X95713663Y-127257903D01*
X95927830Y-127158035D01*
X96121401Y-127022495D01*
X96288495Y-126855401D01*
X96418425Y-126669842D01*
X96473002Y-126626217D01*
X96542500Y-126619023D01*
X96604855Y-126650546D01*
X96621575Y-126669842D01*
X96751281Y-126855082D01*
X96751505Y-126855401D01*
X96918599Y-127022495D01*
X97015384Y-127090265D01*
X97112165Y-127158032D01*
X97112167Y-127158033D01*
X97112170Y-127158035D01*
X97326337Y-127257903D01*
X97554592Y-127319063D01*
X97731034Y-127334500D01*
X97789999Y-127339659D01*
X97790000Y-127339659D01*
X97790001Y-127339659D01*
X97848966Y-127334500D01*
X98025408Y-127319063D01*
X98253663Y-127257903D01*
X98467830Y-127158035D01*
X98661401Y-127022495D01*
X98828495Y-126855401D01*
X98958425Y-126669842D01*
X99013002Y-126626217D01*
X99082500Y-126619023D01*
X99144855Y-126650546D01*
X99161575Y-126669842D01*
X99291281Y-126855082D01*
X99291505Y-126855401D01*
X99458599Y-127022495D01*
X99555384Y-127090265D01*
X99652165Y-127158032D01*
X99652167Y-127158033D01*
X99652170Y-127158035D01*
X99866337Y-127257903D01*
X100094592Y-127319063D01*
X100271034Y-127334500D01*
X100329999Y-127339659D01*
X100330000Y-127339659D01*
X100330001Y-127339659D01*
X100388966Y-127334500D01*
X100565408Y-127319063D01*
X100793663Y-127257903D01*
X101007830Y-127158035D01*
X101201401Y-127022495D01*
X101323329Y-126900566D01*
X101384648Y-126867084D01*
X101454340Y-126872068D01*
X101510274Y-126913939D01*
X101527189Y-126944917D01*
X101576202Y-127076328D01*
X101576206Y-127076335D01*
X101662452Y-127191544D01*
X101662455Y-127191547D01*
X101777664Y-127277793D01*
X101777671Y-127277797D01*
X101912517Y-127328091D01*
X101912516Y-127328091D01*
X101919444Y-127328835D01*
X101972127Y-127334500D01*
X103767872Y-127334499D01*
X103827483Y-127328091D01*
X103962331Y-127277796D01*
X104077546Y-127191546D01*
X104163796Y-127076331D01*
X104214091Y-126941483D01*
X104220500Y-126881873D01*
X104220500Y-126234000D01*
X119065364Y-126234000D01*
X119122567Y-126447486D01*
X119122570Y-126447492D01*
X119222399Y-126661578D01*
X119357894Y-126855082D01*
X119524917Y-127022105D01*
X119718421Y-127157600D01*
X119932507Y-127257429D01*
X119932516Y-127257433D01*
X120146000Y-127314634D01*
X120146000Y-126417012D01*
X120203007Y-126449925D01*
X120330174Y-126484000D01*
X120461826Y-126484000D01*
X120588993Y-126449925D01*
X120646000Y-126417012D01*
X120646000Y-127314634D01*
X120859483Y-127257433D01*
X120859492Y-127257429D01*
X121073578Y-127157600D01*
X121267082Y-127022105D01*
X121434105Y-126855082D01*
X121564119Y-126669405D01*
X121618696Y-126625781D01*
X121688195Y-126618588D01*
X121750549Y-126650110D01*
X121767269Y-126669405D01*
X121897505Y-126855401D01*
X122064599Y-127022495D01*
X122161384Y-127090265D01*
X122258165Y-127158032D01*
X122258167Y-127158033D01*
X122258170Y-127158035D01*
X122472337Y-127257903D01*
X122700592Y-127319063D01*
X122877034Y-127334500D01*
X122935999Y-127339659D01*
X122936000Y-127339659D01*
X122936001Y-127339659D01*
X122994966Y-127334500D01*
X123171408Y-127319063D01*
X123399663Y-127257903D01*
X123613830Y-127158035D01*
X123807401Y-127022495D01*
X123974495Y-126855401D01*
X124104425Y-126669842D01*
X124159002Y-126626217D01*
X124228500Y-126619023D01*
X124290855Y-126650546D01*
X124307575Y-126669842D01*
X124437281Y-126855082D01*
X124437505Y-126855401D01*
X124604599Y-127022495D01*
X124701384Y-127090265D01*
X124798165Y-127158032D01*
X124798167Y-127158033D01*
X124798170Y-127158035D01*
X125012337Y-127257903D01*
X125240592Y-127319063D01*
X125417034Y-127334500D01*
X125475999Y-127339659D01*
X125476000Y-127339659D01*
X125476001Y-127339659D01*
X125534966Y-127334500D01*
X125711408Y-127319063D01*
X125939663Y-127257903D01*
X126153830Y-127158035D01*
X126347401Y-127022495D01*
X126514495Y-126855401D01*
X126644425Y-126669842D01*
X126699002Y-126626217D01*
X126768500Y-126619023D01*
X126830855Y-126650546D01*
X126847575Y-126669842D01*
X126977281Y-126855082D01*
X126977505Y-126855401D01*
X127144599Y-127022495D01*
X127241384Y-127090265D01*
X127338165Y-127158032D01*
X127338167Y-127158033D01*
X127338170Y-127158035D01*
X127552337Y-127257903D01*
X127780592Y-127319063D01*
X127957034Y-127334500D01*
X128015999Y-127339659D01*
X128016000Y-127339659D01*
X128016001Y-127339659D01*
X128074966Y-127334500D01*
X128251408Y-127319063D01*
X128479663Y-127257903D01*
X128693830Y-127158035D01*
X128887401Y-127022495D01*
X129054495Y-126855401D01*
X129184425Y-126669842D01*
X129239002Y-126626217D01*
X129308500Y-126619023D01*
X129370855Y-126650546D01*
X129387575Y-126669842D01*
X129517281Y-126855082D01*
X129517505Y-126855401D01*
X129684599Y-127022495D01*
X129781384Y-127090265D01*
X129878165Y-127158032D01*
X129878167Y-127158033D01*
X129878170Y-127158035D01*
X130092337Y-127257903D01*
X130320592Y-127319063D01*
X130497034Y-127334500D01*
X130555999Y-127339659D01*
X130556000Y-127339659D01*
X130556001Y-127339659D01*
X130614966Y-127334500D01*
X130791408Y-127319063D01*
X131019663Y-127257903D01*
X131233830Y-127158035D01*
X131427401Y-127022495D01*
X131594495Y-126855401D01*
X131724425Y-126669842D01*
X131779002Y-126626217D01*
X131848500Y-126619023D01*
X131910855Y-126650546D01*
X131927575Y-126669842D01*
X132057281Y-126855082D01*
X132057505Y-126855401D01*
X132224599Y-127022495D01*
X132321384Y-127090265D01*
X132418165Y-127158032D01*
X132418167Y-127158033D01*
X132418170Y-127158035D01*
X132632337Y-127257903D01*
X132860592Y-127319063D01*
X133037034Y-127334500D01*
X133095999Y-127339659D01*
X133096000Y-127339659D01*
X133096001Y-127339659D01*
X133154966Y-127334500D01*
X133331408Y-127319063D01*
X133559663Y-127257903D01*
X133773830Y-127158035D01*
X133967401Y-127022495D01*
X134134495Y-126855401D01*
X134264425Y-126669842D01*
X134319002Y-126626217D01*
X134388500Y-126619023D01*
X134450855Y-126650546D01*
X134467575Y-126669842D01*
X134597281Y-126855082D01*
X134597505Y-126855401D01*
X134764599Y-127022495D01*
X134861384Y-127090265D01*
X134958165Y-127158032D01*
X134958167Y-127158033D01*
X134958170Y-127158035D01*
X135172337Y-127257903D01*
X135400592Y-127319063D01*
X135577034Y-127334500D01*
X135635999Y-127339659D01*
X135636000Y-127339659D01*
X135636001Y-127339659D01*
X135694966Y-127334500D01*
X135871408Y-127319063D01*
X136099663Y-127257903D01*
X136313830Y-127158035D01*
X136507401Y-127022495D01*
X136674495Y-126855401D01*
X136804425Y-126669842D01*
X136859002Y-126626217D01*
X136928500Y-126619023D01*
X136990855Y-126650546D01*
X137007575Y-126669842D01*
X137137281Y-126855082D01*
X137137505Y-126855401D01*
X137304599Y-127022495D01*
X137401384Y-127090265D01*
X137498165Y-127158032D01*
X137498167Y-127158033D01*
X137498170Y-127158035D01*
X137712337Y-127257903D01*
X137940592Y-127319063D01*
X138117034Y-127334500D01*
X138175999Y-127339659D01*
X138176000Y-127339659D01*
X138176001Y-127339659D01*
X138234966Y-127334500D01*
X138411408Y-127319063D01*
X138639663Y-127257903D01*
X138853830Y-127158035D01*
X139047401Y-127022495D01*
X139169329Y-126900566D01*
X139230648Y-126867084D01*
X139300340Y-126872068D01*
X139356274Y-126913939D01*
X139373189Y-126944917D01*
X139422202Y-127076328D01*
X139422206Y-127076335D01*
X139508452Y-127191544D01*
X139508455Y-127191547D01*
X139623664Y-127277793D01*
X139623671Y-127277797D01*
X139758517Y-127328091D01*
X139758516Y-127328091D01*
X139765444Y-127328835D01*
X139818127Y-127334500D01*
X141613872Y-127334499D01*
X141673483Y-127328091D01*
X141808331Y-127277796D01*
X141923546Y-127191546D01*
X142009796Y-127076331D01*
X142060091Y-126941483D01*
X142066500Y-126881873D01*
X142066499Y-125086128D01*
X142060091Y-125026517D01*
X142058810Y-125023083D01*
X142009797Y-124891671D01*
X142009793Y-124891664D01*
X141923547Y-124776455D01*
X141923544Y-124776452D01*
X141808335Y-124690206D01*
X141808328Y-124690202D01*
X141673482Y-124639908D01*
X141673483Y-124639908D01*
X141613883Y-124633501D01*
X141613881Y-124633500D01*
X141613873Y-124633500D01*
X141613864Y-124633500D01*
X139818129Y-124633500D01*
X139818123Y-124633501D01*
X139758516Y-124639908D01*
X139623671Y-124690202D01*
X139623664Y-124690206D01*
X139508455Y-124776452D01*
X139508452Y-124776455D01*
X139422206Y-124891664D01*
X139422203Y-124891669D01*
X139373189Y-125023083D01*
X139331317Y-125079016D01*
X139265853Y-125103433D01*
X139197580Y-125088581D01*
X139169326Y-125067430D01*
X139047402Y-124945506D01*
X139047395Y-124945501D01*
X138853834Y-124809967D01*
X138853830Y-124809965D01*
X138853828Y-124809964D01*
X138639663Y-124710097D01*
X138639659Y-124710096D01*
X138639655Y-124710094D01*
X138411413Y-124648938D01*
X138411403Y-124648936D01*
X138176001Y-124628341D01*
X138175999Y-124628341D01*
X137940596Y-124648936D01*
X137940586Y-124648938D01*
X137712344Y-124710094D01*
X137712335Y-124710098D01*
X137498171Y-124809964D01*
X137498169Y-124809965D01*
X137304597Y-124945505D01*
X137137505Y-125112597D01*
X137007575Y-125298158D01*
X136952998Y-125341783D01*
X136883500Y-125348977D01*
X136821145Y-125317454D01*
X136804425Y-125298158D01*
X136674494Y-125112597D01*
X136507402Y-124945506D01*
X136507395Y-124945501D01*
X136313834Y-124809967D01*
X136313830Y-124809965D01*
X136313828Y-124809964D01*
X136099663Y-124710097D01*
X136099659Y-124710096D01*
X136099655Y-124710094D01*
X135871413Y-124648938D01*
X135871403Y-124648936D01*
X135636001Y-124628341D01*
X135635999Y-124628341D01*
X135400596Y-124648936D01*
X135400586Y-124648938D01*
X135172344Y-124710094D01*
X135172335Y-124710098D01*
X134958171Y-124809964D01*
X134958169Y-124809965D01*
X134764597Y-124945505D01*
X134597505Y-125112597D01*
X134467575Y-125298158D01*
X134412998Y-125341783D01*
X134343500Y-125348977D01*
X134281145Y-125317454D01*
X134264425Y-125298158D01*
X134134494Y-125112597D01*
X133967402Y-124945506D01*
X133967395Y-124945501D01*
X133773834Y-124809967D01*
X133773830Y-124809965D01*
X133773828Y-124809964D01*
X133559663Y-124710097D01*
X133559659Y-124710096D01*
X133559655Y-124710094D01*
X133331413Y-124648938D01*
X133331403Y-124648936D01*
X133096001Y-124628341D01*
X133095999Y-124628341D01*
X132860596Y-124648936D01*
X132860586Y-124648938D01*
X132632344Y-124710094D01*
X132632335Y-124710098D01*
X132418171Y-124809964D01*
X132418169Y-124809965D01*
X132224597Y-124945505D01*
X132057505Y-125112597D01*
X131927575Y-125298158D01*
X131872998Y-125341783D01*
X131803500Y-125348977D01*
X131741145Y-125317454D01*
X131724425Y-125298158D01*
X131594494Y-125112597D01*
X131427402Y-124945506D01*
X131427395Y-124945501D01*
X131233834Y-124809967D01*
X131233830Y-124809965D01*
X131233828Y-124809964D01*
X131019663Y-124710097D01*
X131019659Y-124710096D01*
X131019655Y-124710094D01*
X130791413Y-124648938D01*
X130791403Y-124648936D01*
X130556001Y-124628341D01*
X130555999Y-124628341D01*
X130320596Y-124648936D01*
X130320586Y-124648938D01*
X130092344Y-124710094D01*
X130092335Y-124710098D01*
X129878171Y-124809964D01*
X129878169Y-124809965D01*
X129684597Y-124945505D01*
X129517505Y-125112597D01*
X129387575Y-125298158D01*
X129332998Y-125341783D01*
X129263500Y-125348977D01*
X129201145Y-125317454D01*
X129184425Y-125298158D01*
X129054494Y-125112597D01*
X128887402Y-124945506D01*
X128887395Y-124945501D01*
X128693834Y-124809967D01*
X128693830Y-124809965D01*
X128693828Y-124809964D01*
X128479663Y-124710097D01*
X128479659Y-124710096D01*
X128479655Y-124710094D01*
X128251413Y-124648938D01*
X128251403Y-124648936D01*
X128016001Y-124628341D01*
X128015999Y-124628341D01*
X127780596Y-124648936D01*
X127780586Y-124648938D01*
X127552344Y-124710094D01*
X127552335Y-124710098D01*
X127338171Y-124809964D01*
X127338169Y-124809965D01*
X127144597Y-124945505D01*
X126977505Y-125112597D01*
X126847575Y-125298158D01*
X126792998Y-125341783D01*
X126723500Y-125348977D01*
X126661145Y-125317454D01*
X126644425Y-125298158D01*
X126514494Y-125112597D01*
X126347402Y-124945506D01*
X126347395Y-124945501D01*
X126153834Y-124809967D01*
X126153830Y-124809965D01*
X126153828Y-124809964D01*
X125939663Y-124710097D01*
X125939659Y-124710096D01*
X125939655Y-124710094D01*
X125711413Y-124648938D01*
X125711403Y-124648936D01*
X125476001Y-124628341D01*
X125475999Y-124628341D01*
X125240596Y-124648936D01*
X125240586Y-124648938D01*
X125012344Y-124710094D01*
X125012335Y-124710098D01*
X124798171Y-124809964D01*
X124798169Y-124809965D01*
X124604597Y-124945505D01*
X124437505Y-125112597D01*
X124307575Y-125298158D01*
X124252998Y-125341783D01*
X124183500Y-125348977D01*
X124121145Y-125317454D01*
X124104425Y-125298158D01*
X123974494Y-125112597D01*
X123807402Y-124945506D01*
X123807395Y-124945501D01*
X123613834Y-124809967D01*
X123613830Y-124809965D01*
X123613828Y-124809964D01*
X123399663Y-124710097D01*
X123399659Y-124710096D01*
X123399655Y-124710094D01*
X123171413Y-124648938D01*
X123171403Y-124648936D01*
X122936001Y-124628341D01*
X122935999Y-124628341D01*
X122700596Y-124648936D01*
X122700586Y-124648938D01*
X122472344Y-124710094D01*
X122472335Y-124710098D01*
X122258171Y-124809964D01*
X122258169Y-124809965D01*
X122064597Y-124945505D01*
X121897508Y-125112594D01*
X121767269Y-125298595D01*
X121712692Y-125342219D01*
X121643193Y-125349412D01*
X121580839Y-125317890D01*
X121564119Y-125298594D01*
X121434113Y-125112926D01*
X121434108Y-125112920D01*
X121267082Y-124945894D01*
X121073578Y-124810399D01*
X120859492Y-124710570D01*
X120859486Y-124710567D01*
X120646000Y-124653364D01*
X120646000Y-125550988D01*
X120588993Y-125518075D01*
X120461826Y-125484000D01*
X120330174Y-125484000D01*
X120203007Y-125518075D01*
X120146000Y-125550988D01*
X120146000Y-124653364D01*
X120145999Y-124653364D01*
X119932513Y-124710567D01*
X119932507Y-124710570D01*
X119718422Y-124810399D01*
X119718420Y-124810400D01*
X119524926Y-124945886D01*
X119524920Y-124945891D01*
X119357891Y-125112920D01*
X119357886Y-125112926D01*
X119222400Y-125306420D01*
X119222399Y-125306422D01*
X119122570Y-125520507D01*
X119122567Y-125520513D01*
X119065364Y-125733999D01*
X119065364Y-125734000D01*
X119962988Y-125734000D01*
X119930075Y-125791007D01*
X119896000Y-125918174D01*
X119896000Y-126049826D01*
X119930075Y-126176993D01*
X119962988Y-126234000D01*
X119065364Y-126234000D01*
X104220500Y-126234000D01*
X104220499Y-125086128D01*
X104214091Y-125026517D01*
X104212810Y-125023083D01*
X104163797Y-124891671D01*
X104163793Y-124891664D01*
X104077547Y-124776455D01*
X104077544Y-124776452D01*
X103962335Y-124690206D01*
X103962328Y-124690202D01*
X103827482Y-124639908D01*
X103827483Y-124639908D01*
X103767883Y-124633501D01*
X103767881Y-124633500D01*
X103767873Y-124633500D01*
X103767864Y-124633500D01*
X101972129Y-124633500D01*
X101972123Y-124633501D01*
X101912516Y-124639908D01*
X101777671Y-124690202D01*
X101777664Y-124690206D01*
X101662455Y-124776452D01*
X101662452Y-124776455D01*
X101576206Y-124891664D01*
X101576203Y-124891669D01*
X101527189Y-125023083D01*
X101485317Y-125079016D01*
X101419853Y-125103433D01*
X101351580Y-125088581D01*
X101323326Y-125067430D01*
X101201402Y-124945506D01*
X101201395Y-124945501D01*
X101007834Y-124809967D01*
X101007830Y-124809965D01*
X101007828Y-124809964D01*
X100793663Y-124710097D01*
X100793659Y-124710096D01*
X100793655Y-124710094D01*
X100565413Y-124648938D01*
X100565403Y-124648936D01*
X100330001Y-124628341D01*
X100329999Y-124628341D01*
X100094596Y-124648936D01*
X100094586Y-124648938D01*
X99866344Y-124710094D01*
X99866335Y-124710098D01*
X99652171Y-124809964D01*
X99652169Y-124809965D01*
X99458597Y-124945505D01*
X99291505Y-125112597D01*
X99161575Y-125298158D01*
X99106998Y-125341783D01*
X99037500Y-125348977D01*
X98975145Y-125317454D01*
X98958425Y-125298158D01*
X98828494Y-125112597D01*
X98661402Y-124945506D01*
X98661395Y-124945501D01*
X98467834Y-124809967D01*
X98467830Y-124809965D01*
X98467828Y-124809964D01*
X98253663Y-124710097D01*
X98253659Y-124710096D01*
X98253655Y-124710094D01*
X98025413Y-124648938D01*
X98025403Y-124648936D01*
X97790001Y-124628341D01*
X97789999Y-124628341D01*
X97554596Y-124648936D01*
X97554586Y-124648938D01*
X97326344Y-124710094D01*
X97326335Y-124710098D01*
X97112171Y-124809964D01*
X97112169Y-124809965D01*
X96918597Y-124945505D01*
X96751505Y-125112597D01*
X96621575Y-125298158D01*
X96566998Y-125341783D01*
X96497500Y-125348977D01*
X96435145Y-125317454D01*
X96418425Y-125298158D01*
X96288494Y-125112597D01*
X96121402Y-124945506D01*
X96121395Y-124945501D01*
X95927834Y-124809967D01*
X95927830Y-124809965D01*
X95927828Y-124809964D01*
X95713663Y-124710097D01*
X95713659Y-124710096D01*
X95713655Y-124710094D01*
X95485413Y-124648938D01*
X95485403Y-124648936D01*
X95250001Y-124628341D01*
X95249999Y-124628341D01*
X95014596Y-124648936D01*
X95014586Y-124648938D01*
X94786344Y-124710094D01*
X94786335Y-124710098D01*
X94572171Y-124809964D01*
X94572169Y-124809965D01*
X94378597Y-124945505D01*
X94211505Y-125112597D01*
X94081575Y-125298158D01*
X94026998Y-125341783D01*
X93957500Y-125348977D01*
X93895145Y-125317454D01*
X93878425Y-125298158D01*
X93748494Y-125112597D01*
X93581402Y-124945506D01*
X93581395Y-124945501D01*
X93387834Y-124809967D01*
X93387830Y-124809965D01*
X93387828Y-124809964D01*
X93173663Y-124710097D01*
X93173659Y-124710096D01*
X93173655Y-124710094D01*
X92945413Y-124648938D01*
X92945403Y-124648936D01*
X92710001Y-124628341D01*
X92709999Y-124628341D01*
X92474596Y-124648936D01*
X92474586Y-124648938D01*
X92246344Y-124710094D01*
X92246335Y-124710098D01*
X92032171Y-124809964D01*
X92032169Y-124809965D01*
X91838597Y-124945505D01*
X91671505Y-125112597D01*
X91541575Y-125298158D01*
X91486998Y-125341783D01*
X91417500Y-125348977D01*
X91355145Y-125317454D01*
X91338425Y-125298158D01*
X91208494Y-125112597D01*
X91041402Y-124945506D01*
X91041395Y-124945501D01*
X90847834Y-124809967D01*
X90847830Y-124809965D01*
X90847828Y-124809964D01*
X90633663Y-124710097D01*
X90633659Y-124710096D01*
X90633655Y-124710094D01*
X90405413Y-124648938D01*
X90405403Y-124648936D01*
X90170001Y-124628341D01*
X90169999Y-124628341D01*
X89934596Y-124648936D01*
X89934586Y-124648938D01*
X89706344Y-124710094D01*
X89706335Y-124710098D01*
X89492171Y-124809964D01*
X89492169Y-124809965D01*
X89298597Y-124945505D01*
X89131505Y-125112597D01*
X89001575Y-125298158D01*
X88946998Y-125341783D01*
X88877500Y-125348977D01*
X88815145Y-125317454D01*
X88798425Y-125298158D01*
X88668494Y-125112597D01*
X88501402Y-124945506D01*
X88501395Y-124945501D01*
X88307834Y-124809967D01*
X88307830Y-124809965D01*
X88307828Y-124809964D01*
X88093663Y-124710097D01*
X88093659Y-124710096D01*
X88093655Y-124710094D01*
X87865413Y-124648938D01*
X87865403Y-124648936D01*
X87630001Y-124628341D01*
X87629999Y-124628341D01*
X87394596Y-124648936D01*
X87394586Y-124648938D01*
X87166344Y-124710094D01*
X87166335Y-124710098D01*
X86952171Y-124809964D01*
X86952169Y-124809965D01*
X86758597Y-124945505D01*
X86591505Y-125112597D01*
X86461575Y-125298158D01*
X86406998Y-125341783D01*
X86337500Y-125348977D01*
X86275145Y-125317454D01*
X86258425Y-125298158D01*
X86128494Y-125112597D01*
X85961402Y-124945506D01*
X85961395Y-124945501D01*
X85767834Y-124809967D01*
X85767830Y-124809965D01*
X85767828Y-124809964D01*
X85553663Y-124710097D01*
X85553659Y-124710096D01*
X85553655Y-124710094D01*
X85325413Y-124648938D01*
X85325403Y-124648936D01*
X85090001Y-124628341D01*
X85089999Y-124628341D01*
X84854596Y-124648936D01*
X84854586Y-124648938D01*
X84626344Y-124710094D01*
X84626335Y-124710098D01*
X84412171Y-124809964D01*
X84412169Y-124809965D01*
X84218597Y-124945505D01*
X84051508Y-125112594D01*
X83921269Y-125298595D01*
X83866692Y-125342219D01*
X83797193Y-125349412D01*
X83734839Y-125317890D01*
X83718119Y-125298594D01*
X83588113Y-125112926D01*
X83588108Y-125112920D01*
X83421082Y-124945894D01*
X83227578Y-124810399D01*
X83013492Y-124710570D01*
X83013486Y-124710567D01*
X82800000Y-124653364D01*
X82800000Y-125550988D01*
X82742993Y-125518075D01*
X82615826Y-125484000D01*
X82484174Y-125484000D01*
X82357007Y-125518075D01*
X82300000Y-125550988D01*
X82300000Y-124653364D01*
X82299999Y-124653364D01*
X82086513Y-124710567D01*
X82086507Y-124710570D01*
X81872422Y-124810399D01*
X81872420Y-124810400D01*
X81678926Y-124945886D01*
X81678920Y-124945891D01*
X81511891Y-125112920D01*
X81511886Y-125112926D01*
X81376400Y-125306420D01*
X81376399Y-125306422D01*
X81276570Y-125520507D01*
X81276567Y-125520513D01*
X81219364Y-125733999D01*
X81219364Y-125734000D01*
X82116988Y-125734000D01*
X82084075Y-125791007D01*
X82050000Y-125918174D01*
X82050000Y-126049826D01*
X82084075Y-126176993D01*
X82116988Y-126234000D01*
X81219364Y-126234000D01*
X74967500Y-126234000D01*
X74967500Y-121230000D01*
X88928179Y-121230000D01*
X88947424Y-121449976D01*
X88947426Y-121449986D01*
X89004575Y-121663270D01*
X89004580Y-121663284D01*
X89097898Y-121863405D01*
X89097901Y-121863411D01*
X89143258Y-121928187D01*
X89143259Y-121928188D01*
X89814000Y-121257447D01*
X89814000Y-121280160D01*
X89839964Y-121377061D01*
X89890124Y-121463940D01*
X89961060Y-121534876D01*
X90047939Y-121585036D01*
X90144840Y-121611000D01*
X90167553Y-121611000D01*
X89496810Y-122281740D01*
X89561590Y-122327099D01*
X89561592Y-122327100D01*
X89761715Y-122420419D01*
X89761729Y-122420424D01*
X89975013Y-122477573D01*
X89975023Y-122477575D01*
X90194999Y-122496821D01*
X90195001Y-122496821D01*
X90414976Y-122477575D01*
X90414986Y-122477573D01*
X90628270Y-122420424D01*
X90628284Y-122420419D01*
X90828407Y-122327100D01*
X90828417Y-122327094D01*
X90893188Y-122281741D01*
X90222448Y-121611000D01*
X90245160Y-121611000D01*
X90342061Y-121585036D01*
X90428940Y-121534876D01*
X90499876Y-121463940D01*
X90550036Y-121377061D01*
X90576000Y-121280160D01*
X90576000Y-121257447D01*
X91246741Y-121928188D01*
X91292094Y-121863417D01*
X91292095Y-121863416D01*
X91352340Y-121734219D01*
X91398512Y-121681780D01*
X91465706Y-121662627D01*
X91532587Y-121682842D01*
X91577105Y-121734218D01*
X91637466Y-121863662D01*
X91637468Y-121863666D01*
X91764170Y-122044615D01*
X91764175Y-122044621D01*
X91920378Y-122200824D01*
X91920384Y-122200829D01*
X92101333Y-122327531D01*
X92101335Y-122327532D01*
X92101338Y-122327534D01*
X92301550Y-122420894D01*
X92514932Y-122478070D01*
X92672123Y-122491822D01*
X92734998Y-122497323D01*
X92735000Y-122497323D01*
X92735002Y-122497323D01*
X92790017Y-122492509D01*
X92955068Y-122478070D01*
X93168450Y-122420894D01*
X93368662Y-122327534D01*
X93549620Y-122200826D01*
X93705826Y-122044620D01*
X93832534Y-121863662D01*
X93892618Y-121734811D01*
X93938790Y-121682371D01*
X94005983Y-121663219D01*
X94072865Y-121683435D01*
X94117382Y-121734811D01*
X94177464Y-121863658D01*
X94177468Y-121863666D01*
X94304170Y-122044615D01*
X94304175Y-122044621D01*
X94460378Y-122200824D01*
X94460384Y-122200829D01*
X94641333Y-122327531D01*
X94641335Y-122327532D01*
X94641338Y-122327534D01*
X94841550Y-122420894D01*
X95054932Y-122478070D01*
X95212123Y-122491822D01*
X95274998Y-122497323D01*
X95275000Y-122497323D01*
X95275002Y-122497323D01*
X95330017Y-122492509D01*
X95495068Y-122478070D01*
X95708450Y-122420894D01*
X95908662Y-122327534D01*
X96089620Y-122200826D01*
X96245826Y-122044620D01*
X96372534Y-121863662D01*
X96432618Y-121734811D01*
X96478790Y-121682371D01*
X96545983Y-121663219D01*
X96612865Y-121683435D01*
X96657382Y-121734811D01*
X96717464Y-121863658D01*
X96717468Y-121863666D01*
X96844170Y-122044615D01*
X96844175Y-122044621D01*
X97000378Y-122200824D01*
X97000384Y-122200829D01*
X97181333Y-122327531D01*
X97181335Y-122327532D01*
X97181338Y-122327534D01*
X97381550Y-122420894D01*
X97594932Y-122478070D01*
X97752123Y-122491822D01*
X97814998Y-122497323D01*
X97815000Y-122497323D01*
X97815002Y-122497323D01*
X97870017Y-122492509D01*
X98035068Y-122478070D01*
X98248450Y-122420894D01*
X98448662Y-122327534D01*
X98629620Y-122200826D01*
X98785826Y-122044620D01*
X98912534Y-121863662D01*
X98972618Y-121734811D01*
X99018790Y-121682371D01*
X99085983Y-121663219D01*
X99152865Y-121683435D01*
X99197382Y-121734811D01*
X99257464Y-121863658D01*
X99257468Y-121863666D01*
X99384170Y-122044615D01*
X99384175Y-122044621D01*
X99540378Y-122200824D01*
X99540384Y-122200829D01*
X99721333Y-122327531D01*
X99721335Y-122327532D01*
X99721338Y-122327534D01*
X99921550Y-122420894D01*
X100134932Y-122478070D01*
X100292123Y-122491822D01*
X100354998Y-122497323D01*
X100355000Y-122497323D01*
X100355002Y-122497323D01*
X100410017Y-122492509D01*
X100575068Y-122478070D01*
X100788450Y-122420894D01*
X100988662Y-122327534D01*
X101169620Y-122200826D01*
X101325826Y-122044620D01*
X101452534Y-121863662D01*
X101512618Y-121734811D01*
X101558790Y-121682371D01*
X101625983Y-121663219D01*
X101692865Y-121683435D01*
X101737382Y-121734811D01*
X101797464Y-121863658D01*
X101797468Y-121863666D01*
X101924170Y-122044615D01*
X101924175Y-122044621D01*
X102080378Y-122200824D01*
X102080384Y-122200829D01*
X102261333Y-122327531D01*
X102261335Y-122327532D01*
X102261338Y-122327534D01*
X102461550Y-122420894D01*
X102674932Y-122478070D01*
X102832123Y-122491822D01*
X102894998Y-122497323D01*
X102895000Y-122497323D01*
X102895002Y-122497323D01*
X102950017Y-122492509D01*
X103115068Y-122478070D01*
X103328450Y-122420894D01*
X103528662Y-122327534D01*
X103709620Y-122200826D01*
X103865826Y-122044620D01*
X103992534Y-121863662D01*
X104052618Y-121734811D01*
X104098790Y-121682371D01*
X104165983Y-121663219D01*
X104232865Y-121683435D01*
X104277382Y-121734811D01*
X104337464Y-121863658D01*
X104337468Y-121863666D01*
X104464170Y-122044615D01*
X104464175Y-122044621D01*
X104620378Y-122200824D01*
X104620384Y-122200829D01*
X104801333Y-122327531D01*
X104801335Y-122327532D01*
X104801338Y-122327534D01*
X105001550Y-122420894D01*
X105214932Y-122478070D01*
X105372123Y-122491822D01*
X105434998Y-122497323D01*
X105435000Y-122497323D01*
X105435002Y-122497323D01*
X105490017Y-122492509D01*
X105655068Y-122478070D01*
X105868450Y-122420894D01*
X106068662Y-122327534D01*
X106249620Y-122200826D01*
X106405826Y-122044620D01*
X106532534Y-121863662D01*
X106592618Y-121734811D01*
X106638790Y-121682371D01*
X106705983Y-121663219D01*
X106772865Y-121683435D01*
X106817382Y-121734811D01*
X106877464Y-121863658D01*
X106877468Y-121863666D01*
X107004170Y-122044615D01*
X107004175Y-122044621D01*
X107160378Y-122200824D01*
X107160384Y-122200829D01*
X107341333Y-122327531D01*
X107341335Y-122327532D01*
X107341338Y-122327534D01*
X107541550Y-122420894D01*
X107754932Y-122478070D01*
X107912123Y-122491822D01*
X107974998Y-122497323D01*
X107975000Y-122497323D01*
X107975002Y-122497323D01*
X108030017Y-122492509D01*
X108195068Y-122478070D01*
X108408450Y-122420894D01*
X108608662Y-122327534D01*
X108789620Y-122200826D01*
X108945826Y-122044620D01*
X109072534Y-121863662D01*
X109132618Y-121734811D01*
X109178790Y-121682371D01*
X109245983Y-121663219D01*
X109312865Y-121683435D01*
X109357382Y-121734811D01*
X109417464Y-121863658D01*
X109417468Y-121863666D01*
X109544170Y-122044615D01*
X109544175Y-122044621D01*
X109700378Y-122200824D01*
X109700384Y-122200829D01*
X109881333Y-122327531D01*
X109881335Y-122327532D01*
X109881338Y-122327534D01*
X110081550Y-122420894D01*
X110294932Y-122478070D01*
X110452123Y-122491822D01*
X110514998Y-122497323D01*
X110515000Y-122497323D01*
X110515002Y-122497323D01*
X110570017Y-122492509D01*
X110735068Y-122478070D01*
X110948450Y-122420894D01*
X111148662Y-122327534D01*
X111329620Y-122200826D01*
X111485826Y-122044620D01*
X111612534Y-121863662D01*
X111705894Y-121663450D01*
X111763070Y-121450068D01*
X111782323Y-121230002D01*
X127027677Y-121230002D01*
X127046929Y-121450062D01*
X127046930Y-121450070D01*
X127104104Y-121663445D01*
X127104105Y-121663447D01*
X127104106Y-121663450D01*
X127137106Y-121734218D01*
X127197466Y-121863662D01*
X127197468Y-121863666D01*
X127324170Y-122044615D01*
X127324175Y-122044621D01*
X127480378Y-122200824D01*
X127480384Y-122200829D01*
X127661333Y-122327531D01*
X127661335Y-122327532D01*
X127661338Y-122327534D01*
X127861550Y-122420894D01*
X128074932Y-122478070D01*
X128232123Y-122491822D01*
X128294998Y-122497323D01*
X128295000Y-122497323D01*
X128295002Y-122497323D01*
X128350017Y-122492509D01*
X128515068Y-122478070D01*
X128728450Y-122420894D01*
X128928662Y-122327534D01*
X129109620Y-122200826D01*
X129265826Y-122044620D01*
X129392534Y-121863662D01*
X129452618Y-121734811D01*
X129498790Y-121682371D01*
X129565983Y-121663219D01*
X129632865Y-121683435D01*
X129677382Y-121734811D01*
X129737464Y-121863658D01*
X129737468Y-121863666D01*
X129864170Y-122044615D01*
X129864175Y-122044621D01*
X130020378Y-122200824D01*
X130020384Y-122200829D01*
X130201333Y-122327531D01*
X130201335Y-122327532D01*
X130201338Y-122327534D01*
X130401550Y-122420894D01*
X130614932Y-122478070D01*
X130772123Y-122491822D01*
X130834998Y-122497323D01*
X130835000Y-122497323D01*
X130835002Y-122497323D01*
X130890017Y-122492509D01*
X131055068Y-122478070D01*
X131268450Y-122420894D01*
X131468662Y-122327534D01*
X131649620Y-122200826D01*
X131805826Y-122044620D01*
X131932534Y-121863662D01*
X131992618Y-121734811D01*
X132038790Y-121682371D01*
X132105983Y-121663219D01*
X132172865Y-121683435D01*
X132217382Y-121734811D01*
X132277464Y-121863658D01*
X132277468Y-121863666D01*
X132404170Y-122044615D01*
X132404175Y-122044621D01*
X132560378Y-122200824D01*
X132560384Y-122200829D01*
X132741333Y-122327531D01*
X132741335Y-122327532D01*
X132741338Y-122327534D01*
X132941550Y-122420894D01*
X133154932Y-122478070D01*
X133312123Y-122491822D01*
X133374998Y-122497323D01*
X133375000Y-122497323D01*
X133375002Y-122497323D01*
X133430017Y-122492509D01*
X133595068Y-122478070D01*
X133808450Y-122420894D01*
X134008662Y-122327534D01*
X134189620Y-122200826D01*
X134345826Y-122044620D01*
X134472534Y-121863662D01*
X134532618Y-121734811D01*
X134578790Y-121682371D01*
X134645983Y-121663219D01*
X134712865Y-121683435D01*
X134757382Y-121734811D01*
X134817464Y-121863658D01*
X134817468Y-121863666D01*
X134944170Y-122044615D01*
X134944175Y-122044621D01*
X135100378Y-122200824D01*
X135100384Y-122200829D01*
X135281333Y-122327531D01*
X135281335Y-122327532D01*
X135281338Y-122327534D01*
X135481550Y-122420894D01*
X135694932Y-122478070D01*
X135852123Y-122491822D01*
X135914998Y-122497323D01*
X135915000Y-122497323D01*
X135915002Y-122497323D01*
X135970017Y-122492509D01*
X136135068Y-122478070D01*
X136348450Y-122420894D01*
X136548662Y-122327534D01*
X136729620Y-122200826D01*
X136885826Y-122044620D01*
X137012534Y-121863662D01*
X137072618Y-121734811D01*
X137118790Y-121682371D01*
X137185983Y-121663219D01*
X137252865Y-121683435D01*
X137297382Y-121734811D01*
X137357464Y-121863658D01*
X137357468Y-121863666D01*
X137484170Y-122044615D01*
X137484175Y-122044621D01*
X137640378Y-122200824D01*
X137640384Y-122200829D01*
X137821333Y-122327531D01*
X137821335Y-122327532D01*
X137821338Y-122327534D01*
X138021550Y-122420894D01*
X138234932Y-122478070D01*
X138392123Y-122491822D01*
X138454998Y-122497323D01*
X138455000Y-122497323D01*
X138455002Y-122497323D01*
X138510017Y-122492509D01*
X138675068Y-122478070D01*
X138888450Y-122420894D01*
X139088662Y-122327534D01*
X139269620Y-122200826D01*
X139425826Y-122044620D01*
X139552534Y-121863662D01*
X139612618Y-121734811D01*
X139658790Y-121682371D01*
X139725983Y-121663219D01*
X139792865Y-121683435D01*
X139837382Y-121734811D01*
X139897464Y-121863658D01*
X139897468Y-121863666D01*
X140024170Y-122044615D01*
X140024175Y-122044621D01*
X140180378Y-122200824D01*
X140180384Y-122200829D01*
X140361333Y-122327531D01*
X140361335Y-122327532D01*
X140361338Y-122327534D01*
X140561550Y-122420894D01*
X140774932Y-122478070D01*
X140932123Y-122491822D01*
X140994998Y-122497323D01*
X140995000Y-122497323D01*
X140995002Y-122497323D01*
X141050017Y-122492509D01*
X141215068Y-122478070D01*
X141428450Y-122420894D01*
X141628662Y-122327534D01*
X141809620Y-122200826D01*
X141965826Y-122044620D01*
X142092534Y-121863662D01*
X142152618Y-121734811D01*
X142198790Y-121682371D01*
X142265983Y-121663219D01*
X142332865Y-121683435D01*
X142377382Y-121734811D01*
X142437464Y-121863658D01*
X142437468Y-121863666D01*
X142564170Y-122044615D01*
X142564175Y-122044621D01*
X142720378Y-122200824D01*
X142720384Y-122200829D01*
X142901333Y-122327531D01*
X142901335Y-122327532D01*
X142901338Y-122327534D01*
X143101550Y-122420894D01*
X143314932Y-122478070D01*
X143472123Y-122491822D01*
X143534998Y-122497323D01*
X143535000Y-122497323D01*
X143535002Y-122497323D01*
X143590017Y-122492509D01*
X143755068Y-122478070D01*
X143968450Y-122420894D01*
X144168662Y-122327534D01*
X144349620Y-122200826D01*
X144505826Y-122044620D01*
X144632534Y-121863662D01*
X144692618Y-121734811D01*
X144738790Y-121682371D01*
X144805983Y-121663219D01*
X144872865Y-121683435D01*
X144917382Y-121734811D01*
X144977464Y-121863658D01*
X144977468Y-121863666D01*
X145104170Y-122044615D01*
X145104175Y-122044621D01*
X145260378Y-122200824D01*
X145260384Y-122200829D01*
X145441333Y-122327531D01*
X145441335Y-122327532D01*
X145441338Y-122327534D01*
X145641550Y-122420894D01*
X145854932Y-122478070D01*
X146012123Y-122491822D01*
X146074998Y-122497323D01*
X146075000Y-122497323D01*
X146075002Y-122497323D01*
X146130017Y-122492509D01*
X146295068Y-122478070D01*
X146508450Y-122420894D01*
X146708662Y-122327534D01*
X146889620Y-122200826D01*
X147045826Y-122044620D01*
X147172534Y-121863662D01*
X147232618Y-121734811D01*
X147278790Y-121682371D01*
X147345983Y-121663219D01*
X147412865Y-121683435D01*
X147457382Y-121734811D01*
X147517464Y-121863658D01*
X147517468Y-121863666D01*
X147644170Y-122044615D01*
X147644175Y-122044621D01*
X147800378Y-122200824D01*
X147800384Y-122200829D01*
X147981333Y-122327531D01*
X147981335Y-122327532D01*
X147981338Y-122327534D01*
X148181550Y-122420894D01*
X148394932Y-122478070D01*
X148552123Y-122491822D01*
X148614998Y-122497323D01*
X148615000Y-122497323D01*
X148615002Y-122497323D01*
X148670017Y-122492509D01*
X148835068Y-122478070D01*
X149048450Y-122420894D01*
X149248662Y-122327534D01*
X149429620Y-122200826D01*
X149585826Y-122044620D01*
X149712534Y-121863662D01*
X149805894Y-121663450D01*
X149863070Y-121450068D01*
X149882323Y-121230000D01*
X149863070Y-121009932D01*
X149805894Y-120796550D01*
X149712534Y-120596339D01*
X149585826Y-120415380D01*
X149429620Y-120259174D01*
X149429616Y-120259171D01*
X149429615Y-120259170D01*
X149248666Y-120132468D01*
X149248662Y-120132466D01*
X149248660Y-120132465D01*
X149048450Y-120039106D01*
X149048447Y-120039105D01*
X149048445Y-120039104D01*
X148835070Y-119981930D01*
X148835062Y-119981929D01*
X148615002Y-119962677D01*
X148614998Y-119962677D01*
X148394937Y-119981929D01*
X148394929Y-119981930D01*
X148181554Y-120039104D01*
X148181548Y-120039107D01*
X147981340Y-120132465D01*
X147981338Y-120132466D01*
X147800377Y-120259175D01*
X147644175Y-120415377D01*
X147517466Y-120596338D01*
X147517465Y-120596340D01*
X147457382Y-120725189D01*
X147411209Y-120777628D01*
X147344016Y-120796780D01*
X147277135Y-120776564D01*
X147232618Y-120725189D01*
X147172651Y-120596590D01*
X147172534Y-120596339D01*
X147045826Y-120415380D01*
X146889620Y-120259174D01*
X146889616Y-120259171D01*
X146889615Y-120259170D01*
X146708666Y-120132468D01*
X146708662Y-120132466D01*
X146708660Y-120132465D01*
X146508450Y-120039106D01*
X146508447Y-120039105D01*
X146508445Y-120039104D01*
X146295070Y-119981930D01*
X146295062Y-119981929D01*
X146075002Y-119962677D01*
X146074998Y-119962677D01*
X145854937Y-119981929D01*
X145854929Y-119981930D01*
X145641554Y-120039104D01*
X145641548Y-120039107D01*
X145441340Y-120132465D01*
X145441338Y-120132466D01*
X145260377Y-120259175D01*
X145104175Y-120415377D01*
X144977466Y-120596338D01*
X144977465Y-120596340D01*
X144917382Y-120725189D01*
X144871209Y-120777628D01*
X144804016Y-120796780D01*
X144737135Y-120776564D01*
X144692618Y-120725189D01*
X144632651Y-120596590D01*
X144632534Y-120596339D01*
X144505826Y-120415380D01*
X144349620Y-120259174D01*
X144349616Y-120259171D01*
X144349615Y-120259170D01*
X144168666Y-120132468D01*
X144168662Y-120132466D01*
X144168660Y-120132465D01*
X143968450Y-120039106D01*
X143968447Y-120039105D01*
X143968445Y-120039104D01*
X143755070Y-119981930D01*
X143755062Y-119981929D01*
X143535002Y-119962677D01*
X143534998Y-119962677D01*
X143314937Y-119981929D01*
X143314929Y-119981930D01*
X143101554Y-120039104D01*
X143101548Y-120039107D01*
X142901340Y-120132465D01*
X142901338Y-120132466D01*
X142720377Y-120259175D01*
X142564175Y-120415377D01*
X142437466Y-120596338D01*
X142437465Y-120596340D01*
X142377382Y-120725189D01*
X142331209Y-120777628D01*
X142264016Y-120796780D01*
X142197135Y-120776564D01*
X142152618Y-120725189D01*
X142092651Y-120596590D01*
X142092534Y-120596339D01*
X141965826Y-120415380D01*
X141809620Y-120259174D01*
X141809616Y-120259171D01*
X141809615Y-120259170D01*
X141628666Y-120132468D01*
X141628662Y-120132466D01*
X141628660Y-120132465D01*
X141428450Y-120039106D01*
X141428447Y-120039105D01*
X141428445Y-120039104D01*
X141215070Y-119981930D01*
X141215062Y-119981929D01*
X140995002Y-119962677D01*
X140994998Y-119962677D01*
X140774937Y-119981929D01*
X140774929Y-119981930D01*
X140561554Y-120039104D01*
X140561548Y-120039107D01*
X140361340Y-120132465D01*
X140361338Y-120132466D01*
X140180377Y-120259175D01*
X140024175Y-120415377D01*
X139897466Y-120596338D01*
X139897465Y-120596340D01*
X139837382Y-120725189D01*
X139791209Y-120777628D01*
X139724016Y-120796780D01*
X139657135Y-120776564D01*
X139612618Y-120725189D01*
X139552651Y-120596590D01*
X139552534Y-120596339D01*
X139425826Y-120415380D01*
X139269620Y-120259174D01*
X139269616Y-120259171D01*
X139269615Y-120259170D01*
X139088666Y-120132468D01*
X139088662Y-120132466D01*
X139088660Y-120132465D01*
X138888450Y-120039106D01*
X138888447Y-120039105D01*
X138888445Y-120039104D01*
X138675070Y-119981930D01*
X138675062Y-119981929D01*
X138455002Y-119962677D01*
X138454998Y-119962677D01*
X138234937Y-119981929D01*
X138234929Y-119981930D01*
X138021554Y-120039104D01*
X138021548Y-120039107D01*
X137821340Y-120132465D01*
X137821338Y-120132466D01*
X137640377Y-120259175D01*
X137484175Y-120415377D01*
X137357466Y-120596338D01*
X137357465Y-120596340D01*
X137297382Y-120725189D01*
X137251209Y-120777628D01*
X137184016Y-120796780D01*
X137117135Y-120776564D01*
X137072618Y-120725189D01*
X137012651Y-120596590D01*
X137012534Y-120596339D01*
X136885826Y-120415380D01*
X136729620Y-120259174D01*
X136729616Y-120259171D01*
X136729615Y-120259170D01*
X136548666Y-120132468D01*
X136548662Y-120132466D01*
X136548660Y-120132465D01*
X136348450Y-120039106D01*
X136348447Y-120039105D01*
X136348445Y-120039104D01*
X136135070Y-119981930D01*
X136135062Y-119981929D01*
X135915002Y-119962677D01*
X135914998Y-119962677D01*
X135694937Y-119981929D01*
X135694929Y-119981930D01*
X135481554Y-120039104D01*
X135481548Y-120039107D01*
X135281340Y-120132465D01*
X135281338Y-120132466D01*
X135100377Y-120259175D01*
X134944175Y-120415377D01*
X134817466Y-120596338D01*
X134817465Y-120596340D01*
X134757382Y-120725189D01*
X134711209Y-120777628D01*
X134644016Y-120796780D01*
X134577135Y-120776564D01*
X134532618Y-120725189D01*
X134472651Y-120596590D01*
X134472534Y-120596339D01*
X134345826Y-120415380D01*
X134189620Y-120259174D01*
X134189616Y-120259171D01*
X134189615Y-120259170D01*
X134008666Y-120132468D01*
X134008662Y-120132466D01*
X134008660Y-120132465D01*
X133808450Y-120039106D01*
X133808447Y-120039105D01*
X133808445Y-120039104D01*
X133595070Y-119981930D01*
X133595062Y-119981929D01*
X133375002Y-119962677D01*
X133374998Y-119962677D01*
X133154937Y-119981929D01*
X133154929Y-119981930D01*
X132941554Y-120039104D01*
X132941548Y-120039107D01*
X132741340Y-120132465D01*
X132741338Y-120132466D01*
X132560377Y-120259175D01*
X132404175Y-120415377D01*
X132277466Y-120596338D01*
X132277465Y-120596340D01*
X132217382Y-120725189D01*
X132171209Y-120777628D01*
X132104016Y-120796780D01*
X132037135Y-120776564D01*
X131992618Y-120725189D01*
X131932651Y-120596590D01*
X131932534Y-120596339D01*
X131805826Y-120415380D01*
X131649620Y-120259174D01*
X131649616Y-120259171D01*
X131649615Y-120259170D01*
X131468666Y-120132468D01*
X131468662Y-120132466D01*
X131468660Y-120132465D01*
X131268450Y-120039106D01*
X131268447Y-120039105D01*
X131268445Y-120039104D01*
X131055070Y-119981930D01*
X131055062Y-119981929D01*
X130835002Y-119962677D01*
X130834998Y-119962677D01*
X130614937Y-119981929D01*
X130614929Y-119981930D01*
X130401554Y-120039104D01*
X130401548Y-120039107D01*
X130201340Y-120132465D01*
X130201338Y-120132466D01*
X130020377Y-120259175D01*
X129864175Y-120415377D01*
X129737466Y-120596338D01*
X129737465Y-120596340D01*
X129677382Y-120725189D01*
X129631209Y-120777628D01*
X129564016Y-120796780D01*
X129497135Y-120776564D01*
X129452618Y-120725189D01*
X129392651Y-120596590D01*
X129392534Y-120596339D01*
X129265826Y-120415380D01*
X129109620Y-120259174D01*
X129109616Y-120259171D01*
X129109615Y-120259170D01*
X128928666Y-120132468D01*
X128928662Y-120132466D01*
X128928660Y-120132465D01*
X128728450Y-120039106D01*
X128728447Y-120039105D01*
X128728445Y-120039104D01*
X128515070Y-119981930D01*
X128515062Y-119981929D01*
X128295002Y-119962677D01*
X128294998Y-119962677D01*
X128074937Y-119981929D01*
X128074929Y-119981930D01*
X127861554Y-120039104D01*
X127861548Y-120039107D01*
X127661340Y-120132465D01*
X127661338Y-120132466D01*
X127480377Y-120259175D01*
X127324175Y-120415377D01*
X127197466Y-120596338D01*
X127197465Y-120596340D01*
X127104107Y-120796548D01*
X127104104Y-120796554D01*
X127046930Y-121009929D01*
X127046929Y-121009937D01*
X127027677Y-121229997D01*
X127027677Y-121230002D01*
X111782323Y-121230002D01*
X111782323Y-121230000D01*
X111763070Y-121009932D01*
X111705894Y-120796550D01*
X111612534Y-120596339D01*
X111485826Y-120415380D01*
X111329620Y-120259174D01*
X111329616Y-120259171D01*
X111329615Y-120259170D01*
X111148666Y-120132468D01*
X111148662Y-120132466D01*
X111148660Y-120132465D01*
X110948450Y-120039106D01*
X110948447Y-120039105D01*
X110948445Y-120039104D01*
X110735070Y-119981930D01*
X110735062Y-119981929D01*
X110515002Y-119962677D01*
X110514998Y-119962677D01*
X110294937Y-119981929D01*
X110294929Y-119981930D01*
X110081554Y-120039104D01*
X110081548Y-120039107D01*
X109881340Y-120132465D01*
X109881338Y-120132466D01*
X109700377Y-120259175D01*
X109544175Y-120415377D01*
X109417466Y-120596338D01*
X109417465Y-120596340D01*
X109357382Y-120725189D01*
X109311209Y-120777628D01*
X109244016Y-120796780D01*
X109177135Y-120776564D01*
X109132618Y-120725189D01*
X109072651Y-120596590D01*
X109072534Y-120596339D01*
X108945826Y-120415380D01*
X108789620Y-120259174D01*
X108789616Y-120259171D01*
X108789615Y-120259170D01*
X108608666Y-120132468D01*
X108608662Y-120132466D01*
X108608660Y-120132465D01*
X108408450Y-120039106D01*
X108408447Y-120039105D01*
X108408445Y-120039104D01*
X108195070Y-119981930D01*
X108195062Y-119981929D01*
X107975002Y-119962677D01*
X107974998Y-119962677D01*
X107754937Y-119981929D01*
X107754929Y-119981930D01*
X107541554Y-120039104D01*
X107541548Y-120039107D01*
X107341340Y-120132465D01*
X107341338Y-120132466D01*
X107160377Y-120259175D01*
X107004175Y-120415377D01*
X106877466Y-120596338D01*
X106877465Y-120596340D01*
X106817382Y-120725189D01*
X106771209Y-120777628D01*
X106704016Y-120796780D01*
X106637135Y-120776564D01*
X106592618Y-120725189D01*
X106532651Y-120596590D01*
X106532534Y-120596339D01*
X106405826Y-120415380D01*
X106249620Y-120259174D01*
X106249616Y-120259171D01*
X106249615Y-120259170D01*
X106068666Y-120132468D01*
X106068662Y-120132466D01*
X106068660Y-120132465D01*
X105868450Y-120039106D01*
X105868447Y-120039105D01*
X105868445Y-120039104D01*
X105655070Y-119981930D01*
X105655062Y-119981929D01*
X105435002Y-119962677D01*
X105434998Y-119962677D01*
X105214937Y-119981929D01*
X105214929Y-119981930D01*
X105001554Y-120039104D01*
X105001548Y-120039107D01*
X104801340Y-120132465D01*
X104801338Y-120132466D01*
X104620377Y-120259175D01*
X104464175Y-120415377D01*
X104337466Y-120596338D01*
X104337465Y-120596340D01*
X104277382Y-120725189D01*
X104231209Y-120777628D01*
X104164016Y-120796780D01*
X104097135Y-120776564D01*
X104052618Y-120725189D01*
X103992651Y-120596590D01*
X103992534Y-120596339D01*
X103865826Y-120415380D01*
X103709620Y-120259174D01*
X103709616Y-120259171D01*
X103709615Y-120259170D01*
X103528666Y-120132468D01*
X103528662Y-120132466D01*
X103528660Y-120132465D01*
X103328450Y-120039106D01*
X103328447Y-120039105D01*
X103328445Y-120039104D01*
X103115070Y-119981930D01*
X103115062Y-119981929D01*
X102895002Y-119962677D01*
X102894998Y-119962677D01*
X102674937Y-119981929D01*
X102674929Y-119981930D01*
X102461554Y-120039104D01*
X102461548Y-120039107D01*
X102261340Y-120132465D01*
X102261338Y-120132466D01*
X102080377Y-120259175D01*
X101924175Y-120415377D01*
X101797466Y-120596338D01*
X101797465Y-120596340D01*
X101737382Y-120725189D01*
X101691209Y-120777628D01*
X101624016Y-120796780D01*
X101557135Y-120776564D01*
X101512618Y-120725189D01*
X101452651Y-120596590D01*
X101452534Y-120596339D01*
X101325826Y-120415380D01*
X101169620Y-120259174D01*
X101169616Y-120259171D01*
X101169615Y-120259170D01*
X100988666Y-120132468D01*
X100988662Y-120132466D01*
X100988660Y-120132465D01*
X100788450Y-120039106D01*
X100788447Y-120039105D01*
X100788445Y-120039104D01*
X100575070Y-119981930D01*
X100575062Y-119981929D01*
X100355002Y-119962677D01*
X100354998Y-119962677D01*
X100134937Y-119981929D01*
X100134929Y-119981930D01*
X99921554Y-120039104D01*
X99921548Y-120039107D01*
X99721340Y-120132465D01*
X99721338Y-120132466D01*
X99540377Y-120259175D01*
X99384175Y-120415377D01*
X99257466Y-120596338D01*
X99257465Y-120596340D01*
X99197382Y-120725189D01*
X99151209Y-120777628D01*
X99084016Y-120796780D01*
X99017135Y-120776564D01*
X98972618Y-120725189D01*
X98912651Y-120596590D01*
X98912534Y-120596339D01*
X98785826Y-120415380D01*
X98629620Y-120259174D01*
X98629616Y-120259171D01*
X98629615Y-120259170D01*
X98448666Y-120132468D01*
X98448662Y-120132466D01*
X98448660Y-120132465D01*
X98248450Y-120039106D01*
X98248447Y-120039105D01*
X98248445Y-120039104D01*
X98035070Y-119981930D01*
X98035062Y-119981929D01*
X97815002Y-119962677D01*
X97814998Y-119962677D01*
X97594937Y-119981929D01*
X97594929Y-119981930D01*
X97381554Y-120039104D01*
X97381548Y-120039107D01*
X97181340Y-120132465D01*
X97181338Y-120132466D01*
X97000377Y-120259175D01*
X96844175Y-120415377D01*
X96717466Y-120596338D01*
X96717465Y-120596340D01*
X96657382Y-120725189D01*
X96611209Y-120777628D01*
X96544016Y-120796780D01*
X96477135Y-120776564D01*
X96432618Y-120725189D01*
X96372651Y-120596590D01*
X96372534Y-120596339D01*
X96245826Y-120415380D01*
X96089620Y-120259174D01*
X96089616Y-120259171D01*
X96089615Y-120259170D01*
X95908666Y-120132468D01*
X95908662Y-120132466D01*
X95908660Y-120132465D01*
X95708450Y-120039106D01*
X95708447Y-120039105D01*
X95708445Y-120039104D01*
X95495070Y-119981930D01*
X95495062Y-119981929D01*
X95275002Y-119962677D01*
X95274998Y-119962677D01*
X95054937Y-119981929D01*
X95054929Y-119981930D01*
X94841554Y-120039104D01*
X94841548Y-120039107D01*
X94641340Y-120132465D01*
X94641338Y-120132466D01*
X94460377Y-120259175D01*
X94304175Y-120415377D01*
X94177466Y-120596338D01*
X94177465Y-120596340D01*
X94117382Y-120725189D01*
X94071209Y-120777628D01*
X94004016Y-120796780D01*
X93937135Y-120776564D01*
X93892618Y-120725189D01*
X93832651Y-120596590D01*
X93832534Y-120596339D01*
X93705826Y-120415380D01*
X93549620Y-120259174D01*
X93549616Y-120259171D01*
X93549615Y-120259170D01*
X93368666Y-120132468D01*
X93368662Y-120132466D01*
X93368660Y-120132465D01*
X93168450Y-120039106D01*
X93168447Y-120039105D01*
X93168445Y-120039104D01*
X92955070Y-119981930D01*
X92955062Y-119981929D01*
X92735002Y-119962677D01*
X92734998Y-119962677D01*
X92514937Y-119981929D01*
X92514929Y-119981930D01*
X92301554Y-120039104D01*
X92301548Y-120039107D01*
X92101340Y-120132465D01*
X92101338Y-120132466D01*
X91920377Y-120259175D01*
X91764175Y-120415377D01*
X91637467Y-120596337D01*
X91577105Y-120725782D01*
X91530932Y-120778221D01*
X91463738Y-120797372D01*
X91396857Y-120777156D01*
X91352341Y-120725780D01*
X91292098Y-120596589D01*
X91292097Y-120596587D01*
X91246741Y-120531811D01*
X91246740Y-120531810D01*
X90576000Y-121202551D01*
X90576000Y-121179840D01*
X90550036Y-121082939D01*
X90499876Y-120996060D01*
X90428940Y-120925124D01*
X90342061Y-120874964D01*
X90245160Y-120849000D01*
X90222448Y-120849000D01*
X90893188Y-120178259D01*
X90893187Y-120178258D01*
X90828411Y-120132901D01*
X90828405Y-120132898D01*
X90628284Y-120039580D01*
X90628270Y-120039575D01*
X90414986Y-119982426D01*
X90414976Y-119982424D01*
X90195001Y-119963179D01*
X90194999Y-119963179D01*
X89975023Y-119982424D01*
X89975013Y-119982426D01*
X89761729Y-120039575D01*
X89761720Y-120039579D01*
X89561590Y-120132901D01*
X89496811Y-120178258D01*
X90167553Y-120849000D01*
X90144840Y-120849000D01*
X90047939Y-120874964D01*
X89961060Y-120925124D01*
X89890124Y-120996060D01*
X89839964Y-121082939D01*
X89814000Y-121179840D01*
X89814000Y-121202553D01*
X89143258Y-120531811D01*
X89097901Y-120596590D01*
X89004579Y-120796720D01*
X89004575Y-120796729D01*
X88947426Y-121010013D01*
X88947424Y-121010023D01*
X88928179Y-121229999D01*
X88928179Y-121230000D01*
X74967500Y-121230000D01*
X74967500Y-105990002D01*
X88927677Y-105990002D01*
X88946929Y-106210062D01*
X88946930Y-106210070D01*
X89004104Y-106423445D01*
X89004105Y-106423447D01*
X89004106Y-106423450D01*
X89037382Y-106494811D01*
X89097466Y-106623662D01*
X89097468Y-106623666D01*
X89224170Y-106804615D01*
X89224175Y-106804621D01*
X89380378Y-106960824D01*
X89380384Y-106960829D01*
X89561333Y-107087531D01*
X89561335Y-107087532D01*
X89561338Y-107087534D01*
X89761550Y-107180894D01*
X89974932Y-107238070D01*
X90132123Y-107251822D01*
X90194998Y-107257323D01*
X90195000Y-107257323D01*
X90195002Y-107257323D01*
X90250017Y-107252509D01*
X90415068Y-107238070D01*
X90628450Y-107180894D01*
X90828662Y-107087534D01*
X91009620Y-106960826D01*
X91165826Y-106804620D01*
X91292534Y-106623662D01*
X91352618Y-106494811D01*
X91398790Y-106442371D01*
X91465983Y-106423219D01*
X91532865Y-106443435D01*
X91577382Y-106494811D01*
X91637464Y-106623658D01*
X91637468Y-106623666D01*
X91764170Y-106804615D01*
X91764175Y-106804621D01*
X91920378Y-106960824D01*
X91920384Y-106960829D01*
X92101333Y-107087531D01*
X92101335Y-107087532D01*
X92101338Y-107087534D01*
X92301550Y-107180894D01*
X92514932Y-107238070D01*
X92672123Y-107251822D01*
X92734998Y-107257323D01*
X92735000Y-107257323D01*
X92735002Y-107257323D01*
X92790017Y-107252509D01*
X92955068Y-107238070D01*
X93168450Y-107180894D01*
X93368662Y-107087534D01*
X93549620Y-106960826D01*
X93705826Y-106804620D01*
X93832534Y-106623662D01*
X93892618Y-106494811D01*
X93938790Y-106442371D01*
X94005983Y-106423219D01*
X94072865Y-106443435D01*
X94117382Y-106494811D01*
X94177464Y-106623658D01*
X94177468Y-106623666D01*
X94304170Y-106804615D01*
X94304175Y-106804621D01*
X94460378Y-106960824D01*
X94460384Y-106960829D01*
X94641333Y-107087531D01*
X94641335Y-107087532D01*
X94641338Y-107087534D01*
X94841550Y-107180894D01*
X95054932Y-107238070D01*
X95212123Y-107251822D01*
X95274998Y-107257323D01*
X95275000Y-107257323D01*
X95275002Y-107257323D01*
X95330017Y-107252509D01*
X95495068Y-107238070D01*
X95708450Y-107180894D01*
X95908662Y-107087534D01*
X96089620Y-106960826D01*
X96245826Y-106804620D01*
X96372534Y-106623662D01*
X96432618Y-106494811D01*
X96478790Y-106442371D01*
X96545983Y-106423219D01*
X96612865Y-106443435D01*
X96657382Y-106494811D01*
X96717464Y-106623658D01*
X96717468Y-106623666D01*
X96844170Y-106804615D01*
X96844175Y-106804621D01*
X97000378Y-106960824D01*
X97000384Y-106960829D01*
X97181333Y-107087531D01*
X97181335Y-107087532D01*
X97181338Y-107087534D01*
X97381550Y-107180894D01*
X97594932Y-107238070D01*
X97752123Y-107251822D01*
X97814998Y-107257323D01*
X97815000Y-107257323D01*
X97815002Y-107257323D01*
X97870017Y-107252509D01*
X98035068Y-107238070D01*
X98248450Y-107180894D01*
X98448662Y-107087534D01*
X98629620Y-106960826D01*
X98785826Y-106804620D01*
X98912534Y-106623662D01*
X98972618Y-106494811D01*
X99018790Y-106442371D01*
X99085983Y-106423219D01*
X99152865Y-106443435D01*
X99197382Y-106494811D01*
X99257464Y-106623658D01*
X99257468Y-106623666D01*
X99384170Y-106804615D01*
X99384175Y-106804621D01*
X99540378Y-106960824D01*
X99540384Y-106960829D01*
X99721333Y-107087531D01*
X99721335Y-107087532D01*
X99721338Y-107087534D01*
X99921550Y-107180894D01*
X100134932Y-107238070D01*
X100292123Y-107251822D01*
X100354998Y-107257323D01*
X100355000Y-107257323D01*
X100355002Y-107257323D01*
X100410017Y-107252509D01*
X100575068Y-107238070D01*
X100788450Y-107180894D01*
X100988662Y-107087534D01*
X101169620Y-106960826D01*
X101325826Y-106804620D01*
X101452534Y-106623662D01*
X101512618Y-106494811D01*
X101558790Y-106442371D01*
X101625983Y-106423219D01*
X101692865Y-106443435D01*
X101737382Y-106494811D01*
X101797464Y-106623658D01*
X101797468Y-106623666D01*
X101924170Y-106804615D01*
X101924175Y-106804621D01*
X102080378Y-106960824D01*
X102080384Y-106960829D01*
X102261333Y-107087531D01*
X102261335Y-107087532D01*
X102261338Y-107087534D01*
X102461550Y-107180894D01*
X102674932Y-107238070D01*
X102832123Y-107251822D01*
X102894998Y-107257323D01*
X102895000Y-107257323D01*
X102895002Y-107257323D01*
X102950017Y-107252509D01*
X103115068Y-107238070D01*
X103328450Y-107180894D01*
X103528662Y-107087534D01*
X103709620Y-106960826D01*
X103865826Y-106804620D01*
X103992534Y-106623662D01*
X104052618Y-106494811D01*
X104098790Y-106442371D01*
X104165983Y-106423219D01*
X104232865Y-106443435D01*
X104277382Y-106494811D01*
X104337464Y-106623658D01*
X104337468Y-106623666D01*
X104464170Y-106804615D01*
X104464175Y-106804621D01*
X104620378Y-106960824D01*
X104620384Y-106960829D01*
X104801333Y-107087531D01*
X104801335Y-107087532D01*
X104801338Y-107087534D01*
X105001550Y-107180894D01*
X105214932Y-107238070D01*
X105372123Y-107251822D01*
X105434998Y-107257323D01*
X105435000Y-107257323D01*
X105435002Y-107257323D01*
X105490017Y-107252509D01*
X105655068Y-107238070D01*
X105868450Y-107180894D01*
X106068662Y-107087534D01*
X106249620Y-106960826D01*
X106405826Y-106804620D01*
X106532534Y-106623662D01*
X106592618Y-106494811D01*
X106638790Y-106442371D01*
X106705983Y-106423219D01*
X106772865Y-106443435D01*
X106817382Y-106494811D01*
X106877464Y-106623658D01*
X106877468Y-106623666D01*
X107004170Y-106804615D01*
X107004175Y-106804621D01*
X107160378Y-106960824D01*
X107160384Y-106960829D01*
X107341333Y-107087531D01*
X107341335Y-107087532D01*
X107341338Y-107087534D01*
X107541550Y-107180894D01*
X107754932Y-107238070D01*
X107912123Y-107251822D01*
X107974998Y-107257323D01*
X107975000Y-107257323D01*
X107975002Y-107257323D01*
X108030017Y-107252509D01*
X108195068Y-107238070D01*
X108408450Y-107180894D01*
X108608662Y-107087534D01*
X108789620Y-106960826D01*
X108945826Y-106804620D01*
X109072534Y-106623662D01*
X109132618Y-106494811D01*
X109178790Y-106442371D01*
X109245983Y-106423219D01*
X109312865Y-106443435D01*
X109357382Y-106494811D01*
X109417464Y-106623658D01*
X109417468Y-106623666D01*
X109544170Y-106804615D01*
X109544175Y-106804621D01*
X109700378Y-106960824D01*
X109700384Y-106960829D01*
X109881333Y-107087531D01*
X109881335Y-107087532D01*
X109881338Y-107087534D01*
X110081550Y-107180894D01*
X110294932Y-107238070D01*
X110452123Y-107251822D01*
X110514998Y-107257323D01*
X110515000Y-107257323D01*
X110515002Y-107257323D01*
X110570017Y-107252509D01*
X110735068Y-107238070D01*
X110948450Y-107180894D01*
X111148662Y-107087534D01*
X111329620Y-106960826D01*
X111485826Y-106804620D01*
X111612534Y-106623662D01*
X111705894Y-106423450D01*
X111763070Y-106210068D01*
X111782323Y-105990002D01*
X127027677Y-105990002D01*
X127046929Y-106210062D01*
X127046930Y-106210070D01*
X127104104Y-106423445D01*
X127104105Y-106423447D01*
X127104106Y-106423450D01*
X127137382Y-106494811D01*
X127197466Y-106623662D01*
X127197468Y-106623666D01*
X127324170Y-106804615D01*
X127324175Y-106804621D01*
X127480378Y-106960824D01*
X127480384Y-106960829D01*
X127661333Y-107087531D01*
X127661335Y-107087532D01*
X127661338Y-107087534D01*
X127861550Y-107180894D01*
X128074932Y-107238070D01*
X128232123Y-107251822D01*
X128294998Y-107257323D01*
X128295000Y-107257323D01*
X128295002Y-107257323D01*
X128350017Y-107252509D01*
X128515068Y-107238070D01*
X128728450Y-107180894D01*
X128928662Y-107087534D01*
X129109620Y-106960826D01*
X129265826Y-106804620D01*
X129392534Y-106623662D01*
X129452618Y-106494811D01*
X129498790Y-106442371D01*
X129565983Y-106423219D01*
X129632865Y-106443435D01*
X129677382Y-106494811D01*
X129737464Y-106623658D01*
X129737468Y-106623666D01*
X129864170Y-106804615D01*
X129864175Y-106804621D01*
X130020378Y-106960824D01*
X130020384Y-106960829D01*
X130201333Y-107087531D01*
X130201335Y-107087532D01*
X130201338Y-107087534D01*
X130401550Y-107180894D01*
X130614932Y-107238070D01*
X130772123Y-107251822D01*
X130834998Y-107257323D01*
X130835000Y-107257323D01*
X130835002Y-107257323D01*
X130890017Y-107252509D01*
X131055068Y-107238070D01*
X131268450Y-107180894D01*
X131468662Y-107087534D01*
X131649620Y-106960826D01*
X131805826Y-106804620D01*
X131932534Y-106623662D01*
X131992618Y-106494811D01*
X132038790Y-106442371D01*
X132105983Y-106423219D01*
X132172865Y-106443435D01*
X132217382Y-106494811D01*
X132277464Y-106623658D01*
X132277468Y-106623666D01*
X132404170Y-106804615D01*
X132404175Y-106804621D01*
X132560378Y-106960824D01*
X132560384Y-106960829D01*
X132741333Y-107087531D01*
X132741335Y-107087532D01*
X132741338Y-107087534D01*
X132941550Y-107180894D01*
X133154932Y-107238070D01*
X133312123Y-107251822D01*
X133374998Y-107257323D01*
X133375000Y-107257323D01*
X133375002Y-107257323D01*
X133430017Y-107252509D01*
X133595068Y-107238070D01*
X133808450Y-107180894D01*
X134008662Y-107087534D01*
X134189620Y-106960826D01*
X134345826Y-106804620D01*
X134472534Y-106623662D01*
X134532618Y-106494811D01*
X134578790Y-106442371D01*
X134645983Y-106423219D01*
X134712865Y-106443435D01*
X134757382Y-106494811D01*
X134817464Y-106623658D01*
X134817468Y-106623666D01*
X134944170Y-106804615D01*
X134944175Y-106804621D01*
X135100378Y-106960824D01*
X135100384Y-106960829D01*
X135281333Y-107087531D01*
X135281335Y-107087532D01*
X135281338Y-107087534D01*
X135481550Y-107180894D01*
X135694932Y-107238070D01*
X135852123Y-107251822D01*
X135914998Y-107257323D01*
X135915000Y-107257323D01*
X135915002Y-107257323D01*
X135970017Y-107252509D01*
X136135068Y-107238070D01*
X136348450Y-107180894D01*
X136548662Y-107087534D01*
X136729620Y-106960826D01*
X136885826Y-106804620D01*
X137012534Y-106623662D01*
X137072618Y-106494811D01*
X137118790Y-106442371D01*
X137185983Y-106423219D01*
X137252865Y-106443435D01*
X137297382Y-106494811D01*
X137357464Y-106623658D01*
X137357468Y-106623666D01*
X137484170Y-106804615D01*
X137484175Y-106804621D01*
X137640378Y-106960824D01*
X137640384Y-106960829D01*
X137821333Y-107087531D01*
X137821335Y-107087532D01*
X137821338Y-107087534D01*
X138021550Y-107180894D01*
X138234932Y-107238070D01*
X138392123Y-107251822D01*
X138454998Y-107257323D01*
X138455000Y-107257323D01*
X138455002Y-107257323D01*
X138510017Y-107252509D01*
X138675068Y-107238070D01*
X138888450Y-107180894D01*
X139088662Y-107087534D01*
X139269620Y-106960826D01*
X139425826Y-106804620D01*
X139552534Y-106623662D01*
X139612618Y-106494811D01*
X139658790Y-106442371D01*
X139725983Y-106423219D01*
X139792865Y-106443435D01*
X139837382Y-106494811D01*
X139897464Y-106623658D01*
X139897468Y-106623666D01*
X140024170Y-106804615D01*
X140024175Y-106804621D01*
X140180378Y-106960824D01*
X140180384Y-106960829D01*
X140361333Y-107087531D01*
X140361335Y-107087532D01*
X140361338Y-107087534D01*
X140561550Y-107180894D01*
X140774932Y-107238070D01*
X140932123Y-107251822D01*
X140994998Y-107257323D01*
X140995000Y-107257323D01*
X140995002Y-107257323D01*
X141050017Y-107252509D01*
X141215068Y-107238070D01*
X141428450Y-107180894D01*
X141628662Y-107087534D01*
X141809620Y-106960826D01*
X141965826Y-106804620D01*
X142092534Y-106623662D01*
X142152618Y-106494811D01*
X142198790Y-106442371D01*
X142265983Y-106423219D01*
X142332865Y-106443435D01*
X142377382Y-106494811D01*
X142437464Y-106623658D01*
X142437468Y-106623666D01*
X142564170Y-106804615D01*
X142564175Y-106804621D01*
X142720378Y-106960824D01*
X142720384Y-106960829D01*
X142901333Y-107087531D01*
X142901335Y-107087532D01*
X142901338Y-107087534D01*
X143101550Y-107180894D01*
X143314932Y-107238070D01*
X143472123Y-107251822D01*
X143534998Y-107257323D01*
X143535000Y-107257323D01*
X143535002Y-107257323D01*
X143590017Y-107252509D01*
X143755068Y-107238070D01*
X143968450Y-107180894D01*
X144168662Y-107087534D01*
X144349620Y-106960826D01*
X144505826Y-106804620D01*
X144632534Y-106623662D01*
X144692618Y-106494811D01*
X144738790Y-106442371D01*
X144805983Y-106423219D01*
X144872865Y-106443435D01*
X144917382Y-106494811D01*
X144977464Y-106623658D01*
X144977468Y-106623666D01*
X145104170Y-106804615D01*
X145104175Y-106804621D01*
X145260378Y-106960824D01*
X145260384Y-106960829D01*
X145441333Y-107087531D01*
X145441335Y-107087532D01*
X145441338Y-107087534D01*
X145641550Y-107180894D01*
X145854932Y-107238070D01*
X146012123Y-107251822D01*
X146074998Y-107257323D01*
X146075000Y-107257323D01*
X146075002Y-107257323D01*
X146130017Y-107252509D01*
X146295068Y-107238070D01*
X146508450Y-107180894D01*
X146708662Y-107087534D01*
X146889620Y-106960826D01*
X147045826Y-106804620D01*
X147172534Y-106623662D01*
X147232618Y-106494811D01*
X147278790Y-106442371D01*
X147345983Y-106423219D01*
X147412865Y-106443435D01*
X147457382Y-106494811D01*
X147517464Y-106623658D01*
X147517468Y-106623666D01*
X147644170Y-106804615D01*
X147644175Y-106804621D01*
X147800378Y-106960824D01*
X147800384Y-106960829D01*
X147981333Y-107087531D01*
X147981335Y-107087532D01*
X147981338Y-107087534D01*
X148181550Y-107180894D01*
X148394932Y-107238070D01*
X148552123Y-107251822D01*
X148614998Y-107257323D01*
X148615000Y-107257323D01*
X148615002Y-107257323D01*
X148670017Y-107252509D01*
X148835068Y-107238070D01*
X149048450Y-107180894D01*
X149248662Y-107087534D01*
X149429620Y-106960826D01*
X149585826Y-106804620D01*
X149712534Y-106623662D01*
X149805894Y-106423450D01*
X149863070Y-106210068D01*
X149882323Y-105990000D01*
X149863070Y-105769932D01*
X149805894Y-105556550D01*
X149712534Y-105356339D01*
X149585826Y-105175380D01*
X149429620Y-105019174D01*
X149429616Y-105019171D01*
X149429615Y-105019170D01*
X149248666Y-104892468D01*
X149248662Y-104892466D01*
X149248660Y-104892465D01*
X149048450Y-104799106D01*
X149048447Y-104799105D01*
X149048445Y-104799104D01*
X148835070Y-104741930D01*
X148835062Y-104741929D01*
X148615002Y-104722677D01*
X148614998Y-104722677D01*
X148394937Y-104741929D01*
X148394929Y-104741930D01*
X148181554Y-104799104D01*
X148181548Y-104799107D01*
X147981340Y-104892465D01*
X147981338Y-104892466D01*
X147800377Y-105019175D01*
X147644175Y-105175377D01*
X147517466Y-105356338D01*
X147517465Y-105356340D01*
X147457382Y-105485189D01*
X147411209Y-105537628D01*
X147344016Y-105556780D01*
X147277135Y-105536564D01*
X147232618Y-105485189D01*
X147172534Y-105356340D01*
X147172533Y-105356338D01*
X147045827Y-105175381D01*
X147045823Y-105175377D01*
X146889620Y-105019174D01*
X146889616Y-105019171D01*
X146889615Y-105019170D01*
X146708666Y-104892468D01*
X146708662Y-104892466D01*
X146708660Y-104892465D01*
X146508450Y-104799106D01*
X146508447Y-104799105D01*
X146508445Y-104799104D01*
X146295070Y-104741930D01*
X146295062Y-104741929D01*
X146075002Y-104722677D01*
X146074998Y-104722677D01*
X145854937Y-104741929D01*
X145854929Y-104741930D01*
X145641554Y-104799104D01*
X145641548Y-104799107D01*
X145441340Y-104892465D01*
X145441338Y-104892466D01*
X145260377Y-105019175D01*
X145104175Y-105175377D01*
X144977466Y-105356338D01*
X144977465Y-105356340D01*
X144917382Y-105485189D01*
X144871209Y-105537628D01*
X144804016Y-105556780D01*
X144737135Y-105536564D01*
X144692618Y-105485189D01*
X144632534Y-105356340D01*
X144632533Y-105356338D01*
X144505827Y-105175381D01*
X144505823Y-105175377D01*
X144349620Y-105019174D01*
X144349616Y-105019171D01*
X144349615Y-105019170D01*
X144168666Y-104892468D01*
X144168662Y-104892466D01*
X144168660Y-104892465D01*
X143968450Y-104799106D01*
X143968447Y-104799105D01*
X143968445Y-104799104D01*
X143755070Y-104741930D01*
X143755062Y-104741929D01*
X143535002Y-104722677D01*
X143534998Y-104722677D01*
X143314937Y-104741929D01*
X143314929Y-104741930D01*
X143101554Y-104799104D01*
X143101548Y-104799107D01*
X142901340Y-104892465D01*
X142901338Y-104892466D01*
X142720377Y-105019175D01*
X142564175Y-105175377D01*
X142437466Y-105356338D01*
X142437465Y-105356340D01*
X142377382Y-105485189D01*
X142331209Y-105537628D01*
X142264016Y-105556780D01*
X142197135Y-105536564D01*
X142152618Y-105485189D01*
X142092534Y-105356340D01*
X142092533Y-105356338D01*
X141965827Y-105175381D01*
X141965823Y-105175377D01*
X141809620Y-105019174D01*
X141809616Y-105019171D01*
X141809615Y-105019170D01*
X141628666Y-104892468D01*
X141628662Y-104892466D01*
X141628660Y-104892465D01*
X141428450Y-104799106D01*
X141428447Y-104799105D01*
X141428445Y-104799104D01*
X141215070Y-104741930D01*
X141215062Y-104741929D01*
X140995002Y-104722677D01*
X140994998Y-104722677D01*
X140774937Y-104741929D01*
X140774929Y-104741930D01*
X140561554Y-104799104D01*
X140561548Y-104799107D01*
X140361340Y-104892465D01*
X140361338Y-104892466D01*
X140180377Y-105019175D01*
X140024175Y-105175377D01*
X139897466Y-105356338D01*
X139897465Y-105356340D01*
X139837382Y-105485189D01*
X139791209Y-105537628D01*
X139724016Y-105556780D01*
X139657135Y-105536564D01*
X139612618Y-105485189D01*
X139552534Y-105356340D01*
X139552533Y-105356338D01*
X139425827Y-105175381D01*
X139425823Y-105175377D01*
X139269620Y-105019174D01*
X139269616Y-105019171D01*
X139269615Y-105019170D01*
X139088666Y-104892468D01*
X139088662Y-104892466D01*
X139088660Y-104892465D01*
X138888450Y-104799106D01*
X138888447Y-104799105D01*
X138888445Y-104799104D01*
X138675070Y-104741930D01*
X138675062Y-104741929D01*
X138455002Y-104722677D01*
X138454998Y-104722677D01*
X138234937Y-104741929D01*
X138234929Y-104741930D01*
X138021554Y-104799104D01*
X138021548Y-104799107D01*
X137821340Y-104892465D01*
X137821338Y-104892466D01*
X137640377Y-105019175D01*
X137484175Y-105175377D01*
X137357466Y-105356338D01*
X137357465Y-105356340D01*
X137297382Y-105485189D01*
X137251209Y-105537628D01*
X137184016Y-105556780D01*
X137117135Y-105536564D01*
X137072618Y-105485189D01*
X137012534Y-105356340D01*
X137012533Y-105356338D01*
X136885827Y-105175381D01*
X136885823Y-105175377D01*
X136729620Y-105019174D01*
X136729616Y-105019171D01*
X136729615Y-105019170D01*
X136548666Y-104892468D01*
X136548662Y-104892466D01*
X136548660Y-104892465D01*
X136348450Y-104799106D01*
X136348447Y-104799105D01*
X136348445Y-104799104D01*
X136135070Y-104741930D01*
X136135062Y-104741929D01*
X135915002Y-104722677D01*
X135914998Y-104722677D01*
X135694937Y-104741929D01*
X135694929Y-104741930D01*
X135481554Y-104799104D01*
X135481548Y-104799107D01*
X135281340Y-104892465D01*
X135281338Y-104892466D01*
X135100377Y-105019175D01*
X134944175Y-105175377D01*
X134817466Y-105356338D01*
X134817465Y-105356340D01*
X134757382Y-105485189D01*
X134711209Y-105537628D01*
X134644016Y-105556780D01*
X134577135Y-105536564D01*
X134532618Y-105485189D01*
X134472534Y-105356340D01*
X134472533Y-105356338D01*
X134345827Y-105175381D01*
X134345823Y-105175377D01*
X134189620Y-105019174D01*
X134189616Y-105019171D01*
X134189615Y-105019170D01*
X134008666Y-104892468D01*
X134008662Y-104892466D01*
X134008660Y-104892465D01*
X133808450Y-104799106D01*
X133808447Y-104799105D01*
X133808445Y-104799104D01*
X133595070Y-104741930D01*
X133595062Y-104741929D01*
X133375002Y-104722677D01*
X133374998Y-104722677D01*
X133154937Y-104741929D01*
X133154929Y-104741930D01*
X132941554Y-104799104D01*
X132941548Y-104799107D01*
X132741340Y-104892465D01*
X132741338Y-104892466D01*
X132560377Y-105019175D01*
X132404175Y-105175377D01*
X132277466Y-105356338D01*
X132277465Y-105356340D01*
X132217382Y-105485189D01*
X132171209Y-105537628D01*
X132104016Y-105556780D01*
X132037135Y-105536564D01*
X131992618Y-105485189D01*
X131932534Y-105356340D01*
X131932533Y-105356338D01*
X131805827Y-105175381D01*
X131805823Y-105175377D01*
X131649620Y-105019174D01*
X131649616Y-105019171D01*
X131649615Y-105019170D01*
X131468666Y-104892468D01*
X131468662Y-104892466D01*
X131468660Y-104892465D01*
X131268450Y-104799106D01*
X131268447Y-104799105D01*
X131268445Y-104799104D01*
X131055070Y-104741930D01*
X131055062Y-104741929D01*
X130835002Y-104722677D01*
X130834998Y-104722677D01*
X130614937Y-104741929D01*
X130614929Y-104741930D01*
X130401554Y-104799104D01*
X130401548Y-104799107D01*
X130201340Y-104892465D01*
X130201338Y-104892466D01*
X130020377Y-105019175D01*
X129864175Y-105175377D01*
X129737466Y-105356338D01*
X129737465Y-105356340D01*
X129677382Y-105485189D01*
X129631209Y-105537628D01*
X129564016Y-105556780D01*
X129497135Y-105536564D01*
X129452618Y-105485189D01*
X129392534Y-105356340D01*
X129392533Y-105356338D01*
X129265827Y-105175381D01*
X129265823Y-105175377D01*
X129109620Y-105019174D01*
X129109616Y-105019171D01*
X129109615Y-105019170D01*
X128928666Y-104892468D01*
X128928662Y-104892466D01*
X128928660Y-104892465D01*
X128728450Y-104799106D01*
X128728447Y-104799105D01*
X128728445Y-104799104D01*
X128515070Y-104741930D01*
X128515062Y-104741929D01*
X128295002Y-104722677D01*
X128294998Y-104722677D01*
X128074937Y-104741929D01*
X128074929Y-104741930D01*
X127861554Y-104799104D01*
X127861548Y-104799107D01*
X127661340Y-104892465D01*
X127661338Y-104892466D01*
X127480377Y-105019175D01*
X127324175Y-105175377D01*
X127197466Y-105356338D01*
X127197465Y-105356340D01*
X127104107Y-105556548D01*
X127104104Y-105556554D01*
X127046930Y-105769929D01*
X127046929Y-105769937D01*
X127027677Y-105989997D01*
X127027677Y-105990002D01*
X111782323Y-105990002D01*
X111782323Y-105990000D01*
X111763070Y-105769932D01*
X111705894Y-105556550D01*
X111612534Y-105356339D01*
X111485826Y-105175380D01*
X111329620Y-105019174D01*
X111329616Y-105019171D01*
X111329615Y-105019170D01*
X111148666Y-104892468D01*
X111148662Y-104892466D01*
X111148660Y-104892465D01*
X110948450Y-104799106D01*
X110948447Y-104799105D01*
X110948445Y-104799104D01*
X110735070Y-104741930D01*
X110735062Y-104741929D01*
X110515002Y-104722677D01*
X110514998Y-104722677D01*
X110294937Y-104741929D01*
X110294929Y-104741930D01*
X110081554Y-104799104D01*
X110081548Y-104799107D01*
X109881340Y-104892465D01*
X109881338Y-104892466D01*
X109700377Y-105019175D01*
X109544175Y-105175377D01*
X109417466Y-105356338D01*
X109417465Y-105356340D01*
X109357382Y-105485189D01*
X109311209Y-105537628D01*
X109244016Y-105556780D01*
X109177135Y-105536564D01*
X109132618Y-105485189D01*
X109072534Y-105356340D01*
X109072533Y-105356338D01*
X108945827Y-105175381D01*
X108945823Y-105175377D01*
X108789620Y-105019174D01*
X108789616Y-105019171D01*
X108789615Y-105019170D01*
X108608666Y-104892468D01*
X108608662Y-104892466D01*
X108608660Y-104892465D01*
X108408450Y-104799106D01*
X108408447Y-104799105D01*
X108408445Y-104799104D01*
X108195070Y-104741930D01*
X108195062Y-104741929D01*
X107975002Y-104722677D01*
X107974998Y-104722677D01*
X107754937Y-104741929D01*
X107754929Y-104741930D01*
X107541554Y-104799104D01*
X107541548Y-104799107D01*
X107341340Y-104892465D01*
X107341338Y-104892466D01*
X107160377Y-105019175D01*
X107004175Y-105175377D01*
X106877466Y-105356338D01*
X106877465Y-105356340D01*
X106817382Y-105485189D01*
X106771209Y-105537628D01*
X106704016Y-105556780D01*
X106637135Y-105536564D01*
X106592618Y-105485189D01*
X106532534Y-105356340D01*
X106532533Y-105356338D01*
X106405827Y-105175381D01*
X106405823Y-105175377D01*
X106249620Y-105019174D01*
X106249616Y-105019171D01*
X106249615Y-105019170D01*
X106068666Y-104892468D01*
X106068662Y-104892466D01*
X106068660Y-104892465D01*
X105868450Y-104799106D01*
X105868447Y-104799105D01*
X105868445Y-104799104D01*
X105655070Y-104741930D01*
X105655062Y-104741929D01*
X105435002Y-104722677D01*
X105434998Y-104722677D01*
X105214937Y-104741929D01*
X105214929Y-104741930D01*
X105001554Y-104799104D01*
X105001548Y-104799107D01*
X104801340Y-104892465D01*
X104801338Y-104892466D01*
X104620377Y-105019175D01*
X104464175Y-105175377D01*
X104337466Y-105356338D01*
X104337465Y-105356340D01*
X104277382Y-105485189D01*
X104231209Y-105537628D01*
X104164016Y-105556780D01*
X104097135Y-105536564D01*
X104052618Y-105485189D01*
X103992534Y-105356340D01*
X103992533Y-105356338D01*
X103865827Y-105175381D01*
X103865823Y-105175377D01*
X103709620Y-105019174D01*
X103709616Y-105019171D01*
X103709615Y-105019170D01*
X103528666Y-104892468D01*
X103528662Y-104892466D01*
X103528660Y-104892465D01*
X103328450Y-104799106D01*
X103328447Y-104799105D01*
X103328445Y-104799104D01*
X103115070Y-104741930D01*
X103115062Y-104741929D01*
X102895002Y-104722677D01*
X102894998Y-104722677D01*
X102674937Y-104741929D01*
X102674929Y-104741930D01*
X102461554Y-104799104D01*
X102461548Y-104799107D01*
X102261340Y-104892465D01*
X102261338Y-104892466D01*
X102080377Y-105019175D01*
X101924175Y-105175377D01*
X101797466Y-105356338D01*
X101797465Y-105356340D01*
X101737382Y-105485189D01*
X101691209Y-105537628D01*
X101624016Y-105556780D01*
X101557135Y-105536564D01*
X101512618Y-105485189D01*
X101452534Y-105356340D01*
X101452533Y-105356338D01*
X101325827Y-105175381D01*
X101325823Y-105175377D01*
X101169620Y-105019174D01*
X101169616Y-105019171D01*
X101169615Y-105019170D01*
X100988666Y-104892468D01*
X100988662Y-104892466D01*
X100988660Y-104892465D01*
X100788450Y-104799106D01*
X100788447Y-104799105D01*
X100788445Y-104799104D01*
X100575070Y-104741930D01*
X100575062Y-104741929D01*
X100355002Y-104722677D01*
X100354998Y-104722677D01*
X100134937Y-104741929D01*
X100134929Y-104741930D01*
X99921554Y-104799104D01*
X99921548Y-104799107D01*
X99721340Y-104892465D01*
X99721338Y-104892466D01*
X99540377Y-105019175D01*
X99384175Y-105175377D01*
X99257466Y-105356338D01*
X99257465Y-105356340D01*
X99197382Y-105485189D01*
X99151209Y-105537628D01*
X99084016Y-105556780D01*
X99017135Y-105536564D01*
X98972618Y-105485189D01*
X98912534Y-105356340D01*
X98912533Y-105356338D01*
X98785827Y-105175381D01*
X98785823Y-105175377D01*
X98629620Y-105019174D01*
X98629616Y-105019171D01*
X98629615Y-105019170D01*
X98448666Y-104892468D01*
X98448662Y-104892466D01*
X98448660Y-104892465D01*
X98248450Y-104799106D01*
X98248447Y-104799105D01*
X98248445Y-104799104D01*
X98035070Y-104741930D01*
X98035062Y-104741929D01*
X97815002Y-104722677D01*
X97814998Y-104722677D01*
X97594937Y-104741929D01*
X97594929Y-104741930D01*
X97381554Y-104799104D01*
X97381548Y-104799107D01*
X97181340Y-104892465D01*
X97181338Y-104892466D01*
X97000377Y-105019175D01*
X96844175Y-105175377D01*
X96717466Y-105356338D01*
X96717465Y-105356340D01*
X96657382Y-105485189D01*
X96611209Y-105537628D01*
X96544016Y-105556780D01*
X96477135Y-105536564D01*
X96432618Y-105485189D01*
X96372534Y-105356340D01*
X96372533Y-105356338D01*
X96245827Y-105175381D01*
X96245823Y-105175377D01*
X96089620Y-105019174D01*
X96089616Y-105019171D01*
X96089615Y-105019170D01*
X95908666Y-104892468D01*
X95908662Y-104892466D01*
X95908660Y-104892465D01*
X95708450Y-104799106D01*
X95708447Y-104799105D01*
X95708445Y-104799104D01*
X95495070Y-104741930D01*
X95495062Y-104741929D01*
X95275002Y-104722677D01*
X95274998Y-104722677D01*
X95054937Y-104741929D01*
X95054929Y-104741930D01*
X94841554Y-104799104D01*
X94841548Y-104799107D01*
X94641340Y-104892465D01*
X94641338Y-104892466D01*
X94460377Y-105019175D01*
X94304175Y-105175377D01*
X94177466Y-105356338D01*
X94177465Y-105356340D01*
X94117382Y-105485189D01*
X94071209Y-105537628D01*
X94004016Y-105556780D01*
X93937135Y-105536564D01*
X93892618Y-105485189D01*
X93832534Y-105356340D01*
X93832533Y-105356338D01*
X93705827Y-105175381D01*
X93705823Y-105175377D01*
X93549620Y-105019174D01*
X93549616Y-105019171D01*
X93549615Y-105019170D01*
X93368666Y-104892468D01*
X93368662Y-104892466D01*
X93368660Y-104892465D01*
X93168450Y-104799106D01*
X93168447Y-104799105D01*
X93168445Y-104799104D01*
X92955070Y-104741930D01*
X92955062Y-104741929D01*
X92735002Y-104722677D01*
X92734998Y-104722677D01*
X92514937Y-104741929D01*
X92514929Y-104741930D01*
X92301554Y-104799104D01*
X92301548Y-104799107D01*
X92101340Y-104892465D01*
X92101338Y-104892466D01*
X91920377Y-105019175D01*
X91764175Y-105175377D01*
X91637466Y-105356338D01*
X91637465Y-105356340D01*
X91577382Y-105485189D01*
X91531209Y-105537628D01*
X91464016Y-105556780D01*
X91397135Y-105536564D01*
X91352618Y-105485189D01*
X91292534Y-105356340D01*
X91292533Y-105356338D01*
X91165827Y-105175381D01*
X91165823Y-105175377D01*
X91009620Y-105019174D01*
X91009616Y-105019171D01*
X91009615Y-105019170D01*
X90828666Y-104892468D01*
X90828662Y-104892466D01*
X90828660Y-104892465D01*
X90628450Y-104799106D01*
X90628447Y-104799105D01*
X90628445Y-104799104D01*
X90415070Y-104741930D01*
X90415062Y-104741929D01*
X90195002Y-104722677D01*
X90194998Y-104722677D01*
X89974937Y-104741929D01*
X89974929Y-104741930D01*
X89761554Y-104799104D01*
X89761548Y-104799107D01*
X89561340Y-104892465D01*
X89561338Y-104892466D01*
X89380377Y-105019175D01*
X89224175Y-105175377D01*
X89097466Y-105356338D01*
X89097465Y-105356340D01*
X89004107Y-105556548D01*
X89004104Y-105556554D01*
X88946930Y-105769929D01*
X88946929Y-105769937D01*
X88927677Y-105989997D01*
X88927677Y-105990002D01*
X74967500Y-105990002D01*
X74967500Y-96659870D01*
X89831500Y-96659870D01*
X89831501Y-96659876D01*
X89837908Y-96719483D01*
X89888202Y-96854328D01*
X89888206Y-96854335D01*
X89974452Y-96969544D01*
X89974455Y-96969547D01*
X90089664Y-97055793D01*
X90089671Y-97055797D01*
X90224517Y-97106091D01*
X90224516Y-97106091D01*
X90231444Y-97106835D01*
X90284127Y-97112500D01*
X91579872Y-97112499D01*
X91639483Y-97106091D01*
X91774331Y-97055796D01*
X91889546Y-96969546D01*
X91906993Y-96946240D01*
X92351311Y-96946240D01*
X92439585Y-97000897D01*
X92629678Y-97074539D01*
X92830072Y-97112000D01*
X93033928Y-97112000D01*
X93234322Y-97074539D01*
X93424412Y-97000899D01*
X93424416Y-97000897D01*
X93512686Y-96946241D01*
X93512686Y-96946240D01*
X92932001Y-96365553D01*
X92932000Y-96365553D01*
X92351311Y-96946240D01*
X91906993Y-96946240D01*
X91975796Y-96854331D01*
X92026091Y-96719483D01*
X92028266Y-96699254D01*
X92032499Y-96659886D01*
X92032499Y-96659882D01*
X92032500Y-96659873D01*
X92032499Y-96609305D01*
X92052182Y-96542269D01*
X92068818Y-96521626D01*
X92538950Y-96051496D01*
X92632000Y-96051496D01*
X92652444Y-96127796D01*
X92691940Y-96196205D01*
X92747795Y-96252060D01*
X92816204Y-96291556D01*
X92892504Y-96312000D01*
X92971496Y-96312000D01*
X93047796Y-96291556D01*
X93116205Y-96252060D01*
X93172060Y-96196205D01*
X93211556Y-96127796D01*
X93232000Y-96051496D01*
X93232000Y-96012000D01*
X93285553Y-96012000D01*
X93869465Y-96595912D01*
X93871247Y-96593553D01*
X93871248Y-96593551D01*
X93962113Y-96411069D01*
X93962116Y-96411063D01*
X94017902Y-96214992D01*
X94017903Y-96214989D01*
X94036713Y-96012000D01*
X94036713Y-96011999D01*
X94017903Y-95809010D01*
X94017902Y-95809007D01*
X93962116Y-95612936D01*
X93962113Y-95612930D01*
X93871249Y-95430449D01*
X93871247Y-95430447D01*
X93869465Y-95428087D01*
X93285553Y-96012000D01*
X93232000Y-96012000D01*
X93232000Y-95972504D01*
X93211556Y-95896204D01*
X93172060Y-95827795D01*
X93116205Y-95771940D01*
X93047796Y-95732444D01*
X92971496Y-95712000D01*
X92892504Y-95712000D01*
X92816204Y-95732444D01*
X92747795Y-95771940D01*
X92691940Y-95827795D01*
X92652444Y-95896204D01*
X92632000Y-95972504D01*
X92632000Y-96051496D01*
X92538950Y-96051496D01*
X92578446Y-96012000D01*
X92578446Y-96011999D01*
X92068818Y-95502371D01*
X92035333Y-95441048D01*
X92032499Y-95414690D01*
X92032499Y-95364129D01*
X92032498Y-95364123D01*
X92032497Y-95364116D01*
X92026091Y-95304517D01*
X91997300Y-95227325D01*
X91975797Y-95169671D01*
X91975793Y-95169664D01*
X91906992Y-95077758D01*
X92351311Y-95077758D01*
X92932000Y-95658446D01*
X92932001Y-95658446D01*
X93512687Y-95077758D01*
X93424413Y-95023101D01*
X93424411Y-95023100D01*
X93234321Y-94949460D01*
X93033928Y-94912000D01*
X92830072Y-94912000D01*
X92629678Y-94949460D01*
X92439588Y-95023100D01*
X92439581Y-95023104D01*
X92351312Y-95077757D01*
X92351311Y-95077758D01*
X91906992Y-95077758D01*
X91889547Y-95054455D01*
X91889544Y-95054452D01*
X91774335Y-94968206D01*
X91774328Y-94968202D01*
X91639482Y-94917908D01*
X91639483Y-94917908D01*
X91579883Y-94911501D01*
X91579881Y-94911500D01*
X91579873Y-94911500D01*
X91579864Y-94911500D01*
X90284129Y-94911500D01*
X90284123Y-94911501D01*
X90224516Y-94917908D01*
X90089671Y-94968202D01*
X90089664Y-94968206D01*
X89974455Y-95054452D01*
X89974452Y-95054455D01*
X89888206Y-95169664D01*
X89888202Y-95169671D01*
X89837908Y-95304517D01*
X89832122Y-95358341D01*
X89831501Y-95364123D01*
X89831500Y-95364135D01*
X89831500Y-96659870D01*
X74967500Y-96659870D01*
X74967500Y-94234000D01*
X101768341Y-94234000D01*
X101788936Y-94469403D01*
X101788938Y-94469413D01*
X101850094Y-94697655D01*
X101850096Y-94697659D01*
X101850097Y-94697663D01*
X101949811Y-94911500D01*
X101949965Y-94911830D01*
X101949967Y-94911834D01*
X102027877Y-95023100D01*
X102085501Y-95105396D01*
X102085506Y-95105402D01*
X102207430Y-95227326D01*
X102240915Y-95288649D01*
X102235931Y-95358341D01*
X102194059Y-95414274D01*
X102163083Y-95431189D01*
X102031669Y-95480203D01*
X102031664Y-95480206D01*
X101916455Y-95566452D01*
X101916452Y-95566455D01*
X101830206Y-95681664D01*
X101830202Y-95681671D01*
X101779908Y-95816517D01*
X101778696Y-95827795D01*
X101773501Y-95876123D01*
X101773500Y-95876135D01*
X101773500Y-97671870D01*
X101773501Y-97671876D01*
X101779908Y-97731483D01*
X101830202Y-97866328D01*
X101830206Y-97866335D01*
X101916452Y-97981544D01*
X101916455Y-97981547D01*
X102031664Y-98067793D01*
X102031671Y-98067797D01*
X102166517Y-98118091D01*
X102166516Y-98118091D01*
X102173444Y-98118835D01*
X102226127Y-98124500D01*
X104021872Y-98124499D01*
X104081483Y-98118091D01*
X104216331Y-98067796D01*
X104331546Y-97981546D01*
X104417796Y-97866331D01*
X104468091Y-97731483D01*
X104474500Y-97671873D01*
X104474499Y-96520003D01*
X119336435Y-96520003D01*
X119356630Y-96699249D01*
X119356631Y-96699254D01*
X119416211Y-96869523D01*
X119479059Y-96969544D01*
X119512184Y-97022262D01*
X119639738Y-97149816D01*
X119792478Y-97245789D01*
X119962745Y-97305368D01*
X119962750Y-97305369D01*
X120141996Y-97325565D01*
X120142000Y-97325565D01*
X120142004Y-97325565D01*
X120321249Y-97305369D01*
X120321252Y-97305368D01*
X120321255Y-97305368D01*
X120491522Y-97245789D01*
X120644262Y-97149816D01*
X120771816Y-97022262D01*
X120867789Y-96869522D01*
X120927368Y-96699255D01*
X120931805Y-96659876D01*
X120947565Y-96520003D01*
X120947565Y-96519996D01*
X120927369Y-96340750D01*
X120927368Y-96340745D01*
X120867788Y-96170476D01*
X120828582Y-96108080D01*
X120771816Y-96017738D01*
X120644262Y-95890184D01*
X120621892Y-95876128D01*
X120491523Y-95794211D01*
X120321254Y-95734631D01*
X120321249Y-95734630D01*
X120142004Y-95714435D01*
X120141996Y-95714435D01*
X119962750Y-95734630D01*
X119962745Y-95734631D01*
X119792476Y-95794211D01*
X119639737Y-95890184D01*
X119512184Y-96017737D01*
X119416211Y-96170476D01*
X119356631Y-96340745D01*
X119356630Y-96340750D01*
X119336435Y-96519996D01*
X119336435Y-96520003D01*
X104474499Y-96520003D01*
X104474499Y-95876128D01*
X104468091Y-95816517D01*
X104459771Y-95794211D01*
X104417797Y-95681671D01*
X104417793Y-95681664D01*
X104331547Y-95566455D01*
X104331544Y-95566452D01*
X104216335Y-95480206D01*
X104216328Y-95480202D01*
X104084917Y-95431189D01*
X104028983Y-95389318D01*
X104004566Y-95323853D01*
X104019418Y-95255580D01*
X104040563Y-95227332D01*
X104162495Y-95105401D01*
X104298035Y-94911830D01*
X104397903Y-94697663D01*
X104459063Y-94469408D01*
X104479659Y-94234000D01*
X104459063Y-93998592D01*
X104397903Y-93770337D01*
X104298035Y-93556171D01*
X104270522Y-93516877D01*
X104162494Y-93362597D01*
X103995402Y-93195506D01*
X103995396Y-93195501D01*
X103809842Y-93065575D01*
X103766217Y-93010998D01*
X103759023Y-92941500D01*
X103790546Y-92879145D01*
X103809842Y-92862425D01*
X103891106Y-92805523D01*
X103995401Y-92732495D01*
X104162495Y-92565401D01*
X104239096Y-92456003D01*
X121114435Y-92456003D01*
X121134630Y-92635249D01*
X121134631Y-92635254D01*
X121194211Y-92805523D01*
X121271153Y-92927975D01*
X121290184Y-92958262D01*
X121417738Y-93085816D01*
X121502892Y-93139322D01*
X121565216Y-93178483D01*
X121570478Y-93181789D01*
X121740745Y-93241368D01*
X121740750Y-93241369D01*
X121919996Y-93261565D01*
X121920000Y-93261565D01*
X121920004Y-93261565D01*
X122099249Y-93241369D01*
X122099252Y-93241368D01*
X122099255Y-93241368D01*
X122269522Y-93181789D01*
X122422262Y-93085816D01*
X122532677Y-92975401D01*
X131482785Y-92975401D01*
X131501602Y-93178483D01*
X131557417Y-93374648D01*
X131557422Y-93374661D01*
X131648327Y-93557222D01*
X131771237Y-93719982D01*
X131921958Y-93857381D01*
X131921960Y-93857383D01*
X131973956Y-93889577D01*
X132095363Y-93964749D01*
X132285544Y-94038425D01*
X132486024Y-94075901D01*
X132486026Y-94075901D01*
X132689974Y-94075901D01*
X132689976Y-94075901D01*
X132890456Y-94038425D01*
X133080637Y-93964749D01*
X133254041Y-93857382D01*
X133404764Y-93719980D01*
X133527673Y-93557222D01*
X133618582Y-93374651D01*
X133674397Y-93178484D01*
X133693215Y-92975401D01*
X133688820Y-92927975D01*
X133674397Y-92772318D01*
X133656666Y-92710002D01*
X136412723Y-92710002D01*
X136431793Y-92927975D01*
X136431793Y-92927979D01*
X136488422Y-93139322D01*
X136488424Y-93139326D01*
X136488425Y-93139330D01*
X136534661Y-93238484D01*
X136580897Y-93337638D01*
X136580898Y-93337639D01*
X136706402Y-93516877D01*
X136861123Y-93671598D01*
X137040361Y-93797102D01*
X137238670Y-93889575D01*
X137450023Y-93946207D01*
X137632926Y-93962208D01*
X137667998Y-93965277D01*
X137668000Y-93965277D01*
X137668002Y-93965277D01*
X137696254Y-93962805D01*
X137885977Y-93946207D01*
X138097330Y-93889575D01*
X138295639Y-93797102D01*
X138474877Y-93671598D01*
X138629598Y-93516877D01*
X138755102Y-93337639D01*
X138847575Y-93139330D01*
X138904207Y-92927977D01*
X138923277Y-92710000D01*
X138904207Y-92492023D01*
X138847575Y-92280670D01*
X138755102Y-92082362D01*
X138755100Y-92082359D01*
X138755099Y-92082357D01*
X138629599Y-91903124D01*
X138552659Y-91826184D01*
X138474877Y-91748402D01*
X138334966Y-91650435D01*
X138295638Y-91622897D01*
X138164646Y-91561815D01*
X138097330Y-91530425D01*
X138097326Y-91530424D01*
X138097322Y-91530422D01*
X137885977Y-91473793D01*
X137668002Y-91454723D01*
X137667998Y-91454723D01*
X137522682Y-91467436D01*
X137450023Y-91473793D01*
X137450020Y-91473793D01*
X137238677Y-91530422D01*
X137238668Y-91530426D01*
X137040361Y-91622898D01*
X137040357Y-91622900D01*
X136861121Y-91748402D01*
X136706402Y-91903121D01*
X136580900Y-92082357D01*
X136580898Y-92082361D01*
X136488426Y-92280668D01*
X136488422Y-92280677D01*
X136431793Y-92492020D01*
X136431793Y-92492024D01*
X136412723Y-92709997D01*
X136412723Y-92710002D01*
X133656666Y-92710002D01*
X133656665Y-92709997D01*
X133618582Y-92576151D01*
X133613229Y-92565401D01*
X133558752Y-92455996D01*
X133527673Y-92393580D01*
X133404764Y-92230822D01*
X133404762Y-92230820D01*
X133397551Y-92224246D01*
X133361269Y-92164535D01*
X133363030Y-92094688D01*
X133402273Y-92036880D01*
X133423277Y-92024787D01*
X133422546Y-92023448D01*
X133430326Y-92019198D01*
X133430331Y-92019197D01*
X133545546Y-91932947D01*
X133631796Y-91817732D01*
X133682091Y-91682884D01*
X133688500Y-91623274D01*
X133688499Y-90327529D01*
X133682091Y-90267918D01*
X133672089Y-90241102D01*
X133631797Y-90133072D01*
X133631793Y-90133065D01*
X133545547Y-90017856D01*
X133545544Y-90017853D01*
X133430335Y-89931607D01*
X133430328Y-89931603D01*
X133295482Y-89881309D01*
X133295483Y-89881309D01*
X133235883Y-89874902D01*
X133235881Y-89874901D01*
X133235873Y-89874901D01*
X133235864Y-89874901D01*
X131940129Y-89874901D01*
X131940123Y-89874902D01*
X131880516Y-89881309D01*
X131745671Y-89931603D01*
X131745664Y-89931607D01*
X131630455Y-90017853D01*
X131630452Y-90017856D01*
X131544206Y-90133065D01*
X131544202Y-90133072D01*
X131493908Y-90267918D01*
X131487501Y-90327517D01*
X131487501Y-90327524D01*
X131487500Y-90327536D01*
X131487500Y-91623271D01*
X131487501Y-91623277D01*
X131493908Y-91682884D01*
X131544202Y-91817729D01*
X131544206Y-91817736D01*
X131630452Y-91932945D01*
X131630455Y-91932948D01*
X131745664Y-92019194D01*
X131753454Y-92023448D01*
X131751755Y-92026558D01*
X131794124Y-92058228D01*
X131818588Y-92123675D01*
X131803784Y-92191959D01*
X131778452Y-92224243D01*
X131771236Y-92230820D01*
X131648327Y-92393579D01*
X131557422Y-92576140D01*
X131557417Y-92576153D01*
X131501602Y-92772318D01*
X131482785Y-92975400D01*
X131482785Y-92975401D01*
X122532677Y-92975401D01*
X122549816Y-92958262D01*
X122645789Y-92805522D01*
X122705368Y-92635255D01*
X122712027Y-92576153D01*
X122725565Y-92456003D01*
X122725565Y-92455996D01*
X122705369Y-92276750D01*
X122705368Y-92276745D01*
X122663699Y-92157663D01*
X122645789Y-92106478D01*
X122615471Y-92058228D01*
X122549815Y-91953737D01*
X122422262Y-91826184D01*
X122269523Y-91730211D01*
X122099254Y-91670631D01*
X122099249Y-91670630D01*
X121920004Y-91650435D01*
X121919996Y-91650435D01*
X121740750Y-91670630D01*
X121740745Y-91670631D01*
X121570476Y-91730211D01*
X121417737Y-91826184D01*
X121290184Y-91953737D01*
X121194211Y-92106476D01*
X121134631Y-92276745D01*
X121134630Y-92276750D01*
X121114435Y-92455996D01*
X121114435Y-92456003D01*
X104239096Y-92456003D01*
X104298035Y-92371830D01*
X104397903Y-92157663D01*
X104459063Y-91929408D01*
X104479659Y-91694000D01*
X104478686Y-91682884D01*
X104465348Y-91530426D01*
X104459063Y-91458592D01*
X104397903Y-91230337D01*
X104298035Y-91016171D01*
X104239101Y-90932003D01*
X117558435Y-90932003D01*
X117578630Y-91111249D01*
X117578631Y-91111254D01*
X117638211Y-91281523D01*
X117734184Y-91434262D01*
X117861738Y-91561816D01*
X117952080Y-91618582D01*
X117959552Y-91623277D01*
X118014478Y-91657789D01*
X118117963Y-91694000D01*
X118184745Y-91717368D01*
X118184750Y-91717369D01*
X118363996Y-91737565D01*
X118364000Y-91737565D01*
X118364004Y-91737565D01*
X118543249Y-91717369D01*
X118543252Y-91717368D01*
X118543255Y-91717368D01*
X118713522Y-91657789D01*
X118866262Y-91561816D01*
X118993816Y-91434262D01*
X119089789Y-91281522D01*
X119149368Y-91111255D01*
X119149369Y-91111249D01*
X119169565Y-90932003D01*
X119169565Y-90931996D01*
X119149369Y-90752750D01*
X119149368Y-90752745D01*
X119115343Y-90655508D01*
X119089789Y-90582478D01*
X118993816Y-90429738D01*
X118866262Y-90302184D01*
X118811728Y-90267918D01*
X118713523Y-90206211D01*
X118543254Y-90146631D01*
X118543249Y-90146630D01*
X118364004Y-90126435D01*
X118363996Y-90126435D01*
X118184750Y-90146630D01*
X118184745Y-90146631D01*
X118014476Y-90206211D01*
X117861737Y-90302184D01*
X117734184Y-90429737D01*
X117638211Y-90582476D01*
X117578631Y-90752745D01*
X117578630Y-90752750D01*
X117558435Y-90931996D01*
X117558435Y-90932003D01*
X104239101Y-90932003D01*
X104162494Y-90822597D01*
X103995402Y-90655506D01*
X103995401Y-90655505D01*
X103809405Y-90525269D01*
X103765781Y-90470692D01*
X103758588Y-90401193D01*
X103790110Y-90338839D01*
X103809405Y-90322119D01*
X103995082Y-90192105D01*
X104162105Y-90025082D01*
X104297600Y-89831578D01*
X104397429Y-89617492D01*
X104397432Y-89617486D01*
X104454636Y-89404000D01*
X103557012Y-89404000D01*
X103589925Y-89346993D01*
X103624000Y-89219826D01*
X103624000Y-89088174D01*
X103589925Y-88961007D01*
X103557012Y-88904000D01*
X104454636Y-88904000D01*
X104454635Y-88903999D01*
X104397432Y-88690513D01*
X104397429Y-88690507D01*
X104297600Y-88476422D01*
X104297599Y-88476420D01*
X104162113Y-88282926D01*
X104162108Y-88282920D01*
X103995082Y-88115894D01*
X103808968Y-87985575D01*
X103765344Y-87930998D01*
X103758151Y-87861499D01*
X103789673Y-87799145D01*
X103808968Y-87782425D01*
X103995082Y-87652105D01*
X104162105Y-87485082D01*
X104297600Y-87291578D01*
X104397429Y-87077492D01*
X104397432Y-87077486D01*
X104454636Y-86864000D01*
X103557012Y-86864000D01*
X103589925Y-86806993D01*
X103624000Y-86679826D01*
X103624000Y-86548174D01*
X103589925Y-86421007D01*
X103557012Y-86364000D01*
X104454636Y-86364000D01*
X104454635Y-86363999D01*
X104397432Y-86150513D01*
X104397429Y-86150507D01*
X104297600Y-85936422D01*
X104297599Y-85936420D01*
X104181238Y-85770240D01*
X111211311Y-85770240D01*
X111299585Y-85824897D01*
X111489678Y-85898539D01*
X111690072Y-85936000D01*
X111893928Y-85936000D01*
X112094322Y-85898539D01*
X112284412Y-85824899D01*
X112284416Y-85824897D01*
X112372686Y-85770241D01*
X112372686Y-85770240D01*
X111792001Y-85189553D01*
X111792000Y-85189553D01*
X111211311Y-85770240D01*
X104181238Y-85770240D01*
X104162113Y-85742926D01*
X104162108Y-85742920D01*
X103995082Y-85575894D01*
X103808968Y-85445575D01*
X103765344Y-85390998D01*
X103758151Y-85321499D01*
X103789673Y-85259145D01*
X103808968Y-85242425D01*
X103995082Y-85112105D01*
X104162105Y-84945082D01*
X104238486Y-84836000D01*
X110687287Y-84836000D01*
X110706096Y-85038989D01*
X110706097Y-85038992D01*
X110761883Y-85235063D01*
X110761886Y-85235069D01*
X110852751Y-85417551D01*
X110854533Y-85419911D01*
X111398950Y-84875496D01*
X111492000Y-84875496D01*
X111512444Y-84951796D01*
X111551940Y-85020205D01*
X111607795Y-85076060D01*
X111676204Y-85115556D01*
X111752504Y-85136000D01*
X111831496Y-85136000D01*
X111907796Y-85115556D01*
X111976205Y-85076060D01*
X112032060Y-85020205D01*
X112071556Y-84951796D01*
X112092000Y-84875496D01*
X112092000Y-84836000D01*
X112145553Y-84836000D01*
X112655181Y-85345628D01*
X112688666Y-85406951D01*
X112691500Y-85433307D01*
X112691500Y-85483869D01*
X112691501Y-85483876D01*
X112697908Y-85543483D01*
X112748202Y-85678328D01*
X112748206Y-85678335D01*
X112834452Y-85793544D01*
X112834455Y-85793547D01*
X112949664Y-85879793D01*
X112949671Y-85879797D01*
X113084517Y-85930091D01*
X113084516Y-85930091D01*
X113091444Y-85930835D01*
X113144127Y-85936500D01*
X114439872Y-85936499D01*
X114499483Y-85930091D01*
X114634331Y-85879796D01*
X114749546Y-85793546D01*
X114835796Y-85678331D01*
X114886091Y-85543483D01*
X114892500Y-85483873D01*
X114892499Y-84188128D01*
X114886091Y-84128517D01*
X114885678Y-84127411D01*
X114835797Y-83993671D01*
X114835793Y-83993664D01*
X114749547Y-83878455D01*
X114749544Y-83878452D01*
X114634335Y-83792206D01*
X114634328Y-83792202D01*
X114499482Y-83741908D01*
X114499483Y-83741908D01*
X114439883Y-83735501D01*
X114439881Y-83735500D01*
X114439873Y-83735500D01*
X114439864Y-83735500D01*
X113144129Y-83735500D01*
X113144123Y-83735501D01*
X113084516Y-83741908D01*
X112949671Y-83792202D01*
X112949664Y-83792206D01*
X112834455Y-83878452D01*
X112834452Y-83878455D01*
X112748206Y-83993664D01*
X112748202Y-83993671D01*
X112697908Y-84128517D01*
X112691501Y-84188116D01*
X112691501Y-84188123D01*
X112691500Y-84188135D01*
X112691500Y-84238691D01*
X112671815Y-84305730D01*
X112655181Y-84326372D01*
X112145553Y-84836000D01*
X112092000Y-84836000D01*
X112092000Y-84796504D01*
X112071556Y-84720204D01*
X112032060Y-84651795D01*
X111976205Y-84595940D01*
X111907796Y-84556444D01*
X111831496Y-84536000D01*
X111752504Y-84536000D01*
X111676204Y-84556444D01*
X111607795Y-84595940D01*
X111551940Y-84651795D01*
X111512444Y-84720204D01*
X111492000Y-84796504D01*
X111492000Y-84875496D01*
X111398950Y-84875496D01*
X111438446Y-84836000D01*
X110854533Y-84252087D01*
X110852755Y-84254442D01*
X110852754Y-84254443D01*
X110761886Y-84436930D01*
X110761883Y-84436936D01*
X110706097Y-84633007D01*
X110706096Y-84633010D01*
X110687287Y-84835999D01*
X110687287Y-84836000D01*
X104238486Y-84836000D01*
X104297600Y-84751578D01*
X104397429Y-84537492D01*
X104397432Y-84537486D01*
X104454636Y-84324000D01*
X103557012Y-84324000D01*
X103589925Y-84266993D01*
X103624000Y-84139826D01*
X103624000Y-84008174D01*
X103595485Y-83901758D01*
X111211311Y-83901758D01*
X111792000Y-84482446D01*
X111792001Y-84482446D01*
X112372687Y-83901758D01*
X112284413Y-83847101D01*
X112284411Y-83847100D01*
X112094321Y-83773460D01*
X111893928Y-83736000D01*
X111690072Y-83736000D01*
X111489678Y-83773460D01*
X111299588Y-83847100D01*
X111299581Y-83847104D01*
X111211312Y-83901757D01*
X111211311Y-83901758D01*
X103595485Y-83901758D01*
X103589925Y-83881007D01*
X103557012Y-83824000D01*
X104454636Y-83824000D01*
X104454635Y-83823999D01*
X104397432Y-83610513D01*
X104397429Y-83610507D01*
X104297600Y-83396422D01*
X104297599Y-83396420D01*
X104162113Y-83202926D01*
X104162108Y-83202920D01*
X103995082Y-83035894D01*
X103801578Y-82900399D01*
X103587492Y-82800570D01*
X103587486Y-82800567D01*
X103374000Y-82743364D01*
X103374000Y-83640988D01*
X103316993Y-83608075D01*
X103189826Y-83574000D01*
X103058174Y-83574000D01*
X102931007Y-83608075D01*
X102874000Y-83640988D01*
X102874000Y-82743364D01*
X102873999Y-82743364D01*
X102660513Y-82800567D01*
X102660507Y-82800570D01*
X102446422Y-82900399D01*
X102446420Y-82900400D01*
X102252926Y-83035886D01*
X102252920Y-83035891D01*
X102085891Y-83202920D01*
X102085886Y-83202926D01*
X101950400Y-83396420D01*
X101950399Y-83396422D01*
X101850570Y-83610507D01*
X101850567Y-83610513D01*
X101793364Y-83823999D01*
X101793364Y-83824000D01*
X102690988Y-83824000D01*
X102658075Y-83881007D01*
X102624000Y-84008174D01*
X102624000Y-84139826D01*
X102658075Y-84266993D01*
X102690988Y-84324000D01*
X101793364Y-84324000D01*
X101850567Y-84537486D01*
X101850570Y-84537492D01*
X101950399Y-84751578D01*
X102085894Y-84945082D01*
X102252917Y-85112105D01*
X102439031Y-85242425D01*
X102482656Y-85297003D01*
X102489848Y-85366501D01*
X102458326Y-85428856D01*
X102439031Y-85445575D01*
X102252922Y-85575890D01*
X102252920Y-85575891D01*
X102085891Y-85742920D01*
X102085886Y-85742926D01*
X101950400Y-85936420D01*
X101950399Y-85936422D01*
X101850570Y-86150507D01*
X101850567Y-86150513D01*
X101793364Y-86363999D01*
X101793364Y-86364000D01*
X102690988Y-86364000D01*
X102658075Y-86421007D01*
X102624000Y-86548174D01*
X102624000Y-86679826D01*
X102658075Y-86806993D01*
X102690988Y-86864000D01*
X101793364Y-86864000D01*
X101850567Y-87077486D01*
X101850570Y-87077492D01*
X101950399Y-87291578D01*
X102085894Y-87485082D01*
X102252917Y-87652105D01*
X102439031Y-87782425D01*
X102482656Y-87837003D01*
X102489848Y-87906501D01*
X102458326Y-87968856D01*
X102439031Y-87985575D01*
X102252922Y-88115890D01*
X102252920Y-88115891D01*
X102085891Y-88282920D01*
X102085886Y-88282926D01*
X101950400Y-88476420D01*
X101950399Y-88476422D01*
X101850570Y-88690507D01*
X101850567Y-88690513D01*
X101793364Y-88903999D01*
X101793364Y-88904000D01*
X102690988Y-88904000D01*
X102658075Y-88961007D01*
X102624000Y-89088174D01*
X102624000Y-89219826D01*
X102658075Y-89346993D01*
X102690988Y-89404000D01*
X101793364Y-89404000D01*
X101850567Y-89617486D01*
X101850570Y-89617492D01*
X101950399Y-89831578D01*
X102085894Y-90025082D01*
X102252917Y-90192105D01*
X102438595Y-90322119D01*
X102482219Y-90376696D01*
X102489412Y-90446195D01*
X102457890Y-90508549D01*
X102438595Y-90525269D01*
X102252594Y-90655508D01*
X102085505Y-90822597D01*
X101949965Y-91016169D01*
X101949964Y-91016171D01*
X101850098Y-91230335D01*
X101850094Y-91230344D01*
X101788938Y-91458586D01*
X101788936Y-91458596D01*
X101768341Y-91693999D01*
X101768341Y-91694000D01*
X101788936Y-91929403D01*
X101788938Y-91929413D01*
X101850094Y-92157655D01*
X101850096Y-92157659D01*
X101850097Y-92157663D01*
X101907456Y-92280670D01*
X101949965Y-92371830D01*
X101949967Y-92371834D01*
X102085501Y-92565395D01*
X102085506Y-92565402D01*
X102252597Y-92732493D01*
X102252603Y-92732498D01*
X102438158Y-92862425D01*
X102481783Y-92917002D01*
X102488977Y-92986500D01*
X102457454Y-93048855D01*
X102438158Y-93065575D01*
X102252597Y-93195505D01*
X102085505Y-93362597D01*
X101949965Y-93556169D01*
X101949964Y-93556171D01*
X101850098Y-93770335D01*
X101850094Y-93770344D01*
X101788938Y-93998586D01*
X101788936Y-93998596D01*
X101768341Y-94233999D01*
X101768341Y-94234000D01*
X74967500Y-94234000D01*
X74967500Y-89154002D01*
X87644723Y-89154002D01*
X87663793Y-89371975D01*
X87663793Y-89371979D01*
X87720422Y-89583322D01*
X87720424Y-89583326D01*
X87720425Y-89583330D01*
X87736355Y-89617492D01*
X87812897Y-89781638D01*
X87837998Y-89817486D01*
X87938402Y-89960877D01*
X88093123Y-90115598D01*
X88272361Y-90241102D01*
X88470670Y-90333575D01*
X88682023Y-90390207D01*
X88864926Y-90406208D01*
X88899998Y-90409277D01*
X88900000Y-90409277D01*
X88900002Y-90409277D01*
X88928254Y-90406805D01*
X89117977Y-90390207D01*
X89329330Y-90333575D01*
X89527639Y-90241102D01*
X89706877Y-90115598D01*
X89861598Y-89960877D01*
X89987102Y-89781639D01*
X90079575Y-89583330D01*
X90136207Y-89371977D01*
X90155277Y-89154000D01*
X90136207Y-88936023D01*
X90101548Y-88806675D01*
X90079577Y-88724677D01*
X90079576Y-88724676D01*
X90079575Y-88724670D01*
X89987102Y-88526362D01*
X89987100Y-88526359D01*
X89987099Y-88526357D01*
X89861599Y-88347124D01*
X89797395Y-88282920D01*
X89706877Y-88192402D01*
X89527639Y-88066898D01*
X89527640Y-88066898D01*
X89527638Y-88066897D01*
X89363824Y-87990510D01*
X89329330Y-87974425D01*
X89329326Y-87974424D01*
X89329322Y-87974422D01*
X89117977Y-87917793D01*
X88900002Y-87898723D01*
X88899998Y-87898723D01*
X88754682Y-87911436D01*
X88682023Y-87917793D01*
X88682020Y-87917793D01*
X88470677Y-87974422D01*
X88470668Y-87974426D01*
X88272361Y-88066898D01*
X88272357Y-88066900D01*
X88093121Y-88192402D01*
X87938402Y-88347121D01*
X87812900Y-88526357D01*
X87812898Y-88526361D01*
X87720426Y-88724668D01*
X87720422Y-88724677D01*
X87663793Y-88936020D01*
X87663793Y-88936024D01*
X87644723Y-89153997D01*
X87644723Y-89154002D01*
X74967500Y-89154002D01*
X74967500Y-85634997D01*
X74987185Y-85567958D01*
X75039989Y-85522203D01*
X75097303Y-85511142D01*
X76025708Y-84582736D01*
X76122967Y-84716602D01*
X76245398Y-84839033D01*
X76379262Y-84936290D01*
X75448564Y-85866987D01*
X75448565Y-85866989D01*
X75673461Y-86030385D01*
X75673479Y-86030397D01*
X75938109Y-86175878D01*
X75938117Y-86175882D01*
X76218889Y-86287047D01*
X76218892Y-86287048D01*
X76511399Y-86362150D01*
X76810995Y-86399999D01*
X76811007Y-86400000D01*
X77112993Y-86400000D01*
X77113004Y-86399999D01*
X77412600Y-86362150D01*
X77705107Y-86287048D01*
X77705110Y-86287047D01*
X77985882Y-86175882D01*
X77985890Y-86175878D01*
X78250520Y-86030397D01*
X78250530Y-86030390D01*
X78475433Y-85866987D01*
X78475434Y-85866987D01*
X77544737Y-84936290D01*
X77678602Y-84839033D01*
X77801033Y-84716602D01*
X77898290Y-84582737D01*
X78826687Y-85511134D01*
X78907486Y-85413464D01*
X78951569Y-85344000D01*
X81452551Y-85344000D01*
X81472317Y-85595151D01*
X81531126Y-85840110D01*
X81627533Y-86072859D01*
X81759160Y-86287653D01*
X81759161Y-86287656D01*
X81814604Y-86352571D01*
X81922776Y-86479224D01*
X82007259Y-86551379D01*
X82114343Y-86642838D01*
X82114346Y-86642839D01*
X82329140Y-86774466D01*
X82407668Y-86806993D01*
X82561889Y-86870873D01*
X82806852Y-86929683D01*
X83058000Y-86949449D01*
X83309148Y-86929683D01*
X83554111Y-86870873D01*
X83786859Y-86774466D01*
X83919445Y-86693217D01*
X83986890Y-86674972D01*
X84053493Y-86696088D01*
X84083502Y-86724633D01*
X84140813Y-86801190D01*
X84255906Y-86887350D01*
X84255913Y-86887354D01*
X84390620Y-86937596D01*
X84390627Y-86937598D01*
X84450155Y-86943999D01*
X84450172Y-86944000D01*
X85348000Y-86944000D01*
X85348000Y-85834747D01*
X85385708Y-85856518D01*
X85525591Y-85894000D01*
X85670409Y-85894000D01*
X85810292Y-85856518D01*
X85848000Y-85834747D01*
X85848000Y-86944000D01*
X86745828Y-86944000D01*
X86745844Y-86943999D01*
X86805372Y-86937598D01*
X86805379Y-86937596D01*
X86940086Y-86887354D01*
X86940093Y-86887350D01*
X87055187Y-86801190D01*
X87055190Y-86801187D01*
X87141350Y-86686093D01*
X87141354Y-86686086D01*
X87191596Y-86551379D01*
X87191598Y-86551372D01*
X87197999Y-86491844D01*
X87198000Y-86491827D01*
X87198000Y-85594000D01*
X86088748Y-85594000D01*
X86110518Y-85556292D01*
X86148000Y-85416409D01*
X86148000Y-85271591D01*
X86110518Y-85131708D01*
X86088748Y-85094000D01*
X87198000Y-85094000D01*
X87198000Y-84196172D01*
X87197999Y-84196155D01*
X87191598Y-84136627D01*
X87191596Y-84136620D01*
X87141354Y-84001913D01*
X87141350Y-84001906D01*
X87055190Y-83886812D01*
X87055187Y-83886809D01*
X86940093Y-83800649D01*
X86940086Y-83800645D01*
X86805379Y-83750403D01*
X86805372Y-83750401D01*
X86745844Y-83744000D01*
X86040782Y-83744000D01*
X85973743Y-83724315D01*
X85927988Y-83671511D01*
X85918044Y-83602353D01*
X85947069Y-83538797D01*
X85973000Y-83518105D01*
X85972114Y-83516779D01*
X86040363Y-83471175D01*
X86108289Y-83425789D01*
X86219789Y-83314289D01*
X86307394Y-83183179D01*
X86367737Y-83037497D01*
X86398500Y-82882842D01*
X86398500Y-82725158D01*
X86398500Y-82725155D01*
X86398499Y-82725153D01*
X86390990Y-82687403D01*
X86367737Y-82570503D01*
X86338890Y-82500859D01*
X86307397Y-82424827D01*
X86307390Y-82424814D01*
X86219789Y-82293711D01*
X86219786Y-82293707D01*
X86108292Y-82182213D01*
X86108288Y-82182210D01*
X85977185Y-82094609D01*
X85977172Y-82094602D01*
X85831501Y-82034264D01*
X85831489Y-82034261D01*
X85676845Y-82003500D01*
X85676842Y-82003500D01*
X85519158Y-82003500D01*
X85519155Y-82003500D01*
X85364510Y-82034261D01*
X85364498Y-82034264D01*
X85218827Y-82094602D01*
X85218814Y-82094609D01*
X85087711Y-82182210D01*
X85087707Y-82182213D01*
X84976213Y-82293707D01*
X84976210Y-82293711D01*
X84888609Y-82424814D01*
X84888602Y-82424827D01*
X84828264Y-82570498D01*
X84828261Y-82570510D01*
X84797500Y-82725153D01*
X84797500Y-82882846D01*
X84828261Y-83037489D01*
X84828264Y-83037501D01*
X84888602Y-83183172D01*
X84888609Y-83183185D01*
X84976210Y-83314288D01*
X84976213Y-83314292D01*
X85087707Y-83425786D01*
X85087711Y-83425789D01*
X85223886Y-83516779D01*
X85222304Y-83519145D01*
X85263474Y-83559530D01*
X85278981Y-83627657D01*
X85255195Y-83693353D01*
X85199666Y-83735760D01*
X85155218Y-83744000D01*
X84450155Y-83744000D01*
X84390627Y-83750401D01*
X84390620Y-83750403D01*
X84255913Y-83800645D01*
X84255906Y-83800649D01*
X84140812Y-83886809D01*
X84140809Y-83886812D01*
X84083501Y-83963366D01*
X84027567Y-84005237D01*
X83957876Y-84010221D01*
X83919445Y-83994783D01*
X83786854Y-83913531D01*
X83554110Y-83817126D01*
X83386956Y-83776997D01*
X83326364Y-83742206D01*
X83294200Y-83680180D01*
X83300676Y-83610611D01*
X83343735Y-83555587D01*
X83368451Y-83541862D01*
X83437173Y-83513397D01*
X83437176Y-83513395D01*
X83437179Y-83513394D01*
X83568289Y-83425789D01*
X83679789Y-83314289D01*
X83767394Y-83183179D01*
X83827737Y-83037497D01*
X83858500Y-82882842D01*
X83858500Y-82725158D01*
X83858500Y-82725155D01*
X83858499Y-82725153D01*
X83850990Y-82687403D01*
X83827737Y-82570503D01*
X83798890Y-82500859D01*
X83767397Y-82424827D01*
X83767390Y-82424814D01*
X83679789Y-82293711D01*
X83679786Y-82293707D01*
X83568292Y-82182213D01*
X83568288Y-82182210D01*
X83437185Y-82094609D01*
X83437172Y-82094602D01*
X83291501Y-82034264D01*
X83291489Y-82034261D01*
X83136845Y-82003500D01*
X83136842Y-82003500D01*
X82979158Y-82003500D01*
X82979155Y-82003500D01*
X82824510Y-82034261D01*
X82824498Y-82034264D01*
X82678827Y-82094602D01*
X82678814Y-82094609D01*
X82547711Y-82182210D01*
X82547707Y-82182213D01*
X82436213Y-82293707D01*
X82436210Y-82293711D01*
X82348609Y-82424814D01*
X82348602Y-82424827D01*
X82288264Y-82570498D01*
X82288261Y-82570510D01*
X82257500Y-82725153D01*
X82257500Y-82882846D01*
X82288261Y-83037489D01*
X82288264Y-83037501D01*
X82348602Y-83183172D01*
X82348609Y-83183185D01*
X82436210Y-83314288D01*
X82436213Y-83314292D01*
X82547707Y-83425786D01*
X82547711Y-83425789D01*
X82678814Y-83513390D01*
X82678827Y-83513397D01*
X82747548Y-83541862D01*
X82801952Y-83585703D01*
X82824017Y-83651997D01*
X82806738Y-83719696D01*
X82755601Y-83767307D01*
X82729043Y-83776997D01*
X82561889Y-83817126D01*
X82329140Y-83913533D01*
X82114346Y-84045160D01*
X82114343Y-84045161D01*
X81922776Y-84208776D01*
X81759161Y-84400343D01*
X81759160Y-84400346D01*
X81627533Y-84615140D01*
X81531126Y-84847889D01*
X81472317Y-85092848D01*
X81452551Y-85344000D01*
X78951569Y-85344000D01*
X79069292Y-85158497D01*
X79069295Y-85158491D01*
X79197872Y-84885252D01*
X79197874Y-84885247D01*
X79291194Y-84598040D01*
X79347783Y-84301390D01*
X79347784Y-84301383D01*
X79366745Y-84000005D01*
X79366745Y-83999994D01*
X79347784Y-83698616D01*
X79347783Y-83698609D01*
X79291194Y-83401959D01*
X79197874Y-83114752D01*
X79197872Y-83114747D01*
X79069295Y-82841508D01*
X79069292Y-82841502D01*
X78907483Y-82586530D01*
X78826686Y-82488864D01*
X77898289Y-83417261D01*
X77801033Y-83283398D01*
X77678602Y-83160967D01*
X77544736Y-83063709D01*
X78475434Y-82133011D01*
X78475433Y-82133009D01*
X78250538Y-81969614D01*
X78250520Y-81969602D01*
X77985890Y-81824121D01*
X77985882Y-81824117D01*
X77838568Y-81765792D01*
X77783482Y-81722811D01*
X77760379Y-81656872D01*
X77776592Y-81588909D01*
X77826976Y-81540502D01*
X77884215Y-81526500D01*
X146444877Y-81526500D01*
X146511916Y-81546185D01*
G37*
%TD.AperFunction*%
%TA.AperFunction,Conductor*%
G36*
X151591916Y-81546185D02*
G01*
X151637671Y-81598989D01*
X151647615Y-81668147D01*
X151618590Y-81731703D01*
X151589667Y-81756227D01*
X151441893Y-81846782D01*
X151438086Y-81850032D01*
X152075975Y-82487921D01*
X152044742Y-82500859D01*
X151921903Y-82582937D01*
X151817437Y-82687403D01*
X151735359Y-82810242D01*
X151722421Y-82841475D01*
X151084532Y-82203586D01*
X151081282Y-82207393D01*
X150947636Y-82425484D01*
X150947634Y-82425487D01*
X150849752Y-82661797D01*
X150790042Y-82910510D01*
X150769975Y-83165500D01*
X150790042Y-83420489D01*
X150849752Y-83669202D01*
X150948892Y-83908548D01*
X150956361Y-83978017D01*
X150925086Y-84040496D01*
X150864997Y-84076148D01*
X150834331Y-84080000D01*
X148885668Y-84080000D01*
X148818629Y-84060315D01*
X148772874Y-84007511D01*
X148762930Y-83938353D01*
X148771107Y-83908547D01*
X148870247Y-83669200D01*
X148929957Y-83420489D01*
X148950024Y-83165500D01*
X148929957Y-82910510D01*
X148870247Y-82661797D01*
X148772365Y-82425487D01*
X148772363Y-82425484D01*
X148638719Y-82207397D01*
X148635465Y-82203587D01*
X147997577Y-82841474D01*
X147984641Y-82810242D01*
X147902563Y-82687403D01*
X147798097Y-82582937D01*
X147675258Y-82500859D01*
X147644024Y-82487921D01*
X148281912Y-81850033D01*
X148278107Y-81846784D01*
X148278098Y-81846777D01*
X148130333Y-81756227D01*
X148083458Y-81704416D01*
X148072035Y-81635486D01*
X148099692Y-81571323D01*
X148157648Y-81532298D01*
X148195123Y-81526500D01*
X151524877Y-81526500D01*
X151591916Y-81546185D01*
G37*
%TD.AperFunction*%
%TA.AperFunction,Conductor*%
G36*
X76106824Y-81546185D02*
G01*
X76152579Y-81598989D01*
X76162523Y-81668147D01*
X76133498Y-81731703D01*
X76085432Y-81765792D01*
X75938117Y-81824117D01*
X75938109Y-81824121D01*
X75673476Y-81969604D01*
X75673471Y-81969607D01*
X75448565Y-82133010D01*
X75448564Y-82133011D01*
X76379262Y-83063709D01*
X76245398Y-83160967D01*
X76122967Y-83283398D01*
X76025709Y-83417262D01*
X75097300Y-82488853D01*
X75029449Y-82472359D01*
X74981257Y-82421769D01*
X74967500Y-82365001D01*
X74967500Y-81650500D01*
X74987185Y-81583461D01*
X75039989Y-81537706D01*
X75091500Y-81526500D01*
X76039785Y-81526500D01*
X76106824Y-81546185D01*
G37*
%TD.AperFunction*%
%TA.AperFunction,Conductor*%
G36*
X159417539Y-81546185D02*
G01*
X159463294Y-81598989D01*
X159474500Y-81650500D01*
X159474500Y-82365001D01*
X159454815Y-82432040D01*
X159402011Y-82477795D01*
X159344696Y-82488855D01*
X158416289Y-83417261D01*
X158319033Y-83283398D01*
X158196602Y-83160967D01*
X158062736Y-83063709D01*
X158993434Y-82133011D01*
X158993433Y-82133009D01*
X158768538Y-81969614D01*
X158768520Y-81969602D01*
X158503890Y-81824121D01*
X158503882Y-81824117D01*
X158356568Y-81765792D01*
X158301482Y-81722811D01*
X158278379Y-81656872D01*
X158294592Y-81588909D01*
X158344976Y-81540502D01*
X158402215Y-81526500D01*
X159350500Y-81526500D01*
X159417539Y-81546185D01*
G37*
%TD.AperFunction*%
%TD*%
M02*
