%TF.GenerationSoftware,KiCad,Pcbnew,8.0.1*%
%TF.CreationDate,2024-04-12T19:13:52-04:00*%
%TF.ProjectId,adc_fpga,6164635f-6670-4676-912e-6b696361645f,rev?*%
%TF.SameCoordinates,Original*%
%TF.FileFunction,Copper,L4,Bot*%
%TF.FilePolarity,Positive*%
%FSLAX46Y46*%
G04 Gerber Fmt 4.6, Leading zero omitted, Abs format (unit mm)*
G04 Created by KiCad (PCBNEW 8.0.1) date 2024-04-12 19:13:52*
%MOMM*%
%LPD*%
G01*
G04 APERTURE LIST*
%TA.AperFunction,ComponentPad*%
%ADD10C,3.800000*%
%TD*%
%TA.AperFunction,ComponentPad*%
%ADD11C,1.500000*%
%TD*%
%TA.AperFunction,ComponentPad*%
%ADD12C,1.524000*%
%TD*%
%TA.AperFunction,ComponentPad*%
%ADD13R,1.200000X1.200000*%
%TD*%
%TA.AperFunction,ComponentPad*%
%ADD14C,1.200000*%
%TD*%
%TA.AperFunction,ComponentPad*%
%ADD15R,1.700000X1.700000*%
%TD*%
%TA.AperFunction,ComponentPad*%
%ADD16O,1.700000X1.700000*%
%TD*%
%TA.AperFunction,ComponentPad*%
%ADD17R,2.250000X2.250000*%
%TD*%
%TA.AperFunction,ComponentPad*%
%ADD18C,2.250000*%
%TD*%
%TA.AperFunction,ComponentPad*%
%ADD19R,2.200000X2.200000*%
%TD*%
%TA.AperFunction,ComponentPad*%
%ADD20C,2.200000*%
%TD*%
%TA.AperFunction,ViaPad*%
%ADD21C,0.600000*%
%TD*%
G04 APERTURE END LIST*
D10*
%TO.P,REF\u002A\u002A,1*%
%TO.N,GND*%
X77000000Y-84000000D03*
%TD*%
%TO.P,REF\u002A\u002A,1*%
%TO.N,GND*%
X157000000Y-84000000D03*
%TD*%
%TO.P,REF\u002A\u002A,1*%
%TO.N,GND*%
X77000000Y-131000000D03*
%TD*%
%TO.P,REF\u002A\u002A,1*%
%TO.N,GND*%
X157000000Y-131000000D03*
%TD*%
D11*
%TO.P,TP2,1,1*%
%TO.N,Net-(U3-VRM)*%
X137668000Y-92710000D03*
%TD*%
%TO.P,TP4,1,1*%
%TO.N,+3.3V*%
X88900000Y-89154000D03*
%TD*%
%TO.P,TP1,1,1*%
%TO.N,Net-(U2-A4)*%
X148336000Y-128016000D03*
%TD*%
D12*
%TO.P,U2,1,L1*%
%TO.N,Net-(U2-L1)*%
X148245000Y-108530000D03*
%TO.P,U2,2,M4*%
%TO.N,Net-(U2-M4)*%
X145705000Y-108530000D03*
%TO.P,U2,3,M3*%
%TO.N,Net-(U2-M3)*%
X143165000Y-108530000D03*
%TO.P,U2,4,N2*%
%TO.N,Net-(U2-N2)*%
X140625000Y-108530000D03*
%TO.P,U2,5,M2*%
%TO.N,Net-(U2-M2)*%
X138085000Y-108530000D03*
%TO.P,U2,6,P3*%
%TO.N,Net-(U2-P3)*%
X135545000Y-108530000D03*
%TO.P,U2,7,N3*%
%TO.N,Net-(U2-N3)*%
X133005000Y-108530000D03*
%TO.P,U2,8,P1*%
%TO.N,Net-(U2-P1)*%
X130465000Y-108530000D03*
%TO.P,U2,9,N1*%
%TO.N,Net-(U2-N1)*%
X127925000Y-108530000D03*
%TO.P,U2,16,P14*%
%TO.N,Net-(U2-P14)*%
X110145000Y-108530000D03*
%TO.P,U2,17,P15*%
%TO.N,Net-(U2-P15)*%
X107605000Y-108530000D03*
%TO.P,U2,18,N13*%
%TO.N,Net-(U2-N13)*%
X105065000Y-108530000D03*
%TO.P,U2,19,N15*%
%TO.N,Net-(U2-N15)*%
X102525000Y-108530000D03*
%TO.P,U2,20,N14*%
%TO.N,Net-(U2-N14)*%
X99985000Y-108530000D03*
%TO.P,U2,21,M15*%
%TO.N,Net-(U2-M15)*%
X97445000Y-108530000D03*
%TO.P,U2,22,M14*%
%TO.N,Net-(U2-M14)*%
X94905000Y-108530000D03*
%TO.P,U2,23,L15*%
%TO.N,Net-(U2-L15)*%
X92365000Y-108530000D03*
%TO.P,U2,24,VU*%
%TO.N,+5V*%
X89825000Y-108530000D03*
%TO.P,U2,25,GND*%
%TO.N,GND*%
X89825000Y-121230000D03*
%TO.P,U2,26,L14*%
%TO.N,Net-(U2-L14)*%
X92365000Y-121230000D03*
%TO.P,U2,27,K14*%
%TO.N,Net-(U2-K14)*%
X94905000Y-121230000D03*
%TO.P,U2,28,J15*%
%TO.N,Net-(U2-J15)*%
X97445000Y-121230000D03*
%TO.P,U2,29,L13*%
%TO.N,Net-(U2-L13)*%
X99985000Y-121230000D03*
%TO.P,U2,30,M13*%
%TO.N,Net-(U2-M13)*%
X102525000Y-121230000D03*
%TO.P,U2,31,J11*%
%TO.N,Net-(U2-J11)*%
X105065000Y-121230000D03*
%TO.P,U2,32,A32*%
%TO.N,Net-(U2-A32)*%
X107605000Y-121230000D03*
%TO.P,U2,33,A33*%
%TO.N,Net-(U2-A33)*%
X110145000Y-121230000D03*
%TO.P,U2,40,C5*%
%TO.N,Net-(U2-C5)*%
X127925000Y-121230000D03*
%TO.P,U2,41,A2*%
%TO.N,Net-(U2-A2)*%
X130465000Y-121230000D03*
%TO.P,U2,42,B2*%
%TO.N,Net-(U2-B2)*%
X133005000Y-121230000D03*
%TO.P,U2,43,B1*%
%TO.N,Net-(U2-B1)*%
X135545000Y-121230000D03*
%TO.P,U2,44,C1*%
%TO.N,Net-(U2-C1)*%
X138085000Y-121230000D03*
%TO.P,U2,45,B3*%
%TO.N,Net-(U2-B3)*%
X140625000Y-121230000D03*
%TO.P,U2,46,B4*%
%TO.N,Net-(U2-B4)*%
X143165000Y-121230000D03*
%TO.P,U2,47,A3*%
%TO.N,Net-(U2-A3)*%
X145705000Y-121230000D03*
%TO.P,U2,48,A4*%
%TO.N,Net-(U2-A4)*%
X148245000Y-121230000D03*
%TD*%
D13*
%TO.P,C8,1*%
%TO.N,Net-(U3-VRP)*%
X132588000Y-90975401D03*
D14*
%TO.P,C8,2*%
%TO.N,Net-(U3-VRN)*%
X132588000Y-92975401D03*
%TD*%
D13*
%TO.P,C4,1*%
%TO.N,+3.3V*%
X113792000Y-84836000D03*
D14*
%TO.P,C4,2*%
%TO.N,GND*%
X111792000Y-84836000D03*
%TD*%
D15*
%TO.P,J5,1*%
%TO.N,Net-(U2-A33)*%
X102870000Y-125984000D03*
D16*
%TO.P,J5,2*%
%TO.N,Net-(U2-A32)*%
X100330000Y-125984000D03*
%TO.P,J5,3*%
%TO.N,Net-(U2-J11)*%
X97790000Y-125984000D03*
%TO.P,J5,4*%
%TO.N,Net-(U2-M13)*%
X95250000Y-125984000D03*
%TO.P,J5,5*%
%TO.N,Net-(U2-L13)*%
X92710000Y-125984000D03*
%TO.P,J5,6*%
%TO.N,Net-(U2-J15)*%
X90170000Y-125984000D03*
%TO.P,J5,7*%
%TO.N,Net-(U2-K14)*%
X87630000Y-125984000D03*
%TO.P,J5,8*%
%TO.N,Net-(U2-L14)*%
X85090000Y-125984000D03*
%TO.P,J5,9*%
%TO.N,GND*%
X82550000Y-125984000D03*
%TD*%
D15*
%TO.P,J3,1*%
%TO.N,Net-(U2-A3)*%
X140716000Y-125984000D03*
D16*
%TO.P,J3,2*%
%TO.N,Net-(U2-B4)*%
X138176000Y-125984000D03*
%TO.P,J3,3*%
%TO.N,Net-(U2-B3)*%
X135636000Y-125984000D03*
%TO.P,J3,4*%
%TO.N,Net-(U2-C1)*%
X133096000Y-125984000D03*
%TO.P,J3,5*%
%TO.N,Net-(U2-B1)*%
X130556000Y-125984000D03*
%TO.P,J3,6*%
%TO.N,Net-(U2-B2)*%
X128016000Y-125984000D03*
%TO.P,J3,7*%
%TO.N,Net-(U2-A2)*%
X125476000Y-125984000D03*
%TO.P,J3,8*%
%TO.N,Net-(U2-C5)*%
X122936000Y-125984000D03*
%TO.P,J3,9*%
%TO.N,GND*%
X120396000Y-125984000D03*
%TD*%
D17*
%TO.P,J1,1,In*%
%TO.N,Net-(J1-In)*%
X149860000Y-85705500D03*
D18*
%TO.P,J1,2,Ext*%
%TO.N,GND*%
X152400000Y-83165500D03*
X147320000Y-83165500D03*
X152400000Y-88245500D03*
X147320000Y-88245500D03*
%TD*%
D13*
%TO.P,C19,1*%
%TO.N,Net-(U1--)*%
X119844600Y-130302000D03*
D14*
%TO.P,C19,2*%
%TO.N,Net-(J2-Pin_1)*%
X117844600Y-130302000D03*
%TD*%
D19*
%TO.P,J2,1,Pin_1*%
%TO.N,Net-(J2-Pin_1)*%
X109220000Y-128524000D03*
D20*
%TO.P,J2,2,Pin_2*%
%TO.N,GND*%
X111760000Y-128524000D03*
%TD*%
D13*
%TO.P,C15,1*%
%TO.N,+3.3V*%
X90932000Y-96012000D03*
D14*
%TO.P,C15,2*%
%TO.N,GND*%
X92932000Y-96012000D03*
%TD*%
D19*
%TO.P,J4,1,Pin_1*%
%TO.N,GND*%
X85598000Y-85344000D03*
D20*
%TO.P,J4,2,Pin_2*%
%TO.N,+5V*%
X83058000Y-85344000D03*
%TD*%
D21*
%TO.N,GND*%
X142240000Y-89154000D03*
X99822000Y-105410000D03*
X96012000Y-105410000D03*
X141224000Y-83312000D03*
%TO.N,+3.3V*%
X120142000Y-96520000D03*
%TO.N,GND*%
X120396000Y-102870000D03*
X128524000Y-89408000D03*
X128524000Y-94742000D03*
X128524000Y-93218000D03*
%TO.N,+3.3V*%
X118364000Y-90932000D03*
X121920000Y-92456000D03*
%TO.N,GND*%
X128524000Y-91186000D03*
X124206000Y-84328000D03*
X124206000Y-86868000D03*
X116332000Y-91186000D03*
X115316000Y-87376000D03*
X122428000Y-93980000D03*
X118872000Y-96520000D03*
X116332000Y-92456000D03*
X119634000Y-90424000D03*
X117348000Y-90424000D03*
X116586000Y-90424000D03*
X136736000Y-83312000D03*
X130302000Y-129794000D03*
X123698000Y-132588000D03*
X138176000Y-129032000D03*
X92710000Y-104140000D03*
%TD*%
%TA.AperFunction,Conductor*%
%TO.N,+3.3V*%
G36*
X146510961Y-81546185D02*
G01*
X146556716Y-81598989D01*
X146566660Y-81668147D01*
X146537635Y-81731703D01*
X146508712Y-81756227D01*
X146361603Y-81846375D01*
X146361598Y-81846378D01*
X146167044Y-82012544D01*
X146000878Y-82207098D01*
X146000875Y-82207103D01*
X145867190Y-82425257D01*
X145867188Y-82425260D01*
X145769279Y-82661635D01*
X145769278Y-82661640D01*
X145716171Y-82882846D01*
X145709547Y-82910435D01*
X145689474Y-83165500D01*
X145709547Y-83420564D01*
X145709547Y-83420567D01*
X145709548Y-83420570D01*
X145769278Y-83669360D01*
X145769279Y-83669364D01*
X145867188Y-83905739D01*
X145867190Y-83905742D01*
X146000875Y-84123896D01*
X146000878Y-84123901D01*
X146055771Y-84188172D01*
X146167044Y-84318456D01*
X146262922Y-84400343D01*
X146361598Y-84484621D01*
X146361600Y-84484622D01*
X146361601Y-84484623D01*
X146543254Y-84595940D01*
X146579757Y-84618309D01*
X146579760Y-84618311D01*
X146779492Y-84701042D01*
X146816140Y-84716222D01*
X147064930Y-84775952D01*
X147320000Y-84796026D01*
X147575070Y-84775952D01*
X147823860Y-84716222D01*
X148060243Y-84618309D01*
X148060245Y-84618307D01*
X148063047Y-84617147D01*
X148132517Y-84609678D01*
X148194996Y-84640953D01*
X148230648Y-84701042D01*
X148234500Y-84731708D01*
X148234500Y-86679291D01*
X148214815Y-86746330D01*
X148162011Y-86792085D01*
X148092853Y-86802029D01*
X148063048Y-86793852D01*
X147823864Y-86694779D01*
X147798731Y-86688745D01*
X147575070Y-86635048D01*
X147575067Y-86635047D01*
X147575064Y-86635047D01*
X147320000Y-86614974D01*
X147064935Y-86635047D01*
X147064931Y-86635047D01*
X147064930Y-86635048D01*
X146940535Y-86664913D01*
X146816135Y-86694779D01*
X146579760Y-86792688D01*
X146579757Y-86792690D01*
X146361603Y-86926375D01*
X146361598Y-86926378D01*
X146167044Y-87092544D01*
X146000878Y-87287098D01*
X146000875Y-87287103D01*
X145867190Y-87505257D01*
X145867188Y-87505260D01*
X145769279Y-87741635D01*
X145709547Y-87990435D01*
X145689474Y-88245500D01*
X145709547Y-88500564D01*
X145709547Y-88500567D01*
X145709548Y-88500570D01*
X145745841Y-88651738D01*
X145769279Y-88749364D01*
X145867188Y-88985739D01*
X145867190Y-88985742D01*
X146000875Y-89203896D01*
X146000878Y-89203901D01*
X146073641Y-89289095D01*
X146167044Y-89398456D01*
X146290061Y-89503522D01*
X146361598Y-89564621D01*
X146361600Y-89564622D01*
X146361601Y-89564623D01*
X146574184Y-89694894D01*
X146579757Y-89698309D01*
X146579760Y-89698311D01*
X146786189Y-89783816D01*
X146816140Y-89796222D01*
X147064930Y-89855952D01*
X147320000Y-89876026D01*
X147575070Y-89855952D01*
X147823860Y-89796222D01*
X147942051Y-89747265D01*
X148060239Y-89698311D01*
X148060240Y-89698310D01*
X148060243Y-89698309D01*
X148278399Y-89564623D01*
X148472956Y-89398456D01*
X148639123Y-89203899D01*
X148772809Y-88985743D01*
X148777363Y-88974750D01*
X148821765Y-88867551D01*
X148870722Y-88749360D01*
X148930452Y-88500570D01*
X148950526Y-88245500D01*
X148930452Y-87990430D01*
X148870722Y-87741640D01*
X148772809Y-87505257D01*
X148772808Y-87505256D01*
X148771647Y-87502452D01*
X148764178Y-87432982D01*
X148795453Y-87370503D01*
X148855542Y-87334851D01*
X148886200Y-87330999D01*
X150833791Y-87330999D01*
X150900830Y-87350684D01*
X150946585Y-87403488D01*
X150956529Y-87472646D01*
X150948352Y-87502451D01*
X150849279Y-87741635D01*
X150789547Y-87990435D01*
X150769474Y-88245500D01*
X150789547Y-88500564D01*
X150789547Y-88500567D01*
X150789548Y-88500570D01*
X150825841Y-88651738D01*
X150849279Y-88749364D01*
X150947188Y-88985739D01*
X150947190Y-88985742D01*
X151080875Y-89203896D01*
X151080878Y-89203901D01*
X151153641Y-89289095D01*
X151247044Y-89398456D01*
X151370061Y-89503522D01*
X151441598Y-89564621D01*
X151441600Y-89564622D01*
X151441601Y-89564623D01*
X151654184Y-89694894D01*
X151659757Y-89698309D01*
X151659760Y-89698311D01*
X151866189Y-89783816D01*
X151896140Y-89796222D01*
X152144930Y-89855952D01*
X152400000Y-89876026D01*
X152655070Y-89855952D01*
X152903860Y-89796222D01*
X153022051Y-89747265D01*
X153140239Y-89698311D01*
X153140240Y-89698310D01*
X153140243Y-89698309D01*
X153358399Y-89564623D01*
X153552956Y-89398456D01*
X153719123Y-89203899D01*
X153852809Y-88985743D01*
X153857363Y-88974750D01*
X153901765Y-88867551D01*
X153950722Y-88749360D01*
X154010452Y-88500570D01*
X154030526Y-88245500D01*
X154010452Y-87990430D01*
X153950722Y-87741640D01*
X153944046Y-87725522D01*
X153852811Y-87505260D01*
X153852809Y-87505257D01*
X153719124Y-87287103D01*
X153719121Y-87287098D01*
X153641952Y-87196745D01*
X153552956Y-87092544D01*
X153385412Y-86949448D01*
X153358401Y-86926378D01*
X153358396Y-86926375D01*
X153140242Y-86792690D01*
X153140239Y-86792688D01*
X152903864Y-86694779D01*
X152878731Y-86688745D01*
X152655070Y-86635048D01*
X152655067Y-86635047D01*
X152655064Y-86635047D01*
X152400000Y-86614974D01*
X152144935Y-86635047D01*
X152144931Y-86635047D01*
X152144930Y-86635048D01*
X152020535Y-86664913D01*
X151896135Y-86694779D01*
X151656951Y-86793852D01*
X151587482Y-86801321D01*
X151525003Y-86770046D01*
X151489351Y-86709956D01*
X151485499Y-86679298D01*
X151485499Y-84731707D01*
X151505184Y-84664669D01*
X151557988Y-84618914D01*
X151627146Y-84608970D01*
X151656952Y-84617147D01*
X151659756Y-84618308D01*
X151659757Y-84618309D01*
X151896140Y-84716222D01*
X152144930Y-84775952D01*
X152400000Y-84796026D01*
X152655070Y-84775952D01*
X152903860Y-84716222D01*
X153085576Y-84640953D01*
X153140239Y-84618311D01*
X153140240Y-84618310D01*
X153140243Y-84618309D01*
X153358399Y-84484623D01*
X153552956Y-84318456D01*
X153719123Y-84123899D01*
X153852809Y-83905743D01*
X153860799Y-83886455D01*
X153913875Y-83758317D01*
X153950722Y-83669360D01*
X154010452Y-83420570D01*
X154030526Y-83165500D01*
X154010452Y-82910430D01*
X153950722Y-82661640D01*
X153919487Y-82586232D01*
X153852811Y-82425260D01*
X153852809Y-82425257D01*
X153804552Y-82346508D01*
X153719123Y-82207101D01*
X153719122Y-82207100D01*
X153719121Y-82207098D01*
X153623040Y-82094602D01*
X153552956Y-82012544D01*
X153446591Y-81921700D01*
X153358401Y-81846378D01*
X153358396Y-81846375D01*
X153211288Y-81756227D01*
X153164413Y-81704416D01*
X153152990Y-81635486D01*
X153180647Y-81571323D01*
X153238603Y-81532298D01*
X153276078Y-81526500D01*
X156076426Y-81526500D01*
X156143465Y-81546185D01*
X156189220Y-81598989D01*
X156199164Y-81668147D01*
X156170139Y-81731703D01*
X156122073Y-81765792D01*
X155975904Y-81823663D01*
X155975903Y-81823664D01*
X155711205Y-81969184D01*
X155711193Y-81969191D01*
X155466846Y-82146719D01*
X155466836Y-82146727D01*
X155246652Y-82353494D01*
X155054111Y-82586236D01*
X154892268Y-82841261D01*
X154892265Y-82841267D01*
X154763661Y-83114563D01*
X154763659Y-83114568D01*
X154670320Y-83401835D01*
X154670319Y-83401839D01*
X154670319Y-83401840D01*
X154664802Y-83430760D01*
X154613719Y-83698546D01*
X154613718Y-83698553D01*
X154594754Y-83999994D01*
X154594754Y-84000005D01*
X154613718Y-84301446D01*
X154613719Y-84301453D01*
X154618783Y-84328000D01*
X154667999Y-84586000D01*
X154670320Y-84598164D01*
X154763659Y-84885431D01*
X154763661Y-84885436D01*
X154892265Y-85158732D01*
X154892268Y-85158738D01*
X155054111Y-85413763D01*
X155054114Y-85413767D01*
X155054115Y-85413768D01*
X155246649Y-85646502D01*
X155246652Y-85646505D01*
X155466836Y-85853272D01*
X155466846Y-85853280D01*
X155711193Y-86030808D01*
X155711198Y-86030810D01*
X155711205Y-86030816D01*
X155975896Y-86176332D01*
X155975901Y-86176334D01*
X155975903Y-86176335D01*
X155975904Y-86176336D01*
X156256734Y-86287524D01*
X156256737Y-86287525D01*
X156354259Y-86312564D01*
X156549302Y-86362642D01*
X156696039Y-86381179D01*
X156848963Y-86400499D01*
X156848969Y-86400499D01*
X156848973Y-86400500D01*
X156848975Y-86400500D01*
X157151025Y-86400500D01*
X157151027Y-86400500D01*
X157151032Y-86400499D01*
X157151036Y-86400499D01*
X157230591Y-86390448D01*
X157450698Y-86362642D01*
X157743262Y-86287525D01*
X157743265Y-86287524D01*
X158024095Y-86176336D01*
X158024096Y-86176335D01*
X158024094Y-86176335D01*
X158024104Y-86176332D01*
X158288795Y-86030816D01*
X158533162Y-85853274D01*
X158753349Y-85646504D01*
X158945885Y-85413768D01*
X159107733Y-85158736D01*
X159236341Y-84885430D01*
X159329681Y-84598160D01*
X159386280Y-84301457D01*
X159386281Y-84301446D01*
X159405246Y-84000005D01*
X159405246Y-83999994D01*
X159386281Y-83698553D01*
X159386280Y-83698546D01*
X159386280Y-83698543D01*
X159329681Y-83401840D01*
X159236341Y-83114570D01*
X159200069Y-83037489D01*
X159107734Y-82841267D01*
X159107733Y-82841264D01*
X159006778Y-82682184D01*
X158945888Y-82586236D01*
X158945885Y-82586232D01*
X158753349Y-82353496D01*
X158533162Y-82146726D01*
X158533159Y-82146724D01*
X158533153Y-82146719D01*
X158288806Y-81969191D01*
X158288799Y-81969186D01*
X158288795Y-81969184D01*
X158024104Y-81823668D01*
X158024101Y-81823666D01*
X158024096Y-81823664D01*
X158024095Y-81823663D01*
X157877927Y-81765792D01*
X157822841Y-81722811D01*
X157799738Y-81656872D01*
X157815951Y-81588910D01*
X157866334Y-81540502D01*
X157923574Y-81526500D01*
X159896000Y-81526500D01*
X159963039Y-81546185D01*
X160008794Y-81598989D01*
X160020000Y-81650500D01*
X160020000Y-133226000D01*
X160000315Y-133293039D01*
X159947511Y-133338794D01*
X159896000Y-133350000D01*
X158191150Y-133350000D01*
X158124111Y-133330315D01*
X158078356Y-133277511D01*
X158068412Y-133208353D01*
X158097437Y-133144797D01*
X158131409Y-133117339D01*
X158288795Y-133030816D01*
X158533162Y-132853274D01*
X158753349Y-132646504D01*
X158945885Y-132413768D01*
X159107733Y-132158736D01*
X159236341Y-131885430D01*
X159329681Y-131598160D01*
X159386280Y-131301457D01*
X159386916Y-131291348D01*
X159405246Y-131000005D01*
X159405246Y-130999994D01*
X159386281Y-130698553D01*
X159386280Y-130698546D01*
X159386280Y-130698543D01*
X159329681Y-130401840D01*
X159236341Y-130114570D01*
X159234041Y-130109683D01*
X159122892Y-129873479D01*
X159107733Y-129841264D01*
X159030890Y-129720178D01*
X158945888Y-129586236D01*
X158904257Y-129535913D01*
X158753349Y-129353496D01*
X158533162Y-129146726D01*
X158533159Y-129146724D01*
X158533153Y-129146719D01*
X158288806Y-128969191D01*
X158288799Y-128969186D01*
X158288795Y-128969184D01*
X158024104Y-128823668D01*
X158024101Y-128823666D01*
X158024096Y-128823664D01*
X158024095Y-128823663D01*
X157743265Y-128712475D01*
X157743262Y-128712474D01*
X157450695Y-128637357D01*
X157151036Y-128599500D01*
X157151027Y-128599500D01*
X156848973Y-128599500D01*
X156848963Y-128599500D01*
X156549304Y-128637357D01*
X156256737Y-128712474D01*
X156256734Y-128712475D01*
X155975904Y-128823663D01*
X155975903Y-128823664D01*
X155711205Y-128969184D01*
X155711193Y-128969191D01*
X155466846Y-129146719D01*
X155466836Y-129146727D01*
X155246652Y-129353494D01*
X155054111Y-129586236D01*
X154892268Y-129841261D01*
X154892265Y-129841267D01*
X154763661Y-130114563D01*
X154763659Y-130114568D01*
X154670320Y-130401835D01*
X154613719Y-130698546D01*
X154613718Y-130698553D01*
X154594754Y-130999994D01*
X154594754Y-131000005D01*
X154613718Y-131301446D01*
X154613719Y-131301453D01*
X154632995Y-131402499D01*
X154665765Y-131574289D01*
X154670320Y-131598164D01*
X154763659Y-131885431D01*
X154763661Y-131885436D01*
X154892265Y-132158732D01*
X154892268Y-132158738D01*
X155054111Y-132413763D01*
X155054114Y-132413767D01*
X155054115Y-132413768D01*
X155246649Y-132646502D01*
X155246652Y-132646505D01*
X155466836Y-132853272D01*
X155466846Y-132853280D01*
X155711193Y-133030808D01*
X155711198Y-133030810D01*
X155711205Y-133030816D01*
X155868589Y-133117339D01*
X155917852Y-133166884D01*
X155932508Y-133235199D01*
X155907904Y-133300594D01*
X155851852Y-133342305D01*
X155808850Y-133350000D01*
X124367440Y-133350000D01*
X124300401Y-133330315D01*
X124254646Y-133277511D01*
X124244702Y-133208353D01*
X124273727Y-133144797D01*
X124279759Y-133138319D01*
X124300740Y-133117338D01*
X124327816Y-133090262D01*
X124423789Y-132937522D01*
X124483368Y-132767255D01*
X124496973Y-132646505D01*
X124503565Y-132588003D01*
X124503565Y-132587996D01*
X124483369Y-132408750D01*
X124483368Y-132408745D01*
X124423788Y-132238476D01*
X124327815Y-132085737D01*
X124200262Y-131958184D01*
X124047523Y-131862211D01*
X123877254Y-131802631D01*
X123877249Y-131802630D01*
X123698004Y-131782435D01*
X123697996Y-131782435D01*
X123518750Y-131802630D01*
X123518745Y-131802631D01*
X123348476Y-131862211D01*
X123195737Y-131958184D01*
X123068184Y-132085737D01*
X122972211Y-132238476D01*
X122912631Y-132408745D01*
X122912630Y-132408750D01*
X122892435Y-132587996D01*
X122892435Y-132588003D01*
X122912630Y-132767249D01*
X122912631Y-132767254D01*
X122972211Y-132937523D01*
X123068184Y-133090262D01*
X123116241Y-133138319D01*
X123149726Y-133199642D01*
X123144742Y-133269334D01*
X123102870Y-133325267D01*
X123037406Y-133349684D01*
X123028560Y-133350000D01*
X78191150Y-133350000D01*
X78124111Y-133330315D01*
X78078356Y-133277511D01*
X78068412Y-133208353D01*
X78097437Y-133144797D01*
X78131409Y-133117339D01*
X78288795Y-133030816D01*
X78533162Y-132853274D01*
X78753349Y-132646504D01*
X78945885Y-132413768D01*
X79107733Y-132158736D01*
X79236341Y-131885430D01*
X79329681Y-131598160D01*
X79386280Y-131301457D01*
X79386916Y-131291348D01*
X79405246Y-131000005D01*
X79405246Y-130999994D01*
X79386281Y-130698553D01*
X79386280Y-130698546D01*
X79386280Y-130698543D01*
X79329681Y-130401840D01*
X79236341Y-130114570D01*
X79234041Y-130109683D01*
X79122892Y-129873479D01*
X79107733Y-129841264D01*
X79030890Y-129720178D01*
X79000233Y-129671870D01*
X107619500Y-129671870D01*
X107619501Y-129671876D01*
X107625908Y-129731483D01*
X107676202Y-129866328D01*
X107676206Y-129866335D01*
X107762452Y-129981544D01*
X107762455Y-129981547D01*
X107877664Y-130067793D01*
X107877671Y-130067797D01*
X108012517Y-130118091D01*
X108012516Y-130118091D01*
X108019444Y-130118835D01*
X108072127Y-130124500D01*
X108776427Y-130124499D01*
X108843464Y-130144183D01*
X108889219Y-130196987D01*
X108899163Y-130266146D01*
X108870138Y-130329702D01*
X108845316Y-130351601D01*
X108709711Y-130442210D01*
X108709707Y-130442213D01*
X108598213Y-130553707D01*
X108598210Y-130553711D01*
X108510609Y-130684814D01*
X108510602Y-130684827D01*
X108450264Y-130830498D01*
X108450261Y-130830510D01*
X108419500Y-130985153D01*
X108419500Y-131142846D01*
X108450261Y-131297489D01*
X108450264Y-131297501D01*
X108510602Y-131443172D01*
X108510609Y-131443185D01*
X108598210Y-131574288D01*
X108598213Y-131574292D01*
X108709707Y-131685786D01*
X108709711Y-131685789D01*
X108840814Y-131773390D01*
X108840827Y-131773397D01*
X108911408Y-131802632D01*
X108986503Y-131833737D01*
X109141153Y-131864499D01*
X109141156Y-131864500D01*
X109141158Y-131864500D01*
X109298844Y-131864500D01*
X109298845Y-131864499D01*
X109453497Y-131833737D01*
X109599179Y-131773394D01*
X109730289Y-131685789D01*
X109841789Y-131574289D01*
X109929394Y-131443179D01*
X109989737Y-131297497D01*
X110020500Y-131142842D01*
X110020500Y-130985158D01*
X110020500Y-130985155D01*
X110020499Y-130985153D01*
X110013481Y-130949872D01*
X109989737Y-130830503D01*
X109989735Y-130830498D01*
X109929397Y-130684827D01*
X109929390Y-130684814D01*
X109841789Y-130553711D01*
X109841786Y-130553707D01*
X109730292Y-130442213D01*
X109730288Y-130442210D01*
X109594683Y-130351601D01*
X109549878Y-130297989D01*
X109541171Y-130228664D01*
X109571326Y-130165636D01*
X109630769Y-130128917D01*
X109663571Y-130124499D01*
X110367872Y-130124499D01*
X110427483Y-130118091D01*
X110562331Y-130067796D01*
X110677546Y-129981546D01*
X110734928Y-129904893D01*
X110790860Y-129863024D01*
X110860552Y-129858040D01*
X110898983Y-129873479D01*
X111031140Y-129954466D01*
X111096523Y-129981548D01*
X111263889Y-130050873D01*
X111431043Y-130091003D01*
X111491634Y-130125792D01*
X111523799Y-130187818D01*
X111517323Y-130257387D01*
X111474264Y-130312411D01*
X111449550Y-130326137D01*
X111380820Y-130354606D01*
X111380814Y-130354609D01*
X111249711Y-130442210D01*
X111249707Y-130442213D01*
X111138213Y-130553707D01*
X111138210Y-130553711D01*
X111050609Y-130684814D01*
X111050602Y-130684827D01*
X110990264Y-130830498D01*
X110990261Y-130830510D01*
X110959500Y-130985153D01*
X110959500Y-131142846D01*
X110990261Y-131297489D01*
X110990264Y-131297501D01*
X111050602Y-131443172D01*
X111050609Y-131443185D01*
X111138210Y-131574288D01*
X111138213Y-131574292D01*
X111249707Y-131685786D01*
X111249711Y-131685789D01*
X111380814Y-131773390D01*
X111380827Y-131773397D01*
X111451408Y-131802632D01*
X111526503Y-131833737D01*
X111681153Y-131864499D01*
X111681156Y-131864500D01*
X111681158Y-131864500D01*
X111838844Y-131864500D01*
X111838845Y-131864499D01*
X111993497Y-131833737D01*
X112139179Y-131773394D01*
X112270289Y-131685789D01*
X112381789Y-131574289D01*
X112469394Y-131443179D01*
X112529737Y-131297497D01*
X112560500Y-131142842D01*
X112560500Y-130985158D01*
X112560500Y-130985155D01*
X112560499Y-130985153D01*
X112553481Y-130949872D01*
X112529737Y-130830503D01*
X112529735Y-130830498D01*
X112469397Y-130684827D01*
X112469390Y-130684814D01*
X112381789Y-130553711D01*
X112381786Y-130553707D01*
X112270292Y-130442213D01*
X112270288Y-130442210D01*
X112139185Y-130354609D01*
X112139175Y-130354604D01*
X112070450Y-130326137D01*
X112040498Y-130302000D01*
X116739385Y-130302000D01*
X116758202Y-130505082D01*
X116814017Y-130701247D01*
X116814022Y-130701260D01*
X116904927Y-130883821D01*
X117027837Y-131046581D01*
X117178558Y-131183980D01*
X117178560Y-131183982D01*
X117178562Y-131183983D01*
X117351963Y-131291348D01*
X117542144Y-131365024D01*
X117742624Y-131402500D01*
X117742626Y-131402500D01*
X117946574Y-131402500D01*
X117946576Y-131402500D01*
X118147056Y-131365024D01*
X118337237Y-131291348D01*
X118510641Y-131183981D01*
X118602617Y-131100133D01*
X118665418Y-131069518D01*
X118734805Y-131077715D01*
X118788746Y-131122125D01*
X118796273Y-131136698D01*
X118796553Y-131136546D01*
X118800806Y-131144335D01*
X118887052Y-131259544D01*
X118887055Y-131259547D01*
X119002264Y-131345793D01*
X119002271Y-131345797D01*
X119137117Y-131396091D01*
X119137116Y-131396091D01*
X119144044Y-131396835D01*
X119196727Y-131402500D01*
X120492472Y-131402499D01*
X120552083Y-131396091D01*
X120686931Y-131345796D01*
X120802146Y-131259546D01*
X120888396Y-131144331D01*
X120938691Y-131009483D01*
X120945100Y-130949873D01*
X120945099Y-129794003D01*
X129496435Y-129794003D01*
X129516630Y-129973249D01*
X129516631Y-129973254D01*
X129576211Y-130143523D01*
X129629709Y-130228664D01*
X129672184Y-130296262D01*
X129799738Y-130423816D01*
X129829017Y-130442213D01*
X129929073Y-130505083D01*
X129952478Y-130519789D01*
X130049410Y-130553707D01*
X130122745Y-130579368D01*
X130122750Y-130579369D01*
X130301996Y-130599565D01*
X130302000Y-130599565D01*
X130302004Y-130599565D01*
X130481249Y-130579369D01*
X130481252Y-130579368D01*
X130481255Y-130579368D01*
X130651522Y-130519789D01*
X130804262Y-130423816D01*
X130931816Y-130296262D01*
X131027789Y-130143522D01*
X131087368Y-129973255D01*
X131089485Y-129954466D01*
X131107565Y-129794003D01*
X131107565Y-129793996D01*
X131087369Y-129614750D01*
X131087368Y-129614745D01*
X131035898Y-129467653D01*
X131027789Y-129444478D01*
X131012420Y-129420019D01*
X130944957Y-129312652D01*
X130931816Y-129291738D01*
X130804262Y-129164184D01*
X130651523Y-129068211D01*
X130548047Y-129032003D01*
X137370435Y-129032003D01*
X137390630Y-129211249D01*
X137390631Y-129211254D01*
X137450211Y-129381523D01*
X137537879Y-129521045D01*
X137546184Y-129534262D01*
X137673738Y-129661816D01*
X137826478Y-129757789D01*
X137996745Y-129817368D01*
X137996750Y-129817369D01*
X138175996Y-129837565D01*
X138176000Y-129837565D01*
X138176004Y-129837565D01*
X138355249Y-129817369D01*
X138355252Y-129817368D01*
X138355255Y-129817368D01*
X138525522Y-129757789D01*
X138678262Y-129661816D01*
X138805816Y-129534262D01*
X138901789Y-129381522D01*
X138961368Y-129211255D01*
X138962467Y-129201500D01*
X138981565Y-129032003D01*
X138981565Y-129031996D01*
X138961369Y-128852750D01*
X138961368Y-128852745D01*
X138901789Y-128682478D01*
X138805816Y-128529738D01*
X138678262Y-128402184D01*
X138525523Y-128306211D01*
X138355254Y-128246631D01*
X138355249Y-128246630D01*
X138176004Y-128226435D01*
X138175996Y-128226435D01*
X137996750Y-128246630D01*
X137996745Y-128246631D01*
X137826476Y-128306211D01*
X137673737Y-128402184D01*
X137546184Y-128529737D01*
X137450211Y-128682476D01*
X137390631Y-128852745D01*
X137390630Y-128852750D01*
X137370435Y-129031996D01*
X137370435Y-129032003D01*
X130548047Y-129032003D01*
X130481254Y-129008631D01*
X130481249Y-129008630D01*
X130302004Y-128988435D01*
X130301996Y-128988435D01*
X130122750Y-129008630D01*
X130122745Y-129008631D01*
X129952476Y-129068211D01*
X129799737Y-129164184D01*
X129672184Y-129291737D01*
X129576211Y-129444476D01*
X129516631Y-129614745D01*
X129516630Y-129614750D01*
X129496435Y-129793996D01*
X129496435Y-129794003D01*
X120945099Y-129794003D01*
X120945099Y-129654128D01*
X120938691Y-129594517D01*
X120935602Y-129586236D01*
X120888397Y-129459671D01*
X120888393Y-129459664D01*
X120802147Y-129344455D01*
X120802144Y-129344452D01*
X120686935Y-129258206D01*
X120686928Y-129258202D01*
X120552082Y-129207908D01*
X120552083Y-129207908D01*
X120492483Y-129201501D01*
X120492481Y-129201500D01*
X120492473Y-129201500D01*
X120492464Y-129201500D01*
X119196729Y-129201500D01*
X119196723Y-129201501D01*
X119137116Y-129207908D01*
X119002271Y-129258202D01*
X119002264Y-129258206D01*
X118887055Y-129344452D01*
X118887052Y-129344455D01*
X118800806Y-129459664D01*
X118796553Y-129467454D01*
X118794341Y-129466246D01*
X118760440Y-129511511D01*
X118694970Y-129535913D01*
X118626701Y-129521045D01*
X118602615Y-129503864D01*
X118510641Y-129420019D01*
X118510639Y-129420017D01*
X118337242Y-129312655D01*
X118337235Y-129312651D01*
X118230435Y-129271277D01*
X118147056Y-129238976D01*
X117946576Y-129201500D01*
X117742624Y-129201500D01*
X117542144Y-129238976D01*
X117542141Y-129238976D01*
X117542141Y-129238977D01*
X117351964Y-129312651D01*
X117351957Y-129312655D01*
X117178560Y-129420017D01*
X117178558Y-129420019D01*
X117027837Y-129557418D01*
X116904927Y-129720178D01*
X116814022Y-129902739D01*
X116814017Y-129902752D01*
X116758202Y-130098917D01*
X116739385Y-130301999D01*
X116739385Y-130302000D01*
X112040498Y-130302000D01*
X112016047Y-130282296D01*
X111993982Y-130216001D01*
X112011261Y-130148302D01*
X112062399Y-130100692D01*
X112088950Y-130091004D01*
X112256111Y-130050873D01*
X112488859Y-129954466D01*
X112703659Y-129822836D01*
X112895224Y-129659224D01*
X113058836Y-129467659D01*
X113190466Y-129252859D01*
X113286873Y-129020111D01*
X113345683Y-128775148D01*
X113365449Y-128524000D01*
X113345683Y-128272852D01*
X113286873Y-128027889D01*
X113281949Y-128016002D01*
X147080723Y-128016002D01*
X147099793Y-128233975D01*
X147099793Y-128233979D01*
X147156422Y-128445322D01*
X147156424Y-128445326D01*
X147156425Y-128445330D01*
X147195785Y-128529737D01*
X147248897Y-128643638D01*
X147248898Y-128643639D01*
X147374402Y-128822877D01*
X147529123Y-128977598D01*
X147708361Y-129103102D01*
X147906670Y-129195575D01*
X148118023Y-129252207D01*
X148300926Y-129268208D01*
X148335998Y-129271277D01*
X148336000Y-129271277D01*
X148336002Y-129271277D01*
X148364254Y-129268805D01*
X148553977Y-129252207D01*
X148765330Y-129195575D01*
X148963639Y-129103102D01*
X149142877Y-128977598D01*
X149297598Y-128822877D01*
X149423102Y-128643639D01*
X149515575Y-128445330D01*
X149572207Y-128233977D01*
X149591277Y-128016000D01*
X149572207Y-127798023D01*
X149515575Y-127586670D01*
X149423102Y-127388362D01*
X149423100Y-127388359D01*
X149423099Y-127388357D01*
X149297599Y-127209124D01*
X149231579Y-127143104D01*
X149142877Y-127054402D01*
X149004978Y-126957844D01*
X148963638Y-126928897D01*
X148862774Y-126881864D01*
X148765330Y-126836425D01*
X148765326Y-126836424D01*
X148765322Y-126836422D01*
X148553977Y-126779793D01*
X148336002Y-126760723D01*
X148335998Y-126760723D01*
X148190682Y-126773436D01*
X148118023Y-126779793D01*
X148118020Y-126779793D01*
X147906677Y-126836422D01*
X147906668Y-126836426D01*
X147708361Y-126928898D01*
X147708357Y-126928900D01*
X147529121Y-127054402D01*
X147374402Y-127209121D01*
X147248900Y-127388357D01*
X147248898Y-127388361D01*
X147156426Y-127586668D01*
X147156422Y-127586677D01*
X147099793Y-127798020D01*
X147099793Y-127798024D01*
X147080723Y-128015997D01*
X147080723Y-128016002D01*
X113281949Y-128016002D01*
X113281947Y-128015997D01*
X113190466Y-127795140D01*
X113058839Y-127580346D01*
X113058838Y-127580343D01*
X113021875Y-127537066D01*
X112895224Y-127388776D01*
X112741994Y-127257905D01*
X112703656Y-127225161D01*
X112703653Y-127225160D01*
X112488859Y-127093533D01*
X112256110Y-126997126D01*
X112011151Y-126938317D01*
X111760000Y-126918551D01*
X111508848Y-126938317D01*
X111263889Y-126997126D01*
X111031140Y-127093533D01*
X110898983Y-127174520D01*
X110831537Y-127192765D01*
X110764935Y-127171649D01*
X110734927Y-127143104D01*
X110677547Y-127066455D01*
X110677544Y-127066452D01*
X110562335Y-126980206D01*
X110562328Y-126980202D01*
X110427482Y-126929908D01*
X110427483Y-126929908D01*
X110367883Y-126923501D01*
X110367881Y-126923500D01*
X110367873Y-126923500D01*
X110367864Y-126923500D01*
X108072129Y-126923500D01*
X108072123Y-126923501D01*
X108012516Y-126929908D01*
X107877671Y-126980202D01*
X107877664Y-126980206D01*
X107762455Y-127066452D01*
X107762452Y-127066455D01*
X107676206Y-127181664D01*
X107676202Y-127181671D01*
X107625908Y-127316517D01*
X107619501Y-127376116D01*
X107619500Y-127376135D01*
X107619500Y-129671870D01*
X79000233Y-129671870D01*
X78945888Y-129586236D01*
X78904257Y-129535913D01*
X78753349Y-129353496D01*
X78533162Y-129146726D01*
X78533159Y-129146724D01*
X78533153Y-129146719D01*
X78288806Y-128969191D01*
X78288799Y-128969186D01*
X78288795Y-128969184D01*
X78024104Y-128823668D01*
X78024101Y-128823666D01*
X78024096Y-128823664D01*
X78024095Y-128823663D01*
X77743265Y-128712475D01*
X77743262Y-128712474D01*
X77450695Y-128637357D01*
X77151036Y-128599500D01*
X77151027Y-128599500D01*
X76848973Y-128599500D01*
X76848963Y-128599500D01*
X76549304Y-128637357D01*
X76256737Y-128712474D01*
X76256734Y-128712475D01*
X75975904Y-128823663D01*
X75975903Y-128823664D01*
X75711205Y-128969184D01*
X75711193Y-128969191D01*
X75466846Y-129146719D01*
X75466836Y-129146727D01*
X75246652Y-129353494D01*
X75223466Y-129381522D01*
X75191619Y-129420019D01*
X75187044Y-129425549D01*
X75129144Y-129464656D01*
X75059292Y-129466252D01*
X74999667Y-129429830D01*
X74969197Y-129366954D01*
X74967500Y-129346508D01*
X74967500Y-125984000D01*
X81194341Y-125984000D01*
X81214936Y-126219403D01*
X81214938Y-126219413D01*
X81276094Y-126447655D01*
X81276096Y-126447659D01*
X81276097Y-126447663D01*
X81280000Y-126456032D01*
X81375965Y-126661830D01*
X81375967Y-126661834D01*
X81484281Y-126816521D01*
X81511505Y-126855401D01*
X81678599Y-127022495D01*
X81775384Y-127090265D01*
X81872165Y-127158032D01*
X81872167Y-127158033D01*
X81872170Y-127158035D01*
X82086337Y-127257903D01*
X82314592Y-127319063D01*
X82491034Y-127334500D01*
X82549999Y-127339659D01*
X82550000Y-127339659D01*
X82550001Y-127339659D01*
X82608966Y-127334500D01*
X82785408Y-127319063D01*
X83013663Y-127257903D01*
X83227830Y-127158035D01*
X83421401Y-127022495D01*
X83588495Y-126855401D01*
X83718425Y-126669842D01*
X83773002Y-126626217D01*
X83842500Y-126619023D01*
X83904855Y-126650546D01*
X83921575Y-126669842D01*
X84051500Y-126855395D01*
X84051505Y-126855401D01*
X84218599Y-127022495D01*
X84315384Y-127090265D01*
X84412165Y-127158032D01*
X84412167Y-127158033D01*
X84412170Y-127158035D01*
X84626337Y-127257903D01*
X84854592Y-127319063D01*
X85031034Y-127334500D01*
X85089999Y-127339659D01*
X85090000Y-127339659D01*
X85090001Y-127339659D01*
X85148966Y-127334500D01*
X85325408Y-127319063D01*
X85553663Y-127257903D01*
X85767830Y-127158035D01*
X85961401Y-127022495D01*
X86128495Y-126855401D01*
X86258425Y-126669842D01*
X86313002Y-126626217D01*
X86382500Y-126619023D01*
X86444855Y-126650546D01*
X86461575Y-126669842D01*
X86591500Y-126855395D01*
X86591505Y-126855401D01*
X86758599Y-127022495D01*
X86855384Y-127090265D01*
X86952165Y-127158032D01*
X86952167Y-127158033D01*
X86952170Y-127158035D01*
X87166337Y-127257903D01*
X87394592Y-127319063D01*
X87571034Y-127334500D01*
X87629999Y-127339659D01*
X87630000Y-127339659D01*
X87630001Y-127339659D01*
X87688966Y-127334500D01*
X87865408Y-127319063D01*
X88093663Y-127257903D01*
X88307830Y-127158035D01*
X88501401Y-127022495D01*
X88668495Y-126855401D01*
X88798425Y-126669842D01*
X88853002Y-126626217D01*
X88922500Y-126619023D01*
X88984855Y-126650546D01*
X89001575Y-126669842D01*
X89131500Y-126855395D01*
X89131505Y-126855401D01*
X89298599Y-127022495D01*
X89395384Y-127090265D01*
X89492165Y-127158032D01*
X89492167Y-127158033D01*
X89492170Y-127158035D01*
X89706337Y-127257903D01*
X89934592Y-127319063D01*
X90111034Y-127334500D01*
X90169999Y-127339659D01*
X90170000Y-127339659D01*
X90170001Y-127339659D01*
X90228966Y-127334500D01*
X90405408Y-127319063D01*
X90633663Y-127257903D01*
X90847830Y-127158035D01*
X91041401Y-127022495D01*
X91208495Y-126855401D01*
X91338425Y-126669842D01*
X91393002Y-126626217D01*
X91462500Y-126619023D01*
X91524855Y-126650546D01*
X91541575Y-126669842D01*
X91671500Y-126855395D01*
X91671505Y-126855401D01*
X91838599Y-127022495D01*
X91935384Y-127090265D01*
X92032165Y-127158032D01*
X92032167Y-127158033D01*
X92032170Y-127158035D01*
X92246337Y-127257903D01*
X92474592Y-127319063D01*
X92651034Y-127334500D01*
X92709999Y-127339659D01*
X92710000Y-127339659D01*
X92710001Y-127339659D01*
X92768966Y-127334500D01*
X92945408Y-127319063D01*
X93173663Y-127257903D01*
X93387830Y-127158035D01*
X93581401Y-127022495D01*
X93748495Y-126855401D01*
X93878425Y-126669842D01*
X93933002Y-126626217D01*
X94002500Y-126619023D01*
X94064855Y-126650546D01*
X94081575Y-126669842D01*
X94211500Y-126855395D01*
X94211505Y-126855401D01*
X94378599Y-127022495D01*
X94475384Y-127090265D01*
X94572165Y-127158032D01*
X94572167Y-127158033D01*
X94572170Y-127158035D01*
X94786337Y-127257903D01*
X95014592Y-127319063D01*
X95191034Y-127334500D01*
X95249999Y-127339659D01*
X95250000Y-127339659D01*
X95250001Y-127339659D01*
X95308966Y-127334500D01*
X95485408Y-127319063D01*
X95713663Y-127257903D01*
X95927830Y-127158035D01*
X96121401Y-127022495D01*
X96288495Y-126855401D01*
X96418425Y-126669842D01*
X96473002Y-126626217D01*
X96542500Y-126619023D01*
X96604855Y-126650546D01*
X96621575Y-126669842D01*
X96751500Y-126855395D01*
X96751505Y-126855401D01*
X96918599Y-127022495D01*
X97015384Y-127090265D01*
X97112165Y-127158032D01*
X97112167Y-127158033D01*
X97112170Y-127158035D01*
X97326337Y-127257903D01*
X97554592Y-127319063D01*
X97731034Y-127334500D01*
X97789999Y-127339659D01*
X97790000Y-127339659D01*
X97790001Y-127339659D01*
X97848966Y-127334500D01*
X98025408Y-127319063D01*
X98253663Y-127257903D01*
X98467830Y-127158035D01*
X98661401Y-127022495D01*
X98828495Y-126855401D01*
X98958425Y-126669842D01*
X99013002Y-126626217D01*
X99082500Y-126619023D01*
X99144855Y-126650546D01*
X99161575Y-126669842D01*
X99291500Y-126855395D01*
X99291505Y-126855401D01*
X99458599Y-127022495D01*
X99555384Y-127090265D01*
X99652165Y-127158032D01*
X99652167Y-127158033D01*
X99652170Y-127158035D01*
X99866337Y-127257903D01*
X100094592Y-127319063D01*
X100271034Y-127334500D01*
X100329999Y-127339659D01*
X100330000Y-127339659D01*
X100330001Y-127339659D01*
X100388966Y-127334500D01*
X100565408Y-127319063D01*
X100793663Y-127257903D01*
X101007830Y-127158035D01*
X101201401Y-127022495D01*
X101323329Y-126900566D01*
X101384648Y-126867084D01*
X101454340Y-126872068D01*
X101510274Y-126913939D01*
X101527189Y-126944917D01*
X101576202Y-127076328D01*
X101576206Y-127076335D01*
X101662452Y-127191544D01*
X101662455Y-127191547D01*
X101777664Y-127277793D01*
X101777671Y-127277797D01*
X101912517Y-127328091D01*
X101912516Y-127328091D01*
X101919444Y-127328835D01*
X101972127Y-127334500D01*
X103767872Y-127334499D01*
X103827483Y-127328091D01*
X103962331Y-127277796D01*
X104077546Y-127191546D01*
X104163796Y-127076331D01*
X104214091Y-126941483D01*
X104220500Y-126881873D01*
X104220499Y-125984000D01*
X119040341Y-125984000D01*
X119060936Y-126219403D01*
X119060938Y-126219413D01*
X119122094Y-126447655D01*
X119122096Y-126447659D01*
X119122097Y-126447663D01*
X119126000Y-126456032D01*
X119221965Y-126661830D01*
X119221967Y-126661834D01*
X119330281Y-126816521D01*
X119357505Y-126855401D01*
X119524599Y-127022495D01*
X119621384Y-127090265D01*
X119718165Y-127158032D01*
X119718167Y-127158033D01*
X119718170Y-127158035D01*
X119932337Y-127257903D01*
X120160592Y-127319063D01*
X120337034Y-127334500D01*
X120395999Y-127339659D01*
X120396000Y-127339659D01*
X120396001Y-127339659D01*
X120454966Y-127334500D01*
X120631408Y-127319063D01*
X120859663Y-127257903D01*
X121073830Y-127158035D01*
X121267401Y-127022495D01*
X121434495Y-126855401D01*
X121564425Y-126669842D01*
X121619002Y-126626217D01*
X121688500Y-126619023D01*
X121750855Y-126650546D01*
X121767575Y-126669842D01*
X121897500Y-126855395D01*
X121897505Y-126855401D01*
X122064599Y-127022495D01*
X122161384Y-127090265D01*
X122258165Y-127158032D01*
X122258167Y-127158033D01*
X122258170Y-127158035D01*
X122472337Y-127257903D01*
X122700592Y-127319063D01*
X122877034Y-127334500D01*
X122935999Y-127339659D01*
X122936000Y-127339659D01*
X122936001Y-127339659D01*
X122994966Y-127334500D01*
X123171408Y-127319063D01*
X123399663Y-127257903D01*
X123613830Y-127158035D01*
X123807401Y-127022495D01*
X123974495Y-126855401D01*
X124104425Y-126669842D01*
X124159002Y-126626217D01*
X124228500Y-126619023D01*
X124290855Y-126650546D01*
X124307575Y-126669842D01*
X124437500Y-126855395D01*
X124437505Y-126855401D01*
X124604599Y-127022495D01*
X124701384Y-127090265D01*
X124798165Y-127158032D01*
X124798167Y-127158033D01*
X124798170Y-127158035D01*
X125012337Y-127257903D01*
X125240592Y-127319063D01*
X125417034Y-127334500D01*
X125475999Y-127339659D01*
X125476000Y-127339659D01*
X125476001Y-127339659D01*
X125534966Y-127334500D01*
X125711408Y-127319063D01*
X125939663Y-127257903D01*
X126153830Y-127158035D01*
X126347401Y-127022495D01*
X126514495Y-126855401D01*
X126644425Y-126669842D01*
X126699002Y-126626217D01*
X126768500Y-126619023D01*
X126830855Y-126650546D01*
X126847575Y-126669842D01*
X126977500Y-126855395D01*
X126977505Y-126855401D01*
X127144599Y-127022495D01*
X127241384Y-127090265D01*
X127338165Y-127158032D01*
X127338167Y-127158033D01*
X127338170Y-127158035D01*
X127552337Y-127257903D01*
X127780592Y-127319063D01*
X127957034Y-127334500D01*
X128015999Y-127339659D01*
X128016000Y-127339659D01*
X128016001Y-127339659D01*
X128074966Y-127334500D01*
X128251408Y-127319063D01*
X128479663Y-127257903D01*
X128693830Y-127158035D01*
X128887401Y-127022495D01*
X129054495Y-126855401D01*
X129184425Y-126669842D01*
X129239002Y-126626217D01*
X129308500Y-126619023D01*
X129370855Y-126650546D01*
X129387575Y-126669842D01*
X129517500Y-126855395D01*
X129517505Y-126855401D01*
X129684599Y-127022495D01*
X129781384Y-127090265D01*
X129878165Y-127158032D01*
X129878167Y-127158033D01*
X129878170Y-127158035D01*
X130092337Y-127257903D01*
X130320592Y-127319063D01*
X130497034Y-127334500D01*
X130555999Y-127339659D01*
X130556000Y-127339659D01*
X130556001Y-127339659D01*
X130614966Y-127334500D01*
X130791408Y-127319063D01*
X131019663Y-127257903D01*
X131233830Y-127158035D01*
X131427401Y-127022495D01*
X131594495Y-126855401D01*
X131724425Y-126669842D01*
X131779002Y-126626217D01*
X131848500Y-126619023D01*
X131910855Y-126650546D01*
X131927575Y-126669842D01*
X132057500Y-126855395D01*
X132057505Y-126855401D01*
X132224599Y-127022495D01*
X132321384Y-127090265D01*
X132418165Y-127158032D01*
X132418167Y-127158033D01*
X132418170Y-127158035D01*
X132632337Y-127257903D01*
X132860592Y-127319063D01*
X133037034Y-127334500D01*
X133095999Y-127339659D01*
X133096000Y-127339659D01*
X133096001Y-127339659D01*
X133154966Y-127334500D01*
X133331408Y-127319063D01*
X133559663Y-127257903D01*
X133773830Y-127158035D01*
X133967401Y-127022495D01*
X134134495Y-126855401D01*
X134264425Y-126669842D01*
X134319002Y-126626217D01*
X134388500Y-126619023D01*
X134450855Y-126650546D01*
X134467575Y-126669842D01*
X134597500Y-126855395D01*
X134597505Y-126855401D01*
X134764599Y-127022495D01*
X134861384Y-127090265D01*
X134958165Y-127158032D01*
X134958167Y-127158033D01*
X134958170Y-127158035D01*
X135172337Y-127257903D01*
X135400592Y-127319063D01*
X135577034Y-127334500D01*
X135635999Y-127339659D01*
X135636000Y-127339659D01*
X135636001Y-127339659D01*
X135694966Y-127334500D01*
X135871408Y-127319063D01*
X136099663Y-127257903D01*
X136313830Y-127158035D01*
X136507401Y-127022495D01*
X136674495Y-126855401D01*
X136804425Y-126669842D01*
X136859002Y-126626217D01*
X136928500Y-126619023D01*
X136990855Y-126650546D01*
X137007575Y-126669842D01*
X137137500Y-126855395D01*
X137137505Y-126855401D01*
X137304599Y-127022495D01*
X137401384Y-127090265D01*
X137498165Y-127158032D01*
X137498167Y-127158033D01*
X137498170Y-127158035D01*
X137712337Y-127257903D01*
X137940592Y-127319063D01*
X138117034Y-127334500D01*
X138175999Y-127339659D01*
X138176000Y-127339659D01*
X138176001Y-127339659D01*
X138234966Y-127334500D01*
X138411408Y-127319063D01*
X138639663Y-127257903D01*
X138853830Y-127158035D01*
X139047401Y-127022495D01*
X139169329Y-126900566D01*
X139230648Y-126867084D01*
X139300340Y-126872068D01*
X139356274Y-126913939D01*
X139373189Y-126944917D01*
X139422202Y-127076328D01*
X139422206Y-127076335D01*
X139508452Y-127191544D01*
X139508455Y-127191547D01*
X139623664Y-127277793D01*
X139623671Y-127277797D01*
X139758517Y-127328091D01*
X139758516Y-127328091D01*
X139765444Y-127328835D01*
X139818127Y-127334500D01*
X141613872Y-127334499D01*
X141673483Y-127328091D01*
X141808331Y-127277796D01*
X141923546Y-127191546D01*
X142009796Y-127076331D01*
X142060091Y-126941483D01*
X142066500Y-126881873D01*
X142066499Y-125086128D01*
X142060091Y-125026517D01*
X142058810Y-125023083D01*
X142009797Y-124891671D01*
X142009793Y-124891664D01*
X141923547Y-124776455D01*
X141923544Y-124776452D01*
X141808335Y-124690206D01*
X141808328Y-124690202D01*
X141673482Y-124639908D01*
X141673483Y-124639908D01*
X141613883Y-124633501D01*
X141613881Y-124633500D01*
X141613873Y-124633500D01*
X141613864Y-124633500D01*
X139818129Y-124633500D01*
X139818123Y-124633501D01*
X139758516Y-124639908D01*
X139623671Y-124690202D01*
X139623664Y-124690206D01*
X139508455Y-124776452D01*
X139508452Y-124776455D01*
X139422206Y-124891664D01*
X139422203Y-124891669D01*
X139373189Y-125023083D01*
X139331317Y-125079016D01*
X139265853Y-125103433D01*
X139197580Y-125088581D01*
X139169326Y-125067430D01*
X139047402Y-124945506D01*
X139047395Y-124945501D01*
X138853834Y-124809967D01*
X138853830Y-124809965D01*
X138853828Y-124809964D01*
X138639663Y-124710097D01*
X138639659Y-124710096D01*
X138639655Y-124710094D01*
X138411413Y-124648938D01*
X138411403Y-124648936D01*
X138176001Y-124628341D01*
X138175999Y-124628341D01*
X137940596Y-124648936D01*
X137940586Y-124648938D01*
X137712344Y-124710094D01*
X137712335Y-124710098D01*
X137498171Y-124809964D01*
X137498169Y-124809965D01*
X137304597Y-124945505D01*
X137137505Y-125112597D01*
X137007575Y-125298158D01*
X136952998Y-125341783D01*
X136883500Y-125348977D01*
X136821145Y-125317454D01*
X136804425Y-125298158D01*
X136674494Y-125112597D01*
X136507402Y-124945506D01*
X136507395Y-124945501D01*
X136313834Y-124809967D01*
X136313830Y-124809965D01*
X136313828Y-124809964D01*
X136099663Y-124710097D01*
X136099659Y-124710096D01*
X136099655Y-124710094D01*
X135871413Y-124648938D01*
X135871403Y-124648936D01*
X135636001Y-124628341D01*
X135635999Y-124628341D01*
X135400596Y-124648936D01*
X135400586Y-124648938D01*
X135172344Y-124710094D01*
X135172335Y-124710098D01*
X134958171Y-124809964D01*
X134958169Y-124809965D01*
X134764597Y-124945505D01*
X134597505Y-125112597D01*
X134467575Y-125298158D01*
X134412998Y-125341783D01*
X134343500Y-125348977D01*
X134281145Y-125317454D01*
X134264425Y-125298158D01*
X134134494Y-125112597D01*
X133967402Y-124945506D01*
X133967395Y-124945501D01*
X133773834Y-124809967D01*
X133773830Y-124809965D01*
X133773828Y-124809964D01*
X133559663Y-124710097D01*
X133559659Y-124710096D01*
X133559655Y-124710094D01*
X133331413Y-124648938D01*
X133331403Y-124648936D01*
X133096001Y-124628341D01*
X133095999Y-124628341D01*
X132860596Y-124648936D01*
X132860586Y-124648938D01*
X132632344Y-124710094D01*
X132632335Y-124710098D01*
X132418171Y-124809964D01*
X132418169Y-124809965D01*
X132224597Y-124945505D01*
X132057505Y-125112597D01*
X131927575Y-125298158D01*
X131872998Y-125341783D01*
X131803500Y-125348977D01*
X131741145Y-125317454D01*
X131724425Y-125298158D01*
X131594494Y-125112597D01*
X131427402Y-124945506D01*
X131427395Y-124945501D01*
X131233834Y-124809967D01*
X131233830Y-124809965D01*
X131233828Y-124809964D01*
X131019663Y-124710097D01*
X131019659Y-124710096D01*
X131019655Y-124710094D01*
X130791413Y-124648938D01*
X130791403Y-124648936D01*
X130556001Y-124628341D01*
X130555999Y-124628341D01*
X130320596Y-124648936D01*
X130320586Y-124648938D01*
X130092344Y-124710094D01*
X130092335Y-124710098D01*
X129878171Y-124809964D01*
X129878169Y-124809965D01*
X129684597Y-124945505D01*
X129517505Y-125112597D01*
X129387575Y-125298158D01*
X129332998Y-125341783D01*
X129263500Y-125348977D01*
X129201145Y-125317454D01*
X129184425Y-125298158D01*
X129054494Y-125112597D01*
X128887402Y-124945506D01*
X128887395Y-124945501D01*
X128693834Y-124809967D01*
X128693830Y-124809965D01*
X128693828Y-124809964D01*
X128479663Y-124710097D01*
X128479659Y-124710096D01*
X128479655Y-124710094D01*
X128251413Y-124648938D01*
X128251403Y-124648936D01*
X128016001Y-124628341D01*
X128015999Y-124628341D01*
X127780596Y-124648936D01*
X127780586Y-124648938D01*
X127552344Y-124710094D01*
X127552335Y-124710098D01*
X127338171Y-124809964D01*
X127338169Y-124809965D01*
X127144597Y-124945505D01*
X126977505Y-125112597D01*
X126847575Y-125298158D01*
X126792998Y-125341783D01*
X126723500Y-125348977D01*
X126661145Y-125317454D01*
X126644425Y-125298158D01*
X126514494Y-125112597D01*
X126347402Y-124945506D01*
X126347395Y-124945501D01*
X126153834Y-124809967D01*
X126153830Y-124809965D01*
X126153828Y-124809964D01*
X125939663Y-124710097D01*
X125939659Y-124710096D01*
X125939655Y-124710094D01*
X125711413Y-124648938D01*
X125711403Y-124648936D01*
X125476001Y-124628341D01*
X125475999Y-124628341D01*
X125240596Y-124648936D01*
X125240586Y-124648938D01*
X125012344Y-124710094D01*
X125012335Y-124710098D01*
X124798171Y-124809964D01*
X124798169Y-124809965D01*
X124604597Y-124945505D01*
X124437505Y-125112597D01*
X124307575Y-125298158D01*
X124252998Y-125341783D01*
X124183500Y-125348977D01*
X124121145Y-125317454D01*
X124104425Y-125298158D01*
X123974494Y-125112597D01*
X123807402Y-124945506D01*
X123807395Y-124945501D01*
X123613834Y-124809967D01*
X123613830Y-124809965D01*
X123613828Y-124809964D01*
X123399663Y-124710097D01*
X123399659Y-124710096D01*
X123399655Y-124710094D01*
X123171413Y-124648938D01*
X123171403Y-124648936D01*
X122936001Y-124628341D01*
X122935999Y-124628341D01*
X122700596Y-124648936D01*
X122700586Y-124648938D01*
X122472344Y-124710094D01*
X122472335Y-124710098D01*
X122258171Y-124809964D01*
X122258169Y-124809965D01*
X122064597Y-124945505D01*
X121897505Y-125112597D01*
X121767575Y-125298158D01*
X121712998Y-125341783D01*
X121643500Y-125348977D01*
X121581145Y-125317454D01*
X121564425Y-125298158D01*
X121434494Y-125112597D01*
X121267402Y-124945506D01*
X121267395Y-124945501D01*
X121073834Y-124809967D01*
X121073830Y-124809965D01*
X121073828Y-124809964D01*
X120859663Y-124710097D01*
X120859659Y-124710096D01*
X120859655Y-124710094D01*
X120631413Y-124648938D01*
X120631403Y-124648936D01*
X120396001Y-124628341D01*
X120395999Y-124628341D01*
X120160596Y-124648936D01*
X120160586Y-124648938D01*
X119932344Y-124710094D01*
X119932335Y-124710098D01*
X119718171Y-124809964D01*
X119718169Y-124809965D01*
X119524597Y-124945505D01*
X119357505Y-125112597D01*
X119221965Y-125306169D01*
X119221964Y-125306171D01*
X119122098Y-125520335D01*
X119122094Y-125520344D01*
X119060938Y-125748586D01*
X119060936Y-125748596D01*
X119040341Y-125983999D01*
X119040341Y-125984000D01*
X104220499Y-125984000D01*
X104220499Y-125086128D01*
X104214091Y-125026517D01*
X104212810Y-125023083D01*
X104163797Y-124891671D01*
X104163793Y-124891664D01*
X104077547Y-124776455D01*
X104077544Y-124776452D01*
X103962335Y-124690206D01*
X103962328Y-124690202D01*
X103827482Y-124639908D01*
X103827483Y-124639908D01*
X103767883Y-124633501D01*
X103767881Y-124633500D01*
X103767873Y-124633500D01*
X103767864Y-124633500D01*
X101972129Y-124633500D01*
X101972123Y-124633501D01*
X101912516Y-124639908D01*
X101777671Y-124690202D01*
X101777664Y-124690206D01*
X101662455Y-124776452D01*
X101662452Y-124776455D01*
X101576206Y-124891664D01*
X101576203Y-124891669D01*
X101527189Y-125023083D01*
X101485317Y-125079016D01*
X101419853Y-125103433D01*
X101351580Y-125088581D01*
X101323326Y-125067430D01*
X101201402Y-124945506D01*
X101201395Y-124945501D01*
X101007834Y-124809967D01*
X101007830Y-124809965D01*
X101007828Y-124809964D01*
X100793663Y-124710097D01*
X100793659Y-124710096D01*
X100793655Y-124710094D01*
X100565413Y-124648938D01*
X100565403Y-124648936D01*
X100330001Y-124628341D01*
X100329999Y-124628341D01*
X100094596Y-124648936D01*
X100094586Y-124648938D01*
X99866344Y-124710094D01*
X99866335Y-124710098D01*
X99652171Y-124809964D01*
X99652169Y-124809965D01*
X99458597Y-124945505D01*
X99291505Y-125112597D01*
X99161575Y-125298158D01*
X99106998Y-125341783D01*
X99037500Y-125348977D01*
X98975145Y-125317454D01*
X98958425Y-125298158D01*
X98828494Y-125112597D01*
X98661402Y-124945506D01*
X98661395Y-124945501D01*
X98467834Y-124809967D01*
X98467830Y-124809965D01*
X98467828Y-124809964D01*
X98253663Y-124710097D01*
X98253659Y-124710096D01*
X98253655Y-124710094D01*
X98025413Y-124648938D01*
X98025403Y-124648936D01*
X97790001Y-124628341D01*
X97789999Y-124628341D01*
X97554596Y-124648936D01*
X97554586Y-124648938D01*
X97326344Y-124710094D01*
X97326335Y-124710098D01*
X97112171Y-124809964D01*
X97112169Y-124809965D01*
X96918597Y-124945505D01*
X96751505Y-125112597D01*
X96621575Y-125298158D01*
X96566998Y-125341783D01*
X96497500Y-125348977D01*
X96435145Y-125317454D01*
X96418425Y-125298158D01*
X96288494Y-125112597D01*
X96121402Y-124945506D01*
X96121395Y-124945501D01*
X95927834Y-124809967D01*
X95927830Y-124809965D01*
X95927828Y-124809964D01*
X95713663Y-124710097D01*
X95713659Y-124710096D01*
X95713655Y-124710094D01*
X95485413Y-124648938D01*
X95485403Y-124648936D01*
X95250001Y-124628341D01*
X95249999Y-124628341D01*
X95014596Y-124648936D01*
X95014586Y-124648938D01*
X94786344Y-124710094D01*
X94786335Y-124710098D01*
X94572171Y-124809964D01*
X94572169Y-124809965D01*
X94378597Y-124945505D01*
X94211505Y-125112597D01*
X94081575Y-125298158D01*
X94026998Y-125341783D01*
X93957500Y-125348977D01*
X93895145Y-125317454D01*
X93878425Y-125298158D01*
X93748494Y-125112597D01*
X93581402Y-124945506D01*
X93581395Y-124945501D01*
X93387834Y-124809967D01*
X93387830Y-124809965D01*
X93387828Y-124809964D01*
X93173663Y-124710097D01*
X93173659Y-124710096D01*
X93173655Y-124710094D01*
X92945413Y-124648938D01*
X92945403Y-124648936D01*
X92710001Y-124628341D01*
X92709999Y-124628341D01*
X92474596Y-124648936D01*
X92474586Y-124648938D01*
X92246344Y-124710094D01*
X92246335Y-124710098D01*
X92032171Y-124809964D01*
X92032169Y-124809965D01*
X91838597Y-124945505D01*
X91671505Y-125112597D01*
X91541575Y-125298158D01*
X91486998Y-125341783D01*
X91417500Y-125348977D01*
X91355145Y-125317454D01*
X91338425Y-125298158D01*
X91208494Y-125112597D01*
X91041402Y-124945506D01*
X91041395Y-124945501D01*
X90847834Y-124809967D01*
X90847830Y-124809965D01*
X90847828Y-124809964D01*
X90633663Y-124710097D01*
X90633659Y-124710096D01*
X90633655Y-124710094D01*
X90405413Y-124648938D01*
X90405403Y-124648936D01*
X90170001Y-124628341D01*
X90169999Y-124628341D01*
X89934596Y-124648936D01*
X89934586Y-124648938D01*
X89706344Y-124710094D01*
X89706335Y-124710098D01*
X89492171Y-124809964D01*
X89492169Y-124809965D01*
X89298597Y-124945505D01*
X89131505Y-125112597D01*
X89001575Y-125298158D01*
X88946998Y-125341783D01*
X88877500Y-125348977D01*
X88815145Y-125317454D01*
X88798425Y-125298158D01*
X88668494Y-125112597D01*
X88501402Y-124945506D01*
X88501395Y-124945501D01*
X88307834Y-124809967D01*
X88307830Y-124809965D01*
X88307828Y-124809964D01*
X88093663Y-124710097D01*
X88093659Y-124710096D01*
X88093655Y-124710094D01*
X87865413Y-124648938D01*
X87865403Y-124648936D01*
X87630001Y-124628341D01*
X87629999Y-124628341D01*
X87394596Y-124648936D01*
X87394586Y-124648938D01*
X87166344Y-124710094D01*
X87166335Y-124710098D01*
X86952171Y-124809964D01*
X86952169Y-124809965D01*
X86758597Y-124945505D01*
X86591505Y-125112597D01*
X86461575Y-125298158D01*
X86406998Y-125341783D01*
X86337500Y-125348977D01*
X86275145Y-125317454D01*
X86258425Y-125298158D01*
X86128494Y-125112597D01*
X85961402Y-124945506D01*
X85961395Y-124945501D01*
X85767834Y-124809967D01*
X85767830Y-124809965D01*
X85767828Y-124809964D01*
X85553663Y-124710097D01*
X85553659Y-124710096D01*
X85553655Y-124710094D01*
X85325413Y-124648938D01*
X85325403Y-124648936D01*
X85090001Y-124628341D01*
X85089999Y-124628341D01*
X84854596Y-124648936D01*
X84854586Y-124648938D01*
X84626344Y-124710094D01*
X84626335Y-124710098D01*
X84412171Y-124809964D01*
X84412169Y-124809965D01*
X84218597Y-124945505D01*
X84051505Y-125112597D01*
X83921575Y-125298158D01*
X83866998Y-125341783D01*
X83797500Y-125348977D01*
X83735145Y-125317454D01*
X83718425Y-125298158D01*
X83588494Y-125112597D01*
X83421402Y-124945506D01*
X83421395Y-124945501D01*
X83227834Y-124809967D01*
X83227830Y-124809965D01*
X83227828Y-124809964D01*
X83013663Y-124710097D01*
X83013659Y-124710096D01*
X83013655Y-124710094D01*
X82785413Y-124648938D01*
X82785403Y-124648936D01*
X82550001Y-124628341D01*
X82549999Y-124628341D01*
X82314596Y-124648936D01*
X82314586Y-124648938D01*
X82086344Y-124710094D01*
X82086335Y-124710098D01*
X81872171Y-124809964D01*
X81872169Y-124809965D01*
X81678597Y-124945505D01*
X81511505Y-125112597D01*
X81375965Y-125306169D01*
X81375964Y-125306171D01*
X81276098Y-125520335D01*
X81276094Y-125520344D01*
X81214938Y-125748586D01*
X81214936Y-125748596D01*
X81194341Y-125983999D01*
X81194341Y-125984000D01*
X74967500Y-125984000D01*
X74967500Y-121230002D01*
X88557677Y-121230002D01*
X88576929Y-121450062D01*
X88576930Y-121450070D01*
X88634104Y-121663445D01*
X88634105Y-121663447D01*
X88634106Y-121663450D01*
X88667382Y-121734811D01*
X88727466Y-121863662D01*
X88727468Y-121863666D01*
X88854170Y-122044615D01*
X88854175Y-122044621D01*
X89010378Y-122200824D01*
X89010384Y-122200829D01*
X89191333Y-122327531D01*
X89191335Y-122327532D01*
X89191338Y-122327534D01*
X89391550Y-122420894D01*
X89604932Y-122478070D01*
X89762123Y-122491822D01*
X89824998Y-122497323D01*
X89825000Y-122497323D01*
X89825002Y-122497323D01*
X89880017Y-122492509D01*
X90045068Y-122478070D01*
X90258450Y-122420894D01*
X90458662Y-122327534D01*
X90639620Y-122200826D01*
X90795826Y-122044620D01*
X90922534Y-121863662D01*
X90982618Y-121734811D01*
X91028790Y-121682371D01*
X91095983Y-121663219D01*
X91162865Y-121683435D01*
X91207382Y-121734811D01*
X91267464Y-121863658D01*
X91267468Y-121863666D01*
X91394170Y-122044615D01*
X91394175Y-122044621D01*
X91550378Y-122200824D01*
X91550384Y-122200829D01*
X91731333Y-122327531D01*
X91731335Y-122327532D01*
X91731338Y-122327534D01*
X91931550Y-122420894D01*
X92144932Y-122478070D01*
X92302123Y-122491822D01*
X92364998Y-122497323D01*
X92365000Y-122497323D01*
X92365002Y-122497323D01*
X92420017Y-122492509D01*
X92585068Y-122478070D01*
X92798450Y-122420894D01*
X92998662Y-122327534D01*
X93179620Y-122200826D01*
X93335826Y-122044620D01*
X93462534Y-121863662D01*
X93522618Y-121734811D01*
X93568790Y-121682371D01*
X93635983Y-121663219D01*
X93702865Y-121683435D01*
X93747382Y-121734811D01*
X93807464Y-121863658D01*
X93807468Y-121863666D01*
X93934170Y-122044615D01*
X93934175Y-122044621D01*
X94090378Y-122200824D01*
X94090384Y-122200829D01*
X94271333Y-122327531D01*
X94271335Y-122327532D01*
X94271338Y-122327534D01*
X94471550Y-122420894D01*
X94684932Y-122478070D01*
X94842123Y-122491822D01*
X94904998Y-122497323D01*
X94905000Y-122497323D01*
X94905002Y-122497323D01*
X94960017Y-122492509D01*
X95125068Y-122478070D01*
X95338450Y-122420894D01*
X95538662Y-122327534D01*
X95719620Y-122200826D01*
X95875826Y-122044620D01*
X96002534Y-121863662D01*
X96062618Y-121734811D01*
X96108790Y-121682371D01*
X96175983Y-121663219D01*
X96242865Y-121683435D01*
X96287382Y-121734811D01*
X96347464Y-121863658D01*
X96347468Y-121863666D01*
X96474170Y-122044615D01*
X96474175Y-122044621D01*
X96630378Y-122200824D01*
X96630384Y-122200829D01*
X96811333Y-122327531D01*
X96811335Y-122327532D01*
X96811338Y-122327534D01*
X97011550Y-122420894D01*
X97224932Y-122478070D01*
X97382123Y-122491822D01*
X97444998Y-122497323D01*
X97445000Y-122497323D01*
X97445002Y-122497323D01*
X97500017Y-122492509D01*
X97665068Y-122478070D01*
X97878450Y-122420894D01*
X98078662Y-122327534D01*
X98259620Y-122200826D01*
X98415826Y-122044620D01*
X98542534Y-121863662D01*
X98602618Y-121734811D01*
X98648790Y-121682371D01*
X98715983Y-121663219D01*
X98782865Y-121683435D01*
X98827382Y-121734811D01*
X98887464Y-121863658D01*
X98887468Y-121863666D01*
X99014170Y-122044615D01*
X99014175Y-122044621D01*
X99170378Y-122200824D01*
X99170384Y-122200829D01*
X99351333Y-122327531D01*
X99351335Y-122327532D01*
X99351338Y-122327534D01*
X99551550Y-122420894D01*
X99764932Y-122478070D01*
X99922123Y-122491822D01*
X99984998Y-122497323D01*
X99985000Y-122497323D01*
X99985002Y-122497323D01*
X100040017Y-122492509D01*
X100205068Y-122478070D01*
X100418450Y-122420894D01*
X100618662Y-122327534D01*
X100799620Y-122200826D01*
X100955826Y-122044620D01*
X101082534Y-121863662D01*
X101142618Y-121734811D01*
X101188790Y-121682371D01*
X101255983Y-121663219D01*
X101322865Y-121683435D01*
X101367382Y-121734811D01*
X101427464Y-121863658D01*
X101427468Y-121863666D01*
X101554170Y-122044615D01*
X101554175Y-122044621D01*
X101710378Y-122200824D01*
X101710384Y-122200829D01*
X101891333Y-122327531D01*
X101891335Y-122327532D01*
X101891338Y-122327534D01*
X102091550Y-122420894D01*
X102304932Y-122478070D01*
X102462123Y-122491822D01*
X102524998Y-122497323D01*
X102525000Y-122497323D01*
X102525002Y-122497323D01*
X102580017Y-122492509D01*
X102745068Y-122478070D01*
X102958450Y-122420894D01*
X103158662Y-122327534D01*
X103339620Y-122200826D01*
X103495826Y-122044620D01*
X103622534Y-121863662D01*
X103682618Y-121734811D01*
X103728790Y-121682371D01*
X103795983Y-121663219D01*
X103862865Y-121683435D01*
X103907382Y-121734811D01*
X103967464Y-121863658D01*
X103967468Y-121863666D01*
X104094170Y-122044615D01*
X104094175Y-122044621D01*
X104250378Y-122200824D01*
X104250384Y-122200829D01*
X104431333Y-122327531D01*
X104431335Y-122327532D01*
X104431338Y-122327534D01*
X104631550Y-122420894D01*
X104844932Y-122478070D01*
X105002123Y-122491822D01*
X105064998Y-122497323D01*
X105065000Y-122497323D01*
X105065002Y-122497323D01*
X105120017Y-122492509D01*
X105285068Y-122478070D01*
X105498450Y-122420894D01*
X105698662Y-122327534D01*
X105879620Y-122200826D01*
X106035826Y-122044620D01*
X106162534Y-121863662D01*
X106222618Y-121734811D01*
X106268790Y-121682371D01*
X106335983Y-121663219D01*
X106402865Y-121683435D01*
X106447382Y-121734811D01*
X106507464Y-121863658D01*
X106507468Y-121863666D01*
X106634170Y-122044615D01*
X106634175Y-122044621D01*
X106790378Y-122200824D01*
X106790384Y-122200829D01*
X106971333Y-122327531D01*
X106971335Y-122327532D01*
X106971338Y-122327534D01*
X107171550Y-122420894D01*
X107384932Y-122478070D01*
X107542123Y-122491822D01*
X107604998Y-122497323D01*
X107605000Y-122497323D01*
X107605002Y-122497323D01*
X107660017Y-122492509D01*
X107825068Y-122478070D01*
X108038450Y-122420894D01*
X108238662Y-122327534D01*
X108419620Y-122200826D01*
X108575826Y-122044620D01*
X108702534Y-121863662D01*
X108762618Y-121734811D01*
X108808790Y-121682371D01*
X108875983Y-121663219D01*
X108942865Y-121683435D01*
X108987382Y-121734811D01*
X109047464Y-121863658D01*
X109047468Y-121863666D01*
X109174170Y-122044615D01*
X109174175Y-122044621D01*
X109330378Y-122200824D01*
X109330384Y-122200829D01*
X109511333Y-122327531D01*
X109511335Y-122327532D01*
X109511338Y-122327534D01*
X109711550Y-122420894D01*
X109924932Y-122478070D01*
X110082123Y-122491822D01*
X110144998Y-122497323D01*
X110145000Y-122497323D01*
X110145002Y-122497323D01*
X110200017Y-122492509D01*
X110365068Y-122478070D01*
X110578450Y-122420894D01*
X110778662Y-122327534D01*
X110959620Y-122200826D01*
X111115826Y-122044620D01*
X111242534Y-121863662D01*
X111335894Y-121663450D01*
X111393070Y-121450068D01*
X111412323Y-121230002D01*
X126657677Y-121230002D01*
X126676929Y-121450062D01*
X126676930Y-121450070D01*
X126734104Y-121663445D01*
X126734105Y-121663447D01*
X126734106Y-121663450D01*
X126767382Y-121734811D01*
X126827466Y-121863662D01*
X126827468Y-121863666D01*
X126954170Y-122044615D01*
X126954175Y-122044621D01*
X127110378Y-122200824D01*
X127110384Y-122200829D01*
X127291333Y-122327531D01*
X127291335Y-122327532D01*
X127291338Y-122327534D01*
X127491550Y-122420894D01*
X127704932Y-122478070D01*
X127862123Y-122491822D01*
X127924998Y-122497323D01*
X127925000Y-122497323D01*
X127925002Y-122497323D01*
X127980017Y-122492509D01*
X128145068Y-122478070D01*
X128358450Y-122420894D01*
X128558662Y-122327534D01*
X128739620Y-122200826D01*
X128895826Y-122044620D01*
X129022534Y-121863662D01*
X129082618Y-121734811D01*
X129128790Y-121682371D01*
X129195983Y-121663219D01*
X129262865Y-121683435D01*
X129307382Y-121734811D01*
X129367464Y-121863658D01*
X129367468Y-121863666D01*
X129494170Y-122044615D01*
X129494175Y-122044621D01*
X129650378Y-122200824D01*
X129650384Y-122200829D01*
X129831333Y-122327531D01*
X129831335Y-122327532D01*
X129831338Y-122327534D01*
X130031550Y-122420894D01*
X130244932Y-122478070D01*
X130402123Y-122491822D01*
X130464998Y-122497323D01*
X130465000Y-122497323D01*
X130465002Y-122497323D01*
X130520017Y-122492509D01*
X130685068Y-122478070D01*
X130898450Y-122420894D01*
X131098662Y-122327534D01*
X131279620Y-122200826D01*
X131435826Y-122044620D01*
X131562534Y-121863662D01*
X131622618Y-121734811D01*
X131668790Y-121682371D01*
X131735983Y-121663219D01*
X131802865Y-121683435D01*
X131847382Y-121734811D01*
X131907464Y-121863658D01*
X131907468Y-121863666D01*
X132034170Y-122044615D01*
X132034175Y-122044621D01*
X132190378Y-122200824D01*
X132190384Y-122200829D01*
X132371333Y-122327531D01*
X132371335Y-122327532D01*
X132371338Y-122327534D01*
X132571550Y-122420894D01*
X132784932Y-122478070D01*
X132942123Y-122491822D01*
X133004998Y-122497323D01*
X133005000Y-122497323D01*
X133005002Y-122497323D01*
X133060017Y-122492509D01*
X133225068Y-122478070D01*
X133438450Y-122420894D01*
X133638662Y-122327534D01*
X133819620Y-122200826D01*
X133975826Y-122044620D01*
X134102534Y-121863662D01*
X134162618Y-121734811D01*
X134208790Y-121682371D01*
X134275983Y-121663219D01*
X134342865Y-121683435D01*
X134387382Y-121734811D01*
X134447464Y-121863658D01*
X134447468Y-121863666D01*
X134574170Y-122044615D01*
X134574175Y-122044621D01*
X134730378Y-122200824D01*
X134730384Y-122200829D01*
X134911333Y-122327531D01*
X134911335Y-122327532D01*
X134911338Y-122327534D01*
X135111550Y-122420894D01*
X135324932Y-122478070D01*
X135482123Y-122491822D01*
X135544998Y-122497323D01*
X135545000Y-122497323D01*
X135545002Y-122497323D01*
X135600017Y-122492509D01*
X135765068Y-122478070D01*
X135978450Y-122420894D01*
X136178662Y-122327534D01*
X136359620Y-122200826D01*
X136515826Y-122044620D01*
X136642534Y-121863662D01*
X136702618Y-121734811D01*
X136748790Y-121682371D01*
X136815983Y-121663219D01*
X136882865Y-121683435D01*
X136927382Y-121734811D01*
X136987464Y-121863658D01*
X136987468Y-121863666D01*
X137114170Y-122044615D01*
X137114175Y-122044621D01*
X137270378Y-122200824D01*
X137270384Y-122200829D01*
X137451333Y-122327531D01*
X137451335Y-122327532D01*
X137451338Y-122327534D01*
X137651550Y-122420894D01*
X137864932Y-122478070D01*
X138022123Y-122491822D01*
X138084998Y-122497323D01*
X138085000Y-122497323D01*
X138085002Y-122497323D01*
X138140017Y-122492509D01*
X138305068Y-122478070D01*
X138518450Y-122420894D01*
X138718662Y-122327534D01*
X138899620Y-122200826D01*
X139055826Y-122044620D01*
X139182534Y-121863662D01*
X139242618Y-121734811D01*
X139288790Y-121682371D01*
X139355983Y-121663219D01*
X139422865Y-121683435D01*
X139467382Y-121734811D01*
X139527464Y-121863658D01*
X139527468Y-121863666D01*
X139654170Y-122044615D01*
X139654175Y-122044621D01*
X139810378Y-122200824D01*
X139810384Y-122200829D01*
X139991333Y-122327531D01*
X139991335Y-122327532D01*
X139991338Y-122327534D01*
X140191550Y-122420894D01*
X140404932Y-122478070D01*
X140562123Y-122491822D01*
X140624998Y-122497323D01*
X140625000Y-122497323D01*
X140625002Y-122497323D01*
X140680017Y-122492509D01*
X140845068Y-122478070D01*
X141058450Y-122420894D01*
X141258662Y-122327534D01*
X141439620Y-122200826D01*
X141595826Y-122044620D01*
X141722534Y-121863662D01*
X141782618Y-121734811D01*
X141828790Y-121682371D01*
X141895983Y-121663219D01*
X141962865Y-121683435D01*
X142007382Y-121734811D01*
X142067464Y-121863658D01*
X142067468Y-121863666D01*
X142194170Y-122044615D01*
X142194175Y-122044621D01*
X142350378Y-122200824D01*
X142350384Y-122200829D01*
X142531333Y-122327531D01*
X142531335Y-122327532D01*
X142531338Y-122327534D01*
X142731550Y-122420894D01*
X142944932Y-122478070D01*
X143102123Y-122491822D01*
X143164998Y-122497323D01*
X143165000Y-122497323D01*
X143165002Y-122497323D01*
X143220017Y-122492509D01*
X143385068Y-122478070D01*
X143598450Y-122420894D01*
X143798662Y-122327534D01*
X143979620Y-122200826D01*
X144135826Y-122044620D01*
X144262534Y-121863662D01*
X144322618Y-121734811D01*
X144368790Y-121682371D01*
X144435983Y-121663219D01*
X144502865Y-121683435D01*
X144547382Y-121734811D01*
X144607464Y-121863658D01*
X144607468Y-121863666D01*
X144734170Y-122044615D01*
X144734175Y-122044621D01*
X144890378Y-122200824D01*
X144890384Y-122200829D01*
X145071333Y-122327531D01*
X145071335Y-122327532D01*
X145071338Y-122327534D01*
X145271550Y-122420894D01*
X145484932Y-122478070D01*
X145642123Y-122491822D01*
X145704998Y-122497323D01*
X145705000Y-122497323D01*
X145705002Y-122497323D01*
X145760017Y-122492509D01*
X145925068Y-122478070D01*
X146138450Y-122420894D01*
X146338662Y-122327534D01*
X146519620Y-122200826D01*
X146675826Y-122044620D01*
X146802534Y-121863662D01*
X146862618Y-121734811D01*
X146908790Y-121682371D01*
X146975983Y-121663219D01*
X147042865Y-121683435D01*
X147087382Y-121734811D01*
X147147464Y-121863658D01*
X147147468Y-121863666D01*
X147274170Y-122044615D01*
X147274175Y-122044621D01*
X147430378Y-122200824D01*
X147430384Y-122200829D01*
X147611333Y-122327531D01*
X147611335Y-122327532D01*
X147611338Y-122327534D01*
X147811550Y-122420894D01*
X148024932Y-122478070D01*
X148182123Y-122491822D01*
X148244998Y-122497323D01*
X148245000Y-122497323D01*
X148245002Y-122497323D01*
X148300017Y-122492509D01*
X148465068Y-122478070D01*
X148678450Y-122420894D01*
X148878662Y-122327534D01*
X149059620Y-122200826D01*
X149215826Y-122044620D01*
X149342534Y-121863662D01*
X149435894Y-121663450D01*
X149493070Y-121450068D01*
X149512323Y-121230000D01*
X149493070Y-121009932D01*
X149435894Y-120796550D01*
X149342534Y-120596339D01*
X149215826Y-120415380D01*
X149059620Y-120259174D01*
X149059616Y-120259171D01*
X149059615Y-120259170D01*
X148878666Y-120132468D01*
X148878662Y-120132466D01*
X148878660Y-120132465D01*
X148678450Y-120039106D01*
X148678447Y-120039105D01*
X148678445Y-120039104D01*
X148465070Y-119981930D01*
X148465062Y-119981929D01*
X148245002Y-119962677D01*
X148244998Y-119962677D01*
X148024937Y-119981929D01*
X148024929Y-119981930D01*
X147811554Y-120039104D01*
X147811548Y-120039107D01*
X147611340Y-120132465D01*
X147611338Y-120132466D01*
X147430377Y-120259175D01*
X147274175Y-120415377D01*
X147147466Y-120596338D01*
X147147465Y-120596340D01*
X147087382Y-120725189D01*
X147041209Y-120777628D01*
X146974016Y-120796780D01*
X146907135Y-120776564D01*
X146862618Y-120725189D01*
X146802534Y-120596340D01*
X146802533Y-120596338D01*
X146675827Y-120415381D01*
X146675823Y-120415377D01*
X146519620Y-120259174D01*
X146519616Y-120259171D01*
X146519615Y-120259170D01*
X146338666Y-120132468D01*
X146338662Y-120132466D01*
X146338660Y-120132465D01*
X146138450Y-120039106D01*
X146138447Y-120039105D01*
X146138445Y-120039104D01*
X145925070Y-119981930D01*
X145925062Y-119981929D01*
X145705002Y-119962677D01*
X145704998Y-119962677D01*
X145484937Y-119981929D01*
X145484929Y-119981930D01*
X145271554Y-120039104D01*
X145271548Y-120039107D01*
X145071340Y-120132465D01*
X145071338Y-120132466D01*
X144890377Y-120259175D01*
X144734175Y-120415377D01*
X144607466Y-120596338D01*
X144607465Y-120596340D01*
X144547382Y-120725189D01*
X144501209Y-120777628D01*
X144434016Y-120796780D01*
X144367135Y-120776564D01*
X144322618Y-120725189D01*
X144262534Y-120596340D01*
X144262533Y-120596338D01*
X144135827Y-120415381D01*
X144135823Y-120415377D01*
X143979620Y-120259174D01*
X143979616Y-120259171D01*
X143979615Y-120259170D01*
X143798666Y-120132468D01*
X143798662Y-120132466D01*
X143798660Y-120132465D01*
X143598450Y-120039106D01*
X143598447Y-120039105D01*
X143598445Y-120039104D01*
X143385070Y-119981930D01*
X143385062Y-119981929D01*
X143165002Y-119962677D01*
X143164998Y-119962677D01*
X142944937Y-119981929D01*
X142944929Y-119981930D01*
X142731554Y-120039104D01*
X142731548Y-120039107D01*
X142531340Y-120132465D01*
X142531338Y-120132466D01*
X142350377Y-120259175D01*
X142194175Y-120415377D01*
X142067466Y-120596338D01*
X142067465Y-120596340D01*
X142007382Y-120725189D01*
X141961209Y-120777628D01*
X141894016Y-120796780D01*
X141827135Y-120776564D01*
X141782618Y-120725189D01*
X141722534Y-120596340D01*
X141722533Y-120596338D01*
X141595827Y-120415381D01*
X141595823Y-120415377D01*
X141439620Y-120259174D01*
X141439616Y-120259171D01*
X141439615Y-120259170D01*
X141258666Y-120132468D01*
X141258662Y-120132466D01*
X141258660Y-120132465D01*
X141058450Y-120039106D01*
X141058447Y-120039105D01*
X141058445Y-120039104D01*
X140845070Y-119981930D01*
X140845062Y-119981929D01*
X140625002Y-119962677D01*
X140624998Y-119962677D01*
X140404937Y-119981929D01*
X140404929Y-119981930D01*
X140191554Y-120039104D01*
X140191548Y-120039107D01*
X139991340Y-120132465D01*
X139991338Y-120132466D01*
X139810377Y-120259175D01*
X139654175Y-120415377D01*
X139527466Y-120596338D01*
X139527465Y-120596340D01*
X139467382Y-120725189D01*
X139421209Y-120777628D01*
X139354016Y-120796780D01*
X139287135Y-120776564D01*
X139242618Y-120725189D01*
X139182534Y-120596340D01*
X139182533Y-120596338D01*
X139055827Y-120415381D01*
X139055823Y-120415377D01*
X138899620Y-120259174D01*
X138899616Y-120259171D01*
X138899615Y-120259170D01*
X138718666Y-120132468D01*
X138718662Y-120132466D01*
X138718660Y-120132465D01*
X138518450Y-120039106D01*
X138518447Y-120039105D01*
X138518445Y-120039104D01*
X138305070Y-119981930D01*
X138305062Y-119981929D01*
X138085002Y-119962677D01*
X138084998Y-119962677D01*
X137864937Y-119981929D01*
X137864929Y-119981930D01*
X137651554Y-120039104D01*
X137651548Y-120039107D01*
X137451340Y-120132465D01*
X137451338Y-120132466D01*
X137270377Y-120259175D01*
X137114175Y-120415377D01*
X136987466Y-120596338D01*
X136987465Y-120596340D01*
X136927382Y-120725189D01*
X136881209Y-120777628D01*
X136814016Y-120796780D01*
X136747135Y-120776564D01*
X136702618Y-120725189D01*
X136642534Y-120596340D01*
X136642533Y-120596338D01*
X136515827Y-120415381D01*
X136515823Y-120415377D01*
X136359620Y-120259174D01*
X136359616Y-120259171D01*
X136359615Y-120259170D01*
X136178666Y-120132468D01*
X136178662Y-120132466D01*
X136178660Y-120132465D01*
X135978450Y-120039106D01*
X135978447Y-120039105D01*
X135978445Y-120039104D01*
X135765070Y-119981930D01*
X135765062Y-119981929D01*
X135545002Y-119962677D01*
X135544998Y-119962677D01*
X135324937Y-119981929D01*
X135324929Y-119981930D01*
X135111554Y-120039104D01*
X135111548Y-120039107D01*
X134911340Y-120132465D01*
X134911338Y-120132466D01*
X134730377Y-120259175D01*
X134574175Y-120415377D01*
X134447466Y-120596338D01*
X134447465Y-120596340D01*
X134387382Y-120725189D01*
X134341209Y-120777628D01*
X134274016Y-120796780D01*
X134207135Y-120776564D01*
X134162618Y-120725189D01*
X134102534Y-120596340D01*
X134102533Y-120596338D01*
X133975827Y-120415381D01*
X133975823Y-120415377D01*
X133819620Y-120259174D01*
X133819616Y-120259171D01*
X133819615Y-120259170D01*
X133638666Y-120132468D01*
X133638662Y-120132466D01*
X133638660Y-120132465D01*
X133438450Y-120039106D01*
X133438447Y-120039105D01*
X133438445Y-120039104D01*
X133225070Y-119981930D01*
X133225062Y-119981929D01*
X133005002Y-119962677D01*
X133004998Y-119962677D01*
X132784937Y-119981929D01*
X132784929Y-119981930D01*
X132571554Y-120039104D01*
X132571548Y-120039107D01*
X132371340Y-120132465D01*
X132371338Y-120132466D01*
X132190377Y-120259175D01*
X132034175Y-120415377D01*
X131907466Y-120596338D01*
X131907465Y-120596340D01*
X131847382Y-120725189D01*
X131801209Y-120777628D01*
X131734016Y-120796780D01*
X131667135Y-120776564D01*
X131622618Y-120725189D01*
X131562534Y-120596340D01*
X131562533Y-120596338D01*
X131435827Y-120415381D01*
X131435823Y-120415377D01*
X131279620Y-120259174D01*
X131279616Y-120259171D01*
X131279615Y-120259170D01*
X131098666Y-120132468D01*
X131098662Y-120132466D01*
X131098660Y-120132465D01*
X130898450Y-120039106D01*
X130898447Y-120039105D01*
X130898445Y-120039104D01*
X130685070Y-119981930D01*
X130685062Y-119981929D01*
X130465002Y-119962677D01*
X130464998Y-119962677D01*
X130244937Y-119981929D01*
X130244929Y-119981930D01*
X130031554Y-120039104D01*
X130031548Y-120039107D01*
X129831340Y-120132465D01*
X129831338Y-120132466D01*
X129650377Y-120259175D01*
X129494175Y-120415377D01*
X129367466Y-120596338D01*
X129367465Y-120596340D01*
X129307382Y-120725189D01*
X129261209Y-120777628D01*
X129194016Y-120796780D01*
X129127135Y-120776564D01*
X129082618Y-120725189D01*
X129022534Y-120596340D01*
X129022533Y-120596338D01*
X128895827Y-120415381D01*
X128895823Y-120415377D01*
X128739620Y-120259174D01*
X128739616Y-120259171D01*
X128739615Y-120259170D01*
X128558666Y-120132468D01*
X128558662Y-120132466D01*
X128558660Y-120132465D01*
X128358450Y-120039106D01*
X128358447Y-120039105D01*
X128358445Y-120039104D01*
X128145070Y-119981930D01*
X128145062Y-119981929D01*
X127925002Y-119962677D01*
X127924998Y-119962677D01*
X127704937Y-119981929D01*
X127704929Y-119981930D01*
X127491554Y-120039104D01*
X127491548Y-120039107D01*
X127291340Y-120132465D01*
X127291338Y-120132466D01*
X127110377Y-120259175D01*
X126954175Y-120415377D01*
X126827466Y-120596338D01*
X126827465Y-120596340D01*
X126734107Y-120796548D01*
X126734104Y-120796554D01*
X126676930Y-121009929D01*
X126676929Y-121009937D01*
X126657677Y-121229997D01*
X126657677Y-121230002D01*
X111412323Y-121230002D01*
X111412323Y-121230000D01*
X111393070Y-121009932D01*
X111335894Y-120796550D01*
X111242534Y-120596339D01*
X111115826Y-120415380D01*
X110959620Y-120259174D01*
X110959616Y-120259171D01*
X110959615Y-120259170D01*
X110778666Y-120132468D01*
X110778662Y-120132466D01*
X110778660Y-120132465D01*
X110578450Y-120039106D01*
X110578447Y-120039105D01*
X110578445Y-120039104D01*
X110365070Y-119981930D01*
X110365062Y-119981929D01*
X110145002Y-119962677D01*
X110144998Y-119962677D01*
X109924937Y-119981929D01*
X109924929Y-119981930D01*
X109711554Y-120039104D01*
X109711548Y-120039107D01*
X109511340Y-120132465D01*
X109511338Y-120132466D01*
X109330377Y-120259175D01*
X109174175Y-120415377D01*
X109047466Y-120596338D01*
X109047465Y-120596340D01*
X108987382Y-120725189D01*
X108941209Y-120777628D01*
X108874016Y-120796780D01*
X108807135Y-120776564D01*
X108762618Y-120725189D01*
X108702534Y-120596340D01*
X108702533Y-120596338D01*
X108575827Y-120415381D01*
X108575823Y-120415377D01*
X108419620Y-120259174D01*
X108419616Y-120259171D01*
X108419615Y-120259170D01*
X108238666Y-120132468D01*
X108238662Y-120132466D01*
X108238660Y-120132465D01*
X108038450Y-120039106D01*
X108038447Y-120039105D01*
X108038445Y-120039104D01*
X107825070Y-119981930D01*
X107825062Y-119981929D01*
X107605002Y-119962677D01*
X107604998Y-119962677D01*
X107384937Y-119981929D01*
X107384929Y-119981930D01*
X107171554Y-120039104D01*
X107171548Y-120039107D01*
X106971340Y-120132465D01*
X106971338Y-120132466D01*
X106790377Y-120259175D01*
X106634175Y-120415377D01*
X106507466Y-120596338D01*
X106507465Y-120596340D01*
X106447382Y-120725189D01*
X106401209Y-120777628D01*
X106334016Y-120796780D01*
X106267135Y-120776564D01*
X106222618Y-120725189D01*
X106162534Y-120596340D01*
X106162533Y-120596338D01*
X106035827Y-120415381D01*
X106035823Y-120415377D01*
X105879620Y-120259174D01*
X105879616Y-120259171D01*
X105879615Y-120259170D01*
X105698666Y-120132468D01*
X105698662Y-120132466D01*
X105698660Y-120132465D01*
X105498450Y-120039106D01*
X105498447Y-120039105D01*
X105498445Y-120039104D01*
X105285070Y-119981930D01*
X105285062Y-119981929D01*
X105065002Y-119962677D01*
X105064998Y-119962677D01*
X104844937Y-119981929D01*
X104844929Y-119981930D01*
X104631554Y-120039104D01*
X104631548Y-120039107D01*
X104431340Y-120132465D01*
X104431338Y-120132466D01*
X104250377Y-120259175D01*
X104094175Y-120415377D01*
X103967466Y-120596338D01*
X103967465Y-120596340D01*
X103907382Y-120725189D01*
X103861209Y-120777628D01*
X103794016Y-120796780D01*
X103727135Y-120776564D01*
X103682618Y-120725189D01*
X103622534Y-120596340D01*
X103622533Y-120596338D01*
X103495827Y-120415381D01*
X103495823Y-120415377D01*
X103339620Y-120259174D01*
X103339616Y-120259171D01*
X103339615Y-120259170D01*
X103158666Y-120132468D01*
X103158662Y-120132466D01*
X103158660Y-120132465D01*
X102958450Y-120039106D01*
X102958447Y-120039105D01*
X102958445Y-120039104D01*
X102745070Y-119981930D01*
X102745062Y-119981929D01*
X102525002Y-119962677D01*
X102524998Y-119962677D01*
X102304937Y-119981929D01*
X102304929Y-119981930D01*
X102091554Y-120039104D01*
X102091548Y-120039107D01*
X101891340Y-120132465D01*
X101891338Y-120132466D01*
X101710377Y-120259175D01*
X101554175Y-120415377D01*
X101427466Y-120596338D01*
X101427465Y-120596340D01*
X101367382Y-120725189D01*
X101321209Y-120777628D01*
X101254016Y-120796780D01*
X101187135Y-120776564D01*
X101142618Y-120725189D01*
X101082534Y-120596340D01*
X101082533Y-120596338D01*
X100955827Y-120415381D01*
X100955823Y-120415377D01*
X100799620Y-120259174D01*
X100799616Y-120259171D01*
X100799615Y-120259170D01*
X100618666Y-120132468D01*
X100618662Y-120132466D01*
X100618660Y-120132465D01*
X100418450Y-120039106D01*
X100418447Y-120039105D01*
X100418445Y-120039104D01*
X100205070Y-119981930D01*
X100205062Y-119981929D01*
X99985002Y-119962677D01*
X99984998Y-119962677D01*
X99764937Y-119981929D01*
X99764929Y-119981930D01*
X99551554Y-120039104D01*
X99551548Y-120039107D01*
X99351340Y-120132465D01*
X99351338Y-120132466D01*
X99170377Y-120259175D01*
X99014175Y-120415377D01*
X98887466Y-120596338D01*
X98887465Y-120596340D01*
X98827382Y-120725189D01*
X98781209Y-120777628D01*
X98714016Y-120796780D01*
X98647135Y-120776564D01*
X98602618Y-120725189D01*
X98542534Y-120596340D01*
X98542533Y-120596338D01*
X98415827Y-120415381D01*
X98415823Y-120415377D01*
X98259620Y-120259174D01*
X98259616Y-120259171D01*
X98259615Y-120259170D01*
X98078666Y-120132468D01*
X98078662Y-120132466D01*
X98078660Y-120132465D01*
X97878450Y-120039106D01*
X97878447Y-120039105D01*
X97878445Y-120039104D01*
X97665070Y-119981930D01*
X97665062Y-119981929D01*
X97445002Y-119962677D01*
X97444998Y-119962677D01*
X97224937Y-119981929D01*
X97224929Y-119981930D01*
X97011554Y-120039104D01*
X97011548Y-120039107D01*
X96811340Y-120132465D01*
X96811338Y-120132466D01*
X96630377Y-120259175D01*
X96474175Y-120415377D01*
X96347466Y-120596338D01*
X96347465Y-120596340D01*
X96287382Y-120725189D01*
X96241209Y-120777628D01*
X96174016Y-120796780D01*
X96107135Y-120776564D01*
X96062618Y-120725189D01*
X96002534Y-120596340D01*
X96002533Y-120596338D01*
X95875827Y-120415381D01*
X95875823Y-120415377D01*
X95719620Y-120259174D01*
X95719616Y-120259171D01*
X95719615Y-120259170D01*
X95538666Y-120132468D01*
X95538662Y-120132466D01*
X95538660Y-120132465D01*
X95338450Y-120039106D01*
X95338447Y-120039105D01*
X95338445Y-120039104D01*
X95125070Y-119981930D01*
X95125062Y-119981929D01*
X94905002Y-119962677D01*
X94904998Y-119962677D01*
X94684937Y-119981929D01*
X94684929Y-119981930D01*
X94471554Y-120039104D01*
X94471548Y-120039107D01*
X94271340Y-120132465D01*
X94271338Y-120132466D01*
X94090377Y-120259175D01*
X93934175Y-120415377D01*
X93807466Y-120596338D01*
X93807465Y-120596340D01*
X93747382Y-120725189D01*
X93701209Y-120777628D01*
X93634016Y-120796780D01*
X93567135Y-120776564D01*
X93522618Y-120725189D01*
X93462534Y-120596340D01*
X93462533Y-120596338D01*
X93335827Y-120415381D01*
X93335823Y-120415377D01*
X93179620Y-120259174D01*
X93179616Y-120259171D01*
X93179615Y-120259170D01*
X92998666Y-120132468D01*
X92998662Y-120132466D01*
X92998660Y-120132465D01*
X92798450Y-120039106D01*
X92798447Y-120039105D01*
X92798445Y-120039104D01*
X92585070Y-119981930D01*
X92585062Y-119981929D01*
X92365002Y-119962677D01*
X92364998Y-119962677D01*
X92144937Y-119981929D01*
X92144929Y-119981930D01*
X91931554Y-120039104D01*
X91931548Y-120039107D01*
X91731340Y-120132465D01*
X91731338Y-120132466D01*
X91550377Y-120259175D01*
X91394175Y-120415377D01*
X91267466Y-120596338D01*
X91267465Y-120596340D01*
X91207382Y-120725189D01*
X91161209Y-120777628D01*
X91094016Y-120796780D01*
X91027135Y-120776564D01*
X90982618Y-120725189D01*
X90922534Y-120596340D01*
X90922533Y-120596338D01*
X90795827Y-120415381D01*
X90795823Y-120415377D01*
X90639620Y-120259174D01*
X90639616Y-120259171D01*
X90639615Y-120259170D01*
X90458666Y-120132468D01*
X90458662Y-120132466D01*
X90458660Y-120132465D01*
X90258450Y-120039106D01*
X90258447Y-120039105D01*
X90258445Y-120039104D01*
X90045070Y-119981930D01*
X90045062Y-119981929D01*
X89825002Y-119962677D01*
X89824998Y-119962677D01*
X89604937Y-119981929D01*
X89604929Y-119981930D01*
X89391554Y-120039104D01*
X89391548Y-120039107D01*
X89191340Y-120132465D01*
X89191338Y-120132466D01*
X89010377Y-120259175D01*
X88854175Y-120415377D01*
X88727466Y-120596338D01*
X88727465Y-120596340D01*
X88634107Y-120796548D01*
X88634104Y-120796554D01*
X88576930Y-121009929D01*
X88576929Y-121009937D01*
X88557677Y-121229997D01*
X88557677Y-121230002D01*
X74967500Y-121230002D01*
X74967500Y-108530002D01*
X88557677Y-108530002D01*
X88576929Y-108750062D01*
X88576930Y-108750070D01*
X88634104Y-108963445D01*
X88634105Y-108963447D01*
X88634106Y-108963450D01*
X88667382Y-109034811D01*
X88727466Y-109163662D01*
X88727468Y-109163666D01*
X88854170Y-109344615D01*
X88854175Y-109344621D01*
X89010378Y-109500824D01*
X89010384Y-109500829D01*
X89191333Y-109627531D01*
X89191335Y-109627532D01*
X89191338Y-109627534D01*
X89391550Y-109720894D01*
X89604932Y-109778070D01*
X89762123Y-109791822D01*
X89824998Y-109797323D01*
X89825000Y-109797323D01*
X89825002Y-109797323D01*
X89880017Y-109792509D01*
X90045068Y-109778070D01*
X90258450Y-109720894D01*
X90458662Y-109627534D01*
X90639620Y-109500826D01*
X90795826Y-109344620D01*
X90922534Y-109163662D01*
X90982618Y-109034811D01*
X91028790Y-108982371D01*
X91095983Y-108963219D01*
X91162865Y-108983435D01*
X91207382Y-109034811D01*
X91267464Y-109163658D01*
X91267468Y-109163666D01*
X91394170Y-109344615D01*
X91394175Y-109344621D01*
X91550378Y-109500824D01*
X91550384Y-109500829D01*
X91731333Y-109627531D01*
X91731335Y-109627532D01*
X91731338Y-109627534D01*
X91931550Y-109720894D01*
X92144932Y-109778070D01*
X92302123Y-109791822D01*
X92364998Y-109797323D01*
X92365000Y-109797323D01*
X92365002Y-109797323D01*
X92420017Y-109792509D01*
X92585068Y-109778070D01*
X92798450Y-109720894D01*
X92998662Y-109627534D01*
X93179620Y-109500826D01*
X93335826Y-109344620D01*
X93462534Y-109163662D01*
X93522618Y-109034811D01*
X93568790Y-108982371D01*
X93635983Y-108963219D01*
X93702865Y-108983435D01*
X93747382Y-109034811D01*
X93807464Y-109163658D01*
X93807468Y-109163666D01*
X93934170Y-109344615D01*
X93934175Y-109344621D01*
X94090378Y-109500824D01*
X94090384Y-109500829D01*
X94271333Y-109627531D01*
X94271335Y-109627532D01*
X94271338Y-109627534D01*
X94471550Y-109720894D01*
X94684932Y-109778070D01*
X94842123Y-109791822D01*
X94904998Y-109797323D01*
X94905000Y-109797323D01*
X94905002Y-109797323D01*
X94960017Y-109792509D01*
X95125068Y-109778070D01*
X95338450Y-109720894D01*
X95538662Y-109627534D01*
X95719620Y-109500826D01*
X95875826Y-109344620D01*
X96002534Y-109163662D01*
X96062618Y-109034811D01*
X96108790Y-108982371D01*
X96175983Y-108963219D01*
X96242865Y-108983435D01*
X96287382Y-109034811D01*
X96347464Y-109163658D01*
X96347468Y-109163666D01*
X96474170Y-109344615D01*
X96474175Y-109344621D01*
X96630378Y-109500824D01*
X96630384Y-109500829D01*
X96811333Y-109627531D01*
X96811335Y-109627532D01*
X96811338Y-109627534D01*
X97011550Y-109720894D01*
X97224932Y-109778070D01*
X97382123Y-109791822D01*
X97444998Y-109797323D01*
X97445000Y-109797323D01*
X97445002Y-109797323D01*
X97500017Y-109792509D01*
X97665068Y-109778070D01*
X97878450Y-109720894D01*
X98078662Y-109627534D01*
X98259620Y-109500826D01*
X98415826Y-109344620D01*
X98542534Y-109163662D01*
X98602618Y-109034811D01*
X98648790Y-108982371D01*
X98715983Y-108963219D01*
X98782865Y-108983435D01*
X98827382Y-109034811D01*
X98887464Y-109163658D01*
X98887468Y-109163666D01*
X99014170Y-109344615D01*
X99014175Y-109344621D01*
X99170378Y-109500824D01*
X99170384Y-109500829D01*
X99351333Y-109627531D01*
X99351335Y-109627532D01*
X99351338Y-109627534D01*
X99551550Y-109720894D01*
X99764932Y-109778070D01*
X99922123Y-109791822D01*
X99984998Y-109797323D01*
X99985000Y-109797323D01*
X99985002Y-109797323D01*
X100040017Y-109792509D01*
X100205068Y-109778070D01*
X100418450Y-109720894D01*
X100618662Y-109627534D01*
X100799620Y-109500826D01*
X100955826Y-109344620D01*
X101082534Y-109163662D01*
X101142618Y-109034811D01*
X101188790Y-108982371D01*
X101255983Y-108963219D01*
X101322865Y-108983435D01*
X101367382Y-109034811D01*
X101427464Y-109163658D01*
X101427468Y-109163666D01*
X101554170Y-109344615D01*
X101554175Y-109344621D01*
X101710378Y-109500824D01*
X101710384Y-109500829D01*
X101891333Y-109627531D01*
X101891335Y-109627532D01*
X101891338Y-109627534D01*
X102091550Y-109720894D01*
X102304932Y-109778070D01*
X102462123Y-109791822D01*
X102524998Y-109797323D01*
X102525000Y-109797323D01*
X102525002Y-109797323D01*
X102580017Y-109792509D01*
X102745068Y-109778070D01*
X102958450Y-109720894D01*
X103158662Y-109627534D01*
X103339620Y-109500826D01*
X103495826Y-109344620D01*
X103622534Y-109163662D01*
X103682618Y-109034811D01*
X103728790Y-108982371D01*
X103795983Y-108963219D01*
X103862865Y-108983435D01*
X103907382Y-109034811D01*
X103967464Y-109163658D01*
X103967468Y-109163666D01*
X104094170Y-109344615D01*
X104094175Y-109344621D01*
X104250378Y-109500824D01*
X104250384Y-109500829D01*
X104431333Y-109627531D01*
X104431335Y-109627532D01*
X104431338Y-109627534D01*
X104631550Y-109720894D01*
X104844932Y-109778070D01*
X105002123Y-109791822D01*
X105064998Y-109797323D01*
X105065000Y-109797323D01*
X105065002Y-109797323D01*
X105120017Y-109792509D01*
X105285068Y-109778070D01*
X105498450Y-109720894D01*
X105698662Y-109627534D01*
X105879620Y-109500826D01*
X106035826Y-109344620D01*
X106162534Y-109163662D01*
X106222618Y-109034811D01*
X106268790Y-108982371D01*
X106335983Y-108963219D01*
X106402865Y-108983435D01*
X106447382Y-109034811D01*
X106507464Y-109163658D01*
X106507468Y-109163666D01*
X106634170Y-109344615D01*
X106634175Y-109344621D01*
X106790378Y-109500824D01*
X106790384Y-109500829D01*
X106971333Y-109627531D01*
X106971335Y-109627532D01*
X106971338Y-109627534D01*
X107171550Y-109720894D01*
X107384932Y-109778070D01*
X107542123Y-109791822D01*
X107604998Y-109797323D01*
X107605000Y-109797323D01*
X107605002Y-109797323D01*
X107660017Y-109792509D01*
X107825068Y-109778070D01*
X108038450Y-109720894D01*
X108238662Y-109627534D01*
X108419620Y-109500826D01*
X108575826Y-109344620D01*
X108702534Y-109163662D01*
X108762618Y-109034811D01*
X108808790Y-108982371D01*
X108875983Y-108963219D01*
X108942865Y-108983435D01*
X108987382Y-109034811D01*
X109047464Y-109163658D01*
X109047468Y-109163666D01*
X109174170Y-109344615D01*
X109174175Y-109344621D01*
X109330378Y-109500824D01*
X109330384Y-109500829D01*
X109511333Y-109627531D01*
X109511335Y-109627532D01*
X109511338Y-109627534D01*
X109711550Y-109720894D01*
X109924932Y-109778070D01*
X110082123Y-109791822D01*
X110144998Y-109797323D01*
X110145000Y-109797323D01*
X110145002Y-109797323D01*
X110200017Y-109792509D01*
X110365068Y-109778070D01*
X110578450Y-109720894D01*
X110778662Y-109627534D01*
X110959620Y-109500826D01*
X111115826Y-109344620D01*
X111242534Y-109163662D01*
X111335894Y-108963450D01*
X111393070Y-108750068D01*
X111412323Y-108530002D01*
X126657677Y-108530002D01*
X126676929Y-108750062D01*
X126676930Y-108750070D01*
X126734104Y-108963445D01*
X126734105Y-108963447D01*
X126734106Y-108963450D01*
X126767382Y-109034811D01*
X126827466Y-109163662D01*
X126827468Y-109163666D01*
X126954170Y-109344615D01*
X126954175Y-109344621D01*
X127110378Y-109500824D01*
X127110384Y-109500829D01*
X127291333Y-109627531D01*
X127291335Y-109627532D01*
X127291338Y-109627534D01*
X127491550Y-109720894D01*
X127704932Y-109778070D01*
X127862123Y-109791822D01*
X127924998Y-109797323D01*
X127925000Y-109797323D01*
X127925002Y-109797323D01*
X127980017Y-109792509D01*
X128145068Y-109778070D01*
X128358450Y-109720894D01*
X128558662Y-109627534D01*
X128739620Y-109500826D01*
X128895826Y-109344620D01*
X129022534Y-109163662D01*
X129082618Y-109034811D01*
X129128790Y-108982371D01*
X129195983Y-108963219D01*
X129262865Y-108983435D01*
X129307382Y-109034811D01*
X129367464Y-109163658D01*
X129367468Y-109163666D01*
X129494170Y-109344615D01*
X129494175Y-109344621D01*
X129650378Y-109500824D01*
X129650384Y-109500829D01*
X129831333Y-109627531D01*
X129831335Y-109627532D01*
X129831338Y-109627534D01*
X130031550Y-109720894D01*
X130244932Y-109778070D01*
X130402123Y-109791822D01*
X130464998Y-109797323D01*
X130465000Y-109797323D01*
X130465002Y-109797323D01*
X130520017Y-109792509D01*
X130685068Y-109778070D01*
X130898450Y-109720894D01*
X131098662Y-109627534D01*
X131279620Y-109500826D01*
X131435826Y-109344620D01*
X131562534Y-109163662D01*
X131622618Y-109034811D01*
X131668790Y-108982371D01*
X131735983Y-108963219D01*
X131802865Y-108983435D01*
X131847382Y-109034811D01*
X131907464Y-109163658D01*
X131907468Y-109163666D01*
X132034170Y-109344615D01*
X132034175Y-109344621D01*
X132190378Y-109500824D01*
X132190384Y-109500829D01*
X132371333Y-109627531D01*
X132371335Y-109627532D01*
X132371338Y-109627534D01*
X132571550Y-109720894D01*
X132784932Y-109778070D01*
X132942123Y-109791822D01*
X133004998Y-109797323D01*
X133005000Y-109797323D01*
X133005002Y-109797323D01*
X133060017Y-109792509D01*
X133225068Y-109778070D01*
X133438450Y-109720894D01*
X133638662Y-109627534D01*
X133819620Y-109500826D01*
X133975826Y-109344620D01*
X134102534Y-109163662D01*
X134162618Y-109034811D01*
X134208790Y-108982371D01*
X134275983Y-108963219D01*
X134342865Y-108983435D01*
X134387382Y-109034811D01*
X134447464Y-109163658D01*
X134447468Y-109163666D01*
X134574170Y-109344615D01*
X134574175Y-109344621D01*
X134730378Y-109500824D01*
X134730384Y-109500829D01*
X134911333Y-109627531D01*
X134911335Y-109627532D01*
X134911338Y-109627534D01*
X135111550Y-109720894D01*
X135324932Y-109778070D01*
X135482123Y-109791822D01*
X135544998Y-109797323D01*
X135545000Y-109797323D01*
X135545002Y-109797323D01*
X135600017Y-109792509D01*
X135765068Y-109778070D01*
X135978450Y-109720894D01*
X136178662Y-109627534D01*
X136359620Y-109500826D01*
X136515826Y-109344620D01*
X136642534Y-109163662D01*
X136702618Y-109034811D01*
X136748790Y-108982371D01*
X136815983Y-108963219D01*
X136882865Y-108983435D01*
X136927382Y-109034811D01*
X136987464Y-109163658D01*
X136987468Y-109163666D01*
X137114170Y-109344615D01*
X137114175Y-109344621D01*
X137270378Y-109500824D01*
X137270384Y-109500829D01*
X137451333Y-109627531D01*
X137451335Y-109627532D01*
X137451338Y-109627534D01*
X137651550Y-109720894D01*
X137864932Y-109778070D01*
X138022123Y-109791822D01*
X138084998Y-109797323D01*
X138085000Y-109797323D01*
X138085002Y-109797323D01*
X138140017Y-109792509D01*
X138305068Y-109778070D01*
X138518450Y-109720894D01*
X138718662Y-109627534D01*
X138899620Y-109500826D01*
X139055826Y-109344620D01*
X139182534Y-109163662D01*
X139242618Y-109034811D01*
X139288790Y-108982371D01*
X139355983Y-108963219D01*
X139422865Y-108983435D01*
X139467382Y-109034811D01*
X139527464Y-109163658D01*
X139527468Y-109163666D01*
X139654170Y-109344615D01*
X139654175Y-109344621D01*
X139810378Y-109500824D01*
X139810384Y-109500829D01*
X139991333Y-109627531D01*
X139991335Y-109627532D01*
X139991338Y-109627534D01*
X140191550Y-109720894D01*
X140404932Y-109778070D01*
X140562123Y-109791822D01*
X140624998Y-109797323D01*
X140625000Y-109797323D01*
X140625002Y-109797323D01*
X140680017Y-109792509D01*
X140845068Y-109778070D01*
X141058450Y-109720894D01*
X141258662Y-109627534D01*
X141439620Y-109500826D01*
X141595826Y-109344620D01*
X141722534Y-109163662D01*
X141782618Y-109034811D01*
X141828790Y-108982371D01*
X141895983Y-108963219D01*
X141962865Y-108983435D01*
X142007382Y-109034811D01*
X142067464Y-109163658D01*
X142067468Y-109163666D01*
X142194170Y-109344615D01*
X142194175Y-109344621D01*
X142350378Y-109500824D01*
X142350384Y-109500829D01*
X142531333Y-109627531D01*
X142531335Y-109627532D01*
X142531338Y-109627534D01*
X142731550Y-109720894D01*
X142944932Y-109778070D01*
X143102123Y-109791822D01*
X143164998Y-109797323D01*
X143165000Y-109797323D01*
X143165002Y-109797323D01*
X143220017Y-109792509D01*
X143385068Y-109778070D01*
X143598450Y-109720894D01*
X143798662Y-109627534D01*
X143979620Y-109500826D01*
X144135826Y-109344620D01*
X144262534Y-109163662D01*
X144322618Y-109034811D01*
X144368790Y-108982371D01*
X144435983Y-108963219D01*
X144502865Y-108983435D01*
X144547382Y-109034811D01*
X144607464Y-109163658D01*
X144607468Y-109163666D01*
X144734170Y-109344615D01*
X144734175Y-109344621D01*
X144890378Y-109500824D01*
X144890384Y-109500829D01*
X145071333Y-109627531D01*
X145071335Y-109627532D01*
X145071338Y-109627534D01*
X145271550Y-109720894D01*
X145484932Y-109778070D01*
X145642123Y-109791822D01*
X145704998Y-109797323D01*
X145705000Y-109797323D01*
X145705002Y-109797323D01*
X145760017Y-109792509D01*
X145925068Y-109778070D01*
X146138450Y-109720894D01*
X146338662Y-109627534D01*
X146519620Y-109500826D01*
X146675826Y-109344620D01*
X146802534Y-109163662D01*
X146862618Y-109034811D01*
X146908790Y-108982371D01*
X146975983Y-108963219D01*
X147042865Y-108983435D01*
X147087382Y-109034811D01*
X147147464Y-109163658D01*
X147147468Y-109163666D01*
X147274170Y-109344615D01*
X147274175Y-109344621D01*
X147430378Y-109500824D01*
X147430384Y-109500829D01*
X147611333Y-109627531D01*
X147611335Y-109627532D01*
X147611338Y-109627534D01*
X147811550Y-109720894D01*
X148024932Y-109778070D01*
X148182123Y-109791822D01*
X148244998Y-109797323D01*
X148245000Y-109797323D01*
X148245002Y-109797323D01*
X148300017Y-109792509D01*
X148465068Y-109778070D01*
X148678450Y-109720894D01*
X148878662Y-109627534D01*
X149059620Y-109500826D01*
X149215826Y-109344620D01*
X149342534Y-109163662D01*
X149435894Y-108963450D01*
X149493070Y-108750068D01*
X149512323Y-108530000D01*
X149493070Y-108309932D01*
X149435894Y-108096550D01*
X149342534Y-107896339D01*
X149215826Y-107715380D01*
X149059620Y-107559174D01*
X149059616Y-107559171D01*
X149059615Y-107559170D01*
X148878666Y-107432468D01*
X148878662Y-107432466D01*
X148878660Y-107432465D01*
X148678450Y-107339106D01*
X148678447Y-107339105D01*
X148678445Y-107339104D01*
X148465070Y-107281930D01*
X148465062Y-107281929D01*
X148245002Y-107262677D01*
X148244998Y-107262677D01*
X148024937Y-107281929D01*
X148024929Y-107281930D01*
X147811554Y-107339104D01*
X147811548Y-107339107D01*
X147611340Y-107432465D01*
X147611338Y-107432466D01*
X147430377Y-107559175D01*
X147274175Y-107715377D01*
X147147466Y-107896338D01*
X147147465Y-107896340D01*
X147087382Y-108025189D01*
X147041209Y-108077628D01*
X146974016Y-108096780D01*
X146907135Y-108076564D01*
X146862618Y-108025189D01*
X146802534Y-107896340D01*
X146802533Y-107896338D01*
X146675827Y-107715381D01*
X146675823Y-107715377D01*
X146519620Y-107559174D01*
X146519616Y-107559171D01*
X146519615Y-107559170D01*
X146338666Y-107432468D01*
X146338662Y-107432466D01*
X146338660Y-107432465D01*
X146138450Y-107339106D01*
X146138447Y-107339105D01*
X146138445Y-107339104D01*
X145925070Y-107281930D01*
X145925062Y-107281929D01*
X145705002Y-107262677D01*
X145704998Y-107262677D01*
X145484937Y-107281929D01*
X145484929Y-107281930D01*
X145271554Y-107339104D01*
X145271548Y-107339107D01*
X145071340Y-107432465D01*
X145071338Y-107432466D01*
X144890377Y-107559175D01*
X144734175Y-107715377D01*
X144607466Y-107896338D01*
X144607465Y-107896340D01*
X144547382Y-108025189D01*
X144501209Y-108077628D01*
X144434016Y-108096780D01*
X144367135Y-108076564D01*
X144322618Y-108025189D01*
X144262534Y-107896340D01*
X144262533Y-107896338D01*
X144135827Y-107715381D01*
X144135823Y-107715377D01*
X143979620Y-107559174D01*
X143979616Y-107559171D01*
X143979615Y-107559170D01*
X143798666Y-107432468D01*
X143798662Y-107432466D01*
X143798660Y-107432465D01*
X143598450Y-107339106D01*
X143598447Y-107339105D01*
X143598445Y-107339104D01*
X143385070Y-107281930D01*
X143385062Y-107281929D01*
X143165002Y-107262677D01*
X143164998Y-107262677D01*
X142944937Y-107281929D01*
X142944929Y-107281930D01*
X142731554Y-107339104D01*
X142731548Y-107339107D01*
X142531340Y-107432465D01*
X142531338Y-107432466D01*
X142350377Y-107559175D01*
X142194175Y-107715377D01*
X142067466Y-107896338D01*
X142067465Y-107896340D01*
X142007382Y-108025189D01*
X141961209Y-108077628D01*
X141894016Y-108096780D01*
X141827135Y-108076564D01*
X141782618Y-108025189D01*
X141722534Y-107896340D01*
X141722533Y-107896338D01*
X141595827Y-107715381D01*
X141595823Y-107715377D01*
X141439620Y-107559174D01*
X141439616Y-107559171D01*
X141439615Y-107559170D01*
X141258666Y-107432468D01*
X141258662Y-107432466D01*
X141258660Y-107432465D01*
X141058450Y-107339106D01*
X141058447Y-107339105D01*
X141058445Y-107339104D01*
X140845070Y-107281930D01*
X140845062Y-107281929D01*
X140625002Y-107262677D01*
X140624998Y-107262677D01*
X140404937Y-107281929D01*
X140404929Y-107281930D01*
X140191554Y-107339104D01*
X140191548Y-107339107D01*
X139991340Y-107432465D01*
X139991338Y-107432466D01*
X139810377Y-107559175D01*
X139654175Y-107715377D01*
X139527466Y-107896338D01*
X139527465Y-107896340D01*
X139467382Y-108025189D01*
X139421209Y-108077628D01*
X139354016Y-108096780D01*
X139287135Y-108076564D01*
X139242618Y-108025189D01*
X139182534Y-107896340D01*
X139182533Y-107896338D01*
X139055827Y-107715381D01*
X139055823Y-107715377D01*
X138899620Y-107559174D01*
X138899616Y-107559171D01*
X138899615Y-107559170D01*
X138718666Y-107432468D01*
X138718662Y-107432466D01*
X138718660Y-107432465D01*
X138518450Y-107339106D01*
X138518447Y-107339105D01*
X138518445Y-107339104D01*
X138305070Y-107281930D01*
X138305062Y-107281929D01*
X138085002Y-107262677D01*
X138084998Y-107262677D01*
X137864937Y-107281929D01*
X137864929Y-107281930D01*
X137651554Y-107339104D01*
X137651548Y-107339107D01*
X137451340Y-107432465D01*
X137451338Y-107432466D01*
X137270377Y-107559175D01*
X137114175Y-107715377D01*
X136987466Y-107896338D01*
X136987465Y-107896340D01*
X136927382Y-108025189D01*
X136881209Y-108077628D01*
X136814016Y-108096780D01*
X136747135Y-108076564D01*
X136702618Y-108025189D01*
X136642534Y-107896340D01*
X136642533Y-107896338D01*
X136515827Y-107715381D01*
X136515823Y-107715377D01*
X136359620Y-107559174D01*
X136359616Y-107559171D01*
X136359615Y-107559170D01*
X136178666Y-107432468D01*
X136178662Y-107432466D01*
X136178660Y-107432465D01*
X135978450Y-107339106D01*
X135978447Y-107339105D01*
X135978445Y-107339104D01*
X135765070Y-107281930D01*
X135765062Y-107281929D01*
X135545002Y-107262677D01*
X135544998Y-107262677D01*
X135324937Y-107281929D01*
X135324929Y-107281930D01*
X135111554Y-107339104D01*
X135111548Y-107339107D01*
X134911340Y-107432465D01*
X134911338Y-107432466D01*
X134730377Y-107559175D01*
X134574175Y-107715377D01*
X134447466Y-107896338D01*
X134447465Y-107896340D01*
X134387382Y-108025189D01*
X134341209Y-108077628D01*
X134274016Y-108096780D01*
X134207135Y-108076564D01*
X134162618Y-108025189D01*
X134102534Y-107896340D01*
X134102533Y-107896338D01*
X133975827Y-107715381D01*
X133975823Y-107715377D01*
X133819620Y-107559174D01*
X133819616Y-107559171D01*
X133819615Y-107559170D01*
X133638666Y-107432468D01*
X133638662Y-107432466D01*
X133638660Y-107432465D01*
X133438450Y-107339106D01*
X133438447Y-107339105D01*
X133438445Y-107339104D01*
X133225070Y-107281930D01*
X133225062Y-107281929D01*
X133005002Y-107262677D01*
X133004998Y-107262677D01*
X132784937Y-107281929D01*
X132784929Y-107281930D01*
X132571554Y-107339104D01*
X132571548Y-107339107D01*
X132371340Y-107432465D01*
X132371338Y-107432466D01*
X132190377Y-107559175D01*
X132034175Y-107715377D01*
X131907466Y-107896338D01*
X131907465Y-107896340D01*
X131847382Y-108025189D01*
X131801209Y-108077628D01*
X131734016Y-108096780D01*
X131667135Y-108076564D01*
X131622618Y-108025189D01*
X131562534Y-107896340D01*
X131562533Y-107896338D01*
X131435827Y-107715381D01*
X131435823Y-107715377D01*
X131279620Y-107559174D01*
X131279616Y-107559171D01*
X131279615Y-107559170D01*
X131098666Y-107432468D01*
X131098662Y-107432466D01*
X131098660Y-107432465D01*
X130898450Y-107339106D01*
X130898447Y-107339105D01*
X130898445Y-107339104D01*
X130685070Y-107281930D01*
X130685062Y-107281929D01*
X130465002Y-107262677D01*
X130464998Y-107262677D01*
X130244937Y-107281929D01*
X130244929Y-107281930D01*
X130031554Y-107339104D01*
X130031548Y-107339107D01*
X129831340Y-107432465D01*
X129831338Y-107432466D01*
X129650377Y-107559175D01*
X129494175Y-107715377D01*
X129367466Y-107896338D01*
X129367465Y-107896340D01*
X129307382Y-108025189D01*
X129261209Y-108077628D01*
X129194016Y-108096780D01*
X129127135Y-108076564D01*
X129082618Y-108025189D01*
X129022534Y-107896340D01*
X129022533Y-107896338D01*
X128895827Y-107715381D01*
X128895823Y-107715377D01*
X128739620Y-107559174D01*
X128739616Y-107559171D01*
X128739615Y-107559170D01*
X128558666Y-107432468D01*
X128558662Y-107432466D01*
X128558660Y-107432465D01*
X128358450Y-107339106D01*
X128358447Y-107339105D01*
X128358445Y-107339104D01*
X128145070Y-107281930D01*
X128145062Y-107281929D01*
X127925002Y-107262677D01*
X127924998Y-107262677D01*
X127704937Y-107281929D01*
X127704929Y-107281930D01*
X127491554Y-107339104D01*
X127491548Y-107339107D01*
X127291340Y-107432465D01*
X127291338Y-107432466D01*
X127110377Y-107559175D01*
X126954175Y-107715377D01*
X126827466Y-107896338D01*
X126827465Y-107896340D01*
X126734107Y-108096548D01*
X126734104Y-108096554D01*
X126676930Y-108309929D01*
X126676929Y-108309937D01*
X126657677Y-108529997D01*
X126657677Y-108530002D01*
X111412323Y-108530002D01*
X111412323Y-108530000D01*
X111393070Y-108309932D01*
X111335894Y-108096550D01*
X111242534Y-107896339D01*
X111115826Y-107715380D01*
X110959620Y-107559174D01*
X110959616Y-107559171D01*
X110959615Y-107559170D01*
X110778666Y-107432468D01*
X110778662Y-107432466D01*
X110778660Y-107432465D01*
X110578450Y-107339106D01*
X110578447Y-107339105D01*
X110578445Y-107339104D01*
X110365070Y-107281930D01*
X110365062Y-107281929D01*
X110145002Y-107262677D01*
X110144998Y-107262677D01*
X109924937Y-107281929D01*
X109924929Y-107281930D01*
X109711554Y-107339104D01*
X109711548Y-107339107D01*
X109511340Y-107432465D01*
X109511338Y-107432466D01*
X109330377Y-107559175D01*
X109174175Y-107715377D01*
X109047466Y-107896338D01*
X109047465Y-107896340D01*
X108987382Y-108025189D01*
X108941209Y-108077628D01*
X108874016Y-108096780D01*
X108807135Y-108076564D01*
X108762618Y-108025189D01*
X108702534Y-107896340D01*
X108702533Y-107896338D01*
X108575827Y-107715381D01*
X108575823Y-107715377D01*
X108419620Y-107559174D01*
X108419616Y-107559171D01*
X108419615Y-107559170D01*
X108238666Y-107432468D01*
X108238662Y-107432466D01*
X108238660Y-107432465D01*
X108038450Y-107339106D01*
X108038447Y-107339105D01*
X108038445Y-107339104D01*
X107825070Y-107281930D01*
X107825062Y-107281929D01*
X107605002Y-107262677D01*
X107604998Y-107262677D01*
X107384937Y-107281929D01*
X107384929Y-107281930D01*
X107171554Y-107339104D01*
X107171548Y-107339107D01*
X106971340Y-107432465D01*
X106971338Y-107432466D01*
X106790377Y-107559175D01*
X106634175Y-107715377D01*
X106507466Y-107896338D01*
X106507465Y-107896340D01*
X106447382Y-108025189D01*
X106401209Y-108077628D01*
X106334016Y-108096780D01*
X106267135Y-108076564D01*
X106222618Y-108025189D01*
X106162534Y-107896340D01*
X106162533Y-107896338D01*
X106035827Y-107715381D01*
X106035823Y-107715377D01*
X105879620Y-107559174D01*
X105879616Y-107559171D01*
X105879615Y-107559170D01*
X105698666Y-107432468D01*
X105698662Y-107432466D01*
X105698660Y-107432465D01*
X105498450Y-107339106D01*
X105498447Y-107339105D01*
X105498445Y-107339104D01*
X105285070Y-107281930D01*
X105285062Y-107281929D01*
X105065002Y-107262677D01*
X105064998Y-107262677D01*
X104844937Y-107281929D01*
X104844929Y-107281930D01*
X104631554Y-107339104D01*
X104631548Y-107339107D01*
X104431340Y-107432465D01*
X104431338Y-107432466D01*
X104250377Y-107559175D01*
X104094175Y-107715377D01*
X103967466Y-107896338D01*
X103967465Y-107896340D01*
X103907382Y-108025189D01*
X103861209Y-108077628D01*
X103794016Y-108096780D01*
X103727135Y-108076564D01*
X103682618Y-108025189D01*
X103622534Y-107896340D01*
X103622533Y-107896338D01*
X103495827Y-107715381D01*
X103495823Y-107715377D01*
X103339620Y-107559174D01*
X103339616Y-107559171D01*
X103339615Y-107559170D01*
X103158666Y-107432468D01*
X103158662Y-107432466D01*
X103158660Y-107432465D01*
X102958450Y-107339106D01*
X102958447Y-107339105D01*
X102958445Y-107339104D01*
X102745070Y-107281930D01*
X102745062Y-107281929D01*
X102525002Y-107262677D01*
X102524998Y-107262677D01*
X102304937Y-107281929D01*
X102304929Y-107281930D01*
X102091554Y-107339104D01*
X102091548Y-107339107D01*
X101891340Y-107432465D01*
X101891338Y-107432466D01*
X101710377Y-107559175D01*
X101554175Y-107715377D01*
X101427466Y-107896338D01*
X101427465Y-107896340D01*
X101367382Y-108025189D01*
X101321209Y-108077628D01*
X101254016Y-108096780D01*
X101187135Y-108076564D01*
X101142618Y-108025189D01*
X101082534Y-107896340D01*
X101082533Y-107896338D01*
X100955827Y-107715381D01*
X100955823Y-107715377D01*
X100799620Y-107559174D01*
X100799616Y-107559171D01*
X100799615Y-107559170D01*
X100618666Y-107432468D01*
X100618662Y-107432466D01*
X100618660Y-107432465D01*
X100418450Y-107339106D01*
X100418447Y-107339105D01*
X100418445Y-107339104D01*
X100205070Y-107281930D01*
X100205062Y-107281929D01*
X99985002Y-107262677D01*
X99984998Y-107262677D01*
X99764937Y-107281929D01*
X99764929Y-107281930D01*
X99551554Y-107339104D01*
X99551548Y-107339107D01*
X99351340Y-107432465D01*
X99351338Y-107432466D01*
X99170377Y-107559175D01*
X99014175Y-107715377D01*
X98887466Y-107896338D01*
X98887465Y-107896340D01*
X98827382Y-108025189D01*
X98781209Y-108077628D01*
X98714016Y-108096780D01*
X98647135Y-108076564D01*
X98602618Y-108025189D01*
X98542534Y-107896340D01*
X98542533Y-107896338D01*
X98415827Y-107715381D01*
X98415823Y-107715377D01*
X98259620Y-107559174D01*
X98259616Y-107559171D01*
X98259615Y-107559170D01*
X98078666Y-107432468D01*
X98078662Y-107432466D01*
X98078660Y-107432465D01*
X97878450Y-107339106D01*
X97878447Y-107339105D01*
X97878445Y-107339104D01*
X97665070Y-107281930D01*
X97665062Y-107281929D01*
X97445002Y-107262677D01*
X97444998Y-107262677D01*
X97224937Y-107281929D01*
X97224929Y-107281930D01*
X97011554Y-107339104D01*
X97011548Y-107339107D01*
X96811340Y-107432465D01*
X96811338Y-107432466D01*
X96630377Y-107559175D01*
X96474175Y-107715377D01*
X96347466Y-107896338D01*
X96347465Y-107896340D01*
X96287382Y-108025189D01*
X96241209Y-108077628D01*
X96174016Y-108096780D01*
X96107135Y-108076564D01*
X96062618Y-108025189D01*
X96002534Y-107896340D01*
X96002533Y-107896338D01*
X95875827Y-107715381D01*
X95875823Y-107715377D01*
X95719620Y-107559174D01*
X95719616Y-107559171D01*
X95719615Y-107559170D01*
X95538666Y-107432468D01*
X95538662Y-107432466D01*
X95538660Y-107432465D01*
X95338450Y-107339106D01*
X95338447Y-107339105D01*
X95338445Y-107339104D01*
X95125070Y-107281930D01*
X95125062Y-107281929D01*
X94905002Y-107262677D01*
X94904998Y-107262677D01*
X94684937Y-107281929D01*
X94684929Y-107281930D01*
X94471554Y-107339104D01*
X94471548Y-107339107D01*
X94271340Y-107432465D01*
X94271338Y-107432466D01*
X94090377Y-107559175D01*
X93934175Y-107715377D01*
X93807466Y-107896338D01*
X93807465Y-107896340D01*
X93747382Y-108025189D01*
X93701209Y-108077628D01*
X93634016Y-108096780D01*
X93567135Y-108076564D01*
X93522618Y-108025189D01*
X93462534Y-107896340D01*
X93462533Y-107896338D01*
X93335827Y-107715381D01*
X93335823Y-107715377D01*
X93179620Y-107559174D01*
X93179616Y-107559171D01*
X93179615Y-107559170D01*
X92998666Y-107432468D01*
X92998662Y-107432466D01*
X92998660Y-107432465D01*
X92798450Y-107339106D01*
X92798447Y-107339105D01*
X92798445Y-107339104D01*
X92585070Y-107281930D01*
X92585062Y-107281929D01*
X92365002Y-107262677D01*
X92364998Y-107262677D01*
X92144937Y-107281929D01*
X92144929Y-107281930D01*
X91931554Y-107339104D01*
X91931548Y-107339107D01*
X91731340Y-107432465D01*
X91731338Y-107432466D01*
X91550377Y-107559175D01*
X91394175Y-107715377D01*
X91267466Y-107896338D01*
X91267465Y-107896340D01*
X91207382Y-108025189D01*
X91161209Y-108077628D01*
X91094016Y-108096780D01*
X91027135Y-108076564D01*
X90982618Y-108025189D01*
X90922534Y-107896340D01*
X90922533Y-107896338D01*
X90795827Y-107715381D01*
X90795823Y-107715377D01*
X90639620Y-107559174D01*
X90639616Y-107559171D01*
X90639615Y-107559170D01*
X90458666Y-107432468D01*
X90458662Y-107432466D01*
X90458660Y-107432465D01*
X90258450Y-107339106D01*
X90258447Y-107339105D01*
X90258445Y-107339104D01*
X90045070Y-107281930D01*
X90045062Y-107281929D01*
X89825002Y-107262677D01*
X89824998Y-107262677D01*
X89604937Y-107281929D01*
X89604929Y-107281930D01*
X89391554Y-107339104D01*
X89391548Y-107339107D01*
X89191340Y-107432465D01*
X89191338Y-107432466D01*
X89010377Y-107559175D01*
X88854175Y-107715377D01*
X88727466Y-107896338D01*
X88727465Y-107896340D01*
X88634107Y-108096548D01*
X88634104Y-108096554D01*
X88576930Y-108309929D01*
X88576929Y-108309937D01*
X88557677Y-108529997D01*
X88557677Y-108530002D01*
X74967500Y-108530002D01*
X74967500Y-105410003D01*
X95206435Y-105410003D01*
X95226630Y-105589249D01*
X95226631Y-105589254D01*
X95286211Y-105759523D01*
X95382184Y-105912262D01*
X95509738Y-106039816D01*
X95662478Y-106135789D01*
X95832745Y-106195368D01*
X95832750Y-106195369D01*
X96011996Y-106215565D01*
X96012000Y-106215565D01*
X96012004Y-106215565D01*
X96191249Y-106195369D01*
X96191252Y-106195368D01*
X96191255Y-106195368D01*
X96361522Y-106135789D01*
X96514262Y-106039816D01*
X96641816Y-105912262D01*
X96737789Y-105759522D01*
X96797368Y-105589255D01*
X96817565Y-105410003D01*
X99016435Y-105410003D01*
X99036630Y-105589249D01*
X99036631Y-105589254D01*
X99096211Y-105759523D01*
X99192184Y-105912262D01*
X99319738Y-106039816D01*
X99472478Y-106135789D01*
X99642745Y-106195368D01*
X99642750Y-106195369D01*
X99821996Y-106215565D01*
X99822000Y-106215565D01*
X99822004Y-106215565D01*
X100001249Y-106195369D01*
X100001252Y-106195368D01*
X100001255Y-106195368D01*
X100171522Y-106135789D01*
X100324262Y-106039816D01*
X100451816Y-105912262D01*
X100547789Y-105759522D01*
X100607368Y-105589255D01*
X100627565Y-105410000D01*
X100607368Y-105230745D01*
X100547789Y-105060478D01*
X100451816Y-104907738D01*
X100324262Y-104780184D01*
X100171523Y-104684211D01*
X100001254Y-104624631D01*
X100001249Y-104624630D01*
X99822004Y-104604435D01*
X99821996Y-104604435D01*
X99642750Y-104624630D01*
X99642745Y-104624631D01*
X99472476Y-104684211D01*
X99319737Y-104780184D01*
X99192184Y-104907737D01*
X99096211Y-105060476D01*
X99036631Y-105230745D01*
X99036630Y-105230750D01*
X99016435Y-105409996D01*
X99016435Y-105410003D01*
X96817565Y-105410003D01*
X96817565Y-105410000D01*
X96797368Y-105230745D01*
X96737789Y-105060478D01*
X96641816Y-104907738D01*
X96514262Y-104780184D01*
X96361523Y-104684211D01*
X96191254Y-104624631D01*
X96191249Y-104624630D01*
X96012004Y-104604435D01*
X96011996Y-104604435D01*
X95832750Y-104624630D01*
X95832745Y-104624631D01*
X95662476Y-104684211D01*
X95509737Y-104780184D01*
X95382184Y-104907737D01*
X95286211Y-105060476D01*
X95226631Y-105230745D01*
X95226630Y-105230750D01*
X95206435Y-105409996D01*
X95206435Y-105410003D01*
X74967500Y-105410003D01*
X74967500Y-104140003D01*
X91904435Y-104140003D01*
X91924630Y-104319249D01*
X91924631Y-104319254D01*
X91984211Y-104489523D01*
X92056416Y-104604435D01*
X92080184Y-104642262D01*
X92207738Y-104769816D01*
X92360478Y-104865789D01*
X92530745Y-104925368D01*
X92530750Y-104925369D01*
X92709996Y-104945565D01*
X92710000Y-104945565D01*
X92710004Y-104945565D01*
X92889249Y-104925369D01*
X92889252Y-104925368D01*
X92889255Y-104925368D01*
X93059522Y-104865789D01*
X93212262Y-104769816D01*
X93339816Y-104642262D01*
X93435789Y-104489522D01*
X93495368Y-104319255D01*
X93515565Y-104140000D01*
X93495368Y-103960745D01*
X93435789Y-103790478D01*
X93339816Y-103637738D01*
X93212262Y-103510184D01*
X93059523Y-103414211D01*
X92889254Y-103354631D01*
X92889249Y-103354630D01*
X92710004Y-103334435D01*
X92709996Y-103334435D01*
X92530750Y-103354630D01*
X92530745Y-103354631D01*
X92360476Y-103414211D01*
X92207737Y-103510184D01*
X92080184Y-103637737D01*
X91984211Y-103790476D01*
X91924631Y-103960745D01*
X91924630Y-103960750D01*
X91904435Y-104139996D01*
X91904435Y-104140003D01*
X74967500Y-104140003D01*
X74967500Y-102870003D01*
X119590435Y-102870003D01*
X119610630Y-103049249D01*
X119610631Y-103049254D01*
X119670211Y-103219523D01*
X119742416Y-103334435D01*
X119766184Y-103372262D01*
X119893738Y-103499816D01*
X120046478Y-103595789D01*
X120216745Y-103655368D01*
X120216750Y-103655369D01*
X120395996Y-103675565D01*
X120396000Y-103675565D01*
X120396004Y-103675565D01*
X120575249Y-103655369D01*
X120575252Y-103655368D01*
X120575255Y-103655368D01*
X120745522Y-103595789D01*
X120898262Y-103499816D01*
X121025816Y-103372262D01*
X121121789Y-103219522D01*
X121181368Y-103049255D01*
X121201565Y-102870000D01*
X121181368Y-102690745D01*
X121121789Y-102520478D01*
X121025816Y-102367738D01*
X120898262Y-102240184D01*
X120745523Y-102144211D01*
X120575254Y-102084631D01*
X120575249Y-102084630D01*
X120396004Y-102064435D01*
X120395996Y-102064435D01*
X120216750Y-102084630D01*
X120216745Y-102084631D01*
X120046476Y-102144211D01*
X119893737Y-102240184D01*
X119766184Y-102367737D01*
X119670211Y-102520476D01*
X119610631Y-102690745D01*
X119610630Y-102690750D01*
X119590435Y-102869996D01*
X119590435Y-102870003D01*
X74967500Y-102870003D01*
X74967500Y-96262000D01*
X89832000Y-96262000D01*
X89832000Y-96659844D01*
X89838401Y-96719372D01*
X89838403Y-96719379D01*
X89888645Y-96854086D01*
X89888649Y-96854093D01*
X89974809Y-96969187D01*
X89974812Y-96969190D01*
X90089906Y-97055350D01*
X90089913Y-97055354D01*
X90224620Y-97105596D01*
X90224627Y-97105598D01*
X90284155Y-97111999D01*
X90284172Y-97112000D01*
X90682000Y-97112000D01*
X90682000Y-96262000D01*
X89832000Y-96262000D01*
X74967500Y-96262000D01*
X74967500Y-96051496D01*
X90632000Y-96051496D01*
X90652444Y-96127796D01*
X90691940Y-96196205D01*
X90747795Y-96252060D01*
X90816204Y-96291556D01*
X90892504Y-96312000D01*
X90971496Y-96312000D01*
X91047796Y-96291556D01*
X91116205Y-96252060D01*
X91172060Y-96196205D01*
X91182000Y-96178988D01*
X91182000Y-97112000D01*
X91579828Y-97112000D01*
X91579844Y-97111999D01*
X91639372Y-97105598D01*
X91639379Y-97105596D01*
X91774086Y-97055354D01*
X91774093Y-97055350D01*
X91889187Y-96969190D01*
X91889190Y-96969187D01*
X91975350Y-96854093D01*
X91979604Y-96846304D01*
X91981788Y-96847496D01*
X92015730Y-96802148D01*
X92081192Y-96777726D01*
X92149466Y-96792572D01*
X92173586Y-96809772D01*
X92265958Y-96893980D01*
X92265960Y-96893982D01*
X92365141Y-96955392D01*
X92439363Y-97001348D01*
X92629544Y-97075024D01*
X92830024Y-97112500D01*
X92830026Y-97112500D01*
X93033974Y-97112500D01*
X93033976Y-97112500D01*
X93234456Y-97075024D01*
X93424637Y-97001348D01*
X93598041Y-96893981D01*
X93748764Y-96756579D01*
X93871673Y-96593821D01*
X93908430Y-96520003D01*
X118066435Y-96520003D01*
X118086630Y-96699249D01*
X118086631Y-96699254D01*
X118146211Y-96869523D01*
X118229040Y-97001344D01*
X118242184Y-97022262D01*
X118369738Y-97149816D01*
X118522478Y-97245789D01*
X118692745Y-97305368D01*
X118692750Y-97305369D01*
X118871996Y-97325565D01*
X118872000Y-97325565D01*
X118872004Y-97325565D01*
X119051249Y-97305369D01*
X119051252Y-97305368D01*
X119051255Y-97305368D01*
X119221522Y-97245789D01*
X119374262Y-97149816D01*
X119501816Y-97022262D01*
X119597789Y-96869522D01*
X119657368Y-96699255D01*
X119661809Y-96659844D01*
X119677565Y-96520003D01*
X119677565Y-96519996D01*
X119657369Y-96340750D01*
X119657368Y-96340745D01*
X119613397Y-96215083D01*
X119597789Y-96170478D01*
X119501816Y-96017738D01*
X119374262Y-95890184D01*
X119274971Y-95827795D01*
X119221523Y-95794211D01*
X119051254Y-95734631D01*
X119051249Y-95734630D01*
X118872004Y-95714435D01*
X118871996Y-95714435D01*
X118692750Y-95734630D01*
X118692745Y-95734631D01*
X118522476Y-95794211D01*
X118369737Y-95890184D01*
X118242184Y-96017737D01*
X118146211Y-96170476D01*
X118086631Y-96340745D01*
X118086630Y-96340750D01*
X118066435Y-96519996D01*
X118066435Y-96520003D01*
X93908430Y-96520003D01*
X93962582Y-96411250D01*
X94018397Y-96215083D01*
X94037215Y-96012000D01*
X94018397Y-95808917D01*
X93962582Y-95612750D01*
X93871673Y-95430179D01*
X93748764Y-95267421D01*
X93748762Y-95267418D01*
X93598041Y-95130019D01*
X93598039Y-95130017D01*
X93424642Y-95022655D01*
X93424635Y-95022651D01*
X93285228Y-94968645D01*
X93234456Y-94948976D01*
X93033976Y-94911500D01*
X92830024Y-94911500D01*
X92629544Y-94948976D01*
X92629541Y-94948976D01*
X92629541Y-94948977D01*
X92439364Y-95022651D01*
X92439357Y-95022655D01*
X92265960Y-95130017D01*
X92265957Y-95130019D01*
X92173586Y-95214227D01*
X92110782Y-95244844D01*
X92041395Y-95236646D01*
X91987455Y-95192236D01*
X91979870Y-95177550D01*
X91979604Y-95177696D01*
X91975350Y-95169906D01*
X91889190Y-95054812D01*
X91889187Y-95054809D01*
X91774093Y-94968649D01*
X91774086Y-94968645D01*
X91639379Y-94918403D01*
X91639372Y-94918401D01*
X91579844Y-94912000D01*
X91182000Y-94912000D01*
X91182000Y-95845011D01*
X91172060Y-95827795D01*
X91116205Y-95771940D01*
X91047796Y-95732444D01*
X90971496Y-95712000D01*
X90892504Y-95712000D01*
X90816204Y-95732444D01*
X90747795Y-95771940D01*
X90691940Y-95827795D01*
X90652444Y-95896204D01*
X90632000Y-95972504D01*
X90632000Y-96051496D01*
X74967500Y-96051496D01*
X74967500Y-95762000D01*
X89832000Y-95762000D01*
X90682000Y-95762000D01*
X90682000Y-94912000D01*
X90284155Y-94912000D01*
X90224627Y-94918401D01*
X90224620Y-94918403D01*
X90089913Y-94968645D01*
X90089906Y-94968649D01*
X89974812Y-95054809D01*
X89974809Y-95054812D01*
X89888649Y-95169906D01*
X89888645Y-95169913D01*
X89838403Y-95304620D01*
X89838401Y-95304627D01*
X89832000Y-95364155D01*
X89832000Y-95762000D01*
X74967500Y-95762000D01*
X74967500Y-93980003D01*
X121622435Y-93980003D01*
X121642630Y-94159249D01*
X121642631Y-94159254D01*
X121702211Y-94329523D01*
X121741769Y-94392478D01*
X121798184Y-94482262D01*
X121925738Y-94609816D01*
X122078478Y-94705789D01*
X122181952Y-94741996D01*
X122248745Y-94765368D01*
X122248750Y-94765369D01*
X122427996Y-94785565D01*
X122428000Y-94785565D01*
X122428004Y-94785565D01*
X122607249Y-94765369D01*
X122607252Y-94765368D01*
X122607255Y-94765368D01*
X122674028Y-94742003D01*
X127718435Y-94742003D01*
X127738630Y-94921249D01*
X127738631Y-94921254D01*
X127798211Y-95091523D01*
X127861494Y-95192236D01*
X127894184Y-95244262D01*
X128021738Y-95371816D01*
X128174478Y-95467789D01*
X128344745Y-95527368D01*
X128344750Y-95527369D01*
X128523996Y-95547565D01*
X128524000Y-95547565D01*
X128524004Y-95547565D01*
X128703249Y-95527369D01*
X128703252Y-95527368D01*
X128703255Y-95527368D01*
X128873522Y-95467789D01*
X129026262Y-95371816D01*
X129153816Y-95244262D01*
X129249789Y-95091522D01*
X129309368Y-94921255D01*
X129309369Y-94921249D01*
X129329565Y-94742003D01*
X129329565Y-94741996D01*
X129309369Y-94562750D01*
X129309368Y-94562745D01*
X129249788Y-94392476D01*
X129153815Y-94239737D01*
X129026262Y-94112184D01*
X128982989Y-94084994D01*
X128936698Y-94032659D01*
X128926050Y-93963606D01*
X128954425Y-93899757D01*
X128982989Y-93875006D01*
X129026262Y-93847816D01*
X129153816Y-93720262D01*
X129249789Y-93567522D01*
X129309368Y-93397255D01*
X129316085Y-93337638D01*
X129329565Y-93218003D01*
X129329565Y-93217996D01*
X129309369Y-93038750D01*
X129309368Y-93038745D01*
X129287203Y-92975401D01*
X131482785Y-92975401D01*
X131501602Y-93178483D01*
X131557417Y-93374648D01*
X131557422Y-93374661D01*
X131648327Y-93557222D01*
X131771237Y-93719982D01*
X131921958Y-93857381D01*
X131921960Y-93857383D01*
X131973956Y-93889577D01*
X132095363Y-93964749D01*
X132285544Y-94038425D01*
X132486024Y-94075901D01*
X132486026Y-94075901D01*
X132689974Y-94075901D01*
X132689976Y-94075901D01*
X132890456Y-94038425D01*
X133080637Y-93964749D01*
X133254041Y-93857382D01*
X133404764Y-93719980D01*
X133527673Y-93557222D01*
X133618582Y-93374651D01*
X133674397Y-93178484D01*
X133693215Y-92975401D01*
X133688820Y-92927975D01*
X133674397Y-92772318D01*
X133656666Y-92710000D01*
X136412723Y-92710000D01*
X136426587Y-92868476D01*
X136431793Y-92927975D01*
X136431793Y-92927979D01*
X136488422Y-93139322D01*
X136488424Y-93139326D01*
X136488425Y-93139330D01*
X136525111Y-93218003D01*
X136580897Y-93337638D01*
X136580898Y-93337639D01*
X136706402Y-93516877D01*
X136861123Y-93671598D01*
X137040361Y-93797102D01*
X137238670Y-93889575D01*
X137450023Y-93946207D01*
X137632926Y-93962208D01*
X137667998Y-93965277D01*
X137668000Y-93965277D01*
X137668002Y-93965277D01*
X137696254Y-93962805D01*
X137885977Y-93946207D01*
X138097330Y-93889575D01*
X138295639Y-93797102D01*
X138474877Y-93671598D01*
X138629598Y-93516877D01*
X138755102Y-93337639D01*
X138847575Y-93139330D01*
X138904207Y-92927977D01*
X138923277Y-92710000D01*
X138904207Y-92492023D01*
X138847575Y-92280670D01*
X138755102Y-92082362D01*
X138755100Y-92082359D01*
X138755099Y-92082357D01*
X138629599Y-91903124D01*
X138552659Y-91826184D01*
X138474877Y-91748402D01*
X138336978Y-91651844D01*
X138295638Y-91622897D01*
X138196484Y-91576661D01*
X138097330Y-91530425D01*
X138097326Y-91530424D01*
X138097322Y-91530422D01*
X137885977Y-91473793D01*
X137668002Y-91454723D01*
X137667998Y-91454723D01*
X137522682Y-91467436D01*
X137450023Y-91473793D01*
X137450020Y-91473793D01*
X137238677Y-91530422D01*
X137238668Y-91530426D01*
X137040361Y-91622898D01*
X137040357Y-91622900D01*
X136861121Y-91748402D01*
X136706402Y-91903121D01*
X136580900Y-92082357D01*
X136580898Y-92082361D01*
X136488426Y-92280668D01*
X136488422Y-92280677D01*
X136431793Y-92492020D01*
X136431793Y-92492023D01*
X136412723Y-92710000D01*
X133656666Y-92710000D01*
X133656665Y-92709997D01*
X133618582Y-92576151D01*
X133576691Y-92492023D01*
X133547117Y-92432630D01*
X133527673Y-92393580D01*
X133404764Y-92230822D01*
X133404762Y-92230820D01*
X133397551Y-92224246D01*
X133361269Y-92164535D01*
X133363030Y-92094688D01*
X133402273Y-92036880D01*
X133423277Y-92024787D01*
X133422546Y-92023448D01*
X133430326Y-92019198D01*
X133430331Y-92019197D01*
X133545546Y-91932947D01*
X133631796Y-91817732D01*
X133682091Y-91682884D01*
X133688500Y-91623274D01*
X133688499Y-90327529D01*
X133682091Y-90267918D01*
X133671927Y-90240668D01*
X133631797Y-90133072D01*
X133631793Y-90133065D01*
X133545547Y-90017856D01*
X133545544Y-90017853D01*
X133430335Y-89931607D01*
X133430328Y-89931603D01*
X133295482Y-89881309D01*
X133295483Y-89881309D01*
X133235883Y-89874902D01*
X133235881Y-89874901D01*
X133235873Y-89874901D01*
X133235864Y-89874901D01*
X131940129Y-89874901D01*
X131940123Y-89874902D01*
X131880516Y-89881309D01*
X131745671Y-89931603D01*
X131745664Y-89931607D01*
X131630455Y-90017853D01*
X131630452Y-90017856D01*
X131544206Y-90133065D01*
X131544202Y-90133072D01*
X131493908Y-90267918D01*
X131492004Y-90285633D01*
X131487501Y-90327524D01*
X131487500Y-90327536D01*
X131487500Y-91623271D01*
X131487501Y-91623277D01*
X131493908Y-91682884D01*
X131544202Y-91817729D01*
X131544206Y-91817736D01*
X131630452Y-91932945D01*
X131630455Y-91932948D01*
X131745664Y-92019194D01*
X131753454Y-92023448D01*
X131751755Y-92026558D01*
X131794124Y-92058228D01*
X131818588Y-92123675D01*
X131803784Y-92191959D01*
X131778452Y-92224243D01*
X131771236Y-92230820D01*
X131648327Y-92393579D01*
X131557422Y-92576140D01*
X131557417Y-92576153D01*
X131501602Y-92772318D01*
X131482785Y-92975400D01*
X131482785Y-92975401D01*
X129287203Y-92975401D01*
X129270609Y-92927979D01*
X129249789Y-92868478D01*
X129153816Y-92715738D01*
X129026262Y-92588184D01*
X129007094Y-92576140D01*
X128873523Y-92492211D01*
X128703254Y-92432631D01*
X128703249Y-92432630D01*
X128524004Y-92412435D01*
X128523996Y-92412435D01*
X128344750Y-92432630D01*
X128344745Y-92432631D01*
X128174476Y-92492211D01*
X128021737Y-92588184D01*
X127894184Y-92715737D01*
X127798211Y-92868476D01*
X127738631Y-93038745D01*
X127738630Y-93038750D01*
X127718435Y-93217996D01*
X127718435Y-93218003D01*
X127738630Y-93397249D01*
X127738631Y-93397254D01*
X127798211Y-93567523D01*
X127894184Y-93720262D01*
X128021737Y-93847815D01*
X128021740Y-93847817D01*
X128065011Y-93875007D01*
X128111302Y-93927342D01*
X128121949Y-93996395D01*
X128093574Y-94060244D01*
X128065011Y-94084993D01*
X128021740Y-94112182D01*
X128021737Y-94112184D01*
X127894184Y-94239737D01*
X127798211Y-94392476D01*
X127738631Y-94562745D01*
X127738630Y-94562750D01*
X127718435Y-94741996D01*
X127718435Y-94742003D01*
X122674028Y-94742003D01*
X122777522Y-94705789D01*
X122930262Y-94609816D01*
X123057816Y-94482262D01*
X123153789Y-94329522D01*
X123213368Y-94159255D01*
X123221735Y-94084994D01*
X123233565Y-93980003D01*
X123233565Y-93979996D01*
X123213369Y-93800750D01*
X123213368Y-93800745D01*
X123185107Y-93719980D01*
X123153789Y-93630478D01*
X123057816Y-93477738D01*
X122930262Y-93350184D01*
X122910295Y-93337638D01*
X122777523Y-93254211D01*
X122607254Y-93194631D01*
X122607249Y-93194630D01*
X122428004Y-93174435D01*
X122427996Y-93174435D01*
X122248750Y-93194630D01*
X122248745Y-93194631D01*
X122078476Y-93254211D01*
X121925737Y-93350184D01*
X121798184Y-93477737D01*
X121702211Y-93630476D01*
X121642631Y-93800745D01*
X121642630Y-93800750D01*
X121622435Y-93979996D01*
X121622435Y-93980003D01*
X74967500Y-93980003D01*
X74967500Y-92456003D01*
X115526435Y-92456003D01*
X115546630Y-92635249D01*
X115546631Y-92635254D01*
X115606211Y-92805523D01*
X115645769Y-92868478D01*
X115702184Y-92958262D01*
X115829738Y-93085816D01*
X115914892Y-93139322D01*
X115977216Y-93178483D01*
X115982478Y-93181789D01*
X116085952Y-93217996D01*
X116152745Y-93241368D01*
X116152750Y-93241369D01*
X116331996Y-93261565D01*
X116332000Y-93261565D01*
X116332004Y-93261565D01*
X116511249Y-93241369D01*
X116511252Y-93241368D01*
X116511255Y-93241368D01*
X116681522Y-93181789D01*
X116834262Y-93085816D01*
X116961816Y-92958262D01*
X117057789Y-92805522D01*
X117117368Y-92635255D01*
X117124027Y-92576153D01*
X117137565Y-92456003D01*
X117137565Y-92455996D01*
X117117369Y-92276750D01*
X117117368Y-92276745D01*
X117057788Y-92106476D01*
X116972894Y-91971369D01*
X116961816Y-91953738D01*
X116916758Y-91908680D01*
X116883274Y-91847358D01*
X116888258Y-91777666D01*
X116916759Y-91733319D01*
X116961816Y-91688262D01*
X117057789Y-91535522D01*
X117117368Y-91365255D01*
X117121472Y-91328825D01*
X117148536Y-91264414D01*
X117206130Y-91224858D01*
X117258574Y-91219489D01*
X117317190Y-91226093D01*
X117347998Y-91229565D01*
X117348000Y-91229565D01*
X117348004Y-91229565D01*
X117527249Y-91209369D01*
X117527252Y-91209368D01*
X117527255Y-91209368D01*
X117697522Y-91149789D01*
X117850262Y-91053816D01*
X117977816Y-90926262D01*
X118073789Y-90773522D01*
X118133368Y-90603255D01*
X118134119Y-90596591D01*
X118153565Y-90424003D01*
X118828435Y-90424003D01*
X118848630Y-90603249D01*
X118848631Y-90603254D01*
X118908211Y-90773523D01*
X118947769Y-90836478D01*
X119004184Y-90926262D01*
X119131738Y-91053816D01*
X119284478Y-91149789D01*
X119387952Y-91185996D01*
X119454745Y-91209368D01*
X119454750Y-91209369D01*
X119633996Y-91229565D01*
X119634000Y-91229565D01*
X119634004Y-91229565D01*
X119813249Y-91209369D01*
X119813252Y-91209368D01*
X119813255Y-91209368D01*
X119880028Y-91186003D01*
X127718435Y-91186003D01*
X127738630Y-91365249D01*
X127738631Y-91365254D01*
X127798211Y-91535523D01*
X127890804Y-91682883D01*
X127894184Y-91688262D01*
X128021738Y-91815816D01*
X128112080Y-91872582D01*
X128169531Y-91908681D01*
X128174478Y-91911789D01*
X128344745Y-91971368D01*
X128344750Y-91971369D01*
X128523996Y-91991565D01*
X128524000Y-91991565D01*
X128524004Y-91991565D01*
X128703249Y-91971369D01*
X128703252Y-91971368D01*
X128703255Y-91971368D01*
X128873522Y-91911789D01*
X129026262Y-91815816D01*
X129153816Y-91688262D01*
X129249789Y-91535522D01*
X129309368Y-91365255D01*
X129309369Y-91365249D01*
X129329565Y-91186003D01*
X129329565Y-91185996D01*
X129309369Y-91006750D01*
X129309368Y-91006745D01*
X129249788Y-90836476D01*
X129153815Y-90683737D01*
X129026262Y-90556184D01*
X128873521Y-90460210D01*
X128741579Y-90414042D01*
X128684802Y-90373320D01*
X128659055Y-90308367D01*
X128672511Y-90239806D01*
X128720898Y-90189403D01*
X128741579Y-90179958D01*
X128780716Y-90166262D01*
X128873522Y-90133789D01*
X129026262Y-90037816D01*
X129153816Y-89910262D01*
X129249789Y-89757522D01*
X129309368Y-89587255D01*
X129311918Y-89564623D01*
X129329565Y-89408003D01*
X129329565Y-89407996D01*
X129309369Y-89228750D01*
X129309368Y-89228745D01*
X129283215Y-89154003D01*
X141434435Y-89154003D01*
X141454630Y-89333249D01*
X141454631Y-89333254D01*
X141514211Y-89503523D01*
X141564250Y-89583159D01*
X141610184Y-89656262D01*
X141737738Y-89783816D01*
X141754239Y-89794184D01*
X141884487Y-89876025D01*
X141890478Y-89879789D01*
X142038554Y-89931603D01*
X142060745Y-89939368D01*
X142060750Y-89939369D01*
X142239996Y-89959565D01*
X142240000Y-89959565D01*
X142240004Y-89959565D01*
X142419249Y-89939369D01*
X142419252Y-89939368D01*
X142419255Y-89939368D01*
X142589522Y-89879789D01*
X142742262Y-89783816D01*
X142869816Y-89656262D01*
X142965789Y-89503522D01*
X143025368Y-89333255D01*
X143037143Y-89228750D01*
X143045565Y-89154003D01*
X143045565Y-89153996D01*
X143025369Y-88974750D01*
X143025368Y-88974745D01*
X142965789Y-88804478D01*
X142949267Y-88778184D01*
X142869815Y-88651737D01*
X142742262Y-88524184D01*
X142589523Y-88428211D01*
X142419254Y-88368631D01*
X142419249Y-88368630D01*
X142240004Y-88348435D01*
X142239996Y-88348435D01*
X142060750Y-88368630D01*
X142060745Y-88368631D01*
X141890476Y-88428211D01*
X141737737Y-88524184D01*
X141610184Y-88651737D01*
X141514211Y-88804476D01*
X141454631Y-88974745D01*
X141454630Y-88974750D01*
X141434435Y-89153996D01*
X141434435Y-89154003D01*
X129283215Y-89154003D01*
X129249789Y-89058478D01*
X129153816Y-88905738D01*
X129026262Y-88778184D01*
X128873523Y-88682211D01*
X128703254Y-88622631D01*
X128703249Y-88622630D01*
X128524004Y-88602435D01*
X128523996Y-88602435D01*
X128344750Y-88622630D01*
X128344745Y-88622631D01*
X128174476Y-88682211D01*
X128021737Y-88778184D01*
X127894184Y-88905737D01*
X127798211Y-89058476D01*
X127738631Y-89228745D01*
X127738630Y-89228750D01*
X127718435Y-89407996D01*
X127718435Y-89408003D01*
X127738630Y-89587249D01*
X127738631Y-89587254D01*
X127798211Y-89757523D01*
X127875992Y-89881310D01*
X127894184Y-89910262D01*
X128021738Y-90037816D01*
X128173326Y-90133065D01*
X128174480Y-90133790D01*
X128306421Y-90179959D01*
X128363197Y-90220680D01*
X128388944Y-90285633D01*
X128375488Y-90354195D01*
X128327100Y-90404597D01*
X128306421Y-90414041D01*
X128174480Y-90460209D01*
X128021737Y-90556184D01*
X127894184Y-90683737D01*
X127798211Y-90836476D01*
X127738631Y-91006745D01*
X127738630Y-91006750D01*
X127718435Y-91185996D01*
X127718435Y-91186003D01*
X119880028Y-91186003D01*
X119983522Y-91149789D01*
X120136262Y-91053816D01*
X120263816Y-90926262D01*
X120359789Y-90773522D01*
X120419368Y-90603255D01*
X120420119Y-90596591D01*
X120439565Y-90424003D01*
X120439565Y-90423996D01*
X120419369Y-90244750D01*
X120419368Y-90244745D01*
X120359788Y-90074476D01*
X120274894Y-89939369D01*
X120263816Y-89921738D01*
X120136262Y-89794184D01*
X119983523Y-89698211D01*
X119813254Y-89638631D01*
X119813249Y-89638630D01*
X119634004Y-89618435D01*
X119633996Y-89618435D01*
X119454750Y-89638630D01*
X119454745Y-89638631D01*
X119284476Y-89698211D01*
X119131737Y-89794184D01*
X119004184Y-89921737D01*
X118908211Y-90074476D01*
X118848631Y-90244745D01*
X118848630Y-90244750D01*
X118828435Y-90423996D01*
X118828435Y-90424003D01*
X118153565Y-90424003D01*
X118153565Y-90423996D01*
X118133369Y-90244750D01*
X118133368Y-90244745D01*
X118073788Y-90074476D01*
X117988894Y-89939369D01*
X117977816Y-89921738D01*
X117850262Y-89794184D01*
X117697523Y-89698211D01*
X117527254Y-89638631D01*
X117527249Y-89638630D01*
X117348004Y-89618435D01*
X117347996Y-89618435D01*
X117168750Y-89638630D01*
X117168737Y-89638633D01*
X117007955Y-89694894D01*
X116938176Y-89698456D01*
X116926045Y-89694894D01*
X116765262Y-89638633D01*
X116765249Y-89638630D01*
X116586004Y-89618435D01*
X116585996Y-89618435D01*
X116406750Y-89638630D01*
X116406745Y-89638631D01*
X116236476Y-89698211D01*
X116083737Y-89794184D01*
X115956184Y-89921737D01*
X115860211Y-90074476D01*
X115800631Y-90244745D01*
X115800630Y-90244750D01*
X115780435Y-90423996D01*
X115780435Y-90424003D01*
X115792126Y-90527769D01*
X115780071Y-90596591D01*
X115756588Y-90629333D01*
X115702184Y-90683737D01*
X115606211Y-90836476D01*
X115546631Y-91006745D01*
X115546630Y-91006750D01*
X115526435Y-91185996D01*
X115526435Y-91186003D01*
X115546630Y-91365249D01*
X115546631Y-91365254D01*
X115606211Y-91535523D01*
X115702184Y-91688262D01*
X115702185Y-91688263D01*
X115747241Y-91733320D01*
X115780725Y-91794643D01*
X115775740Y-91864335D01*
X115747241Y-91908680D01*
X115702184Y-91953737D01*
X115606211Y-92106476D01*
X115546631Y-92276745D01*
X115546630Y-92276750D01*
X115526435Y-92455996D01*
X115526435Y-92456003D01*
X74967500Y-92456003D01*
X74967500Y-90197124D01*
X88210427Y-90197124D01*
X88272612Y-90240666D01*
X88470840Y-90333101D01*
X88470849Y-90333105D01*
X88682105Y-90389710D01*
X88682115Y-90389712D01*
X88899999Y-90408775D01*
X88900001Y-90408775D01*
X89117884Y-90389712D01*
X89117894Y-90389710D01*
X89329150Y-90333105D01*
X89329164Y-90333100D01*
X89527383Y-90240669D01*
X89527385Y-90240668D01*
X89589571Y-90197124D01*
X88900001Y-89507553D01*
X88900000Y-89507553D01*
X88210427Y-90197124D01*
X74967500Y-90197124D01*
X74967500Y-89154000D01*
X87645225Y-89154000D01*
X87664287Y-89371884D01*
X87664289Y-89371894D01*
X87720894Y-89583150D01*
X87720898Y-89583159D01*
X87813333Y-89781387D01*
X87856874Y-89843571D01*
X88500368Y-89200078D01*
X88550000Y-89200078D01*
X88573852Y-89289095D01*
X88619930Y-89368905D01*
X88685095Y-89434070D01*
X88764905Y-89480148D01*
X88853922Y-89504000D01*
X88946078Y-89504000D01*
X89035095Y-89480148D01*
X89114905Y-89434070D01*
X89180070Y-89368905D01*
X89226148Y-89289095D01*
X89250000Y-89200078D01*
X89250000Y-89154000D01*
X89253553Y-89154000D01*
X89943124Y-89843570D01*
X89986668Y-89781385D01*
X89986669Y-89781383D01*
X90079100Y-89583164D01*
X90079105Y-89583150D01*
X90135710Y-89371894D01*
X90135712Y-89371884D01*
X90154775Y-89154000D01*
X90154775Y-89153999D01*
X90135712Y-88936115D01*
X90135710Y-88936105D01*
X90079105Y-88724849D01*
X90079101Y-88724840D01*
X89986667Y-88526614D01*
X89986666Y-88526612D01*
X89943124Y-88464428D01*
X89943124Y-88464427D01*
X89253553Y-89153999D01*
X89253553Y-89154000D01*
X89250000Y-89154000D01*
X89250000Y-89107922D01*
X89226148Y-89018905D01*
X89180070Y-88939095D01*
X89114905Y-88873930D01*
X89035095Y-88827852D01*
X88946078Y-88804000D01*
X88853922Y-88804000D01*
X88764905Y-88827852D01*
X88685095Y-88873930D01*
X88619930Y-88939095D01*
X88573852Y-89018905D01*
X88550000Y-89107922D01*
X88550000Y-89200078D01*
X88500368Y-89200078D01*
X88546446Y-89154000D01*
X87856874Y-88464428D01*
X87813333Y-88526613D01*
X87720898Y-88724840D01*
X87720894Y-88724849D01*
X87664289Y-88936105D01*
X87664287Y-88936115D01*
X87645225Y-89153999D01*
X87645225Y-89154000D01*
X74967500Y-89154000D01*
X74967500Y-88110874D01*
X88210428Y-88110874D01*
X88900000Y-88800446D01*
X88900001Y-88800446D01*
X89589571Y-88110874D01*
X89527387Y-88067333D01*
X89329159Y-87974898D01*
X89329150Y-87974894D01*
X89117894Y-87918289D01*
X89117884Y-87918287D01*
X88900001Y-87899225D01*
X88899999Y-87899225D01*
X88682115Y-87918287D01*
X88682105Y-87918289D01*
X88470849Y-87974894D01*
X88470840Y-87974898D01*
X88272613Y-88067333D01*
X88210428Y-88110874D01*
X74967500Y-88110874D01*
X74967500Y-87376003D01*
X114510435Y-87376003D01*
X114530630Y-87555249D01*
X114530631Y-87555254D01*
X114590211Y-87725523D01*
X114686184Y-87878262D01*
X114813738Y-88005816D01*
X114966478Y-88101789D01*
X115136745Y-88161368D01*
X115136750Y-88161369D01*
X115315996Y-88181565D01*
X115316000Y-88181565D01*
X115316004Y-88181565D01*
X115495249Y-88161369D01*
X115495252Y-88161368D01*
X115495255Y-88161368D01*
X115665522Y-88101789D01*
X115818262Y-88005816D01*
X115945816Y-87878262D01*
X116041789Y-87725522D01*
X116101368Y-87555255D01*
X116107001Y-87505260D01*
X116121565Y-87376003D01*
X116121565Y-87375996D01*
X116101369Y-87196750D01*
X116101368Y-87196745D01*
X116041788Y-87026476D01*
X115986252Y-86938091D01*
X115945816Y-86873738D01*
X115940081Y-86868003D01*
X123400435Y-86868003D01*
X123420630Y-87047249D01*
X123420631Y-87047254D01*
X123480211Y-87217523D01*
X123549987Y-87328570D01*
X123576184Y-87370262D01*
X123703738Y-87497816D01*
X123856478Y-87593789D01*
X124026745Y-87653368D01*
X124026750Y-87653369D01*
X124205996Y-87673565D01*
X124206000Y-87673565D01*
X124206004Y-87673565D01*
X124385249Y-87653369D01*
X124385252Y-87653368D01*
X124385255Y-87653368D01*
X124555522Y-87593789D01*
X124708262Y-87497816D01*
X124835816Y-87370262D01*
X124931789Y-87217522D01*
X124991368Y-87047255D01*
X124993709Y-87026478D01*
X125011565Y-86868003D01*
X125011565Y-86867996D01*
X124991369Y-86688750D01*
X124991368Y-86688745D01*
X124957036Y-86590630D01*
X124931789Y-86518478D01*
X124907123Y-86479223D01*
X124835815Y-86365737D01*
X124708262Y-86238184D01*
X124555523Y-86142211D01*
X124385254Y-86082631D01*
X124385249Y-86082630D01*
X124206004Y-86062435D01*
X124205996Y-86062435D01*
X124026750Y-86082630D01*
X124026745Y-86082631D01*
X123856476Y-86142211D01*
X123703737Y-86238184D01*
X123576184Y-86365737D01*
X123480211Y-86518476D01*
X123420631Y-86688745D01*
X123420630Y-86688750D01*
X123400435Y-86867996D01*
X123400435Y-86868003D01*
X115940081Y-86868003D01*
X115818262Y-86746184D01*
X115738952Y-86696350D01*
X115665523Y-86650211D01*
X115495254Y-86590631D01*
X115495249Y-86590630D01*
X115316004Y-86570435D01*
X115315996Y-86570435D01*
X115136750Y-86590630D01*
X115136745Y-86590631D01*
X114966476Y-86650211D01*
X114813737Y-86746184D01*
X114686184Y-86873737D01*
X114590211Y-87026476D01*
X114530631Y-87196745D01*
X114530630Y-87196750D01*
X114510435Y-87375996D01*
X114510435Y-87376003D01*
X74967500Y-87376003D01*
X74967500Y-85653491D01*
X74987185Y-85586452D01*
X75039989Y-85540697D01*
X75109147Y-85530753D01*
X75172703Y-85559778D01*
X75187041Y-85574448D01*
X75246651Y-85646504D01*
X75254092Y-85653491D01*
X75466836Y-85853272D01*
X75466846Y-85853280D01*
X75711193Y-86030808D01*
X75711198Y-86030810D01*
X75711205Y-86030816D01*
X75975896Y-86176332D01*
X75975901Y-86176334D01*
X75975903Y-86176335D01*
X75975904Y-86176336D01*
X76256734Y-86287524D01*
X76256737Y-86287525D01*
X76354259Y-86312564D01*
X76549302Y-86362642D01*
X76696039Y-86381179D01*
X76848963Y-86400499D01*
X76848969Y-86400499D01*
X76848973Y-86400500D01*
X76848975Y-86400500D01*
X77151025Y-86400500D01*
X77151027Y-86400500D01*
X77151032Y-86400499D01*
X77151036Y-86400499D01*
X77230591Y-86390448D01*
X77450698Y-86362642D01*
X77743262Y-86287525D01*
X77743265Y-86287524D01*
X78024095Y-86176336D01*
X78024096Y-86176335D01*
X78024094Y-86176335D01*
X78024104Y-86176332D01*
X78288795Y-86030816D01*
X78533162Y-85853274D01*
X78753349Y-85646504D01*
X78945885Y-85413768D01*
X78990161Y-85344000D01*
X81452551Y-85344000D01*
X81472317Y-85595151D01*
X81531126Y-85840110D01*
X81627533Y-86072859D01*
X81759160Y-86287653D01*
X81759161Y-86287656D01*
X81759164Y-86287659D01*
X81922776Y-86479224D01*
X82053216Y-86590630D01*
X82114343Y-86642838D01*
X82114346Y-86642839D01*
X82329140Y-86774466D01*
X82395684Y-86802029D01*
X82561889Y-86870873D01*
X82806852Y-86929683D01*
X83058000Y-86949449D01*
X83309148Y-86929683D01*
X83554111Y-86870873D01*
X83786859Y-86774466D01*
X83919019Y-86693477D01*
X83986461Y-86675234D01*
X84053064Y-86696350D01*
X84083072Y-86724894D01*
X84133824Y-86792690D01*
X84140455Y-86801547D01*
X84255664Y-86887793D01*
X84255671Y-86887797D01*
X84390517Y-86938091D01*
X84390516Y-86938091D01*
X84397444Y-86938835D01*
X84450127Y-86944500D01*
X86745872Y-86944499D01*
X86805483Y-86938091D01*
X86940331Y-86887796D01*
X87055546Y-86801546D01*
X87141796Y-86686331D01*
X87192091Y-86551483D01*
X87198500Y-86491873D01*
X87198499Y-84836000D01*
X110686785Y-84836000D01*
X110705602Y-85039082D01*
X110761417Y-85235247D01*
X110761422Y-85235260D01*
X110852327Y-85417821D01*
X110975237Y-85580581D01*
X111125958Y-85717980D01*
X111125960Y-85717982D01*
X111125962Y-85717983D01*
X111299363Y-85825348D01*
X111489544Y-85899024D01*
X111690024Y-85936500D01*
X111690026Y-85936500D01*
X111893974Y-85936500D01*
X111893976Y-85936500D01*
X112094456Y-85899024D01*
X112284637Y-85825348D01*
X112458041Y-85717981D01*
X112550416Y-85633769D01*
X112613216Y-85603155D01*
X112682603Y-85611352D01*
X112736544Y-85655762D01*
X112744129Y-85670449D01*
X112744396Y-85670304D01*
X112748649Y-85678093D01*
X112834809Y-85793187D01*
X112834812Y-85793190D01*
X112949906Y-85879350D01*
X112949913Y-85879354D01*
X113084620Y-85929596D01*
X113084627Y-85929598D01*
X113144155Y-85935999D01*
X113144172Y-85936000D01*
X113542000Y-85936000D01*
X113542000Y-85002988D01*
X113551940Y-85020205D01*
X113607795Y-85076060D01*
X113676204Y-85115556D01*
X113752504Y-85136000D01*
X113831496Y-85136000D01*
X113907796Y-85115556D01*
X113958988Y-85086000D01*
X114042000Y-85086000D01*
X114042000Y-85936000D01*
X114439828Y-85936000D01*
X114439844Y-85935999D01*
X114499372Y-85929598D01*
X114499379Y-85929596D01*
X114634086Y-85879354D01*
X114634093Y-85879350D01*
X114749187Y-85793190D01*
X114749190Y-85793187D01*
X114835350Y-85678093D01*
X114835354Y-85678086D01*
X114885596Y-85543379D01*
X114885598Y-85543372D01*
X114891999Y-85483844D01*
X114892000Y-85483827D01*
X114892000Y-85086000D01*
X114042000Y-85086000D01*
X113958988Y-85086000D01*
X113976205Y-85076060D01*
X114032060Y-85020205D01*
X114071556Y-84951796D01*
X114092000Y-84875496D01*
X114092000Y-84796504D01*
X114071556Y-84720204D01*
X114032060Y-84651795D01*
X113976205Y-84595940D01*
X113907796Y-84556444D01*
X113831496Y-84536000D01*
X113752504Y-84536000D01*
X113676204Y-84556444D01*
X113607795Y-84595940D01*
X113551940Y-84651795D01*
X113542000Y-84669011D01*
X113542000Y-83736000D01*
X114042000Y-83736000D01*
X114042000Y-84586000D01*
X114892000Y-84586000D01*
X114892000Y-84328003D01*
X123400435Y-84328003D01*
X123420630Y-84507249D01*
X123420631Y-84507254D01*
X123480211Y-84677523D01*
X123514258Y-84731708D01*
X123576184Y-84830262D01*
X123703738Y-84957816D01*
X123794080Y-85014582D01*
X123833073Y-85039083D01*
X123856478Y-85053789D01*
X123968114Y-85092852D01*
X124026745Y-85113368D01*
X124026750Y-85113369D01*
X124205996Y-85133565D01*
X124206000Y-85133565D01*
X124206004Y-85133565D01*
X124385249Y-85113369D01*
X124385252Y-85113368D01*
X124385255Y-85113368D01*
X124555522Y-85053789D01*
X124708262Y-84957816D01*
X124835816Y-84830262D01*
X124931789Y-84677522D01*
X124991368Y-84507255D01*
X124993918Y-84484623D01*
X125011565Y-84328003D01*
X125011565Y-84327996D01*
X124991369Y-84148750D01*
X124991368Y-84148745D01*
X124965965Y-84076148D01*
X124931789Y-83978478D01*
X124931499Y-83978017D01*
X124887848Y-83908547D01*
X124835816Y-83825738D01*
X124708262Y-83698184D01*
X124679609Y-83680180D01*
X124555523Y-83602211D01*
X124385254Y-83542631D01*
X124385249Y-83542630D01*
X124206004Y-83522435D01*
X124205996Y-83522435D01*
X124026750Y-83542630D01*
X124026745Y-83542631D01*
X123856476Y-83602211D01*
X123703737Y-83698184D01*
X123576184Y-83825737D01*
X123480211Y-83978476D01*
X123420631Y-84148745D01*
X123420630Y-84148750D01*
X123400435Y-84327996D01*
X123400435Y-84328003D01*
X114892000Y-84328003D01*
X114892000Y-84188172D01*
X114891999Y-84188155D01*
X114885598Y-84128627D01*
X114885596Y-84128620D01*
X114835354Y-83993913D01*
X114835350Y-83993906D01*
X114749190Y-83878812D01*
X114749187Y-83878809D01*
X114634093Y-83792649D01*
X114634086Y-83792645D01*
X114499379Y-83742403D01*
X114499372Y-83742401D01*
X114439844Y-83736000D01*
X114042000Y-83736000D01*
X113542000Y-83736000D01*
X113144155Y-83736000D01*
X113084627Y-83742401D01*
X113084620Y-83742403D01*
X112949913Y-83792645D01*
X112949906Y-83792649D01*
X112834812Y-83878809D01*
X112834809Y-83878812D01*
X112748649Y-83993906D01*
X112744396Y-84001696D01*
X112742216Y-84000505D01*
X112708242Y-84045872D01*
X112642773Y-84070276D01*
X112574503Y-84055410D01*
X112550413Y-84038227D01*
X112458041Y-83954019D01*
X112458039Y-83954017D01*
X112284642Y-83846655D01*
X112284635Y-83846651D01*
X112104835Y-83776997D01*
X112094456Y-83772976D01*
X111893976Y-83735500D01*
X111690024Y-83735500D01*
X111489544Y-83772976D01*
X111489541Y-83772976D01*
X111489541Y-83772977D01*
X111299364Y-83846651D01*
X111299357Y-83846655D01*
X111125960Y-83954017D01*
X111125958Y-83954019D01*
X110975237Y-84091418D01*
X110852327Y-84254178D01*
X110761422Y-84436739D01*
X110761417Y-84436752D01*
X110705602Y-84632917D01*
X110686785Y-84835999D01*
X110686785Y-84836000D01*
X87198499Y-84836000D01*
X87198499Y-84196128D01*
X87192091Y-84136517D01*
X87189148Y-84128627D01*
X87141797Y-84001671D01*
X87141793Y-84001664D01*
X87055547Y-83886455D01*
X87055544Y-83886452D01*
X86940335Y-83800206D01*
X86940328Y-83800202D01*
X86805482Y-83749908D01*
X86805483Y-83749908D01*
X86745883Y-83743501D01*
X86745881Y-83743500D01*
X86745873Y-83743500D01*
X86745865Y-83743500D01*
X86041574Y-83743500D01*
X85974535Y-83723815D01*
X85928780Y-83671011D01*
X85918836Y-83601853D01*
X85947861Y-83538297D01*
X85972683Y-83516398D01*
X86108289Y-83425789D01*
X86219786Y-83314292D01*
X86219789Y-83314289D01*
X86221316Y-83312003D01*
X135930435Y-83312003D01*
X135950630Y-83491249D01*
X135950631Y-83491254D01*
X136010211Y-83661523D01*
X136097351Y-83800204D01*
X136106184Y-83814262D01*
X136233738Y-83941816D01*
X136386478Y-84037789D01*
X136556745Y-84097368D01*
X136556750Y-84097369D01*
X136735996Y-84117565D01*
X136736000Y-84117565D01*
X136736004Y-84117565D01*
X136915249Y-84097369D01*
X136915252Y-84097368D01*
X136915255Y-84097368D01*
X137085522Y-84037789D01*
X137238262Y-83941816D01*
X137365816Y-83814262D01*
X137461789Y-83661522D01*
X137521368Y-83491255D01*
X137521369Y-83491249D01*
X137541565Y-83312003D01*
X140418435Y-83312003D01*
X140438630Y-83491249D01*
X140438631Y-83491254D01*
X140498211Y-83661523D01*
X140585351Y-83800204D01*
X140594184Y-83814262D01*
X140721738Y-83941816D01*
X140874478Y-84037789D01*
X141044745Y-84097368D01*
X141044750Y-84097369D01*
X141223996Y-84117565D01*
X141224000Y-84117565D01*
X141224004Y-84117565D01*
X141403249Y-84097369D01*
X141403252Y-84097368D01*
X141403255Y-84097368D01*
X141573522Y-84037789D01*
X141726262Y-83941816D01*
X141853816Y-83814262D01*
X141949789Y-83661522D01*
X142009368Y-83491255D01*
X142009369Y-83491249D01*
X142029565Y-83312003D01*
X142029565Y-83311996D01*
X142009369Y-83132750D01*
X142009368Y-83132745D01*
X141949788Y-82962476D01*
X141853815Y-82809737D01*
X141726262Y-82682184D01*
X141573523Y-82586211D01*
X141403254Y-82526631D01*
X141403249Y-82526630D01*
X141224004Y-82506435D01*
X141223996Y-82506435D01*
X141044750Y-82526630D01*
X141044745Y-82526631D01*
X140874476Y-82586211D01*
X140721737Y-82682184D01*
X140594184Y-82809737D01*
X140498211Y-82962476D01*
X140438631Y-83132745D01*
X140438630Y-83132750D01*
X140418435Y-83311996D01*
X140418435Y-83312003D01*
X137541565Y-83312003D01*
X137541565Y-83311996D01*
X137521369Y-83132750D01*
X137521368Y-83132745D01*
X137461788Y-82962476D01*
X137365815Y-82809737D01*
X137238262Y-82682184D01*
X137085523Y-82586211D01*
X136915254Y-82526631D01*
X136915249Y-82526630D01*
X136736004Y-82506435D01*
X136735996Y-82506435D01*
X136556750Y-82526630D01*
X136556745Y-82526631D01*
X136386476Y-82586211D01*
X136233737Y-82682184D01*
X136106184Y-82809737D01*
X136010211Y-82962476D01*
X135950631Y-83132745D01*
X135950630Y-83132750D01*
X135930435Y-83311996D01*
X135930435Y-83312003D01*
X86221316Y-83312003D01*
X86307394Y-83183179D01*
X86367737Y-83037497D01*
X86398500Y-82882842D01*
X86398500Y-82725158D01*
X86398500Y-82725155D01*
X86398499Y-82725153D01*
X86385864Y-82661635D01*
X86367737Y-82570503D01*
X86349565Y-82526631D01*
X86307397Y-82424827D01*
X86307390Y-82424814D01*
X86219789Y-82293711D01*
X86219786Y-82293707D01*
X86108292Y-82182213D01*
X86108288Y-82182210D01*
X85977185Y-82094609D01*
X85977172Y-82094602D01*
X85831501Y-82034264D01*
X85831489Y-82034261D01*
X85676845Y-82003500D01*
X85676842Y-82003500D01*
X85519158Y-82003500D01*
X85519155Y-82003500D01*
X85364510Y-82034261D01*
X85364498Y-82034264D01*
X85218827Y-82094602D01*
X85218814Y-82094609D01*
X85087711Y-82182210D01*
X85087707Y-82182213D01*
X84976213Y-82293707D01*
X84976210Y-82293711D01*
X84888609Y-82424814D01*
X84888602Y-82424827D01*
X84828264Y-82570498D01*
X84828261Y-82570510D01*
X84797500Y-82725153D01*
X84797500Y-82882846D01*
X84828261Y-83037489D01*
X84828264Y-83037501D01*
X84888602Y-83183172D01*
X84888609Y-83183185D01*
X84976210Y-83314288D01*
X84976213Y-83314292D01*
X85087707Y-83425786D01*
X85087711Y-83425789D01*
X85223316Y-83516398D01*
X85268121Y-83570010D01*
X85276828Y-83639335D01*
X85246674Y-83702363D01*
X85187230Y-83739082D01*
X85154425Y-83743500D01*
X84450129Y-83743500D01*
X84450123Y-83743501D01*
X84390516Y-83749908D01*
X84255671Y-83800202D01*
X84255664Y-83800206D01*
X84140455Y-83886452D01*
X84083072Y-83963105D01*
X84027138Y-84004976D01*
X83957446Y-84009959D01*
X83919016Y-83994520D01*
X83786859Y-83913533D01*
X83554110Y-83817126D01*
X83386956Y-83776997D01*
X83326364Y-83742206D01*
X83294200Y-83680180D01*
X83300676Y-83610611D01*
X83343735Y-83555587D01*
X83368451Y-83541862D01*
X83437173Y-83513397D01*
X83437176Y-83513395D01*
X83437179Y-83513394D01*
X83568289Y-83425789D01*
X83679789Y-83314289D01*
X83767394Y-83183179D01*
X83827737Y-83037497D01*
X83858500Y-82882842D01*
X83858500Y-82725158D01*
X83858500Y-82725155D01*
X83858499Y-82725153D01*
X83845864Y-82661635D01*
X83827737Y-82570503D01*
X83809565Y-82526631D01*
X83767397Y-82424827D01*
X83767390Y-82424814D01*
X83679789Y-82293711D01*
X83679786Y-82293707D01*
X83568292Y-82182213D01*
X83568288Y-82182210D01*
X83437185Y-82094609D01*
X83437172Y-82094602D01*
X83291501Y-82034264D01*
X83291489Y-82034261D01*
X83136845Y-82003500D01*
X83136842Y-82003500D01*
X82979158Y-82003500D01*
X82979155Y-82003500D01*
X82824510Y-82034261D01*
X82824498Y-82034264D01*
X82678827Y-82094602D01*
X82678814Y-82094609D01*
X82547711Y-82182210D01*
X82547707Y-82182213D01*
X82436213Y-82293707D01*
X82436210Y-82293711D01*
X82348609Y-82424814D01*
X82348602Y-82424827D01*
X82288264Y-82570498D01*
X82288261Y-82570510D01*
X82257500Y-82725153D01*
X82257500Y-82882846D01*
X82288261Y-83037489D01*
X82288264Y-83037501D01*
X82348602Y-83183172D01*
X82348609Y-83183185D01*
X82436210Y-83314288D01*
X82436213Y-83314292D01*
X82547707Y-83425786D01*
X82547711Y-83425789D01*
X82678814Y-83513390D01*
X82678827Y-83513397D01*
X82747548Y-83541862D01*
X82801952Y-83585703D01*
X82824017Y-83651997D01*
X82806738Y-83719696D01*
X82755601Y-83767307D01*
X82729043Y-83776997D01*
X82561889Y-83817126D01*
X82329140Y-83913533D01*
X82114346Y-84045160D01*
X82114343Y-84045161D01*
X81922776Y-84208776D01*
X81759161Y-84400343D01*
X81759160Y-84400346D01*
X81627533Y-84615140D01*
X81531126Y-84847889D01*
X81472317Y-85092848D01*
X81452551Y-85344000D01*
X78990161Y-85344000D01*
X79107733Y-85158736D01*
X79236341Y-84885430D01*
X79329681Y-84598160D01*
X79386280Y-84301457D01*
X79386281Y-84301446D01*
X79405246Y-84000005D01*
X79405246Y-83999994D01*
X79386281Y-83698553D01*
X79386280Y-83698546D01*
X79386280Y-83698543D01*
X79329681Y-83401840D01*
X79236341Y-83114570D01*
X79200069Y-83037489D01*
X79107734Y-82841267D01*
X79107733Y-82841264D01*
X79006778Y-82682184D01*
X78945888Y-82586236D01*
X78945885Y-82586232D01*
X78753349Y-82353496D01*
X78533162Y-82146726D01*
X78533159Y-82146724D01*
X78533153Y-82146719D01*
X78288806Y-81969191D01*
X78288799Y-81969186D01*
X78288795Y-81969184D01*
X78024104Y-81823668D01*
X78024101Y-81823666D01*
X78024096Y-81823664D01*
X78024095Y-81823663D01*
X77877927Y-81765792D01*
X77822841Y-81722811D01*
X77799738Y-81656872D01*
X77815951Y-81588910D01*
X77866334Y-81540502D01*
X77923574Y-81526500D01*
X146443922Y-81526500D01*
X146510961Y-81546185D01*
G37*
%TD.AperFunction*%
%TD*%
M02*
