%TF.GenerationSoftware,KiCad,Pcbnew,8.0.1*%
%TF.CreationDate,2024-04-12T19:13:52-04:00*%
%TF.ProjectId,adc_fpga,6164635f-6670-4676-912e-6b696361645f,rev?*%
%TF.SameCoordinates,Original*%
%TF.FileFunction,Copper,L2,Inr*%
%TF.FilePolarity,Positive*%
%FSLAX46Y46*%
G04 Gerber Fmt 4.6, Leading zero omitted, Abs format (unit mm)*
G04 Created by KiCad (PCBNEW 8.0.1) date 2024-04-12 19:13:52*
%MOMM*%
%LPD*%
G01*
G04 APERTURE LIST*
%TA.AperFunction,ComponentPad*%
%ADD10C,3.800000*%
%TD*%
%TA.AperFunction,ComponentPad*%
%ADD11C,1.500000*%
%TD*%
%TA.AperFunction,ComponentPad*%
%ADD12C,1.524000*%
%TD*%
%TA.AperFunction,ComponentPad*%
%ADD13R,1.200000X1.200000*%
%TD*%
%TA.AperFunction,ComponentPad*%
%ADD14C,1.200000*%
%TD*%
%TA.AperFunction,ComponentPad*%
%ADD15R,1.700000X1.700000*%
%TD*%
%TA.AperFunction,ComponentPad*%
%ADD16O,1.700000X1.700000*%
%TD*%
%TA.AperFunction,ComponentPad*%
%ADD17R,2.250000X2.250000*%
%TD*%
%TA.AperFunction,ComponentPad*%
%ADD18C,2.250000*%
%TD*%
%TA.AperFunction,ComponentPad*%
%ADD19R,2.200000X2.200000*%
%TD*%
%TA.AperFunction,ComponentPad*%
%ADD20C,2.200000*%
%TD*%
%TA.AperFunction,ViaPad*%
%ADD21C,0.600000*%
%TD*%
G04 APERTURE END LIST*
D10*
%TO.N,GND*%
%TO.C,REF\u002A\u002A*%
X77000000Y-84000000D03*
%TD*%
%TO.N,GND*%
%TO.C,REF\u002A\u002A*%
X157000000Y-84000000D03*
%TD*%
%TO.N,GND*%
%TO.C,REF\u002A\u002A*%
X77000000Y-131000000D03*
%TD*%
%TO.N,GND*%
%TO.C,REF\u002A\u002A*%
X157000000Y-131000000D03*
%TD*%
D11*
%TO.N,Net-(U3-VRM)*%
%TO.C,TP2*%
X137668000Y-92710000D03*
%TD*%
%TO.N,+3.3V*%
%TO.C,TP4*%
X88900000Y-89154000D03*
%TD*%
%TO.N,Net-(U2-A4)*%
%TO.C,TP1*%
X148336000Y-128016000D03*
%TD*%
D12*
%TO.N,Net-(U2-L1)*%
%TO.C,U2*%
X148245000Y-108530000D03*
%TO.N,Net-(U2-M4)*%
X145705000Y-108530000D03*
%TO.N,Net-(U2-M3)*%
X143165000Y-108530000D03*
%TO.N,Net-(U2-N2)*%
X140625000Y-108530000D03*
%TO.N,Net-(U2-M2)*%
X138085000Y-108530000D03*
%TO.N,Net-(U2-P3)*%
X135545000Y-108530000D03*
%TO.N,Net-(U2-N3)*%
X133005000Y-108530000D03*
%TO.N,Net-(U2-P1)*%
X130465000Y-108530000D03*
%TO.N,Net-(U2-N1)*%
X127925000Y-108530000D03*
%TO.N,Net-(U2-P14)*%
X110145000Y-108530000D03*
%TO.N,Net-(U2-P15)*%
X107605000Y-108530000D03*
%TO.N,Net-(U2-N13)*%
X105065000Y-108530000D03*
%TO.N,Net-(U2-N15)*%
X102525000Y-108530000D03*
%TO.N,Net-(U2-N14)*%
X99985000Y-108530000D03*
%TO.N,Net-(U2-M15)*%
X97445000Y-108530000D03*
%TO.N,Net-(U2-M14)*%
X94905000Y-108530000D03*
%TO.N,Net-(U2-L15)*%
X92365000Y-108530000D03*
%TO.N,+5V*%
X89825000Y-108530000D03*
%TO.N,GND*%
X89825000Y-121230000D03*
%TO.N,Net-(U2-L14)*%
X92365000Y-121230000D03*
%TO.N,Net-(U2-K14)*%
X94905000Y-121230000D03*
%TO.N,Net-(U2-J15)*%
X97445000Y-121230000D03*
%TO.N,Net-(U2-L13)*%
X99985000Y-121230000D03*
%TO.N,Net-(U2-M13)*%
X102525000Y-121230000D03*
%TO.N,Net-(U2-J11)*%
X105065000Y-121230000D03*
%TO.N,Net-(U2-A32)*%
X107605000Y-121230000D03*
%TO.N,Net-(U2-A33)*%
X110145000Y-121230000D03*
%TO.N,Net-(U2-C5)*%
X127925000Y-121230000D03*
%TO.N,Net-(U2-A2)*%
X130465000Y-121230000D03*
%TO.N,Net-(U2-B2)*%
X133005000Y-121230000D03*
%TO.N,Net-(U2-B1)*%
X135545000Y-121230000D03*
%TO.N,Net-(U2-C1)*%
X138085000Y-121230000D03*
%TO.N,Net-(U2-B3)*%
X140625000Y-121230000D03*
%TO.N,Net-(U2-B4)*%
X143165000Y-121230000D03*
%TO.N,Net-(U2-A3)*%
X145705000Y-121230000D03*
%TO.N,Net-(U2-A4)*%
X148245000Y-121230000D03*
%TD*%
D13*
%TO.N,Net-(U3-VRP)*%
%TO.C,C8*%
X132588000Y-90975401D03*
D14*
%TO.N,Net-(U3-VRN)*%
X132588000Y-92975401D03*
%TD*%
D13*
%TO.N,+3.3V*%
%TO.C,C4*%
X113792000Y-84836000D03*
D14*
%TO.N,GND*%
X111792000Y-84836000D03*
%TD*%
D15*
%TO.N,Net-(U2-A33)*%
%TO.C,J5*%
X102870000Y-125984000D03*
D16*
%TO.N,Net-(U2-A32)*%
X100330000Y-125984000D03*
%TO.N,Net-(U2-J11)*%
X97790000Y-125984000D03*
%TO.N,Net-(U2-M13)*%
X95250000Y-125984000D03*
%TO.N,Net-(U2-L13)*%
X92710000Y-125984000D03*
%TO.N,Net-(U2-J15)*%
X90170000Y-125984000D03*
%TO.N,Net-(U2-K14)*%
X87630000Y-125984000D03*
%TO.N,Net-(U2-L14)*%
X85090000Y-125984000D03*
%TO.N,GND*%
X82550000Y-125984000D03*
%TD*%
D15*
%TO.N,Net-(U2-A3)*%
%TO.C,J3*%
X140716000Y-125984000D03*
D16*
%TO.N,Net-(U2-B4)*%
X138176000Y-125984000D03*
%TO.N,Net-(U2-B3)*%
X135636000Y-125984000D03*
%TO.N,Net-(U2-C1)*%
X133096000Y-125984000D03*
%TO.N,Net-(U2-B1)*%
X130556000Y-125984000D03*
%TO.N,Net-(U2-B2)*%
X128016000Y-125984000D03*
%TO.N,Net-(U2-A2)*%
X125476000Y-125984000D03*
%TO.N,Net-(U2-C5)*%
X122936000Y-125984000D03*
%TO.N,GND*%
X120396000Y-125984000D03*
%TD*%
D17*
%TO.N,Net-(J1-In)*%
%TO.C,J1*%
X149860000Y-85705500D03*
D18*
%TO.N,GND*%
X152400000Y-83165500D03*
X147320000Y-83165500D03*
X152400000Y-88245500D03*
X147320000Y-88245500D03*
%TD*%
D13*
%TO.N,Net-(U1--)*%
%TO.C,C19*%
X119844600Y-130302000D03*
D14*
%TO.N,Net-(J2-Pin_1)*%
X117844600Y-130302000D03*
%TD*%
D19*
%TO.N,Net-(J2-Pin_1)*%
%TO.C,J2*%
X109220000Y-128524000D03*
D20*
%TO.N,GND*%
X111760000Y-128524000D03*
%TD*%
D13*
%TO.N,+3.3V*%
%TO.C,C15*%
X90932000Y-96012000D03*
D14*
%TO.N,GND*%
X92932000Y-96012000D03*
%TD*%
D19*
%TO.N,GND*%
%TO.C,J4*%
X85598000Y-85344000D03*
D20*
%TO.N,+5V*%
X83058000Y-85344000D03*
%TD*%
D21*
%TO.N,GND*%
X142240000Y-89154000D03*
X99822000Y-105410000D03*
X96012000Y-105410000D03*
X141224000Y-83312000D03*
%TO.N,+3.3V*%
X120142000Y-96520000D03*
%TO.N,GND*%
X120396000Y-102870000D03*
X128524000Y-89408000D03*
X128524000Y-94742000D03*
X128524000Y-93218000D03*
%TO.N,+3.3V*%
X118364000Y-90932000D03*
X121920000Y-92456000D03*
%TO.N,GND*%
X128524000Y-91186000D03*
X124206000Y-84328000D03*
X124206000Y-86868000D03*
X116332000Y-91186000D03*
X115316000Y-87376000D03*
X122428000Y-93980000D03*
X118872000Y-96520000D03*
X116332000Y-92456000D03*
X119634000Y-90424000D03*
X117348000Y-90424000D03*
X116586000Y-90424000D03*
X136736000Y-83312000D03*
X130302000Y-129794000D03*
X123698000Y-132588000D03*
X138176000Y-129032000D03*
X92710000Y-104140000D03*
%TD*%
%TA.AperFunction,Conductor*%
%TO.N,GND*%
G36*
X76160967Y-131716602D02*
G01*
X76283398Y-131839033D01*
X76417262Y-131936290D01*
X75486564Y-132866987D01*
X75486565Y-132866989D01*
X75711461Y-133030385D01*
X75711479Y-133030396D01*
X75869625Y-133117338D01*
X75918889Y-133166884D01*
X75933546Y-133235199D01*
X75908943Y-133300594D01*
X75852890Y-133342305D01*
X75809888Y-133350000D01*
X75091500Y-133350000D01*
X75024461Y-133330315D01*
X74978706Y-133277511D01*
X74967500Y-133226000D01*
X74967500Y-132633205D01*
X74987185Y-132566166D01*
X75039989Y-132520411D01*
X75097343Y-132509343D01*
X75135312Y-132511133D01*
X76063708Y-131582736D01*
X76160967Y-131716602D01*
G37*
%TD.AperFunction*%
%TA.AperFunction,Conductor*%
G36*
X146511916Y-81546185D02*
G01*
X146557671Y-81598989D01*
X146567615Y-81668147D01*
X146538590Y-81731703D01*
X146509667Y-81756227D01*
X146361893Y-81846782D01*
X146358086Y-81850032D01*
X146995975Y-82487921D01*
X146964742Y-82500859D01*
X146841903Y-82582937D01*
X146737437Y-82687403D01*
X146655359Y-82810242D01*
X146642421Y-82841475D01*
X146004532Y-82203586D01*
X146001282Y-82207393D01*
X145867636Y-82425484D01*
X145867634Y-82425487D01*
X145769752Y-82661797D01*
X145710042Y-82910510D01*
X145689975Y-83165500D01*
X145710042Y-83420489D01*
X145769752Y-83669202D01*
X145867634Y-83905512D01*
X145867636Y-83905515D01*
X146001277Y-84123598D01*
X146001284Y-84123607D01*
X146004533Y-84127412D01*
X146642421Y-83489524D01*
X146655359Y-83520758D01*
X146737437Y-83643597D01*
X146841903Y-83748063D01*
X146964742Y-83830141D01*
X146995974Y-83843077D01*
X146358087Y-84480965D01*
X146361897Y-84484219D01*
X146579984Y-84617863D01*
X146579987Y-84617865D01*
X146816297Y-84715747D01*
X147065011Y-84775457D01*
X147065010Y-84775457D01*
X147320000Y-84795524D01*
X147574989Y-84775457D01*
X147823700Y-84715747D01*
X148063047Y-84616607D01*
X148132517Y-84609138D01*
X148194996Y-84640413D01*
X148230648Y-84700502D01*
X148234500Y-84731168D01*
X148234500Y-86679831D01*
X148214815Y-86746870D01*
X148162011Y-86792625D01*
X148092853Y-86802569D01*
X148063048Y-86794392D01*
X147823702Y-86695252D01*
X147574988Y-86635542D01*
X147574989Y-86635542D01*
X147320000Y-86615475D01*
X147065010Y-86635542D01*
X146816297Y-86695252D01*
X146579987Y-86793134D01*
X146579984Y-86793136D01*
X146361893Y-86926782D01*
X146358086Y-86930032D01*
X146995975Y-87567921D01*
X146964742Y-87580859D01*
X146841903Y-87662937D01*
X146737437Y-87767403D01*
X146655359Y-87890242D01*
X146642421Y-87921475D01*
X146004532Y-87283586D01*
X146001282Y-87287393D01*
X145867636Y-87505484D01*
X145867634Y-87505487D01*
X145769752Y-87741797D01*
X145710042Y-87990510D01*
X145689975Y-88245500D01*
X145710042Y-88500489D01*
X145769752Y-88749202D01*
X145867634Y-88985512D01*
X145867636Y-88985515D01*
X146001277Y-89203598D01*
X146001284Y-89203607D01*
X146004533Y-89207412D01*
X146642421Y-88569524D01*
X146655359Y-88600758D01*
X146737437Y-88723597D01*
X146841903Y-88828063D01*
X146964742Y-88910141D01*
X146995974Y-88923078D01*
X146358087Y-89560965D01*
X146361897Y-89564219D01*
X146579984Y-89697863D01*
X146579987Y-89697865D01*
X146816297Y-89795747D01*
X147065011Y-89855457D01*
X147065010Y-89855457D01*
X147320000Y-89875524D01*
X147574989Y-89855457D01*
X147823702Y-89795747D01*
X148060012Y-89697865D01*
X148060015Y-89697863D01*
X148278095Y-89564224D01*
X148278110Y-89564213D01*
X148281911Y-89560966D01*
X148281911Y-89560964D01*
X147644025Y-88923077D01*
X147675258Y-88910141D01*
X147798097Y-88828063D01*
X147902563Y-88723597D01*
X147984641Y-88600758D01*
X147997578Y-88569525D01*
X148635464Y-89207411D01*
X148635466Y-89207411D01*
X148638713Y-89203610D01*
X148638724Y-89203595D01*
X148772363Y-88985515D01*
X148772365Y-88985512D01*
X148870247Y-88749202D01*
X148929957Y-88500489D01*
X148950024Y-88245500D01*
X148929957Y-87990510D01*
X148870247Y-87741799D01*
X148771107Y-87502452D01*
X148763638Y-87432982D01*
X148794913Y-87370503D01*
X148855002Y-87334851D01*
X148885660Y-87330999D01*
X150834331Y-87330999D01*
X150901370Y-87350684D01*
X150947125Y-87403488D01*
X150957069Y-87472646D01*
X150948892Y-87502451D01*
X150849752Y-87741797D01*
X150790042Y-87990510D01*
X150769975Y-88245500D01*
X150790042Y-88500489D01*
X150849752Y-88749202D01*
X150947634Y-88985512D01*
X150947636Y-88985515D01*
X151081277Y-89203598D01*
X151081284Y-89203607D01*
X151084533Y-89207412D01*
X151722421Y-88569524D01*
X151735359Y-88600758D01*
X151817437Y-88723597D01*
X151921903Y-88828063D01*
X152044742Y-88910141D01*
X152075974Y-88923078D01*
X151438087Y-89560965D01*
X151441897Y-89564219D01*
X151659984Y-89697863D01*
X151659987Y-89697865D01*
X151896297Y-89795747D01*
X152145011Y-89855457D01*
X152145010Y-89855457D01*
X152400000Y-89875524D01*
X152654989Y-89855457D01*
X152903702Y-89795747D01*
X153140012Y-89697865D01*
X153140015Y-89697863D01*
X153358095Y-89564224D01*
X153358110Y-89564213D01*
X153361911Y-89560966D01*
X153361911Y-89560964D01*
X152724025Y-88923077D01*
X152755258Y-88910141D01*
X152878097Y-88828063D01*
X152982563Y-88723597D01*
X153064641Y-88600758D01*
X153077578Y-88569525D01*
X153715464Y-89207411D01*
X153715466Y-89207411D01*
X153718713Y-89203610D01*
X153718724Y-89203595D01*
X153852363Y-88985515D01*
X153852365Y-88985512D01*
X153950247Y-88749202D01*
X154009957Y-88500489D01*
X154030024Y-88245500D01*
X154009957Y-87990510D01*
X153950247Y-87741797D01*
X153852365Y-87505487D01*
X153852363Y-87505484D01*
X153718719Y-87287397D01*
X153715465Y-87283587D01*
X153077578Y-87921474D01*
X153064641Y-87890242D01*
X152982563Y-87767403D01*
X152878097Y-87662937D01*
X152755258Y-87580859D01*
X152724024Y-87567921D01*
X153361912Y-86930033D01*
X153358107Y-86926784D01*
X153358098Y-86926777D01*
X153140015Y-86793136D01*
X153140012Y-86793134D01*
X152903702Y-86695252D01*
X152654988Y-86635542D01*
X152654989Y-86635542D01*
X152400000Y-86615475D01*
X152145010Y-86635542D01*
X151896297Y-86695252D01*
X151656951Y-86794392D01*
X151587482Y-86801861D01*
X151525003Y-86770585D01*
X151489351Y-86710496D01*
X151485499Y-86679838D01*
X151485499Y-84731167D01*
X151505184Y-84664129D01*
X151557988Y-84618374D01*
X151627146Y-84608430D01*
X151656952Y-84616607D01*
X151896299Y-84715747D01*
X152145011Y-84775457D01*
X152145010Y-84775457D01*
X152400000Y-84795524D01*
X152654989Y-84775457D01*
X152903702Y-84715747D01*
X153140012Y-84617865D01*
X153140015Y-84617863D01*
X153358095Y-84484224D01*
X153358110Y-84484213D01*
X153361911Y-84480966D01*
X153361911Y-84480964D01*
X152724025Y-83843078D01*
X152755258Y-83830141D01*
X152878097Y-83748063D01*
X152982563Y-83643597D01*
X153064641Y-83520758D01*
X153077578Y-83489525D01*
X153715464Y-84127411D01*
X153715466Y-84127411D01*
X153718713Y-84123610D01*
X153718724Y-84123595D01*
X153852363Y-83905515D01*
X153852365Y-83905512D01*
X153950247Y-83669202D01*
X154009957Y-83420489D01*
X154030024Y-83165500D01*
X154009957Y-82910510D01*
X153950247Y-82661797D01*
X153852365Y-82425487D01*
X153852363Y-82425484D01*
X153718719Y-82207397D01*
X153715465Y-82203587D01*
X153077578Y-82841474D01*
X153064641Y-82810242D01*
X152982563Y-82687403D01*
X152878097Y-82582937D01*
X152755258Y-82500859D01*
X152724024Y-82487921D01*
X153361912Y-81850033D01*
X153358107Y-81846784D01*
X153358098Y-81846777D01*
X153210333Y-81756227D01*
X153163458Y-81704416D01*
X153152035Y-81635486D01*
X153179692Y-81571323D01*
X153237648Y-81532298D01*
X153275123Y-81526500D01*
X156077785Y-81526500D01*
X156144824Y-81546185D01*
X156190579Y-81598989D01*
X156200523Y-81668147D01*
X156171498Y-81731703D01*
X156123432Y-81765792D01*
X155976117Y-81824117D01*
X155976109Y-81824121D01*
X155711476Y-81969604D01*
X155711471Y-81969607D01*
X155486565Y-82133010D01*
X155486564Y-82133011D01*
X156417262Y-83063709D01*
X156283398Y-83160967D01*
X156160967Y-83283398D01*
X156063709Y-83417262D01*
X155135311Y-82488864D01*
X155054520Y-82586525D01*
X155054518Y-82586528D01*
X154892707Y-82841502D01*
X154892704Y-82841508D01*
X154764127Y-83114747D01*
X154764125Y-83114752D01*
X154670805Y-83401959D01*
X154614216Y-83698609D01*
X154614215Y-83698616D01*
X154595255Y-83999994D01*
X154595255Y-84000005D01*
X154614215Y-84301383D01*
X154614216Y-84301390D01*
X154670805Y-84598040D01*
X154764125Y-84885247D01*
X154764127Y-84885252D01*
X154892704Y-85158491D01*
X154892707Y-85158497D01*
X155054516Y-85413469D01*
X155135311Y-85511133D01*
X156063708Y-84582736D01*
X156160967Y-84716602D01*
X156283398Y-84839033D01*
X156417262Y-84936290D01*
X155486564Y-85866987D01*
X155486565Y-85866989D01*
X155711461Y-86030385D01*
X155711479Y-86030397D01*
X155976109Y-86175878D01*
X155976117Y-86175882D01*
X156256889Y-86287047D01*
X156256892Y-86287048D01*
X156549399Y-86362150D01*
X156848995Y-86399999D01*
X156849007Y-86400000D01*
X157150993Y-86400000D01*
X157151004Y-86399999D01*
X157450600Y-86362150D01*
X157743107Y-86287048D01*
X157743110Y-86287047D01*
X158023882Y-86175882D01*
X158023890Y-86175878D01*
X158288520Y-86030397D01*
X158288530Y-86030390D01*
X158513433Y-85866987D01*
X158513434Y-85866987D01*
X157582737Y-84936290D01*
X157716602Y-84839033D01*
X157839033Y-84716602D01*
X157936290Y-84582737D01*
X158864687Y-85511134D01*
X158945486Y-85413464D01*
X159107292Y-85158497D01*
X159107295Y-85158491D01*
X159235872Y-84885252D01*
X159235874Y-84885247D01*
X159329194Y-84598040D01*
X159385783Y-84301390D01*
X159385784Y-84301383D01*
X159404745Y-84000005D01*
X159404745Y-83999994D01*
X159385784Y-83698616D01*
X159385783Y-83698609D01*
X159329194Y-83401959D01*
X159235874Y-83114752D01*
X159235872Y-83114747D01*
X159107295Y-82841508D01*
X159107292Y-82841502D01*
X158945483Y-82586530D01*
X158864686Y-82488864D01*
X157936289Y-83417261D01*
X157839033Y-83283398D01*
X157716602Y-83160967D01*
X157582736Y-83063709D01*
X158513434Y-82133011D01*
X158513433Y-82133009D01*
X158288538Y-81969614D01*
X158288520Y-81969602D01*
X158023890Y-81824121D01*
X158023882Y-81824117D01*
X157876568Y-81765792D01*
X157821482Y-81722811D01*
X157798379Y-81656872D01*
X157814592Y-81588909D01*
X157864976Y-81540502D01*
X157922215Y-81526500D01*
X159896000Y-81526500D01*
X159963039Y-81546185D01*
X160008794Y-81598989D01*
X160020000Y-81650500D01*
X160020000Y-133226000D01*
X160000315Y-133293039D01*
X159947511Y-133338794D01*
X159896000Y-133350000D01*
X158190112Y-133350000D01*
X158123073Y-133330315D01*
X158077318Y-133277511D01*
X158067374Y-133208353D01*
X158096399Y-133144797D01*
X158130375Y-133117338D01*
X158288520Y-133030396D01*
X158288530Y-133030390D01*
X158513433Y-132866987D01*
X158513434Y-132866987D01*
X157582737Y-131936290D01*
X157716602Y-131839033D01*
X157839033Y-131716602D01*
X157936290Y-131582737D01*
X158864687Y-132511134D01*
X158945486Y-132413464D01*
X159107292Y-132158497D01*
X159107295Y-132158491D01*
X159235872Y-131885252D01*
X159235874Y-131885247D01*
X159329194Y-131598040D01*
X159385783Y-131301390D01*
X159385784Y-131301383D01*
X159404745Y-131000005D01*
X159404745Y-130999994D01*
X159385784Y-130698616D01*
X159385783Y-130698609D01*
X159329194Y-130401959D01*
X159235874Y-130114752D01*
X159235872Y-130114747D01*
X159107295Y-129841508D01*
X159107292Y-129841502D01*
X158945483Y-129586530D01*
X158864686Y-129488864D01*
X157936289Y-130417261D01*
X157839033Y-130283398D01*
X157716602Y-130160967D01*
X157582736Y-130063709D01*
X158513434Y-129133011D01*
X158513433Y-129133009D01*
X158288538Y-128969614D01*
X158288520Y-128969602D01*
X158023890Y-128824121D01*
X158023882Y-128824117D01*
X157743110Y-128712952D01*
X157743107Y-128712951D01*
X157450600Y-128637849D01*
X157151004Y-128600000D01*
X156848995Y-128600000D01*
X156549399Y-128637849D01*
X156256892Y-128712951D01*
X156256889Y-128712952D01*
X155976117Y-128824117D01*
X155976109Y-128824121D01*
X155711476Y-128969604D01*
X155711471Y-128969607D01*
X155486565Y-129133010D01*
X155486564Y-129133011D01*
X156417262Y-130063709D01*
X156283398Y-130160967D01*
X156160967Y-130283398D01*
X156063709Y-130417262D01*
X155135311Y-129488864D01*
X155054520Y-129586525D01*
X155054518Y-129586528D01*
X154892707Y-129841502D01*
X154892704Y-129841508D01*
X154764127Y-130114747D01*
X154764125Y-130114752D01*
X154670805Y-130401959D01*
X154614216Y-130698609D01*
X154614215Y-130698616D01*
X154595255Y-130999994D01*
X154595255Y-131000005D01*
X154614215Y-131301383D01*
X154614216Y-131301390D01*
X154670805Y-131598040D01*
X154764125Y-131885247D01*
X154764127Y-131885252D01*
X154892704Y-132158491D01*
X154892707Y-132158497D01*
X155054516Y-132413469D01*
X155135311Y-132511133D01*
X156063708Y-131582736D01*
X156160967Y-131716602D01*
X156283398Y-131839033D01*
X156417262Y-131936290D01*
X155486564Y-132866987D01*
X155486565Y-132866989D01*
X155711461Y-133030385D01*
X155711479Y-133030396D01*
X155869625Y-133117338D01*
X155918889Y-133166884D01*
X155933546Y-133235199D01*
X155908943Y-133300594D01*
X155852890Y-133342305D01*
X155809888Y-133350000D01*
X78190112Y-133350000D01*
X78123073Y-133330315D01*
X78077318Y-133277511D01*
X78067374Y-133208353D01*
X78096399Y-133144797D01*
X78130375Y-133117338D01*
X78288520Y-133030396D01*
X78288530Y-133030390D01*
X78513433Y-132866987D01*
X78513434Y-132866987D01*
X77582737Y-131936290D01*
X77716602Y-131839033D01*
X77839033Y-131716602D01*
X77936290Y-131582737D01*
X78864687Y-132511134D01*
X78945486Y-132413464D01*
X79107292Y-132158497D01*
X79107295Y-132158491D01*
X79235872Y-131885252D01*
X79235874Y-131885247D01*
X79329194Y-131598040D01*
X79385783Y-131301390D01*
X79385784Y-131301383D01*
X79404745Y-131000005D01*
X79404745Y-130999994D01*
X79385784Y-130698616D01*
X79385783Y-130698609D01*
X79329194Y-130401959D01*
X79235874Y-130114752D01*
X79235872Y-130114747D01*
X79107295Y-129841508D01*
X79107292Y-129841502D01*
X78999641Y-129671870D01*
X107619500Y-129671870D01*
X107619501Y-129671876D01*
X107625908Y-129731483D01*
X107676202Y-129866328D01*
X107676206Y-129866335D01*
X107762452Y-129981544D01*
X107762455Y-129981547D01*
X107877664Y-130067793D01*
X107877671Y-130067797D01*
X108012517Y-130118091D01*
X108012516Y-130118091D01*
X108019444Y-130118835D01*
X108072127Y-130124500D01*
X108776427Y-130124499D01*
X108843464Y-130144183D01*
X108889219Y-130196987D01*
X108899163Y-130266146D01*
X108870138Y-130329702D01*
X108845316Y-130351601D01*
X108709711Y-130442210D01*
X108709707Y-130442213D01*
X108598213Y-130553707D01*
X108598210Y-130553711D01*
X108510609Y-130684814D01*
X108510602Y-130684827D01*
X108450264Y-130830498D01*
X108450261Y-130830510D01*
X108419500Y-130985153D01*
X108419500Y-131142846D01*
X108450261Y-131297489D01*
X108450264Y-131297501D01*
X108510602Y-131443172D01*
X108510609Y-131443185D01*
X108598210Y-131574288D01*
X108598213Y-131574292D01*
X108709707Y-131685786D01*
X108709711Y-131685789D01*
X108840814Y-131773390D01*
X108840827Y-131773397D01*
X108986498Y-131833735D01*
X108986503Y-131833737D01*
X109141153Y-131864499D01*
X109141156Y-131864500D01*
X109141158Y-131864500D01*
X109298844Y-131864500D01*
X109298845Y-131864499D01*
X109453497Y-131833737D01*
X109599179Y-131773394D01*
X109730289Y-131685789D01*
X109841789Y-131574289D01*
X109929394Y-131443179D01*
X109989737Y-131297497D01*
X110020500Y-131142842D01*
X110020500Y-130985158D01*
X110020500Y-130985155D01*
X110020499Y-130985153D01*
X110013481Y-130949872D01*
X109989737Y-130830503D01*
X109989735Y-130830498D01*
X109929397Y-130684827D01*
X109929390Y-130684814D01*
X109841789Y-130553711D01*
X109841786Y-130553707D01*
X109730292Y-130442213D01*
X109730288Y-130442210D01*
X109594683Y-130351601D01*
X109549878Y-130297989D01*
X109541171Y-130228664D01*
X109571326Y-130165636D01*
X109630769Y-130128917D01*
X109663571Y-130124499D01*
X110367872Y-130124499D01*
X110427483Y-130118091D01*
X110562331Y-130067796D01*
X110677546Y-129981546D01*
X110735229Y-129904491D01*
X110791161Y-129862622D01*
X110860853Y-129857638D01*
X110899284Y-129873077D01*
X111031368Y-129954019D01*
X111264044Y-130050396D01*
X111431828Y-130090677D01*
X111492421Y-130125467D01*
X111524585Y-130187493D01*
X111518109Y-130257062D01*
X111475050Y-130312087D01*
X111450335Y-130325812D01*
X111380824Y-130354604D01*
X111380814Y-130354609D01*
X111249711Y-130442210D01*
X111249707Y-130442213D01*
X111138213Y-130553707D01*
X111138210Y-130553711D01*
X111050609Y-130684814D01*
X111050602Y-130684827D01*
X110990264Y-130830498D01*
X110990261Y-130830510D01*
X110959500Y-130985153D01*
X110959500Y-131142846D01*
X110990261Y-131297489D01*
X110990264Y-131297501D01*
X111050602Y-131443172D01*
X111050609Y-131443185D01*
X111138210Y-131574288D01*
X111138213Y-131574292D01*
X111249707Y-131685786D01*
X111249711Y-131685789D01*
X111380814Y-131773390D01*
X111380827Y-131773397D01*
X111526498Y-131833735D01*
X111526503Y-131833737D01*
X111681153Y-131864499D01*
X111681156Y-131864500D01*
X111681158Y-131864500D01*
X111838844Y-131864500D01*
X111838845Y-131864499D01*
X111993497Y-131833737D01*
X112139179Y-131773394D01*
X112270289Y-131685789D01*
X112381789Y-131574289D01*
X112469394Y-131443179D01*
X112529737Y-131297497D01*
X112560500Y-131142842D01*
X112560500Y-130985158D01*
X112560500Y-130985155D01*
X112560499Y-130985153D01*
X112553481Y-130949872D01*
X112529737Y-130830503D01*
X112529735Y-130830498D01*
X112469397Y-130684827D01*
X112469390Y-130684814D01*
X112381789Y-130553711D01*
X112381786Y-130553707D01*
X112270292Y-130442213D01*
X112270288Y-130442210D01*
X112139185Y-130354609D01*
X112139172Y-130354602D01*
X112069665Y-130325812D01*
X112040116Y-130302000D01*
X116739385Y-130302000D01*
X116758202Y-130505082D01*
X116814017Y-130701247D01*
X116814022Y-130701260D01*
X116904927Y-130883821D01*
X117027837Y-131046581D01*
X117178558Y-131183980D01*
X117178560Y-131183982D01*
X117178562Y-131183983D01*
X117351963Y-131291348D01*
X117542144Y-131365024D01*
X117742624Y-131402500D01*
X117742626Y-131402500D01*
X117946574Y-131402500D01*
X117946576Y-131402500D01*
X118147056Y-131365024D01*
X118337237Y-131291348D01*
X118510641Y-131183981D01*
X118602617Y-131100133D01*
X118665418Y-131069518D01*
X118734805Y-131077715D01*
X118788746Y-131122125D01*
X118796273Y-131136698D01*
X118796553Y-131136546D01*
X118800806Y-131144335D01*
X118887052Y-131259544D01*
X118887055Y-131259547D01*
X119002264Y-131345793D01*
X119002271Y-131345797D01*
X119137117Y-131396091D01*
X119137116Y-131396091D01*
X119144044Y-131396835D01*
X119196727Y-131402500D01*
X120492472Y-131402499D01*
X120552083Y-131396091D01*
X120686931Y-131345796D01*
X120802146Y-131259546D01*
X120888396Y-131144331D01*
X120938691Y-131009483D01*
X120945100Y-130949873D01*
X120945099Y-129654128D01*
X120938691Y-129594517D01*
X120935711Y-129586528D01*
X120888397Y-129459671D01*
X120888393Y-129459664D01*
X120802147Y-129344455D01*
X120802144Y-129344452D01*
X120686935Y-129258206D01*
X120686928Y-129258202D01*
X120552082Y-129207908D01*
X120552083Y-129207908D01*
X120492483Y-129201501D01*
X120492481Y-129201500D01*
X120492473Y-129201500D01*
X120492464Y-129201500D01*
X119196729Y-129201500D01*
X119196723Y-129201501D01*
X119137116Y-129207908D01*
X119002271Y-129258202D01*
X119002264Y-129258206D01*
X118887055Y-129344452D01*
X118887052Y-129344455D01*
X118800806Y-129459664D01*
X118796553Y-129467454D01*
X118794341Y-129466246D01*
X118760440Y-129511511D01*
X118694970Y-129535913D01*
X118626701Y-129521045D01*
X118602615Y-129503864D01*
X118510641Y-129420019D01*
X118510639Y-129420017D01*
X118337242Y-129312655D01*
X118337235Y-129312651D01*
X118230435Y-129271277D01*
X118147056Y-129238976D01*
X117946576Y-129201500D01*
X117742624Y-129201500D01*
X117542144Y-129238976D01*
X117542141Y-129238976D01*
X117542141Y-129238977D01*
X117351964Y-129312651D01*
X117351957Y-129312655D01*
X117178560Y-129420017D01*
X117178558Y-129420019D01*
X117027837Y-129557418D01*
X116904927Y-129720178D01*
X116814022Y-129902739D01*
X116814017Y-129902752D01*
X116758202Y-130098917D01*
X116739385Y-130301999D01*
X116739385Y-130302000D01*
X112040116Y-130302000D01*
X112015261Y-130281971D01*
X111993196Y-130215677D01*
X112010475Y-130147978D01*
X112061612Y-130100367D01*
X112088171Y-130090677D01*
X112255955Y-130050396D01*
X112488631Y-129954019D01*
X112703361Y-129822432D01*
X112703363Y-129822430D01*
X112704180Y-129821732D01*
X111930235Y-129047787D01*
X111972292Y-129036518D01*
X112097708Y-128964110D01*
X112200110Y-128861708D01*
X112272518Y-128736292D01*
X112283787Y-128694234D01*
X113057732Y-129468180D01*
X113058430Y-129467363D01*
X113058432Y-129467361D01*
X113190019Y-129252631D01*
X113286396Y-129019956D01*
X113345187Y-128775072D01*
X113364947Y-128524000D01*
X113345187Y-128272927D01*
X113286396Y-128028043D01*
X113281408Y-128016002D01*
X147080723Y-128016002D01*
X147099793Y-128233975D01*
X147099793Y-128233979D01*
X147156422Y-128445322D01*
X147156424Y-128445326D01*
X147156425Y-128445330D01*
X147202661Y-128544484D01*
X147248897Y-128643638D01*
X147248898Y-128643639D01*
X147374402Y-128822877D01*
X147529123Y-128977598D01*
X147708361Y-129103102D01*
X147906670Y-129195575D01*
X148118023Y-129252207D01*
X148300926Y-129268208D01*
X148335998Y-129271277D01*
X148336000Y-129271277D01*
X148336002Y-129271277D01*
X148364254Y-129268805D01*
X148553977Y-129252207D01*
X148765330Y-129195575D01*
X148963639Y-129103102D01*
X149142877Y-128977598D01*
X149297598Y-128822877D01*
X149423102Y-128643639D01*
X149515575Y-128445330D01*
X149572207Y-128233977D01*
X149588805Y-128044254D01*
X149591277Y-128016002D01*
X149591277Y-128015997D01*
X149587569Y-127973618D01*
X149572207Y-127798023D01*
X149515575Y-127586670D01*
X149423102Y-127388362D01*
X149423100Y-127388359D01*
X149423099Y-127388357D01*
X149297599Y-127209124D01*
X149231981Y-127143506D01*
X149142877Y-127054402D01*
X149004978Y-126957844D01*
X148963638Y-126928897D01*
X148862774Y-126881864D01*
X148765330Y-126836425D01*
X148765326Y-126836424D01*
X148765322Y-126836422D01*
X148553977Y-126779793D01*
X148336002Y-126760723D01*
X148335998Y-126760723D01*
X148190682Y-126773436D01*
X148118023Y-126779793D01*
X148118020Y-126779793D01*
X147906677Y-126836422D01*
X147906668Y-126836426D01*
X147708361Y-126928898D01*
X147708357Y-126928900D01*
X147529121Y-127054402D01*
X147374402Y-127209121D01*
X147248900Y-127388357D01*
X147248898Y-127388361D01*
X147156426Y-127586668D01*
X147156422Y-127586677D01*
X147099793Y-127798020D01*
X147099793Y-127798024D01*
X147080723Y-128015997D01*
X147080723Y-128016002D01*
X113281408Y-128016002D01*
X113190019Y-127795368D01*
X113058429Y-127580634D01*
X113057733Y-127579819D01*
X113057732Y-127579819D01*
X112283787Y-128353764D01*
X112272518Y-128311708D01*
X112200110Y-128186292D01*
X112097708Y-128083890D01*
X111972292Y-128011482D01*
X111930234Y-128000212D01*
X112704179Y-127226266D01*
X112703362Y-127225568D01*
X112488631Y-127093980D01*
X112255956Y-126997603D01*
X112011072Y-126938812D01*
X111760000Y-126919052D01*
X111508927Y-126938812D01*
X111264043Y-126997603D01*
X111031373Y-127093978D01*
X110899284Y-127174923D01*
X110831838Y-127193167D01*
X110765235Y-127172051D01*
X110735228Y-127143506D01*
X110677547Y-127066455D01*
X110677544Y-127066452D01*
X110562335Y-126980206D01*
X110562328Y-126980202D01*
X110427482Y-126929908D01*
X110427483Y-126929908D01*
X110367883Y-126923501D01*
X110367881Y-126923500D01*
X110367873Y-126923500D01*
X110367864Y-126923500D01*
X108072129Y-126923500D01*
X108072123Y-126923501D01*
X108012516Y-126929908D01*
X107877671Y-126980202D01*
X107877664Y-126980206D01*
X107762455Y-127066452D01*
X107762452Y-127066455D01*
X107676206Y-127181664D01*
X107676202Y-127181671D01*
X107625908Y-127316517D01*
X107619501Y-127376116D01*
X107619500Y-127376135D01*
X107619500Y-129671870D01*
X78999641Y-129671870D01*
X78945483Y-129586530D01*
X78864686Y-129488864D01*
X77936289Y-130417261D01*
X77839033Y-130283398D01*
X77716602Y-130160967D01*
X77582736Y-130063709D01*
X78513434Y-129133011D01*
X78513433Y-129133009D01*
X78288538Y-128969614D01*
X78288520Y-128969602D01*
X78023890Y-128824121D01*
X78023882Y-128824117D01*
X77743110Y-128712952D01*
X77743107Y-128712951D01*
X77450600Y-128637849D01*
X77151004Y-128600000D01*
X76848995Y-128600000D01*
X76549399Y-128637849D01*
X76256892Y-128712951D01*
X76256889Y-128712952D01*
X75976117Y-128824117D01*
X75976109Y-128824121D01*
X75711476Y-128969604D01*
X75711471Y-128969607D01*
X75486565Y-129133010D01*
X75486564Y-129133011D01*
X76417262Y-130063709D01*
X76283398Y-130160967D01*
X76160967Y-130283398D01*
X76063709Y-130417262D01*
X75135311Y-129488864D01*
X75097341Y-129490655D01*
X75029449Y-129474151D01*
X74981257Y-129423561D01*
X74967500Y-129366793D01*
X74967500Y-126234000D01*
X81219364Y-126234000D01*
X81276567Y-126447486D01*
X81276570Y-126447492D01*
X81376399Y-126661578D01*
X81511894Y-126855082D01*
X81678917Y-127022105D01*
X81872421Y-127157600D01*
X82086507Y-127257429D01*
X82086516Y-127257433D01*
X82300000Y-127314634D01*
X82300000Y-126417012D01*
X82357007Y-126449925D01*
X82484174Y-126484000D01*
X82615826Y-126484000D01*
X82742993Y-126449925D01*
X82800000Y-126417012D01*
X82800000Y-127314633D01*
X83013483Y-127257433D01*
X83013492Y-127257429D01*
X83227578Y-127157600D01*
X83421082Y-127022105D01*
X83588105Y-126855082D01*
X83718119Y-126669405D01*
X83772696Y-126625781D01*
X83842195Y-126618588D01*
X83904549Y-126650110D01*
X83921269Y-126669405D01*
X84051505Y-126855401D01*
X84218599Y-127022495D01*
X84315384Y-127090265D01*
X84412165Y-127158032D01*
X84412167Y-127158033D01*
X84412170Y-127158035D01*
X84626337Y-127257903D01*
X84854592Y-127319063D01*
X85031034Y-127334500D01*
X85089999Y-127339659D01*
X85090000Y-127339659D01*
X85090001Y-127339659D01*
X85148966Y-127334500D01*
X85325408Y-127319063D01*
X85553663Y-127257903D01*
X85767830Y-127158035D01*
X85961401Y-127022495D01*
X86128495Y-126855401D01*
X86258425Y-126669842D01*
X86313002Y-126626217D01*
X86382500Y-126619023D01*
X86444855Y-126650546D01*
X86461575Y-126669842D01*
X86591281Y-126855082D01*
X86591505Y-126855401D01*
X86758599Y-127022495D01*
X86855384Y-127090265D01*
X86952165Y-127158032D01*
X86952167Y-127158033D01*
X86952170Y-127158035D01*
X87166337Y-127257903D01*
X87394592Y-127319063D01*
X87571034Y-127334500D01*
X87629999Y-127339659D01*
X87630000Y-127339659D01*
X87630001Y-127339659D01*
X87688966Y-127334500D01*
X87865408Y-127319063D01*
X88093663Y-127257903D01*
X88307830Y-127158035D01*
X88501401Y-127022495D01*
X88668495Y-126855401D01*
X88798425Y-126669842D01*
X88853002Y-126626217D01*
X88922500Y-126619023D01*
X88984855Y-126650546D01*
X89001575Y-126669842D01*
X89131281Y-126855082D01*
X89131505Y-126855401D01*
X89298599Y-127022495D01*
X89395384Y-127090265D01*
X89492165Y-127158032D01*
X89492167Y-127158033D01*
X89492170Y-127158035D01*
X89706337Y-127257903D01*
X89934592Y-127319063D01*
X90111034Y-127334500D01*
X90169999Y-127339659D01*
X90170000Y-127339659D01*
X90170001Y-127339659D01*
X90228966Y-127334500D01*
X90405408Y-127319063D01*
X90633663Y-127257903D01*
X90847830Y-127158035D01*
X91041401Y-127022495D01*
X91208495Y-126855401D01*
X91338425Y-126669842D01*
X91393002Y-126626217D01*
X91462500Y-126619023D01*
X91524855Y-126650546D01*
X91541575Y-126669842D01*
X91671281Y-126855082D01*
X91671505Y-126855401D01*
X91838599Y-127022495D01*
X91935384Y-127090265D01*
X92032165Y-127158032D01*
X92032167Y-127158033D01*
X92032170Y-127158035D01*
X92246337Y-127257903D01*
X92474592Y-127319063D01*
X92651034Y-127334500D01*
X92709999Y-127339659D01*
X92710000Y-127339659D01*
X92710001Y-127339659D01*
X92768966Y-127334500D01*
X92945408Y-127319063D01*
X93173663Y-127257903D01*
X93387830Y-127158035D01*
X93581401Y-127022495D01*
X93748495Y-126855401D01*
X93878425Y-126669842D01*
X93933002Y-126626217D01*
X94002500Y-126619023D01*
X94064855Y-126650546D01*
X94081575Y-126669842D01*
X94211281Y-126855082D01*
X94211505Y-126855401D01*
X94378599Y-127022495D01*
X94475384Y-127090265D01*
X94572165Y-127158032D01*
X94572167Y-127158033D01*
X94572170Y-127158035D01*
X94786337Y-127257903D01*
X95014592Y-127319063D01*
X95191034Y-127334500D01*
X95249999Y-127339659D01*
X95250000Y-127339659D01*
X95250001Y-127339659D01*
X95308966Y-127334500D01*
X95485408Y-127319063D01*
X95713663Y-127257903D01*
X95927830Y-127158035D01*
X96121401Y-127022495D01*
X96288495Y-126855401D01*
X96418425Y-126669842D01*
X96473002Y-126626217D01*
X96542500Y-126619023D01*
X96604855Y-126650546D01*
X96621575Y-126669842D01*
X96751281Y-126855082D01*
X96751505Y-126855401D01*
X96918599Y-127022495D01*
X97015384Y-127090265D01*
X97112165Y-127158032D01*
X97112167Y-127158033D01*
X97112170Y-127158035D01*
X97326337Y-127257903D01*
X97554592Y-127319063D01*
X97731034Y-127334500D01*
X97789999Y-127339659D01*
X97790000Y-127339659D01*
X97790001Y-127339659D01*
X97848966Y-127334500D01*
X98025408Y-127319063D01*
X98253663Y-127257903D01*
X98467830Y-127158035D01*
X98661401Y-127022495D01*
X98828495Y-126855401D01*
X98958425Y-126669842D01*
X99013002Y-126626217D01*
X99082500Y-126619023D01*
X99144855Y-126650546D01*
X99161575Y-126669842D01*
X99291281Y-126855082D01*
X99291505Y-126855401D01*
X99458599Y-127022495D01*
X99555384Y-127090265D01*
X99652165Y-127158032D01*
X99652167Y-127158033D01*
X99652170Y-127158035D01*
X99866337Y-127257903D01*
X100094592Y-127319063D01*
X100271034Y-127334500D01*
X100329999Y-127339659D01*
X100330000Y-127339659D01*
X100330001Y-127339659D01*
X100388966Y-127334500D01*
X100565408Y-127319063D01*
X100793663Y-127257903D01*
X101007830Y-127158035D01*
X101201401Y-127022495D01*
X101323329Y-126900566D01*
X101384648Y-126867084D01*
X101454340Y-126872068D01*
X101510274Y-126913939D01*
X101527189Y-126944917D01*
X101576202Y-127076328D01*
X101576206Y-127076335D01*
X101662452Y-127191544D01*
X101662455Y-127191547D01*
X101777664Y-127277793D01*
X101777671Y-127277797D01*
X101912517Y-127328091D01*
X101912516Y-127328091D01*
X101919444Y-127328835D01*
X101972127Y-127334500D01*
X103767872Y-127334499D01*
X103827483Y-127328091D01*
X103962331Y-127277796D01*
X104077546Y-127191546D01*
X104163796Y-127076331D01*
X104214091Y-126941483D01*
X104220500Y-126881873D01*
X104220500Y-126234000D01*
X119065364Y-126234000D01*
X119122567Y-126447486D01*
X119122570Y-126447492D01*
X119222399Y-126661578D01*
X119357894Y-126855082D01*
X119524917Y-127022105D01*
X119718421Y-127157600D01*
X119932507Y-127257429D01*
X119932516Y-127257433D01*
X120146000Y-127314634D01*
X120146000Y-126417012D01*
X120203007Y-126449925D01*
X120330174Y-126484000D01*
X120461826Y-126484000D01*
X120588993Y-126449925D01*
X120646000Y-126417012D01*
X120646000Y-127314634D01*
X120859483Y-127257433D01*
X120859492Y-127257429D01*
X121073578Y-127157600D01*
X121267082Y-127022105D01*
X121434105Y-126855082D01*
X121564119Y-126669405D01*
X121618696Y-126625781D01*
X121688195Y-126618588D01*
X121750549Y-126650110D01*
X121767269Y-126669405D01*
X121897505Y-126855401D01*
X122064599Y-127022495D01*
X122161384Y-127090265D01*
X122258165Y-127158032D01*
X122258167Y-127158033D01*
X122258170Y-127158035D01*
X122472337Y-127257903D01*
X122700592Y-127319063D01*
X122877034Y-127334500D01*
X122935999Y-127339659D01*
X122936000Y-127339659D01*
X122936001Y-127339659D01*
X122994966Y-127334500D01*
X123171408Y-127319063D01*
X123399663Y-127257903D01*
X123613830Y-127158035D01*
X123807401Y-127022495D01*
X123974495Y-126855401D01*
X124104425Y-126669842D01*
X124159002Y-126626217D01*
X124228500Y-126619023D01*
X124290855Y-126650546D01*
X124307575Y-126669842D01*
X124437281Y-126855082D01*
X124437505Y-126855401D01*
X124604599Y-127022495D01*
X124701384Y-127090265D01*
X124798165Y-127158032D01*
X124798167Y-127158033D01*
X124798170Y-127158035D01*
X125012337Y-127257903D01*
X125240592Y-127319063D01*
X125417034Y-127334500D01*
X125475999Y-127339659D01*
X125476000Y-127339659D01*
X125476001Y-127339659D01*
X125534966Y-127334500D01*
X125711408Y-127319063D01*
X125939663Y-127257903D01*
X126153830Y-127158035D01*
X126347401Y-127022495D01*
X126514495Y-126855401D01*
X126644425Y-126669842D01*
X126699002Y-126626217D01*
X126768500Y-126619023D01*
X126830855Y-126650546D01*
X126847575Y-126669842D01*
X126977281Y-126855082D01*
X126977505Y-126855401D01*
X127144599Y-127022495D01*
X127241384Y-127090265D01*
X127338165Y-127158032D01*
X127338167Y-127158033D01*
X127338170Y-127158035D01*
X127552337Y-127257903D01*
X127780592Y-127319063D01*
X127957034Y-127334500D01*
X128015999Y-127339659D01*
X128016000Y-127339659D01*
X128016001Y-127339659D01*
X128074966Y-127334500D01*
X128251408Y-127319063D01*
X128479663Y-127257903D01*
X128693830Y-127158035D01*
X128887401Y-127022495D01*
X129054495Y-126855401D01*
X129184425Y-126669842D01*
X129239002Y-126626217D01*
X129308500Y-126619023D01*
X129370855Y-126650546D01*
X129387575Y-126669842D01*
X129517281Y-126855082D01*
X129517505Y-126855401D01*
X129684599Y-127022495D01*
X129781384Y-127090265D01*
X129878165Y-127158032D01*
X129878167Y-127158033D01*
X129878170Y-127158035D01*
X130092337Y-127257903D01*
X130320592Y-127319063D01*
X130497034Y-127334500D01*
X130555999Y-127339659D01*
X130556000Y-127339659D01*
X130556001Y-127339659D01*
X130614966Y-127334500D01*
X130791408Y-127319063D01*
X131019663Y-127257903D01*
X131233830Y-127158035D01*
X131427401Y-127022495D01*
X131594495Y-126855401D01*
X131724425Y-126669842D01*
X131779002Y-126626217D01*
X131848500Y-126619023D01*
X131910855Y-126650546D01*
X131927575Y-126669842D01*
X132057281Y-126855082D01*
X132057505Y-126855401D01*
X132224599Y-127022495D01*
X132321384Y-127090265D01*
X132418165Y-127158032D01*
X132418167Y-127158033D01*
X132418170Y-127158035D01*
X132632337Y-127257903D01*
X132860592Y-127319063D01*
X133037034Y-127334500D01*
X133095999Y-127339659D01*
X133096000Y-127339659D01*
X133096001Y-127339659D01*
X133154966Y-127334500D01*
X133331408Y-127319063D01*
X133559663Y-127257903D01*
X133773830Y-127158035D01*
X133967401Y-127022495D01*
X134134495Y-126855401D01*
X134264425Y-126669842D01*
X134319002Y-126626217D01*
X134388500Y-126619023D01*
X134450855Y-126650546D01*
X134467575Y-126669842D01*
X134597281Y-126855082D01*
X134597505Y-126855401D01*
X134764599Y-127022495D01*
X134861384Y-127090265D01*
X134958165Y-127158032D01*
X134958167Y-127158033D01*
X134958170Y-127158035D01*
X135172337Y-127257903D01*
X135400592Y-127319063D01*
X135577034Y-127334500D01*
X135635999Y-127339659D01*
X135636000Y-127339659D01*
X135636001Y-127339659D01*
X135694966Y-127334500D01*
X135871408Y-127319063D01*
X136099663Y-127257903D01*
X136313830Y-127158035D01*
X136507401Y-127022495D01*
X136674495Y-126855401D01*
X136804425Y-126669842D01*
X136859002Y-126626217D01*
X136928500Y-126619023D01*
X136990855Y-126650546D01*
X137007575Y-126669842D01*
X137137281Y-126855082D01*
X137137505Y-126855401D01*
X137304599Y-127022495D01*
X137401384Y-127090265D01*
X137498165Y-127158032D01*
X137498167Y-127158033D01*
X137498170Y-127158035D01*
X137712337Y-127257903D01*
X137940592Y-127319063D01*
X138117034Y-127334500D01*
X138175999Y-127339659D01*
X138176000Y-127339659D01*
X138176001Y-127339659D01*
X138234966Y-127334500D01*
X138411408Y-127319063D01*
X138639663Y-127257903D01*
X138853830Y-127158035D01*
X139047401Y-127022495D01*
X139169329Y-126900566D01*
X139230648Y-126867084D01*
X139300340Y-126872068D01*
X139356274Y-126913939D01*
X139373189Y-126944917D01*
X139422202Y-127076328D01*
X139422206Y-127076335D01*
X139508452Y-127191544D01*
X139508455Y-127191547D01*
X139623664Y-127277793D01*
X139623671Y-127277797D01*
X139758517Y-127328091D01*
X139758516Y-127328091D01*
X139765444Y-127328835D01*
X139818127Y-127334500D01*
X141613872Y-127334499D01*
X141673483Y-127328091D01*
X141808331Y-127277796D01*
X141923546Y-127191546D01*
X142009796Y-127076331D01*
X142060091Y-126941483D01*
X142066500Y-126881873D01*
X142066499Y-125086128D01*
X142060091Y-125026517D01*
X142058810Y-125023083D01*
X142009797Y-124891671D01*
X142009793Y-124891664D01*
X141923547Y-124776455D01*
X141923544Y-124776452D01*
X141808335Y-124690206D01*
X141808328Y-124690202D01*
X141673482Y-124639908D01*
X141673483Y-124639908D01*
X141613883Y-124633501D01*
X141613881Y-124633500D01*
X141613873Y-124633500D01*
X141613864Y-124633500D01*
X139818129Y-124633500D01*
X139818123Y-124633501D01*
X139758516Y-124639908D01*
X139623671Y-124690202D01*
X139623664Y-124690206D01*
X139508455Y-124776452D01*
X139508452Y-124776455D01*
X139422206Y-124891664D01*
X139422203Y-124891669D01*
X139373189Y-125023083D01*
X139331317Y-125079016D01*
X139265853Y-125103433D01*
X139197580Y-125088581D01*
X139169326Y-125067430D01*
X139047402Y-124945506D01*
X139047395Y-124945501D01*
X138853834Y-124809967D01*
X138853830Y-124809965D01*
X138853828Y-124809964D01*
X138639663Y-124710097D01*
X138639659Y-124710096D01*
X138639655Y-124710094D01*
X138411413Y-124648938D01*
X138411403Y-124648936D01*
X138176001Y-124628341D01*
X138175999Y-124628341D01*
X137940596Y-124648936D01*
X137940586Y-124648938D01*
X137712344Y-124710094D01*
X137712335Y-124710098D01*
X137498171Y-124809964D01*
X137498169Y-124809965D01*
X137304597Y-124945505D01*
X137137505Y-125112597D01*
X137007575Y-125298158D01*
X136952998Y-125341783D01*
X136883500Y-125348977D01*
X136821145Y-125317454D01*
X136804425Y-125298158D01*
X136674494Y-125112597D01*
X136507402Y-124945506D01*
X136507395Y-124945501D01*
X136313834Y-124809967D01*
X136313830Y-124809965D01*
X136313828Y-124809964D01*
X136099663Y-124710097D01*
X136099659Y-124710096D01*
X136099655Y-124710094D01*
X135871413Y-124648938D01*
X135871403Y-124648936D01*
X135636001Y-124628341D01*
X135635999Y-124628341D01*
X135400596Y-124648936D01*
X135400586Y-124648938D01*
X135172344Y-124710094D01*
X135172335Y-124710098D01*
X134958171Y-124809964D01*
X134958169Y-124809965D01*
X134764597Y-124945505D01*
X134597505Y-125112597D01*
X134467575Y-125298158D01*
X134412998Y-125341783D01*
X134343500Y-125348977D01*
X134281145Y-125317454D01*
X134264425Y-125298158D01*
X134134494Y-125112597D01*
X133967402Y-124945506D01*
X133967395Y-124945501D01*
X133773834Y-124809967D01*
X133773830Y-124809965D01*
X133773828Y-124809964D01*
X133559663Y-124710097D01*
X133559659Y-124710096D01*
X133559655Y-124710094D01*
X133331413Y-124648938D01*
X133331403Y-124648936D01*
X133096001Y-124628341D01*
X133095999Y-124628341D01*
X132860596Y-124648936D01*
X132860586Y-124648938D01*
X132632344Y-124710094D01*
X132632335Y-124710098D01*
X132418171Y-124809964D01*
X132418169Y-124809965D01*
X132224597Y-124945505D01*
X132057505Y-125112597D01*
X131927575Y-125298158D01*
X131872998Y-125341783D01*
X131803500Y-125348977D01*
X131741145Y-125317454D01*
X131724425Y-125298158D01*
X131594494Y-125112597D01*
X131427402Y-124945506D01*
X131427395Y-124945501D01*
X131233834Y-124809967D01*
X131233830Y-124809965D01*
X131233828Y-124809964D01*
X131019663Y-124710097D01*
X131019659Y-124710096D01*
X131019655Y-124710094D01*
X130791413Y-124648938D01*
X130791403Y-124648936D01*
X130556001Y-124628341D01*
X130555999Y-124628341D01*
X130320596Y-124648936D01*
X130320586Y-124648938D01*
X130092344Y-124710094D01*
X130092335Y-124710098D01*
X129878171Y-124809964D01*
X129878169Y-124809965D01*
X129684597Y-124945505D01*
X129517505Y-125112597D01*
X129387575Y-125298158D01*
X129332998Y-125341783D01*
X129263500Y-125348977D01*
X129201145Y-125317454D01*
X129184425Y-125298158D01*
X129054494Y-125112597D01*
X128887402Y-124945506D01*
X128887395Y-124945501D01*
X128693834Y-124809967D01*
X128693830Y-124809965D01*
X128693828Y-124809964D01*
X128479663Y-124710097D01*
X128479659Y-124710096D01*
X128479655Y-124710094D01*
X128251413Y-124648938D01*
X128251403Y-124648936D01*
X128016001Y-124628341D01*
X128015999Y-124628341D01*
X127780596Y-124648936D01*
X127780586Y-124648938D01*
X127552344Y-124710094D01*
X127552335Y-124710098D01*
X127338171Y-124809964D01*
X127338169Y-124809965D01*
X127144597Y-124945505D01*
X126977505Y-125112597D01*
X126847575Y-125298158D01*
X126792998Y-125341783D01*
X126723500Y-125348977D01*
X126661145Y-125317454D01*
X126644425Y-125298158D01*
X126514494Y-125112597D01*
X126347402Y-124945506D01*
X126347395Y-124945501D01*
X126153834Y-124809967D01*
X126153830Y-124809965D01*
X126153828Y-124809964D01*
X125939663Y-124710097D01*
X125939659Y-124710096D01*
X125939655Y-124710094D01*
X125711413Y-124648938D01*
X125711403Y-124648936D01*
X125476001Y-124628341D01*
X125475999Y-124628341D01*
X125240596Y-124648936D01*
X125240586Y-124648938D01*
X125012344Y-124710094D01*
X125012335Y-124710098D01*
X124798171Y-124809964D01*
X124798169Y-124809965D01*
X124604597Y-124945505D01*
X124437505Y-125112597D01*
X124307575Y-125298158D01*
X124252998Y-125341783D01*
X124183500Y-125348977D01*
X124121145Y-125317454D01*
X124104425Y-125298158D01*
X123974494Y-125112597D01*
X123807402Y-124945506D01*
X123807395Y-124945501D01*
X123613834Y-124809967D01*
X123613830Y-124809965D01*
X123613828Y-124809964D01*
X123399663Y-124710097D01*
X123399659Y-124710096D01*
X123399655Y-124710094D01*
X123171413Y-124648938D01*
X123171403Y-124648936D01*
X122936001Y-124628341D01*
X122935999Y-124628341D01*
X122700596Y-124648936D01*
X122700586Y-124648938D01*
X122472344Y-124710094D01*
X122472335Y-124710098D01*
X122258171Y-124809964D01*
X122258169Y-124809965D01*
X122064597Y-124945505D01*
X121897508Y-125112594D01*
X121767269Y-125298595D01*
X121712692Y-125342219D01*
X121643193Y-125349412D01*
X121580839Y-125317890D01*
X121564119Y-125298594D01*
X121434113Y-125112926D01*
X121434108Y-125112920D01*
X121267082Y-124945894D01*
X121073578Y-124810399D01*
X120859492Y-124710570D01*
X120859486Y-124710567D01*
X120646000Y-124653364D01*
X120646000Y-125550988D01*
X120588993Y-125518075D01*
X120461826Y-125484000D01*
X120330174Y-125484000D01*
X120203007Y-125518075D01*
X120146000Y-125550988D01*
X120146000Y-124653364D01*
X120145999Y-124653364D01*
X119932513Y-124710567D01*
X119932507Y-124710570D01*
X119718422Y-124810399D01*
X119718420Y-124810400D01*
X119524926Y-124945886D01*
X119524920Y-124945891D01*
X119357891Y-125112920D01*
X119357886Y-125112926D01*
X119222400Y-125306420D01*
X119222399Y-125306422D01*
X119122570Y-125520507D01*
X119122567Y-125520513D01*
X119065364Y-125733999D01*
X119065364Y-125734000D01*
X119962988Y-125734000D01*
X119930075Y-125791007D01*
X119896000Y-125918174D01*
X119896000Y-126049826D01*
X119930075Y-126176993D01*
X119962988Y-126234000D01*
X119065364Y-126234000D01*
X104220500Y-126234000D01*
X104220499Y-125086128D01*
X104214091Y-125026517D01*
X104212810Y-125023083D01*
X104163797Y-124891671D01*
X104163793Y-124891664D01*
X104077547Y-124776455D01*
X104077544Y-124776452D01*
X103962335Y-124690206D01*
X103962328Y-124690202D01*
X103827482Y-124639908D01*
X103827483Y-124639908D01*
X103767883Y-124633501D01*
X103767881Y-124633500D01*
X103767873Y-124633500D01*
X103767864Y-124633500D01*
X101972129Y-124633500D01*
X101972123Y-124633501D01*
X101912516Y-124639908D01*
X101777671Y-124690202D01*
X101777664Y-124690206D01*
X101662455Y-124776452D01*
X101662452Y-124776455D01*
X101576206Y-124891664D01*
X101576203Y-124891669D01*
X101527189Y-125023083D01*
X101485317Y-125079016D01*
X101419853Y-125103433D01*
X101351580Y-125088581D01*
X101323326Y-125067430D01*
X101201402Y-124945506D01*
X101201395Y-124945501D01*
X101007834Y-124809967D01*
X101007830Y-124809965D01*
X101007828Y-124809964D01*
X100793663Y-124710097D01*
X100793659Y-124710096D01*
X100793655Y-124710094D01*
X100565413Y-124648938D01*
X100565403Y-124648936D01*
X100330001Y-124628341D01*
X100329999Y-124628341D01*
X100094596Y-124648936D01*
X100094586Y-124648938D01*
X99866344Y-124710094D01*
X99866335Y-124710098D01*
X99652171Y-124809964D01*
X99652169Y-124809965D01*
X99458597Y-124945505D01*
X99291505Y-125112597D01*
X99161575Y-125298158D01*
X99106998Y-125341783D01*
X99037500Y-125348977D01*
X98975145Y-125317454D01*
X98958425Y-125298158D01*
X98828494Y-125112597D01*
X98661402Y-124945506D01*
X98661395Y-124945501D01*
X98467834Y-124809967D01*
X98467830Y-124809965D01*
X98467828Y-124809964D01*
X98253663Y-124710097D01*
X98253659Y-124710096D01*
X98253655Y-124710094D01*
X98025413Y-124648938D01*
X98025403Y-124648936D01*
X97790001Y-124628341D01*
X97789999Y-124628341D01*
X97554596Y-124648936D01*
X97554586Y-124648938D01*
X97326344Y-124710094D01*
X97326335Y-124710098D01*
X97112171Y-124809964D01*
X97112169Y-124809965D01*
X96918597Y-124945505D01*
X96751505Y-125112597D01*
X96621575Y-125298158D01*
X96566998Y-125341783D01*
X96497500Y-125348977D01*
X96435145Y-125317454D01*
X96418425Y-125298158D01*
X96288494Y-125112597D01*
X96121402Y-124945506D01*
X96121395Y-124945501D01*
X95927834Y-124809967D01*
X95927830Y-124809965D01*
X95927828Y-124809964D01*
X95713663Y-124710097D01*
X95713659Y-124710096D01*
X95713655Y-124710094D01*
X95485413Y-124648938D01*
X95485403Y-124648936D01*
X95250001Y-124628341D01*
X95249999Y-124628341D01*
X95014596Y-124648936D01*
X95014586Y-124648938D01*
X94786344Y-124710094D01*
X94786335Y-124710098D01*
X94572171Y-124809964D01*
X94572169Y-124809965D01*
X94378597Y-124945505D01*
X94211505Y-125112597D01*
X94081575Y-125298158D01*
X94026998Y-125341783D01*
X93957500Y-125348977D01*
X93895145Y-125317454D01*
X93878425Y-125298158D01*
X93748494Y-125112597D01*
X93581402Y-124945506D01*
X93581395Y-124945501D01*
X93387834Y-124809967D01*
X93387830Y-124809965D01*
X93387828Y-124809964D01*
X93173663Y-124710097D01*
X93173659Y-124710096D01*
X93173655Y-124710094D01*
X92945413Y-124648938D01*
X92945403Y-124648936D01*
X92710001Y-124628341D01*
X92709999Y-124628341D01*
X92474596Y-124648936D01*
X92474586Y-124648938D01*
X92246344Y-124710094D01*
X92246335Y-124710098D01*
X92032171Y-124809964D01*
X92032169Y-124809965D01*
X91838597Y-124945505D01*
X91671505Y-125112597D01*
X91541575Y-125298158D01*
X91486998Y-125341783D01*
X91417500Y-125348977D01*
X91355145Y-125317454D01*
X91338425Y-125298158D01*
X91208494Y-125112597D01*
X91041402Y-124945506D01*
X91041395Y-124945501D01*
X90847834Y-124809967D01*
X90847830Y-124809965D01*
X90847828Y-124809964D01*
X90633663Y-124710097D01*
X90633659Y-124710096D01*
X90633655Y-124710094D01*
X90405413Y-124648938D01*
X90405403Y-124648936D01*
X90170001Y-124628341D01*
X90169999Y-124628341D01*
X89934596Y-124648936D01*
X89934586Y-124648938D01*
X89706344Y-124710094D01*
X89706335Y-124710098D01*
X89492171Y-124809964D01*
X89492169Y-124809965D01*
X89298597Y-124945505D01*
X89131505Y-125112597D01*
X89001575Y-125298158D01*
X88946998Y-125341783D01*
X88877500Y-125348977D01*
X88815145Y-125317454D01*
X88798425Y-125298158D01*
X88668494Y-125112597D01*
X88501402Y-124945506D01*
X88501395Y-124945501D01*
X88307834Y-124809967D01*
X88307830Y-124809965D01*
X88307828Y-124809964D01*
X88093663Y-124710097D01*
X88093659Y-124710096D01*
X88093655Y-124710094D01*
X87865413Y-124648938D01*
X87865403Y-124648936D01*
X87630001Y-124628341D01*
X87629999Y-124628341D01*
X87394596Y-124648936D01*
X87394586Y-124648938D01*
X87166344Y-124710094D01*
X87166335Y-124710098D01*
X86952171Y-124809964D01*
X86952169Y-124809965D01*
X86758597Y-124945505D01*
X86591505Y-125112597D01*
X86461575Y-125298158D01*
X86406998Y-125341783D01*
X86337500Y-125348977D01*
X86275145Y-125317454D01*
X86258425Y-125298158D01*
X86128494Y-125112597D01*
X85961402Y-124945506D01*
X85961395Y-124945501D01*
X85767834Y-124809967D01*
X85767830Y-124809965D01*
X85767828Y-124809964D01*
X85553663Y-124710097D01*
X85553659Y-124710096D01*
X85553655Y-124710094D01*
X85325413Y-124648938D01*
X85325403Y-124648936D01*
X85090001Y-124628341D01*
X85089999Y-124628341D01*
X84854596Y-124648936D01*
X84854586Y-124648938D01*
X84626344Y-124710094D01*
X84626335Y-124710098D01*
X84412171Y-124809964D01*
X84412169Y-124809965D01*
X84218597Y-124945505D01*
X84051508Y-125112594D01*
X83921269Y-125298595D01*
X83866692Y-125342219D01*
X83797193Y-125349412D01*
X83734839Y-125317890D01*
X83718119Y-125298594D01*
X83588113Y-125112926D01*
X83588108Y-125112920D01*
X83421082Y-124945894D01*
X83227578Y-124810399D01*
X83013492Y-124710570D01*
X83013486Y-124710567D01*
X82800000Y-124653364D01*
X82800000Y-125550988D01*
X82742993Y-125518075D01*
X82615826Y-125484000D01*
X82484174Y-125484000D01*
X82357007Y-125518075D01*
X82300000Y-125550988D01*
X82300000Y-124653364D01*
X82299999Y-124653364D01*
X82086513Y-124710567D01*
X82086507Y-124710570D01*
X81872422Y-124810399D01*
X81872420Y-124810400D01*
X81678926Y-124945886D01*
X81678920Y-124945891D01*
X81511891Y-125112920D01*
X81511886Y-125112926D01*
X81376400Y-125306420D01*
X81376399Y-125306422D01*
X81276570Y-125520507D01*
X81276567Y-125520513D01*
X81219364Y-125733999D01*
X81219364Y-125734000D01*
X82116988Y-125734000D01*
X82084075Y-125791007D01*
X82050000Y-125918174D01*
X82050000Y-126049826D01*
X82084075Y-126176993D01*
X82116988Y-126234000D01*
X81219364Y-126234000D01*
X74967500Y-126234000D01*
X74967500Y-121230000D01*
X88558179Y-121230000D01*
X88577424Y-121449976D01*
X88577426Y-121449986D01*
X88634575Y-121663270D01*
X88634580Y-121663284D01*
X88727898Y-121863405D01*
X88727901Y-121863411D01*
X88773258Y-121928187D01*
X88773259Y-121928188D01*
X89444000Y-121257447D01*
X89444000Y-121280160D01*
X89469964Y-121377061D01*
X89520124Y-121463940D01*
X89591060Y-121534876D01*
X89677939Y-121585036D01*
X89774840Y-121611000D01*
X89797553Y-121611000D01*
X89126810Y-122281740D01*
X89191590Y-122327099D01*
X89191592Y-122327100D01*
X89391715Y-122420419D01*
X89391729Y-122420424D01*
X89605013Y-122477573D01*
X89605023Y-122477575D01*
X89824999Y-122496821D01*
X89825001Y-122496821D01*
X90044976Y-122477575D01*
X90044986Y-122477573D01*
X90258270Y-122420424D01*
X90258284Y-122420419D01*
X90458407Y-122327100D01*
X90458417Y-122327094D01*
X90523188Y-122281741D01*
X89852448Y-121611000D01*
X89875160Y-121611000D01*
X89972061Y-121585036D01*
X90058940Y-121534876D01*
X90129876Y-121463940D01*
X90180036Y-121377061D01*
X90206000Y-121280160D01*
X90206000Y-121257447D01*
X90876741Y-121928188D01*
X90922094Y-121863417D01*
X90922095Y-121863416D01*
X90982340Y-121734219D01*
X91028512Y-121681780D01*
X91095706Y-121662627D01*
X91162587Y-121682842D01*
X91207105Y-121734218D01*
X91267466Y-121863662D01*
X91267468Y-121863666D01*
X91394170Y-122044615D01*
X91394175Y-122044621D01*
X91550378Y-122200824D01*
X91550384Y-122200829D01*
X91731333Y-122327531D01*
X91731335Y-122327532D01*
X91731338Y-122327534D01*
X91931550Y-122420894D01*
X92144932Y-122478070D01*
X92302123Y-122491822D01*
X92364998Y-122497323D01*
X92365000Y-122497323D01*
X92365002Y-122497323D01*
X92420017Y-122492509D01*
X92585068Y-122478070D01*
X92798450Y-122420894D01*
X92998662Y-122327534D01*
X93179620Y-122200826D01*
X93335826Y-122044620D01*
X93462534Y-121863662D01*
X93522618Y-121734811D01*
X93568790Y-121682371D01*
X93635983Y-121663219D01*
X93702865Y-121683435D01*
X93747382Y-121734811D01*
X93807464Y-121863658D01*
X93807468Y-121863666D01*
X93934170Y-122044615D01*
X93934175Y-122044621D01*
X94090378Y-122200824D01*
X94090384Y-122200829D01*
X94271333Y-122327531D01*
X94271335Y-122327532D01*
X94271338Y-122327534D01*
X94471550Y-122420894D01*
X94684932Y-122478070D01*
X94842123Y-122491822D01*
X94904998Y-122497323D01*
X94905000Y-122497323D01*
X94905002Y-122497323D01*
X94960017Y-122492509D01*
X95125068Y-122478070D01*
X95338450Y-122420894D01*
X95538662Y-122327534D01*
X95719620Y-122200826D01*
X95875826Y-122044620D01*
X96002534Y-121863662D01*
X96062618Y-121734811D01*
X96108790Y-121682371D01*
X96175983Y-121663219D01*
X96242865Y-121683435D01*
X96287382Y-121734811D01*
X96347464Y-121863658D01*
X96347468Y-121863666D01*
X96474170Y-122044615D01*
X96474175Y-122044621D01*
X96630378Y-122200824D01*
X96630384Y-122200829D01*
X96811333Y-122327531D01*
X96811335Y-122327532D01*
X96811338Y-122327534D01*
X97011550Y-122420894D01*
X97224932Y-122478070D01*
X97382123Y-122491822D01*
X97444998Y-122497323D01*
X97445000Y-122497323D01*
X97445002Y-122497323D01*
X97500017Y-122492509D01*
X97665068Y-122478070D01*
X97878450Y-122420894D01*
X98078662Y-122327534D01*
X98259620Y-122200826D01*
X98415826Y-122044620D01*
X98542534Y-121863662D01*
X98602618Y-121734811D01*
X98648790Y-121682371D01*
X98715983Y-121663219D01*
X98782865Y-121683435D01*
X98827382Y-121734811D01*
X98887464Y-121863658D01*
X98887468Y-121863666D01*
X99014170Y-122044615D01*
X99014175Y-122044621D01*
X99170378Y-122200824D01*
X99170384Y-122200829D01*
X99351333Y-122327531D01*
X99351335Y-122327532D01*
X99351338Y-122327534D01*
X99551550Y-122420894D01*
X99764932Y-122478070D01*
X99922123Y-122491822D01*
X99984998Y-122497323D01*
X99985000Y-122497323D01*
X99985002Y-122497323D01*
X100040017Y-122492509D01*
X100205068Y-122478070D01*
X100418450Y-122420894D01*
X100618662Y-122327534D01*
X100799620Y-122200826D01*
X100955826Y-122044620D01*
X101082534Y-121863662D01*
X101142618Y-121734811D01*
X101188790Y-121682371D01*
X101255983Y-121663219D01*
X101322865Y-121683435D01*
X101367382Y-121734811D01*
X101427464Y-121863658D01*
X101427468Y-121863666D01*
X101554170Y-122044615D01*
X101554175Y-122044621D01*
X101710378Y-122200824D01*
X101710384Y-122200829D01*
X101891333Y-122327531D01*
X101891335Y-122327532D01*
X101891338Y-122327534D01*
X102091550Y-122420894D01*
X102304932Y-122478070D01*
X102462123Y-122491822D01*
X102524998Y-122497323D01*
X102525000Y-122497323D01*
X102525002Y-122497323D01*
X102580017Y-122492509D01*
X102745068Y-122478070D01*
X102958450Y-122420894D01*
X103158662Y-122327534D01*
X103339620Y-122200826D01*
X103495826Y-122044620D01*
X103622534Y-121863662D01*
X103682618Y-121734811D01*
X103728790Y-121682371D01*
X103795983Y-121663219D01*
X103862865Y-121683435D01*
X103907382Y-121734811D01*
X103967464Y-121863658D01*
X103967468Y-121863666D01*
X104094170Y-122044615D01*
X104094175Y-122044621D01*
X104250378Y-122200824D01*
X104250384Y-122200829D01*
X104431333Y-122327531D01*
X104431335Y-122327532D01*
X104431338Y-122327534D01*
X104631550Y-122420894D01*
X104844932Y-122478070D01*
X105002123Y-122491822D01*
X105064998Y-122497323D01*
X105065000Y-122497323D01*
X105065002Y-122497323D01*
X105120017Y-122492509D01*
X105285068Y-122478070D01*
X105498450Y-122420894D01*
X105698662Y-122327534D01*
X105879620Y-122200826D01*
X106035826Y-122044620D01*
X106162534Y-121863662D01*
X106222618Y-121734811D01*
X106268790Y-121682371D01*
X106335983Y-121663219D01*
X106402865Y-121683435D01*
X106447382Y-121734811D01*
X106507464Y-121863658D01*
X106507468Y-121863666D01*
X106634170Y-122044615D01*
X106634175Y-122044621D01*
X106790378Y-122200824D01*
X106790384Y-122200829D01*
X106971333Y-122327531D01*
X106971335Y-122327532D01*
X106971338Y-122327534D01*
X107171550Y-122420894D01*
X107384932Y-122478070D01*
X107542123Y-122491822D01*
X107604998Y-122497323D01*
X107605000Y-122497323D01*
X107605002Y-122497323D01*
X107660017Y-122492509D01*
X107825068Y-122478070D01*
X108038450Y-122420894D01*
X108238662Y-122327534D01*
X108419620Y-122200826D01*
X108575826Y-122044620D01*
X108702534Y-121863662D01*
X108762618Y-121734811D01*
X108808790Y-121682371D01*
X108875983Y-121663219D01*
X108942865Y-121683435D01*
X108987382Y-121734811D01*
X109047464Y-121863658D01*
X109047468Y-121863666D01*
X109174170Y-122044615D01*
X109174175Y-122044621D01*
X109330378Y-122200824D01*
X109330384Y-122200829D01*
X109511333Y-122327531D01*
X109511335Y-122327532D01*
X109511338Y-122327534D01*
X109711550Y-122420894D01*
X109924932Y-122478070D01*
X110082123Y-122491822D01*
X110144998Y-122497323D01*
X110145000Y-122497323D01*
X110145002Y-122497323D01*
X110200017Y-122492509D01*
X110365068Y-122478070D01*
X110578450Y-122420894D01*
X110778662Y-122327534D01*
X110959620Y-122200826D01*
X111115826Y-122044620D01*
X111242534Y-121863662D01*
X111335894Y-121663450D01*
X111393070Y-121450068D01*
X111412323Y-121230002D01*
X126657677Y-121230002D01*
X126676929Y-121450062D01*
X126676930Y-121450070D01*
X126734104Y-121663445D01*
X126734105Y-121663447D01*
X126734106Y-121663450D01*
X126767106Y-121734218D01*
X126827466Y-121863662D01*
X126827468Y-121863666D01*
X126954170Y-122044615D01*
X126954175Y-122044621D01*
X127110378Y-122200824D01*
X127110384Y-122200829D01*
X127291333Y-122327531D01*
X127291335Y-122327532D01*
X127291338Y-122327534D01*
X127491550Y-122420894D01*
X127704932Y-122478070D01*
X127862123Y-122491822D01*
X127924998Y-122497323D01*
X127925000Y-122497323D01*
X127925002Y-122497323D01*
X127980017Y-122492509D01*
X128145068Y-122478070D01*
X128358450Y-122420894D01*
X128558662Y-122327534D01*
X128739620Y-122200826D01*
X128895826Y-122044620D01*
X129022534Y-121863662D01*
X129082618Y-121734811D01*
X129128790Y-121682371D01*
X129195983Y-121663219D01*
X129262865Y-121683435D01*
X129307382Y-121734811D01*
X129367464Y-121863658D01*
X129367468Y-121863666D01*
X129494170Y-122044615D01*
X129494175Y-122044621D01*
X129650378Y-122200824D01*
X129650384Y-122200829D01*
X129831333Y-122327531D01*
X129831335Y-122327532D01*
X129831338Y-122327534D01*
X130031550Y-122420894D01*
X130244932Y-122478070D01*
X130402123Y-122491822D01*
X130464998Y-122497323D01*
X130465000Y-122497323D01*
X130465002Y-122497323D01*
X130520017Y-122492509D01*
X130685068Y-122478070D01*
X130898450Y-122420894D01*
X131098662Y-122327534D01*
X131279620Y-122200826D01*
X131435826Y-122044620D01*
X131562534Y-121863662D01*
X131622618Y-121734811D01*
X131668790Y-121682371D01*
X131735983Y-121663219D01*
X131802865Y-121683435D01*
X131847382Y-121734811D01*
X131907464Y-121863658D01*
X131907468Y-121863666D01*
X132034170Y-122044615D01*
X132034175Y-122044621D01*
X132190378Y-122200824D01*
X132190384Y-122200829D01*
X132371333Y-122327531D01*
X132371335Y-122327532D01*
X132371338Y-122327534D01*
X132571550Y-122420894D01*
X132784932Y-122478070D01*
X132942123Y-122491822D01*
X133004998Y-122497323D01*
X133005000Y-122497323D01*
X133005002Y-122497323D01*
X133060017Y-122492509D01*
X133225068Y-122478070D01*
X133438450Y-122420894D01*
X133638662Y-122327534D01*
X133819620Y-122200826D01*
X133975826Y-122044620D01*
X134102534Y-121863662D01*
X134162618Y-121734811D01*
X134208790Y-121682371D01*
X134275983Y-121663219D01*
X134342865Y-121683435D01*
X134387382Y-121734811D01*
X134447464Y-121863658D01*
X134447468Y-121863666D01*
X134574170Y-122044615D01*
X134574175Y-122044621D01*
X134730378Y-122200824D01*
X134730384Y-122200829D01*
X134911333Y-122327531D01*
X134911335Y-122327532D01*
X134911338Y-122327534D01*
X135111550Y-122420894D01*
X135324932Y-122478070D01*
X135482123Y-122491822D01*
X135544998Y-122497323D01*
X135545000Y-122497323D01*
X135545002Y-122497323D01*
X135600017Y-122492509D01*
X135765068Y-122478070D01*
X135978450Y-122420894D01*
X136178662Y-122327534D01*
X136359620Y-122200826D01*
X136515826Y-122044620D01*
X136642534Y-121863662D01*
X136702618Y-121734811D01*
X136748790Y-121682371D01*
X136815983Y-121663219D01*
X136882865Y-121683435D01*
X136927382Y-121734811D01*
X136987464Y-121863658D01*
X136987468Y-121863666D01*
X137114170Y-122044615D01*
X137114175Y-122044621D01*
X137270378Y-122200824D01*
X137270384Y-122200829D01*
X137451333Y-122327531D01*
X137451335Y-122327532D01*
X137451338Y-122327534D01*
X137651550Y-122420894D01*
X137864932Y-122478070D01*
X138022123Y-122491822D01*
X138084998Y-122497323D01*
X138085000Y-122497323D01*
X138085002Y-122497323D01*
X138140017Y-122492509D01*
X138305068Y-122478070D01*
X138518450Y-122420894D01*
X138718662Y-122327534D01*
X138899620Y-122200826D01*
X139055826Y-122044620D01*
X139182534Y-121863662D01*
X139242618Y-121734811D01*
X139288790Y-121682371D01*
X139355983Y-121663219D01*
X139422865Y-121683435D01*
X139467382Y-121734811D01*
X139527464Y-121863658D01*
X139527468Y-121863666D01*
X139654170Y-122044615D01*
X139654175Y-122044621D01*
X139810378Y-122200824D01*
X139810384Y-122200829D01*
X139991333Y-122327531D01*
X139991335Y-122327532D01*
X139991338Y-122327534D01*
X140191550Y-122420894D01*
X140404932Y-122478070D01*
X140562123Y-122491822D01*
X140624998Y-122497323D01*
X140625000Y-122497323D01*
X140625002Y-122497323D01*
X140680017Y-122492509D01*
X140845068Y-122478070D01*
X141058450Y-122420894D01*
X141258662Y-122327534D01*
X141439620Y-122200826D01*
X141595826Y-122044620D01*
X141722534Y-121863662D01*
X141782618Y-121734811D01*
X141828790Y-121682371D01*
X141895983Y-121663219D01*
X141962865Y-121683435D01*
X142007382Y-121734811D01*
X142067464Y-121863658D01*
X142067468Y-121863666D01*
X142194170Y-122044615D01*
X142194175Y-122044621D01*
X142350378Y-122200824D01*
X142350384Y-122200829D01*
X142531333Y-122327531D01*
X142531335Y-122327532D01*
X142531338Y-122327534D01*
X142731550Y-122420894D01*
X142944932Y-122478070D01*
X143102123Y-122491822D01*
X143164998Y-122497323D01*
X143165000Y-122497323D01*
X143165002Y-122497323D01*
X143220017Y-122492509D01*
X143385068Y-122478070D01*
X143598450Y-122420894D01*
X143798662Y-122327534D01*
X143979620Y-122200826D01*
X144135826Y-122044620D01*
X144262534Y-121863662D01*
X144322618Y-121734811D01*
X144368790Y-121682371D01*
X144435983Y-121663219D01*
X144502865Y-121683435D01*
X144547382Y-121734811D01*
X144607464Y-121863658D01*
X144607468Y-121863666D01*
X144734170Y-122044615D01*
X144734175Y-122044621D01*
X144890378Y-122200824D01*
X144890384Y-122200829D01*
X145071333Y-122327531D01*
X145071335Y-122327532D01*
X145071338Y-122327534D01*
X145271550Y-122420894D01*
X145484932Y-122478070D01*
X145642123Y-122491822D01*
X145704998Y-122497323D01*
X145705000Y-122497323D01*
X145705002Y-122497323D01*
X145760017Y-122492509D01*
X145925068Y-122478070D01*
X146138450Y-122420894D01*
X146338662Y-122327534D01*
X146519620Y-122200826D01*
X146675826Y-122044620D01*
X146802534Y-121863662D01*
X146862618Y-121734811D01*
X146908790Y-121682371D01*
X146975983Y-121663219D01*
X147042865Y-121683435D01*
X147087382Y-121734811D01*
X147147464Y-121863658D01*
X147147468Y-121863666D01*
X147274170Y-122044615D01*
X147274175Y-122044621D01*
X147430378Y-122200824D01*
X147430384Y-122200829D01*
X147611333Y-122327531D01*
X147611335Y-122327532D01*
X147611338Y-122327534D01*
X147811550Y-122420894D01*
X148024932Y-122478070D01*
X148182123Y-122491822D01*
X148244998Y-122497323D01*
X148245000Y-122497323D01*
X148245002Y-122497323D01*
X148300017Y-122492509D01*
X148465068Y-122478070D01*
X148678450Y-122420894D01*
X148878662Y-122327534D01*
X149059620Y-122200826D01*
X149215826Y-122044620D01*
X149342534Y-121863662D01*
X149435894Y-121663450D01*
X149493070Y-121450068D01*
X149512323Y-121230000D01*
X149493070Y-121009932D01*
X149435894Y-120796550D01*
X149342534Y-120596339D01*
X149215826Y-120415380D01*
X149059620Y-120259174D01*
X149059616Y-120259171D01*
X149059615Y-120259170D01*
X148878666Y-120132468D01*
X148878662Y-120132466D01*
X148878660Y-120132465D01*
X148678450Y-120039106D01*
X148678447Y-120039105D01*
X148678445Y-120039104D01*
X148465070Y-119981930D01*
X148465062Y-119981929D01*
X148245002Y-119962677D01*
X148244998Y-119962677D01*
X148024937Y-119981929D01*
X148024929Y-119981930D01*
X147811554Y-120039104D01*
X147811548Y-120039107D01*
X147611340Y-120132465D01*
X147611338Y-120132466D01*
X147430377Y-120259175D01*
X147274175Y-120415377D01*
X147147466Y-120596338D01*
X147147465Y-120596340D01*
X147087382Y-120725189D01*
X147041209Y-120777628D01*
X146974016Y-120796780D01*
X146907135Y-120776564D01*
X146862618Y-120725189D01*
X146802651Y-120596590D01*
X146802534Y-120596339D01*
X146675826Y-120415380D01*
X146519620Y-120259174D01*
X146519616Y-120259171D01*
X146519615Y-120259170D01*
X146338666Y-120132468D01*
X146338662Y-120132466D01*
X146338660Y-120132465D01*
X146138450Y-120039106D01*
X146138447Y-120039105D01*
X146138445Y-120039104D01*
X145925070Y-119981930D01*
X145925062Y-119981929D01*
X145705002Y-119962677D01*
X145704998Y-119962677D01*
X145484937Y-119981929D01*
X145484929Y-119981930D01*
X145271554Y-120039104D01*
X145271548Y-120039107D01*
X145071340Y-120132465D01*
X145071338Y-120132466D01*
X144890377Y-120259175D01*
X144734175Y-120415377D01*
X144607466Y-120596338D01*
X144607465Y-120596340D01*
X144547382Y-120725189D01*
X144501209Y-120777628D01*
X144434016Y-120796780D01*
X144367135Y-120776564D01*
X144322618Y-120725189D01*
X144262651Y-120596590D01*
X144262534Y-120596339D01*
X144135826Y-120415380D01*
X143979620Y-120259174D01*
X143979616Y-120259171D01*
X143979615Y-120259170D01*
X143798666Y-120132468D01*
X143798662Y-120132466D01*
X143798660Y-120132465D01*
X143598450Y-120039106D01*
X143598447Y-120039105D01*
X143598445Y-120039104D01*
X143385070Y-119981930D01*
X143385062Y-119981929D01*
X143165002Y-119962677D01*
X143164998Y-119962677D01*
X142944937Y-119981929D01*
X142944929Y-119981930D01*
X142731554Y-120039104D01*
X142731548Y-120039107D01*
X142531340Y-120132465D01*
X142531338Y-120132466D01*
X142350377Y-120259175D01*
X142194175Y-120415377D01*
X142067466Y-120596338D01*
X142067465Y-120596340D01*
X142007382Y-120725189D01*
X141961209Y-120777628D01*
X141894016Y-120796780D01*
X141827135Y-120776564D01*
X141782618Y-120725189D01*
X141722651Y-120596590D01*
X141722534Y-120596339D01*
X141595826Y-120415380D01*
X141439620Y-120259174D01*
X141439616Y-120259171D01*
X141439615Y-120259170D01*
X141258666Y-120132468D01*
X141258662Y-120132466D01*
X141258660Y-120132465D01*
X141058450Y-120039106D01*
X141058447Y-120039105D01*
X141058445Y-120039104D01*
X140845070Y-119981930D01*
X140845062Y-119981929D01*
X140625002Y-119962677D01*
X140624998Y-119962677D01*
X140404937Y-119981929D01*
X140404929Y-119981930D01*
X140191554Y-120039104D01*
X140191548Y-120039107D01*
X139991340Y-120132465D01*
X139991338Y-120132466D01*
X139810377Y-120259175D01*
X139654175Y-120415377D01*
X139527466Y-120596338D01*
X139527465Y-120596340D01*
X139467382Y-120725189D01*
X139421209Y-120777628D01*
X139354016Y-120796780D01*
X139287135Y-120776564D01*
X139242618Y-120725189D01*
X139182651Y-120596590D01*
X139182534Y-120596339D01*
X139055826Y-120415380D01*
X138899620Y-120259174D01*
X138899616Y-120259171D01*
X138899615Y-120259170D01*
X138718666Y-120132468D01*
X138718662Y-120132466D01*
X138718660Y-120132465D01*
X138518450Y-120039106D01*
X138518447Y-120039105D01*
X138518445Y-120039104D01*
X138305070Y-119981930D01*
X138305062Y-119981929D01*
X138085002Y-119962677D01*
X138084998Y-119962677D01*
X137864937Y-119981929D01*
X137864929Y-119981930D01*
X137651554Y-120039104D01*
X137651548Y-120039107D01*
X137451340Y-120132465D01*
X137451338Y-120132466D01*
X137270377Y-120259175D01*
X137114175Y-120415377D01*
X136987466Y-120596338D01*
X136987465Y-120596340D01*
X136927382Y-120725189D01*
X136881209Y-120777628D01*
X136814016Y-120796780D01*
X136747135Y-120776564D01*
X136702618Y-120725189D01*
X136642651Y-120596590D01*
X136642534Y-120596339D01*
X136515826Y-120415380D01*
X136359620Y-120259174D01*
X136359616Y-120259171D01*
X136359615Y-120259170D01*
X136178666Y-120132468D01*
X136178662Y-120132466D01*
X136178660Y-120132465D01*
X135978450Y-120039106D01*
X135978447Y-120039105D01*
X135978445Y-120039104D01*
X135765070Y-119981930D01*
X135765062Y-119981929D01*
X135545002Y-119962677D01*
X135544998Y-119962677D01*
X135324937Y-119981929D01*
X135324929Y-119981930D01*
X135111554Y-120039104D01*
X135111548Y-120039107D01*
X134911340Y-120132465D01*
X134911338Y-120132466D01*
X134730377Y-120259175D01*
X134574175Y-120415377D01*
X134447466Y-120596338D01*
X134447465Y-120596340D01*
X134387382Y-120725189D01*
X134341209Y-120777628D01*
X134274016Y-120796780D01*
X134207135Y-120776564D01*
X134162618Y-120725189D01*
X134102651Y-120596590D01*
X134102534Y-120596339D01*
X133975826Y-120415380D01*
X133819620Y-120259174D01*
X133819616Y-120259171D01*
X133819615Y-120259170D01*
X133638666Y-120132468D01*
X133638662Y-120132466D01*
X133638660Y-120132465D01*
X133438450Y-120039106D01*
X133438447Y-120039105D01*
X133438445Y-120039104D01*
X133225070Y-119981930D01*
X133225062Y-119981929D01*
X133005002Y-119962677D01*
X133004998Y-119962677D01*
X132784937Y-119981929D01*
X132784929Y-119981930D01*
X132571554Y-120039104D01*
X132571548Y-120039107D01*
X132371340Y-120132465D01*
X132371338Y-120132466D01*
X132190377Y-120259175D01*
X132034175Y-120415377D01*
X131907466Y-120596338D01*
X131907465Y-120596340D01*
X131847382Y-120725189D01*
X131801209Y-120777628D01*
X131734016Y-120796780D01*
X131667135Y-120776564D01*
X131622618Y-120725189D01*
X131562651Y-120596590D01*
X131562534Y-120596339D01*
X131435826Y-120415380D01*
X131279620Y-120259174D01*
X131279616Y-120259171D01*
X131279615Y-120259170D01*
X131098666Y-120132468D01*
X131098662Y-120132466D01*
X131098660Y-120132465D01*
X130898450Y-120039106D01*
X130898447Y-120039105D01*
X130898445Y-120039104D01*
X130685070Y-119981930D01*
X130685062Y-119981929D01*
X130465002Y-119962677D01*
X130464998Y-119962677D01*
X130244937Y-119981929D01*
X130244929Y-119981930D01*
X130031554Y-120039104D01*
X130031548Y-120039107D01*
X129831340Y-120132465D01*
X129831338Y-120132466D01*
X129650377Y-120259175D01*
X129494175Y-120415377D01*
X129367466Y-120596338D01*
X129367465Y-120596340D01*
X129307382Y-120725189D01*
X129261209Y-120777628D01*
X129194016Y-120796780D01*
X129127135Y-120776564D01*
X129082618Y-120725189D01*
X129022651Y-120596590D01*
X129022534Y-120596339D01*
X128895826Y-120415380D01*
X128739620Y-120259174D01*
X128739616Y-120259171D01*
X128739615Y-120259170D01*
X128558666Y-120132468D01*
X128558662Y-120132466D01*
X128558660Y-120132465D01*
X128358450Y-120039106D01*
X128358447Y-120039105D01*
X128358445Y-120039104D01*
X128145070Y-119981930D01*
X128145062Y-119981929D01*
X127925002Y-119962677D01*
X127924998Y-119962677D01*
X127704937Y-119981929D01*
X127704929Y-119981930D01*
X127491554Y-120039104D01*
X127491548Y-120039107D01*
X127291340Y-120132465D01*
X127291338Y-120132466D01*
X127110377Y-120259175D01*
X126954175Y-120415377D01*
X126827466Y-120596338D01*
X126827465Y-120596340D01*
X126734107Y-120796548D01*
X126734104Y-120796554D01*
X126676930Y-121009929D01*
X126676929Y-121009937D01*
X126657677Y-121229997D01*
X126657677Y-121230002D01*
X111412323Y-121230002D01*
X111412323Y-121230000D01*
X111393070Y-121009932D01*
X111335894Y-120796550D01*
X111242534Y-120596339D01*
X111115826Y-120415380D01*
X110959620Y-120259174D01*
X110959616Y-120259171D01*
X110959615Y-120259170D01*
X110778666Y-120132468D01*
X110778662Y-120132466D01*
X110778660Y-120132465D01*
X110578450Y-120039106D01*
X110578447Y-120039105D01*
X110578445Y-120039104D01*
X110365070Y-119981930D01*
X110365062Y-119981929D01*
X110145002Y-119962677D01*
X110144998Y-119962677D01*
X109924937Y-119981929D01*
X109924929Y-119981930D01*
X109711554Y-120039104D01*
X109711548Y-120039107D01*
X109511340Y-120132465D01*
X109511338Y-120132466D01*
X109330377Y-120259175D01*
X109174175Y-120415377D01*
X109047466Y-120596338D01*
X109047465Y-120596340D01*
X108987382Y-120725189D01*
X108941209Y-120777628D01*
X108874016Y-120796780D01*
X108807135Y-120776564D01*
X108762618Y-120725189D01*
X108702651Y-120596590D01*
X108702534Y-120596339D01*
X108575826Y-120415380D01*
X108419620Y-120259174D01*
X108419616Y-120259171D01*
X108419615Y-120259170D01*
X108238666Y-120132468D01*
X108238662Y-120132466D01*
X108238660Y-120132465D01*
X108038450Y-120039106D01*
X108038447Y-120039105D01*
X108038445Y-120039104D01*
X107825070Y-119981930D01*
X107825062Y-119981929D01*
X107605002Y-119962677D01*
X107604998Y-119962677D01*
X107384937Y-119981929D01*
X107384929Y-119981930D01*
X107171554Y-120039104D01*
X107171548Y-120039107D01*
X106971340Y-120132465D01*
X106971338Y-120132466D01*
X106790377Y-120259175D01*
X106634175Y-120415377D01*
X106507466Y-120596338D01*
X106507465Y-120596340D01*
X106447382Y-120725189D01*
X106401209Y-120777628D01*
X106334016Y-120796780D01*
X106267135Y-120776564D01*
X106222618Y-120725189D01*
X106162651Y-120596590D01*
X106162534Y-120596339D01*
X106035826Y-120415380D01*
X105879620Y-120259174D01*
X105879616Y-120259171D01*
X105879615Y-120259170D01*
X105698666Y-120132468D01*
X105698662Y-120132466D01*
X105698660Y-120132465D01*
X105498450Y-120039106D01*
X105498447Y-120039105D01*
X105498445Y-120039104D01*
X105285070Y-119981930D01*
X105285062Y-119981929D01*
X105065002Y-119962677D01*
X105064998Y-119962677D01*
X104844937Y-119981929D01*
X104844929Y-119981930D01*
X104631554Y-120039104D01*
X104631548Y-120039107D01*
X104431340Y-120132465D01*
X104431338Y-120132466D01*
X104250377Y-120259175D01*
X104094175Y-120415377D01*
X103967466Y-120596338D01*
X103967465Y-120596340D01*
X103907382Y-120725189D01*
X103861209Y-120777628D01*
X103794016Y-120796780D01*
X103727135Y-120776564D01*
X103682618Y-120725189D01*
X103622651Y-120596590D01*
X103622534Y-120596339D01*
X103495826Y-120415380D01*
X103339620Y-120259174D01*
X103339616Y-120259171D01*
X103339615Y-120259170D01*
X103158666Y-120132468D01*
X103158662Y-120132466D01*
X103158660Y-120132465D01*
X102958450Y-120039106D01*
X102958447Y-120039105D01*
X102958445Y-120039104D01*
X102745070Y-119981930D01*
X102745062Y-119981929D01*
X102525002Y-119962677D01*
X102524998Y-119962677D01*
X102304937Y-119981929D01*
X102304929Y-119981930D01*
X102091554Y-120039104D01*
X102091548Y-120039107D01*
X101891340Y-120132465D01*
X101891338Y-120132466D01*
X101710377Y-120259175D01*
X101554175Y-120415377D01*
X101427466Y-120596338D01*
X101427465Y-120596340D01*
X101367382Y-120725189D01*
X101321209Y-120777628D01*
X101254016Y-120796780D01*
X101187135Y-120776564D01*
X101142618Y-120725189D01*
X101082651Y-120596590D01*
X101082534Y-120596339D01*
X100955826Y-120415380D01*
X100799620Y-120259174D01*
X100799616Y-120259171D01*
X100799615Y-120259170D01*
X100618666Y-120132468D01*
X100618662Y-120132466D01*
X100618660Y-120132465D01*
X100418450Y-120039106D01*
X100418447Y-120039105D01*
X100418445Y-120039104D01*
X100205070Y-119981930D01*
X100205062Y-119981929D01*
X99985002Y-119962677D01*
X99984998Y-119962677D01*
X99764937Y-119981929D01*
X99764929Y-119981930D01*
X99551554Y-120039104D01*
X99551548Y-120039107D01*
X99351340Y-120132465D01*
X99351338Y-120132466D01*
X99170377Y-120259175D01*
X99014175Y-120415377D01*
X98887466Y-120596338D01*
X98887465Y-120596340D01*
X98827382Y-120725189D01*
X98781209Y-120777628D01*
X98714016Y-120796780D01*
X98647135Y-120776564D01*
X98602618Y-120725189D01*
X98542651Y-120596590D01*
X98542534Y-120596339D01*
X98415826Y-120415380D01*
X98259620Y-120259174D01*
X98259616Y-120259171D01*
X98259615Y-120259170D01*
X98078666Y-120132468D01*
X98078662Y-120132466D01*
X98078660Y-120132465D01*
X97878450Y-120039106D01*
X97878447Y-120039105D01*
X97878445Y-120039104D01*
X97665070Y-119981930D01*
X97665062Y-119981929D01*
X97445002Y-119962677D01*
X97444998Y-119962677D01*
X97224937Y-119981929D01*
X97224929Y-119981930D01*
X97011554Y-120039104D01*
X97011548Y-120039107D01*
X96811340Y-120132465D01*
X96811338Y-120132466D01*
X96630377Y-120259175D01*
X96474175Y-120415377D01*
X96347466Y-120596338D01*
X96347465Y-120596340D01*
X96287382Y-120725189D01*
X96241209Y-120777628D01*
X96174016Y-120796780D01*
X96107135Y-120776564D01*
X96062618Y-120725189D01*
X96002651Y-120596590D01*
X96002534Y-120596339D01*
X95875826Y-120415380D01*
X95719620Y-120259174D01*
X95719616Y-120259171D01*
X95719615Y-120259170D01*
X95538666Y-120132468D01*
X95538662Y-120132466D01*
X95538660Y-120132465D01*
X95338450Y-120039106D01*
X95338447Y-120039105D01*
X95338445Y-120039104D01*
X95125070Y-119981930D01*
X95125062Y-119981929D01*
X94905002Y-119962677D01*
X94904998Y-119962677D01*
X94684937Y-119981929D01*
X94684929Y-119981930D01*
X94471554Y-120039104D01*
X94471548Y-120039107D01*
X94271340Y-120132465D01*
X94271338Y-120132466D01*
X94090377Y-120259175D01*
X93934175Y-120415377D01*
X93807466Y-120596338D01*
X93807465Y-120596340D01*
X93747382Y-120725189D01*
X93701209Y-120777628D01*
X93634016Y-120796780D01*
X93567135Y-120776564D01*
X93522618Y-120725189D01*
X93462651Y-120596590D01*
X93462534Y-120596339D01*
X93335826Y-120415380D01*
X93179620Y-120259174D01*
X93179616Y-120259171D01*
X93179615Y-120259170D01*
X92998666Y-120132468D01*
X92998662Y-120132466D01*
X92998660Y-120132465D01*
X92798450Y-120039106D01*
X92798447Y-120039105D01*
X92798445Y-120039104D01*
X92585070Y-119981930D01*
X92585062Y-119981929D01*
X92365002Y-119962677D01*
X92364998Y-119962677D01*
X92144937Y-119981929D01*
X92144929Y-119981930D01*
X91931554Y-120039104D01*
X91931548Y-120039107D01*
X91731340Y-120132465D01*
X91731338Y-120132466D01*
X91550377Y-120259175D01*
X91394175Y-120415377D01*
X91267467Y-120596337D01*
X91207105Y-120725782D01*
X91160932Y-120778221D01*
X91093738Y-120797372D01*
X91026857Y-120777156D01*
X90982341Y-120725780D01*
X90922098Y-120596589D01*
X90922097Y-120596587D01*
X90876741Y-120531811D01*
X90876740Y-120531810D01*
X90206000Y-121202551D01*
X90206000Y-121179840D01*
X90180036Y-121082939D01*
X90129876Y-120996060D01*
X90058940Y-120925124D01*
X89972061Y-120874964D01*
X89875160Y-120849000D01*
X89852448Y-120849000D01*
X90523188Y-120178259D01*
X90523187Y-120178258D01*
X90458411Y-120132901D01*
X90458405Y-120132898D01*
X90258284Y-120039580D01*
X90258270Y-120039575D01*
X90044986Y-119982426D01*
X90044976Y-119982424D01*
X89825001Y-119963179D01*
X89824999Y-119963179D01*
X89605023Y-119982424D01*
X89605013Y-119982426D01*
X89391729Y-120039575D01*
X89391720Y-120039579D01*
X89191590Y-120132901D01*
X89126811Y-120178258D01*
X89797553Y-120849000D01*
X89774840Y-120849000D01*
X89677939Y-120874964D01*
X89591060Y-120925124D01*
X89520124Y-120996060D01*
X89469964Y-121082939D01*
X89444000Y-121179840D01*
X89444000Y-121202553D01*
X88773258Y-120531811D01*
X88727901Y-120596590D01*
X88634579Y-120796720D01*
X88634575Y-120796729D01*
X88577426Y-121010013D01*
X88577424Y-121010023D01*
X88558179Y-121229999D01*
X88558179Y-121230000D01*
X74967500Y-121230000D01*
X74967500Y-108530002D01*
X88557677Y-108530002D01*
X88576929Y-108750062D01*
X88576930Y-108750070D01*
X88634104Y-108963445D01*
X88634105Y-108963447D01*
X88634106Y-108963450D01*
X88667382Y-109034811D01*
X88727466Y-109163662D01*
X88727468Y-109163666D01*
X88854170Y-109344615D01*
X88854175Y-109344621D01*
X89010378Y-109500824D01*
X89010384Y-109500829D01*
X89191333Y-109627531D01*
X89191335Y-109627532D01*
X89191338Y-109627534D01*
X89391550Y-109720894D01*
X89604932Y-109778070D01*
X89762123Y-109791822D01*
X89824998Y-109797323D01*
X89825000Y-109797323D01*
X89825002Y-109797323D01*
X89880017Y-109792509D01*
X90045068Y-109778070D01*
X90258450Y-109720894D01*
X90458662Y-109627534D01*
X90639620Y-109500826D01*
X90795826Y-109344620D01*
X90922534Y-109163662D01*
X90982618Y-109034811D01*
X91028790Y-108982371D01*
X91095983Y-108963219D01*
X91162865Y-108983435D01*
X91207382Y-109034811D01*
X91267464Y-109163658D01*
X91267468Y-109163666D01*
X91394170Y-109344615D01*
X91394175Y-109344621D01*
X91550378Y-109500824D01*
X91550384Y-109500829D01*
X91731333Y-109627531D01*
X91731335Y-109627532D01*
X91731338Y-109627534D01*
X91931550Y-109720894D01*
X92144932Y-109778070D01*
X92302123Y-109791822D01*
X92364998Y-109797323D01*
X92365000Y-109797323D01*
X92365002Y-109797323D01*
X92420017Y-109792509D01*
X92585068Y-109778070D01*
X92798450Y-109720894D01*
X92998662Y-109627534D01*
X93179620Y-109500826D01*
X93335826Y-109344620D01*
X93462534Y-109163662D01*
X93522618Y-109034811D01*
X93568790Y-108982371D01*
X93635983Y-108963219D01*
X93702865Y-108983435D01*
X93747382Y-109034811D01*
X93807464Y-109163658D01*
X93807468Y-109163666D01*
X93934170Y-109344615D01*
X93934175Y-109344621D01*
X94090378Y-109500824D01*
X94090384Y-109500829D01*
X94271333Y-109627531D01*
X94271335Y-109627532D01*
X94271338Y-109627534D01*
X94471550Y-109720894D01*
X94684932Y-109778070D01*
X94842123Y-109791822D01*
X94904998Y-109797323D01*
X94905000Y-109797323D01*
X94905002Y-109797323D01*
X94960017Y-109792509D01*
X95125068Y-109778070D01*
X95338450Y-109720894D01*
X95538662Y-109627534D01*
X95719620Y-109500826D01*
X95875826Y-109344620D01*
X96002534Y-109163662D01*
X96062618Y-109034811D01*
X96108790Y-108982371D01*
X96175983Y-108963219D01*
X96242865Y-108983435D01*
X96287382Y-109034811D01*
X96347464Y-109163658D01*
X96347468Y-109163666D01*
X96474170Y-109344615D01*
X96474175Y-109344621D01*
X96630378Y-109500824D01*
X96630384Y-109500829D01*
X96811333Y-109627531D01*
X96811335Y-109627532D01*
X96811338Y-109627534D01*
X97011550Y-109720894D01*
X97224932Y-109778070D01*
X97382123Y-109791822D01*
X97444998Y-109797323D01*
X97445000Y-109797323D01*
X97445002Y-109797323D01*
X97500017Y-109792509D01*
X97665068Y-109778070D01*
X97878450Y-109720894D01*
X98078662Y-109627534D01*
X98259620Y-109500826D01*
X98415826Y-109344620D01*
X98542534Y-109163662D01*
X98602618Y-109034811D01*
X98648790Y-108982371D01*
X98715983Y-108963219D01*
X98782865Y-108983435D01*
X98827382Y-109034811D01*
X98887464Y-109163658D01*
X98887468Y-109163666D01*
X99014170Y-109344615D01*
X99014175Y-109344621D01*
X99170378Y-109500824D01*
X99170384Y-109500829D01*
X99351333Y-109627531D01*
X99351335Y-109627532D01*
X99351338Y-109627534D01*
X99551550Y-109720894D01*
X99764932Y-109778070D01*
X99922123Y-109791822D01*
X99984998Y-109797323D01*
X99985000Y-109797323D01*
X99985002Y-109797323D01*
X100040017Y-109792509D01*
X100205068Y-109778070D01*
X100418450Y-109720894D01*
X100618662Y-109627534D01*
X100799620Y-109500826D01*
X100955826Y-109344620D01*
X101082534Y-109163662D01*
X101142618Y-109034811D01*
X101188790Y-108982371D01*
X101255983Y-108963219D01*
X101322865Y-108983435D01*
X101367382Y-109034811D01*
X101427464Y-109163658D01*
X101427468Y-109163666D01*
X101554170Y-109344615D01*
X101554175Y-109344621D01*
X101710378Y-109500824D01*
X101710384Y-109500829D01*
X101891333Y-109627531D01*
X101891335Y-109627532D01*
X101891338Y-109627534D01*
X102091550Y-109720894D01*
X102304932Y-109778070D01*
X102462123Y-109791822D01*
X102524998Y-109797323D01*
X102525000Y-109797323D01*
X102525002Y-109797323D01*
X102580017Y-109792509D01*
X102745068Y-109778070D01*
X102958450Y-109720894D01*
X103158662Y-109627534D01*
X103339620Y-109500826D01*
X103495826Y-109344620D01*
X103622534Y-109163662D01*
X103682618Y-109034811D01*
X103728790Y-108982371D01*
X103795983Y-108963219D01*
X103862865Y-108983435D01*
X103907382Y-109034811D01*
X103967464Y-109163658D01*
X103967468Y-109163666D01*
X104094170Y-109344615D01*
X104094175Y-109344621D01*
X104250378Y-109500824D01*
X104250384Y-109500829D01*
X104431333Y-109627531D01*
X104431335Y-109627532D01*
X104431338Y-109627534D01*
X104631550Y-109720894D01*
X104844932Y-109778070D01*
X105002123Y-109791822D01*
X105064998Y-109797323D01*
X105065000Y-109797323D01*
X105065002Y-109797323D01*
X105120017Y-109792509D01*
X105285068Y-109778070D01*
X105498450Y-109720894D01*
X105698662Y-109627534D01*
X105879620Y-109500826D01*
X106035826Y-109344620D01*
X106162534Y-109163662D01*
X106222618Y-109034811D01*
X106268790Y-108982371D01*
X106335983Y-108963219D01*
X106402865Y-108983435D01*
X106447382Y-109034811D01*
X106507464Y-109163658D01*
X106507468Y-109163666D01*
X106634170Y-109344615D01*
X106634175Y-109344621D01*
X106790378Y-109500824D01*
X106790384Y-109500829D01*
X106971333Y-109627531D01*
X106971335Y-109627532D01*
X106971338Y-109627534D01*
X107171550Y-109720894D01*
X107384932Y-109778070D01*
X107542123Y-109791822D01*
X107604998Y-109797323D01*
X107605000Y-109797323D01*
X107605002Y-109797323D01*
X107660017Y-109792509D01*
X107825068Y-109778070D01*
X108038450Y-109720894D01*
X108238662Y-109627534D01*
X108419620Y-109500826D01*
X108575826Y-109344620D01*
X108702534Y-109163662D01*
X108762618Y-109034811D01*
X108808790Y-108982371D01*
X108875983Y-108963219D01*
X108942865Y-108983435D01*
X108987382Y-109034811D01*
X109047464Y-109163658D01*
X109047468Y-109163666D01*
X109174170Y-109344615D01*
X109174175Y-109344621D01*
X109330378Y-109500824D01*
X109330384Y-109500829D01*
X109511333Y-109627531D01*
X109511335Y-109627532D01*
X109511338Y-109627534D01*
X109711550Y-109720894D01*
X109924932Y-109778070D01*
X110082123Y-109791822D01*
X110144998Y-109797323D01*
X110145000Y-109797323D01*
X110145002Y-109797323D01*
X110200017Y-109792509D01*
X110365068Y-109778070D01*
X110578450Y-109720894D01*
X110778662Y-109627534D01*
X110959620Y-109500826D01*
X111115826Y-109344620D01*
X111242534Y-109163662D01*
X111335894Y-108963450D01*
X111393070Y-108750068D01*
X111412323Y-108530002D01*
X126657677Y-108530002D01*
X126676929Y-108750062D01*
X126676930Y-108750070D01*
X126734104Y-108963445D01*
X126734105Y-108963447D01*
X126734106Y-108963450D01*
X126767382Y-109034811D01*
X126827466Y-109163662D01*
X126827468Y-109163666D01*
X126954170Y-109344615D01*
X126954175Y-109344621D01*
X127110378Y-109500824D01*
X127110384Y-109500829D01*
X127291333Y-109627531D01*
X127291335Y-109627532D01*
X127291338Y-109627534D01*
X127491550Y-109720894D01*
X127704932Y-109778070D01*
X127862123Y-109791822D01*
X127924998Y-109797323D01*
X127925000Y-109797323D01*
X127925002Y-109797323D01*
X127980017Y-109792509D01*
X128145068Y-109778070D01*
X128358450Y-109720894D01*
X128558662Y-109627534D01*
X128739620Y-109500826D01*
X128895826Y-109344620D01*
X129022534Y-109163662D01*
X129082618Y-109034811D01*
X129128790Y-108982371D01*
X129195983Y-108963219D01*
X129262865Y-108983435D01*
X129307382Y-109034811D01*
X129367464Y-109163658D01*
X129367468Y-109163666D01*
X129494170Y-109344615D01*
X129494175Y-109344621D01*
X129650378Y-109500824D01*
X129650384Y-109500829D01*
X129831333Y-109627531D01*
X129831335Y-109627532D01*
X129831338Y-109627534D01*
X130031550Y-109720894D01*
X130244932Y-109778070D01*
X130402123Y-109791822D01*
X130464998Y-109797323D01*
X130465000Y-109797323D01*
X130465002Y-109797323D01*
X130520017Y-109792509D01*
X130685068Y-109778070D01*
X130898450Y-109720894D01*
X131098662Y-109627534D01*
X131279620Y-109500826D01*
X131435826Y-109344620D01*
X131562534Y-109163662D01*
X131622618Y-109034811D01*
X131668790Y-108982371D01*
X131735983Y-108963219D01*
X131802865Y-108983435D01*
X131847382Y-109034811D01*
X131907464Y-109163658D01*
X131907468Y-109163666D01*
X132034170Y-109344615D01*
X132034175Y-109344621D01*
X132190378Y-109500824D01*
X132190384Y-109500829D01*
X132371333Y-109627531D01*
X132371335Y-109627532D01*
X132371338Y-109627534D01*
X132571550Y-109720894D01*
X132784932Y-109778070D01*
X132942123Y-109791822D01*
X133004998Y-109797323D01*
X133005000Y-109797323D01*
X133005002Y-109797323D01*
X133060017Y-109792509D01*
X133225068Y-109778070D01*
X133438450Y-109720894D01*
X133638662Y-109627534D01*
X133819620Y-109500826D01*
X133975826Y-109344620D01*
X134102534Y-109163662D01*
X134162618Y-109034811D01*
X134208790Y-108982371D01*
X134275983Y-108963219D01*
X134342865Y-108983435D01*
X134387382Y-109034811D01*
X134447464Y-109163658D01*
X134447468Y-109163666D01*
X134574170Y-109344615D01*
X134574175Y-109344621D01*
X134730378Y-109500824D01*
X134730384Y-109500829D01*
X134911333Y-109627531D01*
X134911335Y-109627532D01*
X134911338Y-109627534D01*
X135111550Y-109720894D01*
X135324932Y-109778070D01*
X135482123Y-109791822D01*
X135544998Y-109797323D01*
X135545000Y-109797323D01*
X135545002Y-109797323D01*
X135600017Y-109792509D01*
X135765068Y-109778070D01*
X135978450Y-109720894D01*
X136178662Y-109627534D01*
X136359620Y-109500826D01*
X136515826Y-109344620D01*
X136642534Y-109163662D01*
X136702618Y-109034811D01*
X136748790Y-108982371D01*
X136815983Y-108963219D01*
X136882865Y-108983435D01*
X136927382Y-109034811D01*
X136987464Y-109163658D01*
X136987468Y-109163666D01*
X137114170Y-109344615D01*
X137114175Y-109344621D01*
X137270378Y-109500824D01*
X137270384Y-109500829D01*
X137451333Y-109627531D01*
X137451335Y-109627532D01*
X137451338Y-109627534D01*
X137651550Y-109720894D01*
X137864932Y-109778070D01*
X138022123Y-109791822D01*
X138084998Y-109797323D01*
X138085000Y-109797323D01*
X138085002Y-109797323D01*
X138140017Y-109792509D01*
X138305068Y-109778070D01*
X138518450Y-109720894D01*
X138718662Y-109627534D01*
X138899620Y-109500826D01*
X139055826Y-109344620D01*
X139182534Y-109163662D01*
X139242618Y-109034811D01*
X139288790Y-108982371D01*
X139355983Y-108963219D01*
X139422865Y-108983435D01*
X139467382Y-109034811D01*
X139527464Y-109163658D01*
X139527468Y-109163666D01*
X139654170Y-109344615D01*
X139654175Y-109344621D01*
X139810378Y-109500824D01*
X139810384Y-109500829D01*
X139991333Y-109627531D01*
X139991335Y-109627532D01*
X139991338Y-109627534D01*
X140191550Y-109720894D01*
X140404932Y-109778070D01*
X140562123Y-109791822D01*
X140624998Y-109797323D01*
X140625000Y-109797323D01*
X140625002Y-109797323D01*
X140680017Y-109792509D01*
X140845068Y-109778070D01*
X141058450Y-109720894D01*
X141258662Y-109627534D01*
X141439620Y-109500826D01*
X141595826Y-109344620D01*
X141722534Y-109163662D01*
X141782618Y-109034811D01*
X141828790Y-108982371D01*
X141895983Y-108963219D01*
X141962865Y-108983435D01*
X142007382Y-109034811D01*
X142067464Y-109163658D01*
X142067468Y-109163666D01*
X142194170Y-109344615D01*
X142194175Y-109344621D01*
X142350378Y-109500824D01*
X142350384Y-109500829D01*
X142531333Y-109627531D01*
X142531335Y-109627532D01*
X142531338Y-109627534D01*
X142731550Y-109720894D01*
X142944932Y-109778070D01*
X143102123Y-109791822D01*
X143164998Y-109797323D01*
X143165000Y-109797323D01*
X143165002Y-109797323D01*
X143220017Y-109792509D01*
X143385068Y-109778070D01*
X143598450Y-109720894D01*
X143798662Y-109627534D01*
X143979620Y-109500826D01*
X144135826Y-109344620D01*
X144262534Y-109163662D01*
X144322618Y-109034811D01*
X144368790Y-108982371D01*
X144435983Y-108963219D01*
X144502865Y-108983435D01*
X144547382Y-109034811D01*
X144607464Y-109163658D01*
X144607468Y-109163666D01*
X144734170Y-109344615D01*
X144734175Y-109344621D01*
X144890378Y-109500824D01*
X144890384Y-109500829D01*
X145071333Y-109627531D01*
X145071335Y-109627532D01*
X145071338Y-109627534D01*
X145271550Y-109720894D01*
X145484932Y-109778070D01*
X145642123Y-109791822D01*
X145704998Y-109797323D01*
X145705000Y-109797323D01*
X145705002Y-109797323D01*
X145760017Y-109792509D01*
X145925068Y-109778070D01*
X146138450Y-109720894D01*
X146338662Y-109627534D01*
X146519620Y-109500826D01*
X146675826Y-109344620D01*
X146802534Y-109163662D01*
X146862618Y-109034811D01*
X146908790Y-108982371D01*
X146975983Y-108963219D01*
X147042865Y-108983435D01*
X147087382Y-109034811D01*
X147147464Y-109163658D01*
X147147468Y-109163666D01*
X147274170Y-109344615D01*
X147274175Y-109344621D01*
X147430378Y-109500824D01*
X147430384Y-109500829D01*
X147611333Y-109627531D01*
X147611335Y-109627532D01*
X147611338Y-109627534D01*
X147811550Y-109720894D01*
X148024932Y-109778070D01*
X148182123Y-109791822D01*
X148244998Y-109797323D01*
X148245000Y-109797323D01*
X148245002Y-109797323D01*
X148300017Y-109792509D01*
X148465068Y-109778070D01*
X148678450Y-109720894D01*
X148878662Y-109627534D01*
X149059620Y-109500826D01*
X149215826Y-109344620D01*
X149342534Y-109163662D01*
X149435894Y-108963450D01*
X149493070Y-108750068D01*
X149512323Y-108530000D01*
X149493070Y-108309932D01*
X149435894Y-108096550D01*
X149342534Y-107896339D01*
X149215826Y-107715380D01*
X149059620Y-107559174D01*
X149059616Y-107559171D01*
X149059615Y-107559170D01*
X148878666Y-107432468D01*
X148878662Y-107432466D01*
X148878660Y-107432465D01*
X148678450Y-107339106D01*
X148678447Y-107339105D01*
X148678445Y-107339104D01*
X148465070Y-107281930D01*
X148465062Y-107281929D01*
X148245002Y-107262677D01*
X148244998Y-107262677D01*
X148024937Y-107281929D01*
X148024929Y-107281930D01*
X147811554Y-107339104D01*
X147811548Y-107339107D01*
X147611340Y-107432465D01*
X147611338Y-107432466D01*
X147430377Y-107559175D01*
X147274175Y-107715377D01*
X147147466Y-107896338D01*
X147147465Y-107896340D01*
X147087382Y-108025189D01*
X147041209Y-108077628D01*
X146974016Y-108096780D01*
X146907135Y-108076564D01*
X146862618Y-108025189D01*
X146802534Y-107896340D01*
X146802533Y-107896338D01*
X146675827Y-107715381D01*
X146675823Y-107715377D01*
X146519620Y-107559174D01*
X146519616Y-107559171D01*
X146519615Y-107559170D01*
X146338666Y-107432468D01*
X146338662Y-107432466D01*
X146338660Y-107432465D01*
X146138450Y-107339106D01*
X146138447Y-107339105D01*
X146138445Y-107339104D01*
X145925070Y-107281930D01*
X145925062Y-107281929D01*
X145705002Y-107262677D01*
X145704998Y-107262677D01*
X145484937Y-107281929D01*
X145484929Y-107281930D01*
X145271554Y-107339104D01*
X145271548Y-107339107D01*
X145071340Y-107432465D01*
X145071338Y-107432466D01*
X144890377Y-107559175D01*
X144734175Y-107715377D01*
X144607466Y-107896338D01*
X144607465Y-107896340D01*
X144547382Y-108025189D01*
X144501209Y-108077628D01*
X144434016Y-108096780D01*
X144367135Y-108076564D01*
X144322618Y-108025189D01*
X144262534Y-107896340D01*
X144262533Y-107896338D01*
X144135827Y-107715381D01*
X144135823Y-107715377D01*
X143979620Y-107559174D01*
X143979616Y-107559171D01*
X143979615Y-107559170D01*
X143798666Y-107432468D01*
X143798662Y-107432466D01*
X143798660Y-107432465D01*
X143598450Y-107339106D01*
X143598447Y-107339105D01*
X143598445Y-107339104D01*
X143385070Y-107281930D01*
X143385062Y-107281929D01*
X143165002Y-107262677D01*
X143164998Y-107262677D01*
X142944937Y-107281929D01*
X142944929Y-107281930D01*
X142731554Y-107339104D01*
X142731548Y-107339107D01*
X142531340Y-107432465D01*
X142531338Y-107432466D01*
X142350377Y-107559175D01*
X142194175Y-107715377D01*
X142067466Y-107896338D01*
X142067465Y-107896340D01*
X142007382Y-108025189D01*
X141961209Y-108077628D01*
X141894016Y-108096780D01*
X141827135Y-108076564D01*
X141782618Y-108025189D01*
X141722534Y-107896340D01*
X141722533Y-107896338D01*
X141595827Y-107715381D01*
X141595823Y-107715377D01*
X141439620Y-107559174D01*
X141439616Y-107559171D01*
X141439615Y-107559170D01*
X141258666Y-107432468D01*
X141258662Y-107432466D01*
X141258660Y-107432465D01*
X141058450Y-107339106D01*
X141058447Y-107339105D01*
X141058445Y-107339104D01*
X140845070Y-107281930D01*
X140845062Y-107281929D01*
X140625002Y-107262677D01*
X140624998Y-107262677D01*
X140404937Y-107281929D01*
X140404929Y-107281930D01*
X140191554Y-107339104D01*
X140191548Y-107339107D01*
X139991340Y-107432465D01*
X139991338Y-107432466D01*
X139810377Y-107559175D01*
X139654175Y-107715377D01*
X139527466Y-107896338D01*
X139527465Y-107896340D01*
X139467382Y-108025189D01*
X139421209Y-108077628D01*
X139354016Y-108096780D01*
X139287135Y-108076564D01*
X139242618Y-108025189D01*
X139182534Y-107896340D01*
X139182533Y-107896338D01*
X139055827Y-107715381D01*
X139055823Y-107715377D01*
X138899620Y-107559174D01*
X138899616Y-107559171D01*
X138899615Y-107559170D01*
X138718666Y-107432468D01*
X138718662Y-107432466D01*
X138718660Y-107432465D01*
X138518450Y-107339106D01*
X138518447Y-107339105D01*
X138518445Y-107339104D01*
X138305070Y-107281930D01*
X138305062Y-107281929D01*
X138085002Y-107262677D01*
X138084998Y-107262677D01*
X137864937Y-107281929D01*
X137864929Y-107281930D01*
X137651554Y-107339104D01*
X137651548Y-107339107D01*
X137451340Y-107432465D01*
X137451338Y-107432466D01*
X137270377Y-107559175D01*
X137114175Y-107715377D01*
X136987466Y-107896338D01*
X136987465Y-107896340D01*
X136927382Y-108025189D01*
X136881209Y-108077628D01*
X136814016Y-108096780D01*
X136747135Y-108076564D01*
X136702618Y-108025189D01*
X136642534Y-107896340D01*
X136642533Y-107896338D01*
X136515827Y-107715381D01*
X136515823Y-107715377D01*
X136359620Y-107559174D01*
X136359616Y-107559171D01*
X136359615Y-107559170D01*
X136178666Y-107432468D01*
X136178662Y-107432466D01*
X136178660Y-107432465D01*
X135978450Y-107339106D01*
X135978447Y-107339105D01*
X135978445Y-107339104D01*
X135765070Y-107281930D01*
X135765062Y-107281929D01*
X135545002Y-107262677D01*
X135544998Y-107262677D01*
X135324937Y-107281929D01*
X135324929Y-107281930D01*
X135111554Y-107339104D01*
X135111548Y-107339107D01*
X134911340Y-107432465D01*
X134911338Y-107432466D01*
X134730377Y-107559175D01*
X134574175Y-107715377D01*
X134447466Y-107896338D01*
X134447465Y-107896340D01*
X134387382Y-108025189D01*
X134341209Y-108077628D01*
X134274016Y-108096780D01*
X134207135Y-108076564D01*
X134162618Y-108025189D01*
X134102534Y-107896340D01*
X134102533Y-107896338D01*
X133975827Y-107715381D01*
X133975823Y-107715377D01*
X133819620Y-107559174D01*
X133819616Y-107559171D01*
X133819615Y-107559170D01*
X133638666Y-107432468D01*
X133638662Y-107432466D01*
X133638660Y-107432465D01*
X133438450Y-107339106D01*
X133438447Y-107339105D01*
X133438445Y-107339104D01*
X133225070Y-107281930D01*
X133225062Y-107281929D01*
X133005002Y-107262677D01*
X133004998Y-107262677D01*
X132784937Y-107281929D01*
X132784929Y-107281930D01*
X132571554Y-107339104D01*
X132571548Y-107339107D01*
X132371340Y-107432465D01*
X132371338Y-107432466D01*
X132190377Y-107559175D01*
X132034175Y-107715377D01*
X131907466Y-107896338D01*
X131907465Y-107896340D01*
X131847382Y-108025189D01*
X131801209Y-108077628D01*
X131734016Y-108096780D01*
X131667135Y-108076564D01*
X131622618Y-108025189D01*
X131562534Y-107896340D01*
X131562533Y-107896338D01*
X131435827Y-107715381D01*
X131435823Y-107715377D01*
X131279620Y-107559174D01*
X131279616Y-107559171D01*
X131279615Y-107559170D01*
X131098666Y-107432468D01*
X131098662Y-107432466D01*
X131098660Y-107432465D01*
X130898450Y-107339106D01*
X130898447Y-107339105D01*
X130898445Y-107339104D01*
X130685070Y-107281930D01*
X130685062Y-107281929D01*
X130465002Y-107262677D01*
X130464998Y-107262677D01*
X130244937Y-107281929D01*
X130244929Y-107281930D01*
X130031554Y-107339104D01*
X130031548Y-107339107D01*
X129831340Y-107432465D01*
X129831338Y-107432466D01*
X129650377Y-107559175D01*
X129494175Y-107715377D01*
X129367466Y-107896338D01*
X129367465Y-107896340D01*
X129307382Y-108025189D01*
X129261209Y-108077628D01*
X129194016Y-108096780D01*
X129127135Y-108076564D01*
X129082618Y-108025189D01*
X129022534Y-107896340D01*
X129022533Y-107896338D01*
X128895827Y-107715381D01*
X128895823Y-107715377D01*
X128739620Y-107559174D01*
X128739616Y-107559171D01*
X128739615Y-107559170D01*
X128558666Y-107432468D01*
X128558662Y-107432466D01*
X128558660Y-107432465D01*
X128358450Y-107339106D01*
X128358447Y-107339105D01*
X128358445Y-107339104D01*
X128145070Y-107281930D01*
X128145062Y-107281929D01*
X127925002Y-107262677D01*
X127924998Y-107262677D01*
X127704937Y-107281929D01*
X127704929Y-107281930D01*
X127491554Y-107339104D01*
X127491548Y-107339107D01*
X127291340Y-107432465D01*
X127291338Y-107432466D01*
X127110377Y-107559175D01*
X126954175Y-107715377D01*
X126827466Y-107896338D01*
X126827465Y-107896340D01*
X126734107Y-108096548D01*
X126734104Y-108096554D01*
X126676930Y-108309929D01*
X126676929Y-108309937D01*
X126657677Y-108529997D01*
X126657677Y-108530002D01*
X111412323Y-108530002D01*
X111412323Y-108530000D01*
X111393070Y-108309932D01*
X111335894Y-108096550D01*
X111242534Y-107896339D01*
X111115826Y-107715380D01*
X110959620Y-107559174D01*
X110959616Y-107559171D01*
X110959615Y-107559170D01*
X110778666Y-107432468D01*
X110778662Y-107432466D01*
X110778660Y-107432465D01*
X110578450Y-107339106D01*
X110578447Y-107339105D01*
X110578445Y-107339104D01*
X110365070Y-107281930D01*
X110365062Y-107281929D01*
X110145002Y-107262677D01*
X110144998Y-107262677D01*
X109924937Y-107281929D01*
X109924929Y-107281930D01*
X109711554Y-107339104D01*
X109711548Y-107339107D01*
X109511340Y-107432465D01*
X109511338Y-107432466D01*
X109330377Y-107559175D01*
X109174175Y-107715377D01*
X109047466Y-107896338D01*
X109047465Y-107896340D01*
X108987382Y-108025189D01*
X108941209Y-108077628D01*
X108874016Y-108096780D01*
X108807135Y-108076564D01*
X108762618Y-108025189D01*
X108702534Y-107896340D01*
X108702533Y-107896338D01*
X108575827Y-107715381D01*
X108575823Y-107715377D01*
X108419620Y-107559174D01*
X108419616Y-107559171D01*
X108419615Y-107559170D01*
X108238666Y-107432468D01*
X108238662Y-107432466D01*
X108238660Y-107432465D01*
X108038450Y-107339106D01*
X108038447Y-107339105D01*
X108038445Y-107339104D01*
X107825070Y-107281930D01*
X107825062Y-107281929D01*
X107605002Y-107262677D01*
X107604998Y-107262677D01*
X107384937Y-107281929D01*
X107384929Y-107281930D01*
X107171554Y-107339104D01*
X107171548Y-107339107D01*
X106971340Y-107432465D01*
X106971338Y-107432466D01*
X106790377Y-107559175D01*
X106634175Y-107715377D01*
X106507466Y-107896338D01*
X106507465Y-107896340D01*
X106447382Y-108025189D01*
X106401209Y-108077628D01*
X106334016Y-108096780D01*
X106267135Y-108076564D01*
X106222618Y-108025189D01*
X106162534Y-107896340D01*
X106162533Y-107896338D01*
X106035827Y-107715381D01*
X106035823Y-107715377D01*
X105879620Y-107559174D01*
X105879616Y-107559171D01*
X105879615Y-107559170D01*
X105698666Y-107432468D01*
X105698662Y-107432466D01*
X105698660Y-107432465D01*
X105498450Y-107339106D01*
X105498447Y-107339105D01*
X105498445Y-107339104D01*
X105285070Y-107281930D01*
X105285062Y-107281929D01*
X105065002Y-107262677D01*
X105064998Y-107262677D01*
X104844937Y-107281929D01*
X104844929Y-107281930D01*
X104631554Y-107339104D01*
X104631548Y-107339107D01*
X104431340Y-107432465D01*
X104431338Y-107432466D01*
X104250377Y-107559175D01*
X104094175Y-107715377D01*
X103967466Y-107896338D01*
X103967465Y-107896340D01*
X103907382Y-108025189D01*
X103861209Y-108077628D01*
X103794016Y-108096780D01*
X103727135Y-108076564D01*
X103682618Y-108025189D01*
X103622534Y-107896340D01*
X103622533Y-107896338D01*
X103495827Y-107715381D01*
X103495823Y-107715377D01*
X103339620Y-107559174D01*
X103339616Y-107559171D01*
X103339615Y-107559170D01*
X103158666Y-107432468D01*
X103158662Y-107432466D01*
X103158660Y-107432465D01*
X102958450Y-107339106D01*
X102958447Y-107339105D01*
X102958445Y-107339104D01*
X102745070Y-107281930D01*
X102745062Y-107281929D01*
X102525002Y-107262677D01*
X102524998Y-107262677D01*
X102304937Y-107281929D01*
X102304929Y-107281930D01*
X102091554Y-107339104D01*
X102091548Y-107339107D01*
X101891340Y-107432465D01*
X101891338Y-107432466D01*
X101710377Y-107559175D01*
X101554175Y-107715377D01*
X101427466Y-107896338D01*
X101427465Y-107896340D01*
X101367382Y-108025189D01*
X101321209Y-108077628D01*
X101254016Y-108096780D01*
X101187135Y-108076564D01*
X101142618Y-108025189D01*
X101082534Y-107896340D01*
X101082533Y-107896338D01*
X100955827Y-107715381D01*
X100955823Y-107715377D01*
X100799620Y-107559174D01*
X100799616Y-107559171D01*
X100799615Y-107559170D01*
X100618666Y-107432468D01*
X100618662Y-107432466D01*
X100618660Y-107432465D01*
X100418450Y-107339106D01*
X100418447Y-107339105D01*
X100418445Y-107339104D01*
X100205070Y-107281930D01*
X100205062Y-107281929D01*
X99985002Y-107262677D01*
X99984998Y-107262677D01*
X99764937Y-107281929D01*
X99764929Y-107281930D01*
X99551554Y-107339104D01*
X99551548Y-107339107D01*
X99351340Y-107432465D01*
X99351338Y-107432466D01*
X99170377Y-107559175D01*
X99014175Y-107715377D01*
X98887466Y-107896338D01*
X98887465Y-107896340D01*
X98827382Y-108025189D01*
X98781209Y-108077628D01*
X98714016Y-108096780D01*
X98647135Y-108076564D01*
X98602618Y-108025189D01*
X98542534Y-107896340D01*
X98542533Y-107896338D01*
X98415827Y-107715381D01*
X98415823Y-107715377D01*
X98259620Y-107559174D01*
X98259616Y-107559171D01*
X98259615Y-107559170D01*
X98078666Y-107432468D01*
X98078662Y-107432466D01*
X98078660Y-107432465D01*
X97878450Y-107339106D01*
X97878447Y-107339105D01*
X97878445Y-107339104D01*
X97665070Y-107281930D01*
X97665062Y-107281929D01*
X97445002Y-107262677D01*
X97444998Y-107262677D01*
X97224937Y-107281929D01*
X97224929Y-107281930D01*
X97011554Y-107339104D01*
X97011548Y-107339107D01*
X96811340Y-107432465D01*
X96811338Y-107432466D01*
X96630377Y-107559175D01*
X96474175Y-107715377D01*
X96347466Y-107896338D01*
X96347465Y-107896340D01*
X96287382Y-108025189D01*
X96241209Y-108077628D01*
X96174016Y-108096780D01*
X96107135Y-108076564D01*
X96062618Y-108025189D01*
X96002534Y-107896340D01*
X96002533Y-107896338D01*
X95875827Y-107715381D01*
X95875823Y-107715377D01*
X95719620Y-107559174D01*
X95719616Y-107559171D01*
X95719615Y-107559170D01*
X95538666Y-107432468D01*
X95538662Y-107432466D01*
X95538660Y-107432465D01*
X95338450Y-107339106D01*
X95338447Y-107339105D01*
X95338445Y-107339104D01*
X95125070Y-107281930D01*
X95125062Y-107281929D01*
X94905002Y-107262677D01*
X94904998Y-107262677D01*
X94684937Y-107281929D01*
X94684929Y-107281930D01*
X94471554Y-107339104D01*
X94471548Y-107339107D01*
X94271340Y-107432465D01*
X94271338Y-107432466D01*
X94090377Y-107559175D01*
X93934175Y-107715377D01*
X93807466Y-107896338D01*
X93807465Y-107896340D01*
X93747382Y-108025189D01*
X93701209Y-108077628D01*
X93634016Y-108096780D01*
X93567135Y-108076564D01*
X93522618Y-108025189D01*
X93462534Y-107896340D01*
X93462533Y-107896338D01*
X93335827Y-107715381D01*
X93335823Y-107715377D01*
X93179620Y-107559174D01*
X93179616Y-107559171D01*
X93179615Y-107559170D01*
X92998666Y-107432468D01*
X92998662Y-107432466D01*
X92998660Y-107432465D01*
X92798450Y-107339106D01*
X92798447Y-107339105D01*
X92798445Y-107339104D01*
X92585070Y-107281930D01*
X92585062Y-107281929D01*
X92365002Y-107262677D01*
X92364998Y-107262677D01*
X92144937Y-107281929D01*
X92144929Y-107281930D01*
X91931554Y-107339104D01*
X91931548Y-107339107D01*
X91731340Y-107432465D01*
X91731338Y-107432466D01*
X91550377Y-107559175D01*
X91394175Y-107715377D01*
X91267466Y-107896338D01*
X91267465Y-107896340D01*
X91207382Y-108025189D01*
X91161209Y-108077628D01*
X91094016Y-108096780D01*
X91027135Y-108076564D01*
X90982618Y-108025189D01*
X90922534Y-107896340D01*
X90922533Y-107896338D01*
X90795827Y-107715381D01*
X90795823Y-107715377D01*
X90639620Y-107559174D01*
X90639616Y-107559171D01*
X90639615Y-107559170D01*
X90458666Y-107432468D01*
X90458662Y-107432466D01*
X90458660Y-107432465D01*
X90258450Y-107339106D01*
X90258447Y-107339105D01*
X90258445Y-107339104D01*
X90045070Y-107281930D01*
X90045062Y-107281929D01*
X89825002Y-107262677D01*
X89824998Y-107262677D01*
X89604937Y-107281929D01*
X89604929Y-107281930D01*
X89391554Y-107339104D01*
X89391548Y-107339107D01*
X89191340Y-107432465D01*
X89191338Y-107432466D01*
X89010377Y-107559175D01*
X88854175Y-107715377D01*
X88727466Y-107896338D01*
X88727465Y-107896340D01*
X88634107Y-108096548D01*
X88634104Y-108096554D01*
X88576930Y-108309929D01*
X88576929Y-108309937D01*
X88557677Y-108529997D01*
X88557677Y-108530002D01*
X74967500Y-108530002D01*
X74967500Y-96659870D01*
X89831500Y-96659870D01*
X89831501Y-96659876D01*
X89837908Y-96719483D01*
X89888202Y-96854328D01*
X89888206Y-96854335D01*
X89974452Y-96969544D01*
X89974455Y-96969547D01*
X90089664Y-97055793D01*
X90089671Y-97055797D01*
X90224517Y-97106091D01*
X90224516Y-97106091D01*
X90231444Y-97106835D01*
X90284127Y-97112500D01*
X91579872Y-97112499D01*
X91639483Y-97106091D01*
X91774331Y-97055796D01*
X91889546Y-96969546D01*
X91906993Y-96946240D01*
X92351311Y-96946240D01*
X92439585Y-97000897D01*
X92629678Y-97074539D01*
X92830072Y-97112000D01*
X93033928Y-97112000D01*
X93234322Y-97074539D01*
X93424412Y-97000899D01*
X93424416Y-97000897D01*
X93512686Y-96946241D01*
X93512686Y-96946240D01*
X92932001Y-96365553D01*
X92932000Y-96365553D01*
X92351311Y-96946240D01*
X91906993Y-96946240D01*
X91975796Y-96854331D01*
X92026091Y-96719483D01*
X92028266Y-96699254D01*
X92032499Y-96659886D01*
X92032499Y-96659882D01*
X92032500Y-96659873D01*
X92032499Y-96609305D01*
X92052182Y-96542269D01*
X92068818Y-96521626D01*
X92538950Y-96051496D01*
X92632000Y-96051496D01*
X92652444Y-96127796D01*
X92691940Y-96196205D01*
X92747795Y-96252060D01*
X92816204Y-96291556D01*
X92892504Y-96312000D01*
X92971496Y-96312000D01*
X93047796Y-96291556D01*
X93116205Y-96252060D01*
X93172060Y-96196205D01*
X93211556Y-96127796D01*
X93232000Y-96051496D01*
X93232000Y-96012000D01*
X93285553Y-96012000D01*
X93869465Y-96595912D01*
X93871247Y-96593553D01*
X93871248Y-96593551D01*
X93907870Y-96520003D01*
X119336435Y-96520003D01*
X119356630Y-96699249D01*
X119356631Y-96699254D01*
X119416211Y-96869523D01*
X119479059Y-96969544D01*
X119512184Y-97022262D01*
X119639738Y-97149816D01*
X119792478Y-97245789D01*
X119962745Y-97305368D01*
X119962750Y-97305369D01*
X120141996Y-97325565D01*
X120142000Y-97325565D01*
X120142004Y-97325565D01*
X120321249Y-97305369D01*
X120321252Y-97305368D01*
X120321255Y-97305368D01*
X120491522Y-97245789D01*
X120644262Y-97149816D01*
X120771816Y-97022262D01*
X120867789Y-96869522D01*
X120927368Y-96699255D01*
X120931805Y-96659876D01*
X120947565Y-96520003D01*
X120947565Y-96519996D01*
X120927369Y-96340750D01*
X120927368Y-96340745D01*
X120867788Y-96170476D01*
X120828582Y-96108080D01*
X120771816Y-96017738D01*
X120644262Y-95890184D01*
X120544971Y-95827795D01*
X120491523Y-95794211D01*
X120321254Y-95734631D01*
X120321249Y-95734630D01*
X120142004Y-95714435D01*
X120141996Y-95714435D01*
X119962750Y-95734630D01*
X119962745Y-95734631D01*
X119792476Y-95794211D01*
X119639737Y-95890184D01*
X119512184Y-96017737D01*
X119416211Y-96170476D01*
X119356631Y-96340745D01*
X119356630Y-96340750D01*
X119336435Y-96519996D01*
X119336435Y-96520003D01*
X93907870Y-96520003D01*
X93962113Y-96411069D01*
X93962116Y-96411063D01*
X94017902Y-96214992D01*
X94017903Y-96214989D01*
X94036713Y-96012000D01*
X94036713Y-96011999D01*
X94017903Y-95809010D01*
X94017902Y-95809007D01*
X93962116Y-95612936D01*
X93962113Y-95612930D01*
X93871249Y-95430449D01*
X93871247Y-95430447D01*
X93869465Y-95428087D01*
X93285553Y-96012000D01*
X93232000Y-96012000D01*
X93232000Y-95972504D01*
X93211556Y-95896204D01*
X93172060Y-95827795D01*
X93116205Y-95771940D01*
X93047796Y-95732444D01*
X92971496Y-95712000D01*
X92892504Y-95712000D01*
X92816204Y-95732444D01*
X92747795Y-95771940D01*
X92691940Y-95827795D01*
X92652444Y-95896204D01*
X92632000Y-95972504D01*
X92632000Y-96051496D01*
X92538950Y-96051496D01*
X92578446Y-96012000D01*
X92578446Y-96011999D01*
X92068818Y-95502371D01*
X92035333Y-95441048D01*
X92032499Y-95414690D01*
X92032499Y-95364129D01*
X92032498Y-95364123D01*
X92032497Y-95364116D01*
X92026091Y-95304517D01*
X91975796Y-95169669D01*
X91975795Y-95169668D01*
X91975793Y-95169664D01*
X91906992Y-95077758D01*
X92351311Y-95077758D01*
X92932000Y-95658446D01*
X92932001Y-95658446D01*
X93512687Y-95077758D01*
X93424413Y-95023101D01*
X93424411Y-95023100D01*
X93234321Y-94949460D01*
X93033928Y-94912000D01*
X92830072Y-94912000D01*
X92629678Y-94949460D01*
X92439588Y-95023100D01*
X92439581Y-95023104D01*
X92351312Y-95077757D01*
X92351311Y-95077758D01*
X91906992Y-95077758D01*
X91889547Y-95054455D01*
X91889544Y-95054452D01*
X91774335Y-94968206D01*
X91774328Y-94968202D01*
X91639482Y-94917908D01*
X91639483Y-94917908D01*
X91579883Y-94911501D01*
X91579881Y-94911500D01*
X91579873Y-94911500D01*
X91579864Y-94911500D01*
X90284129Y-94911500D01*
X90284123Y-94911501D01*
X90224516Y-94917908D01*
X90089671Y-94968202D01*
X90089664Y-94968206D01*
X89974455Y-95054452D01*
X89974452Y-95054455D01*
X89888206Y-95169664D01*
X89888202Y-95169671D01*
X89837908Y-95304517D01*
X89831501Y-95364116D01*
X89831501Y-95364123D01*
X89831500Y-95364135D01*
X89831500Y-96659870D01*
X74967500Y-96659870D01*
X74967500Y-92456003D01*
X121114435Y-92456003D01*
X121134630Y-92635249D01*
X121134631Y-92635254D01*
X121194211Y-92805523D01*
X121271153Y-92927975D01*
X121290184Y-92958262D01*
X121417738Y-93085816D01*
X121502892Y-93139322D01*
X121565216Y-93178483D01*
X121570478Y-93181789D01*
X121740745Y-93241368D01*
X121740750Y-93241369D01*
X121919996Y-93261565D01*
X121920000Y-93261565D01*
X121920004Y-93261565D01*
X122099249Y-93241369D01*
X122099252Y-93241368D01*
X122099255Y-93241368D01*
X122269522Y-93181789D01*
X122422262Y-93085816D01*
X122532677Y-92975401D01*
X131482785Y-92975401D01*
X131501602Y-93178483D01*
X131557417Y-93374648D01*
X131557422Y-93374661D01*
X131648327Y-93557222D01*
X131771237Y-93719982D01*
X131921958Y-93857381D01*
X131921960Y-93857383D01*
X131973956Y-93889577D01*
X132095363Y-93964749D01*
X132285544Y-94038425D01*
X132486024Y-94075901D01*
X132486026Y-94075901D01*
X132689974Y-94075901D01*
X132689976Y-94075901D01*
X132890456Y-94038425D01*
X133080637Y-93964749D01*
X133254041Y-93857382D01*
X133404764Y-93719980D01*
X133527673Y-93557222D01*
X133618582Y-93374651D01*
X133674397Y-93178484D01*
X133693215Y-92975401D01*
X133688820Y-92927975D01*
X133674397Y-92772318D01*
X133656666Y-92710002D01*
X136412723Y-92710002D01*
X136431793Y-92927975D01*
X136431793Y-92927979D01*
X136488422Y-93139322D01*
X136488424Y-93139326D01*
X136488425Y-93139330D01*
X136508224Y-93181789D01*
X136580897Y-93337638D01*
X136580898Y-93337639D01*
X136706402Y-93516877D01*
X136861123Y-93671598D01*
X137040361Y-93797102D01*
X137238670Y-93889575D01*
X137450023Y-93946207D01*
X137632926Y-93962208D01*
X137667998Y-93965277D01*
X137668000Y-93965277D01*
X137668002Y-93965277D01*
X137696254Y-93962805D01*
X137885977Y-93946207D01*
X138097330Y-93889575D01*
X138295639Y-93797102D01*
X138474877Y-93671598D01*
X138629598Y-93516877D01*
X138755102Y-93337639D01*
X138847575Y-93139330D01*
X138904207Y-92927977D01*
X138923277Y-92710000D01*
X138904207Y-92492023D01*
X138847575Y-92280670D01*
X138755102Y-92082362D01*
X138755100Y-92082359D01*
X138755099Y-92082357D01*
X138629599Y-91903124D01*
X138552659Y-91826184D01*
X138474877Y-91748402D01*
X138334966Y-91650435D01*
X138295638Y-91622897D01*
X138164646Y-91561815D01*
X138097330Y-91530425D01*
X138097326Y-91530424D01*
X138097322Y-91530422D01*
X137885977Y-91473793D01*
X137668002Y-91454723D01*
X137667998Y-91454723D01*
X137522682Y-91467436D01*
X137450023Y-91473793D01*
X137450020Y-91473793D01*
X137238677Y-91530422D01*
X137238668Y-91530426D01*
X137040361Y-91622898D01*
X137040357Y-91622900D01*
X136861121Y-91748402D01*
X136706402Y-91903121D01*
X136580900Y-92082357D01*
X136580898Y-92082361D01*
X136488426Y-92280668D01*
X136488422Y-92280677D01*
X136431793Y-92492020D01*
X136431793Y-92492024D01*
X136412723Y-92709997D01*
X136412723Y-92710002D01*
X133656666Y-92710002D01*
X133656665Y-92709997D01*
X133618582Y-92576151D01*
X133576691Y-92492023D01*
X133558752Y-92455996D01*
X133527673Y-92393580D01*
X133404764Y-92230822D01*
X133404762Y-92230820D01*
X133397551Y-92224246D01*
X133361269Y-92164535D01*
X133363030Y-92094688D01*
X133402273Y-92036880D01*
X133423277Y-92024787D01*
X133422546Y-92023448D01*
X133430326Y-92019198D01*
X133430331Y-92019197D01*
X133545546Y-91932947D01*
X133631796Y-91817732D01*
X133682091Y-91682884D01*
X133688500Y-91623274D01*
X133688499Y-90327529D01*
X133682091Y-90267918D01*
X133672089Y-90241102D01*
X133631797Y-90133072D01*
X133631793Y-90133065D01*
X133545547Y-90017856D01*
X133545544Y-90017853D01*
X133430335Y-89931607D01*
X133430328Y-89931603D01*
X133295482Y-89881309D01*
X133295483Y-89881309D01*
X133235883Y-89874902D01*
X133235881Y-89874901D01*
X133235873Y-89874901D01*
X133235864Y-89874901D01*
X131940129Y-89874901D01*
X131940123Y-89874902D01*
X131880516Y-89881309D01*
X131745671Y-89931603D01*
X131745664Y-89931607D01*
X131630455Y-90017853D01*
X131630452Y-90017856D01*
X131544206Y-90133065D01*
X131544202Y-90133072D01*
X131493908Y-90267918D01*
X131487501Y-90327517D01*
X131487501Y-90327524D01*
X131487500Y-90327536D01*
X131487500Y-91623271D01*
X131487501Y-91623277D01*
X131493908Y-91682884D01*
X131544202Y-91817729D01*
X131544206Y-91817736D01*
X131630452Y-91932945D01*
X131630455Y-91932948D01*
X131745664Y-92019194D01*
X131753454Y-92023448D01*
X131751755Y-92026558D01*
X131794124Y-92058228D01*
X131818588Y-92123675D01*
X131803784Y-92191959D01*
X131778452Y-92224243D01*
X131771236Y-92230820D01*
X131648327Y-92393579D01*
X131557422Y-92576140D01*
X131557417Y-92576153D01*
X131501602Y-92772318D01*
X131482785Y-92975400D01*
X131482785Y-92975401D01*
X122532677Y-92975401D01*
X122549816Y-92958262D01*
X122645789Y-92805522D01*
X122705368Y-92635255D01*
X122712027Y-92576153D01*
X122725565Y-92456003D01*
X122725565Y-92455996D01*
X122705369Y-92276750D01*
X122705368Y-92276745D01*
X122645788Y-92106476D01*
X122549815Y-91953737D01*
X122422262Y-91826184D01*
X122269523Y-91730211D01*
X122099254Y-91670631D01*
X122099249Y-91670630D01*
X121920004Y-91650435D01*
X121919996Y-91650435D01*
X121740750Y-91670630D01*
X121740745Y-91670631D01*
X121570476Y-91730211D01*
X121417737Y-91826184D01*
X121290184Y-91953737D01*
X121194211Y-92106476D01*
X121134631Y-92276745D01*
X121134630Y-92276750D01*
X121114435Y-92455996D01*
X121114435Y-92456003D01*
X74967500Y-92456003D01*
X74967500Y-90932003D01*
X117558435Y-90932003D01*
X117578630Y-91111249D01*
X117578631Y-91111254D01*
X117638211Y-91281523D01*
X117734184Y-91434262D01*
X117861738Y-91561816D01*
X117952080Y-91618582D01*
X117959552Y-91623277D01*
X118014478Y-91657789D01*
X118184745Y-91717368D01*
X118184750Y-91717369D01*
X118363996Y-91737565D01*
X118364000Y-91737565D01*
X118364004Y-91737565D01*
X118543249Y-91717369D01*
X118543252Y-91717368D01*
X118543255Y-91717368D01*
X118713522Y-91657789D01*
X118866262Y-91561816D01*
X118993816Y-91434262D01*
X119089789Y-91281522D01*
X119149368Y-91111255D01*
X119169565Y-90932000D01*
X119149368Y-90752745D01*
X119089789Y-90582478D01*
X118993816Y-90429738D01*
X118866262Y-90302184D01*
X118811728Y-90267918D01*
X118713523Y-90206211D01*
X118543254Y-90146631D01*
X118543249Y-90146630D01*
X118364004Y-90126435D01*
X118363996Y-90126435D01*
X118184750Y-90146630D01*
X118184745Y-90146631D01*
X118014476Y-90206211D01*
X117861737Y-90302184D01*
X117734184Y-90429737D01*
X117638211Y-90582476D01*
X117578631Y-90752745D01*
X117578630Y-90752750D01*
X117558435Y-90931996D01*
X117558435Y-90932003D01*
X74967500Y-90932003D01*
X74967500Y-89154002D01*
X87644723Y-89154002D01*
X87663793Y-89371975D01*
X87663793Y-89371979D01*
X87720422Y-89583322D01*
X87720424Y-89583326D01*
X87720425Y-89583330D01*
X87766661Y-89682484D01*
X87812897Y-89781638D01*
X87837998Y-89817486D01*
X87938402Y-89960877D01*
X88093123Y-90115598D01*
X88272361Y-90241102D01*
X88470670Y-90333575D01*
X88682023Y-90390207D01*
X88864926Y-90406208D01*
X88899998Y-90409277D01*
X88900000Y-90409277D01*
X88900002Y-90409277D01*
X88928254Y-90406805D01*
X89117977Y-90390207D01*
X89329330Y-90333575D01*
X89527639Y-90241102D01*
X89706877Y-90115598D01*
X89861598Y-89960877D01*
X89987102Y-89781639D01*
X90079575Y-89583330D01*
X90136207Y-89371977D01*
X90155277Y-89154000D01*
X90136207Y-88936023D01*
X90079575Y-88724670D01*
X89987102Y-88526362D01*
X89987100Y-88526359D01*
X89987099Y-88526357D01*
X89861599Y-88347124D01*
X89833844Y-88319369D01*
X89706877Y-88192402D01*
X89527639Y-88066898D01*
X89527640Y-88066898D01*
X89527638Y-88066897D01*
X89363824Y-87990510D01*
X89329330Y-87974425D01*
X89329326Y-87974424D01*
X89329322Y-87974422D01*
X89117977Y-87917793D01*
X88900002Y-87898723D01*
X88899998Y-87898723D01*
X88754682Y-87911436D01*
X88682023Y-87917793D01*
X88682020Y-87917793D01*
X88470677Y-87974422D01*
X88470668Y-87974426D01*
X88272361Y-88066898D01*
X88272357Y-88066900D01*
X88093121Y-88192402D01*
X87938402Y-88347121D01*
X87812900Y-88526357D01*
X87812898Y-88526361D01*
X87720426Y-88724668D01*
X87720422Y-88724677D01*
X87663793Y-88936020D01*
X87663793Y-88936024D01*
X87644723Y-89153997D01*
X87644723Y-89154002D01*
X74967500Y-89154002D01*
X74967500Y-85633205D01*
X74987185Y-85566166D01*
X75039989Y-85520411D01*
X75097343Y-85509343D01*
X75135312Y-85511133D01*
X76063708Y-84582736D01*
X76160967Y-84716602D01*
X76283398Y-84839033D01*
X76417262Y-84936290D01*
X75486564Y-85866987D01*
X75486565Y-85866989D01*
X75711461Y-86030385D01*
X75711479Y-86030397D01*
X75976109Y-86175878D01*
X75976117Y-86175882D01*
X76256889Y-86287047D01*
X76256892Y-86287048D01*
X76549399Y-86362150D01*
X76848995Y-86399999D01*
X76849007Y-86400000D01*
X77150993Y-86400000D01*
X77151004Y-86399999D01*
X77450600Y-86362150D01*
X77743107Y-86287048D01*
X77743110Y-86287047D01*
X78023882Y-86175882D01*
X78023890Y-86175878D01*
X78288520Y-86030397D01*
X78288530Y-86030390D01*
X78513433Y-85866987D01*
X78513434Y-85866987D01*
X77582737Y-84936290D01*
X77716602Y-84839033D01*
X77839033Y-84716602D01*
X77936290Y-84582737D01*
X78864687Y-85511134D01*
X78945486Y-85413464D01*
X78989569Y-85344000D01*
X81452551Y-85344000D01*
X81472317Y-85595151D01*
X81531126Y-85840110D01*
X81627533Y-86072859D01*
X81759160Y-86287653D01*
X81759161Y-86287656D01*
X81759164Y-86287659D01*
X81922776Y-86479224D01*
X82007259Y-86551379D01*
X82114343Y-86642838D01*
X82114346Y-86642839D01*
X82329140Y-86774466D01*
X82561889Y-86870873D01*
X82806852Y-86929683D01*
X83058000Y-86949449D01*
X83309148Y-86929683D01*
X83554111Y-86870873D01*
X83786859Y-86774466D01*
X83919445Y-86693217D01*
X83986890Y-86674972D01*
X84053493Y-86696088D01*
X84083502Y-86724633D01*
X84140813Y-86801190D01*
X84255906Y-86887350D01*
X84255913Y-86887354D01*
X84390620Y-86937596D01*
X84390627Y-86937598D01*
X84450155Y-86943999D01*
X84450172Y-86944000D01*
X85348000Y-86944000D01*
X85348000Y-85834747D01*
X85385708Y-85856518D01*
X85525591Y-85894000D01*
X85670409Y-85894000D01*
X85810292Y-85856518D01*
X85848000Y-85834747D01*
X85848000Y-86944000D01*
X86745828Y-86944000D01*
X86745844Y-86943999D01*
X86805372Y-86937598D01*
X86805379Y-86937596D01*
X86940086Y-86887354D01*
X86940093Y-86887350D01*
X87055187Y-86801190D01*
X87055190Y-86801187D01*
X87141350Y-86686093D01*
X87141354Y-86686086D01*
X87191596Y-86551379D01*
X87191598Y-86551372D01*
X87197999Y-86491844D01*
X87198000Y-86491827D01*
X87198000Y-85770240D01*
X111211311Y-85770240D01*
X111299585Y-85824897D01*
X111489678Y-85898539D01*
X111690072Y-85936000D01*
X111893928Y-85936000D01*
X112094322Y-85898539D01*
X112284412Y-85824899D01*
X112284416Y-85824897D01*
X112372686Y-85770241D01*
X112372686Y-85770240D01*
X111792001Y-85189553D01*
X111792000Y-85189553D01*
X111211311Y-85770240D01*
X87198000Y-85770240D01*
X87198000Y-85594000D01*
X86088748Y-85594000D01*
X86110518Y-85556292D01*
X86148000Y-85416409D01*
X86148000Y-85271591D01*
X86110518Y-85131708D01*
X86088748Y-85094000D01*
X87198000Y-85094000D01*
X87198000Y-84836000D01*
X110687287Y-84836000D01*
X110706096Y-85038989D01*
X110706097Y-85038992D01*
X110761883Y-85235063D01*
X110761886Y-85235069D01*
X110852751Y-85417551D01*
X110854533Y-85419911D01*
X111398950Y-84875496D01*
X111492000Y-84875496D01*
X111512444Y-84951796D01*
X111551940Y-85020205D01*
X111607795Y-85076060D01*
X111676204Y-85115556D01*
X111752504Y-85136000D01*
X111831496Y-85136000D01*
X111907796Y-85115556D01*
X111976205Y-85076060D01*
X112032060Y-85020205D01*
X112071556Y-84951796D01*
X112092000Y-84875496D01*
X112092000Y-84836000D01*
X112145553Y-84836000D01*
X112655181Y-85345628D01*
X112688666Y-85406951D01*
X112691500Y-85433307D01*
X112691500Y-85483869D01*
X112691501Y-85483876D01*
X112697908Y-85543483D01*
X112748202Y-85678328D01*
X112748206Y-85678335D01*
X112834452Y-85793544D01*
X112834455Y-85793547D01*
X112949664Y-85879793D01*
X112949671Y-85879797D01*
X113084517Y-85930091D01*
X113084516Y-85930091D01*
X113091444Y-85930835D01*
X113144127Y-85936500D01*
X114439872Y-85936499D01*
X114499483Y-85930091D01*
X114634331Y-85879796D01*
X114749546Y-85793546D01*
X114835796Y-85678331D01*
X114886091Y-85543483D01*
X114892500Y-85483873D01*
X114892499Y-84188128D01*
X114886091Y-84128517D01*
X114885678Y-84127411D01*
X114835797Y-83993671D01*
X114835793Y-83993664D01*
X114749547Y-83878455D01*
X114749544Y-83878452D01*
X114634335Y-83792206D01*
X114634328Y-83792202D01*
X114499482Y-83741908D01*
X114499483Y-83741908D01*
X114439883Y-83735501D01*
X114439881Y-83735500D01*
X114439873Y-83735500D01*
X114439864Y-83735500D01*
X113144129Y-83735500D01*
X113144123Y-83735501D01*
X113084516Y-83741908D01*
X112949671Y-83792202D01*
X112949664Y-83792206D01*
X112834455Y-83878452D01*
X112834452Y-83878455D01*
X112748206Y-83993664D01*
X112748202Y-83993671D01*
X112697908Y-84128517D01*
X112691501Y-84188116D01*
X112691501Y-84188123D01*
X112691500Y-84188135D01*
X112691500Y-84238691D01*
X112671815Y-84305730D01*
X112655181Y-84326372D01*
X112145553Y-84836000D01*
X112092000Y-84836000D01*
X112092000Y-84796504D01*
X112071556Y-84720204D01*
X112032060Y-84651795D01*
X111976205Y-84595940D01*
X111907796Y-84556444D01*
X111831496Y-84536000D01*
X111752504Y-84536000D01*
X111676204Y-84556444D01*
X111607795Y-84595940D01*
X111551940Y-84651795D01*
X111512444Y-84720204D01*
X111492000Y-84796504D01*
X111492000Y-84875496D01*
X111398950Y-84875496D01*
X111438446Y-84836000D01*
X110854533Y-84252087D01*
X110852755Y-84254442D01*
X110852754Y-84254443D01*
X110761886Y-84436930D01*
X110761883Y-84436936D01*
X110706097Y-84633007D01*
X110706096Y-84633010D01*
X110687287Y-84835999D01*
X110687287Y-84836000D01*
X87198000Y-84836000D01*
X87198000Y-84196172D01*
X87197999Y-84196155D01*
X87191598Y-84136627D01*
X87191596Y-84136620D01*
X87141354Y-84001913D01*
X87141350Y-84001906D01*
X87066379Y-83901758D01*
X111211311Y-83901758D01*
X111792000Y-84482446D01*
X111792001Y-84482446D01*
X112372687Y-83901758D01*
X112284413Y-83847101D01*
X112284411Y-83847100D01*
X112094321Y-83773460D01*
X111893928Y-83736000D01*
X111690072Y-83736000D01*
X111489678Y-83773460D01*
X111299588Y-83847100D01*
X111299581Y-83847104D01*
X111211312Y-83901757D01*
X111211311Y-83901758D01*
X87066379Y-83901758D01*
X87055190Y-83886812D01*
X87055187Y-83886809D01*
X86940093Y-83800649D01*
X86940086Y-83800645D01*
X86805379Y-83750403D01*
X86805372Y-83750401D01*
X86745844Y-83744000D01*
X86040782Y-83744000D01*
X85973743Y-83724315D01*
X85927988Y-83671511D01*
X85918044Y-83602353D01*
X85947069Y-83538797D01*
X85973000Y-83518105D01*
X85972114Y-83516779D01*
X86040363Y-83471175D01*
X86108289Y-83425789D01*
X86219789Y-83314289D01*
X86307394Y-83183179D01*
X86367737Y-83037497D01*
X86398500Y-82882842D01*
X86398500Y-82725158D01*
X86398500Y-82725155D01*
X86398499Y-82725153D01*
X86390990Y-82687403D01*
X86367737Y-82570503D01*
X86334663Y-82490655D01*
X86307397Y-82424827D01*
X86307390Y-82424814D01*
X86219789Y-82293711D01*
X86219786Y-82293707D01*
X86108292Y-82182213D01*
X86108288Y-82182210D01*
X85977185Y-82094609D01*
X85977172Y-82094602D01*
X85831501Y-82034264D01*
X85831489Y-82034261D01*
X85676845Y-82003500D01*
X85676842Y-82003500D01*
X85519158Y-82003500D01*
X85519155Y-82003500D01*
X85364510Y-82034261D01*
X85364498Y-82034264D01*
X85218827Y-82094602D01*
X85218814Y-82094609D01*
X85087711Y-82182210D01*
X85087707Y-82182213D01*
X84976213Y-82293707D01*
X84976210Y-82293711D01*
X84888609Y-82424814D01*
X84888602Y-82424827D01*
X84828264Y-82570498D01*
X84828261Y-82570510D01*
X84797500Y-82725153D01*
X84797500Y-82882846D01*
X84828261Y-83037489D01*
X84828264Y-83037501D01*
X84888602Y-83183172D01*
X84888609Y-83183185D01*
X84976210Y-83314288D01*
X84976213Y-83314292D01*
X85087707Y-83425786D01*
X85087711Y-83425789D01*
X85223886Y-83516779D01*
X85222304Y-83519145D01*
X85263474Y-83559530D01*
X85278981Y-83627657D01*
X85255195Y-83693353D01*
X85199666Y-83735760D01*
X85155218Y-83744000D01*
X84450155Y-83744000D01*
X84390627Y-83750401D01*
X84390620Y-83750403D01*
X84255913Y-83800645D01*
X84255906Y-83800649D01*
X84140812Y-83886809D01*
X84140809Y-83886812D01*
X84083501Y-83963366D01*
X84027567Y-84005237D01*
X83957876Y-84010221D01*
X83919445Y-83994783D01*
X83786854Y-83913531D01*
X83554110Y-83817126D01*
X83386956Y-83776997D01*
X83326364Y-83742206D01*
X83294200Y-83680180D01*
X83300676Y-83610611D01*
X83343735Y-83555587D01*
X83368451Y-83541862D01*
X83437173Y-83513397D01*
X83437176Y-83513395D01*
X83437179Y-83513394D01*
X83568289Y-83425789D01*
X83679789Y-83314289D01*
X83767394Y-83183179D01*
X83827737Y-83037497D01*
X83858500Y-82882842D01*
X83858500Y-82725158D01*
X83858500Y-82725155D01*
X83858499Y-82725153D01*
X83850990Y-82687403D01*
X83827737Y-82570503D01*
X83794663Y-82490655D01*
X83767397Y-82424827D01*
X83767390Y-82424814D01*
X83679789Y-82293711D01*
X83679786Y-82293707D01*
X83568292Y-82182213D01*
X83568288Y-82182210D01*
X83437185Y-82094609D01*
X83437172Y-82094602D01*
X83291501Y-82034264D01*
X83291489Y-82034261D01*
X83136845Y-82003500D01*
X83136842Y-82003500D01*
X82979158Y-82003500D01*
X82979155Y-82003500D01*
X82824510Y-82034261D01*
X82824498Y-82034264D01*
X82678827Y-82094602D01*
X82678814Y-82094609D01*
X82547711Y-82182210D01*
X82547707Y-82182213D01*
X82436213Y-82293707D01*
X82436210Y-82293711D01*
X82348609Y-82424814D01*
X82348602Y-82424827D01*
X82288264Y-82570498D01*
X82288261Y-82570510D01*
X82257500Y-82725153D01*
X82257500Y-82882846D01*
X82288261Y-83037489D01*
X82288264Y-83037501D01*
X82348602Y-83183172D01*
X82348609Y-83183185D01*
X82436210Y-83314288D01*
X82436213Y-83314292D01*
X82547707Y-83425786D01*
X82547711Y-83425789D01*
X82678814Y-83513390D01*
X82678827Y-83513397D01*
X82747548Y-83541862D01*
X82801952Y-83585703D01*
X82824017Y-83651997D01*
X82806738Y-83719696D01*
X82755601Y-83767307D01*
X82729043Y-83776997D01*
X82561889Y-83817126D01*
X82329140Y-83913533D01*
X82114346Y-84045160D01*
X82114343Y-84045161D01*
X81922776Y-84208776D01*
X81759161Y-84400343D01*
X81759160Y-84400346D01*
X81627533Y-84615140D01*
X81531126Y-84847889D01*
X81472317Y-85092848D01*
X81452551Y-85344000D01*
X78989569Y-85344000D01*
X79107292Y-85158497D01*
X79107295Y-85158491D01*
X79235872Y-84885252D01*
X79235874Y-84885247D01*
X79329194Y-84598040D01*
X79385783Y-84301390D01*
X79385784Y-84301383D01*
X79404745Y-84000005D01*
X79404745Y-83999994D01*
X79385784Y-83698616D01*
X79385783Y-83698609D01*
X79329194Y-83401959D01*
X79235874Y-83114752D01*
X79235872Y-83114747D01*
X79107295Y-82841508D01*
X79107292Y-82841502D01*
X78945483Y-82586530D01*
X78864686Y-82488864D01*
X77936289Y-83417261D01*
X77839033Y-83283398D01*
X77716602Y-83160967D01*
X77582736Y-83063709D01*
X78513434Y-82133011D01*
X78513433Y-82133009D01*
X78288538Y-81969614D01*
X78288520Y-81969602D01*
X78023890Y-81824121D01*
X78023882Y-81824117D01*
X77876568Y-81765792D01*
X77821482Y-81722811D01*
X77798379Y-81656872D01*
X77814592Y-81588909D01*
X77864976Y-81540502D01*
X77922215Y-81526500D01*
X146444877Y-81526500D01*
X146511916Y-81546185D01*
G37*
%TD.AperFunction*%
%TA.AperFunction,Conductor*%
G36*
X151591916Y-81546185D02*
G01*
X151637671Y-81598989D01*
X151647615Y-81668147D01*
X151618590Y-81731703D01*
X151589667Y-81756227D01*
X151441893Y-81846782D01*
X151438086Y-81850032D01*
X152075975Y-82487921D01*
X152044742Y-82500859D01*
X151921903Y-82582937D01*
X151817437Y-82687403D01*
X151735359Y-82810242D01*
X151722421Y-82841475D01*
X151084532Y-82203586D01*
X151081282Y-82207393D01*
X150947636Y-82425484D01*
X150947634Y-82425487D01*
X150849752Y-82661797D01*
X150790042Y-82910510D01*
X150769975Y-83165500D01*
X150790042Y-83420489D01*
X150849752Y-83669202D01*
X150948892Y-83908548D01*
X150956361Y-83978017D01*
X150925086Y-84040496D01*
X150864997Y-84076148D01*
X150834331Y-84080000D01*
X148885668Y-84080000D01*
X148818629Y-84060315D01*
X148772874Y-84007511D01*
X148762930Y-83938353D01*
X148771107Y-83908547D01*
X148870247Y-83669200D01*
X148929957Y-83420489D01*
X148950024Y-83165500D01*
X148929957Y-82910510D01*
X148870247Y-82661797D01*
X148772365Y-82425487D01*
X148772363Y-82425484D01*
X148638719Y-82207397D01*
X148635465Y-82203587D01*
X147997577Y-82841474D01*
X147984641Y-82810242D01*
X147902563Y-82687403D01*
X147798097Y-82582937D01*
X147675258Y-82500859D01*
X147644024Y-82487921D01*
X148281912Y-81850033D01*
X148278107Y-81846784D01*
X148278098Y-81846777D01*
X148130333Y-81756227D01*
X148083458Y-81704416D01*
X148072035Y-81635486D01*
X148099692Y-81571323D01*
X148157648Y-81532298D01*
X148195123Y-81526500D01*
X151524877Y-81526500D01*
X151591916Y-81546185D01*
G37*
%TD.AperFunction*%
%TA.AperFunction,Conductor*%
G36*
X76144824Y-81546185D02*
G01*
X76190579Y-81598989D01*
X76200523Y-81668147D01*
X76171498Y-81731703D01*
X76123432Y-81765792D01*
X75976117Y-81824117D01*
X75976109Y-81824121D01*
X75711476Y-81969604D01*
X75711471Y-81969607D01*
X75486565Y-82133010D01*
X75486564Y-82133011D01*
X76417262Y-83063709D01*
X76283398Y-83160967D01*
X76160967Y-83283398D01*
X76063709Y-83417262D01*
X75135311Y-82488864D01*
X75097341Y-82490655D01*
X75029449Y-82474151D01*
X74981257Y-82423561D01*
X74967500Y-82366793D01*
X74967500Y-81650500D01*
X74987185Y-81583461D01*
X75039989Y-81537706D01*
X75091500Y-81526500D01*
X76077785Y-81526500D01*
X76144824Y-81546185D01*
G37*
%TD.AperFunction*%
%TD*%
M02*
