M48
; DRILL file {KiCad 8.0.1} date 2024-04-12T19:13:58-0400
; FORMAT={-:-/ absolute / inch / decimal}
; #@! TF.CreationDate,2024-04-12T19:13:58-04:00
; #@! TF.GenerationSoftware,Kicad,Pcbnew,8.0.1
; #@! TF.FileFunction,Plated,1,4,PTH
FMAT,2
INCH
; #@! TA.AperFunction,Plated,PTH,ViaDrill
T1C0.0118
; #@! TA.AperFunction,Plated,PTH,ComponentDrill
T2C0.0236
; #@! TA.AperFunction,Plated,PTH,ComponentDrill
T3C0.0276
; #@! TA.AperFunction,Plated,PTH,ComponentDrill
T4C0.0300
; #@! TA.AperFunction,Plated,PTH,ComponentDrill
T5C0.0394
; #@! TA.AperFunction,Plated,PTH,ComponentDrill
T6C0.0433
; #@! TA.AperFunction,Plated,PTH,ComponentDrill
T7C0.0591
; #@! TA.AperFunction,Plated,PTH,ComponentDrill
T8C0.0866
%
G90
G05
T1
X3.65Y-4.1
X3.78Y-4.15
X3.93Y-4.15
X4.54Y-3.44
X4.58Y-3.59
X4.58Y-3.64
X4.59Y-3.56
X4.62Y-3.56
X4.66Y-3.58
X4.68Y-3.8
X4.71Y-3.56
X4.73Y-3.8
X4.74Y-4.05
X4.8Y-3.64
X4.82Y-3.7
X4.87Y-5.22
X4.89Y-3.32
X4.89Y-3.42
X5.06Y-3.52
X5.06Y-3.59
X5.06Y-3.67
X5.06Y-3.73
X5.13Y-5.11
X5.3833Y-3.28
X5.44Y-5.08
X5.56Y-3.28
X5.6Y-3.51
T2
X3.58Y-3.78
X3.6587Y-3.78
X4.4013Y-3.34
X4.48Y-3.34
X4.6396Y-5.13
X4.7183Y-5.13
X5.22Y-3.5817
X5.22Y-3.6604
T3
X3.5Y-3.51
X5.42Y-3.65
X5.84Y-5.04
T4
X3.5364Y-4.2728
X3.5364Y-4.7728
X3.6364Y-4.2728
X3.6364Y-4.7728
X3.7364Y-4.2728
X3.7364Y-4.7728
X3.8364Y-4.2728
X3.8364Y-4.7728
X3.9364Y-4.2728
X3.9364Y-4.7728
X4.0364Y-4.2728
X4.0364Y-4.7728
X4.1364Y-4.2728
X4.1364Y-4.7728
X4.2364Y-4.2728
X4.2364Y-4.7728
X4.3364Y-4.2728
X4.3364Y-4.7728
X5.0364Y-4.2728
X5.0364Y-4.7728
X5.1364Y-4.2728
X5.1364Y-4.7728
X5.2364Y-4.2728
X5.2364Y-4.7728
X5.3364Y-4.2728
X5.3364Y-4.7728
X5.4364Y-4.2728
X5.4364Y-4.7728
X5.5364Y-4.2728
X5.5364Y-4.7728
X5.6364Y-4.2728
X5.6364Y-4.7728
X5.7364Y-4.2728
X5.7364Y-4.7728
X5.8364Y-4.2728
X5.8364Y-4.7728
T5
X3.25Y-4.96
X3.35Y-4.96
X3.45Y-4.96
X3.55Y-4.96
X3.65Y-4.96
X3.75Y-4.96
X3.85Y-4.96
X3.95Y-4.96
X4.05Y-4.96
X4.74Y-4.96
X4.84Y-4.96
X4.94Y-4.96
X5.04Y-4.96
X5.14Y-4.96
X5.24Y-4.96
X5.34Y-4.96
X5.44Y-4.96
X5.54Y-4.96
T6
X3.27Y-3.36
X3.37Y-3.36
X4.3Y-5.06
X4.4Y-5.06
T7
X5.8Y-3.2742
X5.8Y-3.4742
X5.9Y-3.3742
X6.0Y-3.2742
X6.0Y-3.4742
T8
X3.0315Y-3.3071
X3.0315Y-5.1575
X6.1811Y-3.3071
X6.1811Y-5.1575
M30
