%TF.GenerationSoftware,KiCad,Pcbnew,8.0.1*%
%TF.CreationDate,2024-04-12T18:49:37-04:00*%
%TF.ProjectId,adc_fpga,6164635f-6670-4676-912e-6b696361645f,rev?*%
%TF.SameCoordinates,Original*%
%TF.FileFunction,Soldermask,Top*%
%TF.FilePolarity,Negative*%
%FSLAX46Y46*%
G04 Gerber Fmt 4.6, Leading zero omitted, Abs format (unit mm)*
G04 Created by KiCad (PCBNEW 8.0.1) date 2024-04-12 18:49:37*
%MOMM*%
%LPD*%
G01*
G04 APERTURE LIST*
G04 Aperture macros list*
%AMRoundRect*
0 Rectangle with rounded corners*
0 $1 Rounding radius*
0 $2 $3 $4 $5 $6 $7 $8 $9 X,Y pos of 4 corners*
0 Add a 4 corners polygon primitive as box body*
4,1,4,$2,$3,$4,$5,$6,$7,$8,$9,$2,$3,0*
0 Add four circle primitives for the rounded corners*
1,1,$1+$1,$2,$3*
1,1,$1+$1,$4,$5*
1,1,$1+$1,$6,$7*
1,1,$1+$1,$8,$9*
0 Add four rect primitives between the rounded corners*
20,1,$1+$1,$2,$3,$4,$5,0*
20,1,$1+$1,$4,$5,$6,$7,0*
20,1,$1+$1,$6,$7,$8,$9,0*
20,1,$1+$1,$8,$9,$2,$3,0*%
G04 Aperture macros list end*
%ADD10C,1.500000*%
%ADD11C,1.524000*%
%ADD12RoundRect,0.237500X-0.300000X-0.237500X0.300000X-0.237500X0.300000X0.237500X-0.300000X0.237500X0*%
%ADD13RoundRect,0.237500X-0.237500X0.300000X-0.237500X-0.300000X0.237500X-0.300000X0.237500X0.300000X0*%
%ADD14R,0.330200X1.473200*%
%ADD15R,1.473200X0.330200*%
%ADD16RoundRect,0.200000X0.275000X-0.200000X0.275000X0.200000X-0.275000X0.200000X-0.275000X-0.200000X0*%
%ADD17RoundRect,0.200000X-0.200000X-0.275000X0.200000X-0.275000X0.200000X0.275000X-0.200000X0.275000X0*%
%ADD18RoundRect,0.237500X0.300000X0.237500X-0.300000X0.237500X-0.300000X-0.237500X0.300000X-0.237500X0*%
%ADD19R,1.200000X1.200000*%
%ADD20C,1.200000*%
%ADD21R,1.700000X1.700000*%
%ADD22O,1.700000X1.700000*%
%ADD23R,2.250000X2.250000*%
%ADD24C,2.250000*%
%ADD25RoundRect,0.190000X0.635000X0.190000X-0.635000X0.190000X-0.635000X-0.190000X0.635000X-0.190000X0*%
%ADD26RoundRect,0.237500X0.237500X-0.300000X0.237500X0.300000X-0.237500X0.300000X-0.237500X-0.300000X0*%
%ADD27RoundRect,0.200000X-0.275000X0.200000X-0.275000X-0.200000X0.275000X-0.200000X0.275000X0.200000X0*%
%ADD28RoundRect,0.375000X-0.625000X-0.375000X0.625000X-0.375000X0.625000X0.375000X-0.625000X0.375000X0*%
%ADD29RoundRect,0.500000X-0.500000X-1.400000X0.500000X-1.400000X0.500000X1.400000X-0.500000X1.400000X0*%
%ADD30C,1.100000*%
%ADD31R,2.200000X2.200000*%
%ADD32C,2.200000*%
%ADD33RoundRect,0.060400X0.241600X-0.636600X0.241600X0.636600X-0.241600X0.636600X-0.241600X-0.636600X0*%
G04 APERTURE END LIST*
D10*
%TO.C,TP2*%
X137668000Y-92710000D03*
%TD*%
%TO.C,TP4*%
X88900000Y-89154000D03*
%TD*%
%TO.C,TP1*%
X148336000Y-128016000D03*
%TD*%
D11*
%TO.C,U2*%
X148245000Y-108530000D03*
X145705000Y-108530000D03*
X143165000Y-108530000D03*
X140625000Y-108530000D03*
X138085000Y-108530000D03*
X135545000Y-108530000D03*
X133005000Y-108530000D03*
X130465000Y-108530000D03*
X127925000Y-108530000D03*
X110145000Y-108530000D03*
X107605000Y-108530000D03*
X105065000Y-108530000D03*
X102525000Y-108530000D03*
X99985000Y-108530000D03*
X97445000Y-108530000D03*
X94905000Y-108530000D03*
X92365000Y-108530000D03*
X89825000Y-108530000D03*
X89825000Y-121230000D03*
X92365000Y-121230000D03*
X94905000Y-121230000D03*
X97445000Y-121230000D03*
X99985000Y-121230000D03*
X102525000Y-121230000D03*
X105065000Y-121230000D03*
X107605000Y-121230000D03*
X110145000Y-121230000D03*
X127925000Y-121230000D03*
X130465000Y-121230000D03*
X133005000Y-121230000D03*
X135545000Y-121230000D03*
X138085000Y-121230000D03*
X140625000Y-121230000D03*
X143165000Y-121230000D03*
X145705000Y-121230000D03*
X148245000Y-121230000D03*
%TD*%
D12*
%TO.C,C20*%
X98197500Y-104140000D03*
X99922500Y-104140000D03*
%TD*%
%TO.C,C14*%
X94387500Y-104140000D03*
X96112500Y-104140000D03*
%TD*%
D13*
%TO.C,C13*%
X119888000Y-99975500D03*
X119888000Y-101700500D03*
%TD*%
D14*
%TO.C,U3*%
X122103799Y-89306400D03*
X121303801Y-89306400D03*
X120503800Y-89306400D03*
X119703799Y-89306400D03*
X118903801Y-89306400D03*
X118103800Y-89306400D03*
X117303801Y-89306400D03*
X116503801Y-89306400D03*
D15*
X114985800Y-90824401D03*
X114985800Y-91624399D03*
X114985800Y-92424400D03*
X114985800Y-93224401D03*
X114985800Y-94024399D03*
X114985800Y-94824400D03*
X114985800Y-95624399D03*
X114985800Y-96424399D03*
D14*
X116503801Y-97942400D03*
X117303799Y-97942400D03*
X118103800Y-97942400D03*
X118903801Y-97942400D03*
X119703799Y-97942400D03*
X120503800Y-97942400D03*
X121303799Y-97942400D03*
X122103799Y-97942400D03*
D15*
X123621800Y-96424399D03*
X123621800Y-95624401D03*
X123621800Y-94824400D03*
X123621800Y-94024399D03*
X123621800Y-93224401D03*
X123621800Y-92424400D03*
X123621800Y-91624401D03*
X123621800Y-90824401D03*
%TD*%
D16*
%TO.C,R5*%
X134620000Y-86423000D03*
X134620000Y-84773000D03*
%TD*%
D17*
%TO.C,R4*%
X130747000Y-84328000D03*
X132397000Y-84328000D03*
%TD*%
%TO.C,R1*%
X130747000Y-86868000D03*
X132397000Y-86868000D03*
%TD*%
D18*
%TO.C,C12*%
X125375500Y-86868000D03*
X127100500Y-86868000D03*
%TD*%
D12*
%TO.C,C10*%
X125375500Y-84328000D03*
X127100500Y-84328000D03*
%TD*%
%TO.C,C9*%
X139345500Y-89154000D03*
X141070500Y-89154000D03*
%TD*%
D19*
%TO.C,C8*%
X132588000Y-90975401D03*
D20*
X132588000Y-92975401D03*
%TD*%
D18*
%TO.C,C7*%
X125629500Y-93218000D03*
X127354500Y-93218000D03*
%TD*%
%TO.C,C6*%
X127354500Y-89408000D03*
X125629500Y-89408000D03*
%TD*%
%TO.C,C5*%
X125629500Y-91186000D03*
X127354500Y-91186000D03*
%TD*%
D19*
%TO.C,C4*%
X113792000Y-84836000D03*
D20*
X111792000Y-84836000D03*
%TD*%
D18*
%TO.C,C3*%
X127354500Y-94742000D03*
X125629500Y-94742000D03*
%TD*%
D12*
%TO.C,C2*%
X116485500Y-87376000D03*
X118210500Y-87376000D03*
%TD*%
D21*
%TO.C,J5*%
X102870000Y-125984000D03*
D22*
X100330000Y-125984000D03*
X97790000Y-125984000D03*
X95250000Y-125984000D03*
X92710000Y-125984000D03*
X90170000Y-125984000D03*
X87630000Y-125984000D03*
X85090000Y-125984000D03*
X82550000Y-125984000D03*
%TD*%
D21*
%TO.C,J3*%
X140716000Y-125984000D03*
D22*
X138176000Y-125984000D03*
X135636000Y-125984000D03*
X133096000Y-125984000D03*
X130556000Y-125984000D03*
X128016000Y-125984000D03*
X125476000Y-125984000D03*
X122936000Y-125984000D03*
X120396000Y-125984000D03*
%TD*%
D23*
%TO.C,J1*%
X151892000Y-85959500D03*
D24*
X154432000Y-83419500D03*
X149352000Y-83419500D03*
X154432000Y-88499500D03*
X149352000Y-88499500D03*
%TD*%
D25*
%TO.C,T1*%
X141290000Y-86871000D03*
X141290000Y-84331000D03*
X138110000Y-84331000D03*
X138110000Y-85601000D03*
X138110000Y-86871000D03*
%TD*%
D13*
%TO.C,C11*%
X144254000Y-86460500D03*
X144254000Y-84735500D03*
%TD*%
D26*
%TO.C,C17*%
X136906000Y-130806500D03*
X136906000Y-129081500D03*
%TD*%
D19*
%TO.C,C19*%
X119844600Y-130302000D03*
D20*
X117844600Y-130302000D03*
%TD*%
D27*
%TO.C,R3*%
X139954000Y-129119000D03*
X139954000Y-130769000D03*
%TD*%
D12*
%TO.C,C1*%
X91540500Y-104140000D03*
X89815500Y-104140000D03*
%TD*%
D28*
%TO.C,U4*%
X80822000Y-93712000D03*
X80822000Y-96012000D03*
D29*
X87122000Y-96012000D03*
D28*
X80822000Y-98312000D03*
%TD*%
D30*
%TO.C,J2*%
X109220000Y-131064000D03*
X111760000Y-131064000D03*
D31*
X109220000Y-128524000D03*
D32*
X111760000Y-128524000D03*
%TD*%
D19*
%TO.C,C15*%
X90932000Y-96012000D03*
D20*
X92932000Y-96012000D03*
%TD*%
D26*
%TO.C,C18*%
X132842000Y-130806500D03*
X132842000Y-129081500D03*
%TD*%
D33*
%TO.C,U1*%
X127874000Y-130698000D03*
X128524000Y-130698000D03*
X129174000Y-130698000D03*
X129174000Y-128778000D03*
X127874000Y-128778000D03*
%TD*%
D30*
%TO.C,J4*%
X82550000Y-82804000D03*
X80010000Y-82804000D03*
D31*
X82550000Y-85344000D03*
D32*
X80010000Y-85344000D03*
%TD*%
D13*
%TO.C,C16*%
X123698000Y-129081500D03*
X123698000Y-130806500D03*
%TD*%
D27*
%TO.C,R2*%
X143764000Y-129119000D03*
X143764000Y-130769000D03*
%TD*%
M02*
