%TF.GenerationSoftware,KiCad,Pcbnew,8.0.1*%
%TF.CreationDate,2024-04-12T18:49:36-04:00*%
%TF.ProjectId,adc_fpga,6164635f-6670-4676-912e-6b696361645f,rev?*%
%TF.SameCoordinates,Original*%
%TF.FileFunction,Copper,L1,Top*%
%TF.FilePolarity,Positive*%
%FSLAX46Y46*%
G04 Gerber Fmt 4.6, Leading zero omitted, Abs format (unit mm)*
G04 Created by KiCad (PCBNEW 8.0.1) date 2024-04-12 18:49:36*
%MOMM*%
%LPD*%
G01*
G04 APERTURE LIST*
G04 Aperture macros list*
%AMRoundRect*
0 Rectangle with rounded corners*
0 $1 Rounding radius*
0 $2 $3 $4 $5 $6 $7 $8 $9 X,Y pos of 4 corners*
0 Add a 4 corners polygon primitive as box body*
4,1,4,$2,$3,$4,$5,$6,$7,$8,$9,$2,$3,0*
0 Add four circle primitives for the rounded corners*
1,1,$1+$1,$2,$3*
1,1,$1+$1,$4,$5*
1,1,$1+$1,$6,$7*
1,1,$1+$1,$8,$9*
0 Add four rect primitives between the rounded corners*
20,1,$1+$1,$2,$3,$4,$5,0*
20,1,$1+$1,$4,$5,$6,$7,0*
20,1,$1+$1,$6,$7,$8,$9,0*
20,1,$1+$1,$8,$9,$2,$3,0*%
G04 Aperture macros list end*
%TA.AperFunction,ComponentPad*%
%ADD10C,1.500000*%
%TD*%
%TA.AperFunction,ComponentPad*%
%ADD11C,1.524000*%
%TD*%
%TA.AperFunction,SMDPad,CuDef*%
%ADD12RoundRect,0.237500X-0.300000X-0.237500X0.300000X-0.237500X0.300000X0.237500X-0.300000X0.237500X0*%
%TD*%
%TA.AperFunction,SMDPad,CuDef*%
%ADD13RoundRect,0.237500X-0.237500X0.300000X-0.237500X-0.300000X0.237500X-0.300000X0.237500X0.300000X0*%
%TD*%
%TA.AperFunction,SMDPad,CuDef*%
%ADD14R,0.330200X1.473200*%
%TD*%
%TA.AperFunction,SMDPad,CuDef*%
%ADD15R,1.473200X0.330200*%
%TD*%
%TA.AperFunction,SMDPad,CuDef*%
%ADD16RoundRect,0.200000X0.275000X-0.200000X0.275000X0.200000X-0.275000X0.200000X-0.275000X-0.200000X0*%
%TD*%
%TA.AperFunction,SMDPad,CuDef*%
%ADD17RoundRect,0.200000X-0.200000X-0.275000X0.200000X-0.275000X0.200000X0.275000X-0.200000X0.275000X0*%
%TD*%
%TA.AperFunction,SMDPad,CuDef*%
%ADD18RoundRect,0.237500X0.300000X0.237500X-0.300000X0.237500X-0.300000X-0.237500X0.300000X-0.237500X0*%
%TD*%
%TA.AperFunction,ComponentPad*%
%ADD19R,1.200000X1.200000*%
%TD*%
%TA.AperFunction,ComponentPad*%
%ADD20C,1.200000*%
%TD*%
%TA.AperFunction,ComponentPad*%
%ADD21R,1.700000X1.700000*%
%TD*%
%TA.AperFunction,ComponentPad*%
%ADD22O,1.700000X1.700000*%
%TD*%
%TA.AperFunction,ComponentPad*%
%ADD23R,2.250000X2.250000*%
%TD*%
%TA.AperFunction,ComponentPad*%
%ADD24C,2.250000*%
%TD*%
%TA.AperFunction,SMDPad,CuDef*%
%ADD25RoundRect,0.190000X0.635000X0.190000X-0.635000X0.190000X-0.635000X-0.190000X0.635000X-0.190000X0*%
%TD*%
%TA.AperFunction,SMDPad,CuDef*%
%ADD26RoundRect,0.237500X0.237500X-0.300000X0.237500X0.300000X-0.237500X0.300000X-0.237500X-0.300000X0*%
%TD*%
%TA.AperFunction,SMDPad,CuDef*%
%ADD27RoundRect,0.200000X-0.275000X0.200000X-0.275000X-0.200000X0.275000X-0.200000X0.275000X0.200000X0*%
%TD*%
%TA.AperFunction,SMDPad,CuDef*%
%ADD28RoundRect,0.375000X-0.625000X-0.375000X0.625000X-0.375000X0.625000X0.375000X-0.625000X0.375000X0*%
%TD*%
%TA.AperFunction,SMDPad,CuDef*%
%ADD29RoundRect,0.500000X-0.500000X-1.400000X0.500000X-1.400000X0.500000X1.400000X-0.500000X1.400000X0*%
%TD*%
%TA.AperFunction,ComponentPad*%
%ADD30R,2.200000X2.200000*%
%TD*%
%TA.AperFunction,ComponentPad*%
%ADD31C,2.200000*%
%TD*%
%TA.AperFunction,SMDPad,CuDef*%
%ADD32RoundRect,0.040000X0.160000X-0.555000X0.160000X0.555000X-0.160000X0.555000X-0.160000X-0.555000X0*%
%TD*%
%TA.AperFunction,ViaPad*%
%ADD33C,0.600000*%
%TD*%
%TA.AperFunction,Conductor*%
%ADD34C,0.200000*%
%TD*%
%TA.AperFunction,Conductor*%
%ADD35C,0.500000*%
%TD*%
G04 APERTURE END LIST*
D10*
%TO.P,TP2,1,1*%
%TO.N,Net-(U3-VRM)*%
X137668000Y-92710000D03*
%TD*%
%TO.P,TP4,1,1*%
%TO.N,+3.3V*%
X88900000Y-89154000D03*
%TD*%
%TO.P,TP1,1,1*%
%TO.N,Net-(U2-A4)*%
X148336000Y-128016000D03*
%TD*%
D11*
%TO.P,U2,1,L1*%
%TO.N,Net-(U2-L1)*%
X148245000Y-108530000D03*
%TO.P,U2,2,M4*%
%TO.N,Net-(U2-M4)*%
X145705000Y-108530000D03*
%TO.P,U2,3,M3*%
%TO.N,Net-(U2-M3)*%
X143165000Y-108530000D03*
%TO.P,U2,4,N2*%
%TO.N,Net-(U2-N2)*%
X140625000Y-108530000D03*
%TO.P,U2,5,M2*%
%TO.N,Net-(U2-M2)*%
X138085000Y-108530000D03*
%TO.P,U2,6,P3*%
%TO.N,Net-(U2-P3)*%
X135545000Y-108530000D03*
%TO.P,U2,7,N3*%
%TO.N,Net-(U2-N3)*%
X133005000Y-108530000D03*
%TO.P,U2,8,P1*%
%TO.N,Net-(U2-P1)*%
X130465000Y-108530000D03*
%TO.P,U2,9,N1*%
%TO.N,Net-(U2-N1)*%
X127925000Y-108530000D03*
%TO.P,U2,16,P14*%
%TO.N,Net-(U2-P14)*%
X110145000Y-108530000D03*
%TO.P,U2,17,P15*%
%TO.N,Net-(U2-P15)*%
X107605000Y-108530000D03*
%TO.P,U2,18,N13*%
%TO.N,Net-(U2-N13)*%
X105065000Y-108530000D03*
%TO.P,U2,19,N15*%
%TO.N,Net-(U2-N15)*%
X102525000Y-108530000D03*
%TO.P,U2,20,N14*%
%TO.N,Net-(U2-N14)*%
X99985000Y-108530000D03*
%TO.P,U2,21,M15*%
%TO.N,Net-(U2-M15)*%
X97445000Y-108530000D03*
%TO.P,U2,22,M14*%
%TO.N,Net-(U2-M14)*%
X94905000Y-108530000D03*
%TO.P,U2,23,L15*%
%TO.N,Net-(U2-L15)*%
X92365000Y-108530000D03*
%TO.P,U2,24,VU*%
%TO.N,+5V*%
X89825000Y-108530000D03*
%TO.P,U2,25,GND*%
%TO.N,GND*%
X89825000Y-121230000D03*
%TO.P,U2,26,L14*%
%TO.N,Net-(U2-L14)*%
X92365000Y-121230000D03*
%TO.P,U2,27,K14*%
%TO.N,Net-(U2-K14)*%
X94905000Y-121230000D03*
%TO.P,U2,28,J15*%
%TO.N,Net-(U2-J15)*%
X97445000Y-121230000D03*
%TO.P,U2,29,L13*%
%TO.N,Net-(U2-L13)*%
X99985000Y-121230000D03*
%TO.P,U2,30,M13*%
%TO.N,Net-(U2-M13)*%
X102525000Y-121230000D03*
%TO.P,U2,31,J11*%
%TO.N,Net-(U2-J11)*%
X105065000Y-121230000D03*
%TO.P,U2,32,A32*%
%TO.N,Net-(U2-A32)*%
X107605000Y-121230000D03*
%TO.P,U2,33,A33*%
%TO.N,Net-(U2-A33)*%
X110145000Y-121230000D03*
%TO.P,U2,40,C5*%
%TO.N,Net-(U2-C5)*%
X127925000Y-121230000D03*
%TO.P,U2,41,A2*%
%TO.N,Net-(U2-A2)*%
X130465000Y-121230000D03*
%TO.P,U2,42,B2*%
%TO.N,Net-(U2-B2)*%
X133005000Y-121230000D03*
%TO.P,U2,43,B1*%
%TO.N,Net-(U2-B1)*%
X135545000Y-121230000D03*
%TO.P,U2,44,C1*%
%TO.N,Net-(U2-C1)*%
X138085000Y-121230000D03*
%TO.P,U2,45,B3*%
%TO.N,Net-(U2-B3)*%
X140625000Y-121230000D03*
%TO.P,U2,46,B4*%
%TO.N,Net-(U2-B4)*%
X143165000Y-121230000D03*
%TO.P,U2,47,A3*%
%TO.N,Net-(U2-A3)*%
X145705000Y-121230000D03*
%TO.P,U2,48,A4*%
%TO.N,Net-(U2-A4)*%
X148245000Y-121230000D03*
%TD*%
D12*
%TO.P,C20,1*%
%TO.N,Net-(U2-M14)*%
X98197500Y-104140000D03*
%TO.P,C20,2*%
%TO.N,GND*%
X99922500Y-104140000D03*
%TD*%
%TO.P,C14,1*%
%TO.N,Net-(U2-L15)*%
X94387500Y-104140000D03*
%TO.P,C14,2*%
%TO.N,GND*%
X96112500Y-104140000D03*
%TD*%
D13*
%TO.P,C13,1*%
%TO.N,+3.3V*%
X119888000Y-99975500D03*
%TO.P,C13,2*%
%TO.N,GND*%
X119888000Y-101700500D03*
%TD*%
D14*
%TO.P,U3,1,VREF*%
%TO.N,+3.3V*%
X122103799Y-89306400D03*
%TO.P,U3,2,VIN+*%
%TO.N,Net-(U3-VIN+)*%
X121303801Y-89306400D03*
%TO.P,U3,3,VIN-*%
%TO.N,Net-(U3-VIN-)*%
X120503800Y-89306400D03*
%TO.P,U3,4,AGND*%
%TO.N,GND*%
X119703799Y-89306400D03*
%TO.P,U3,5,VA*%
%TO.N,+3.3V*%
X118903801Y-89306400D03*
%TO.P,U3,6,VD*%
X118103800Y-89306400D03*
%TO.P,U3,7,AGND*%
%TO.N,GND*%
X117303801Y-89306400D03*
%TO.P,U3,8,PD*%
X116503801Y-89306400D03*
D15*
%TO.P,U3,9,DGND*%
X114985800Y-90824401D03*
%TO.P,U3,10,CLK*%
%TO.N,Net-(U2-M15)*%
X114985800Y-91624399D03*
%TO.P,U3,11,DF/DCS*%
%TO.N,GND*%
X114985800Y-92424400D03*
%TO.P,U3,12,(LSB)D0*%
%TO.N,Net-(U2-N14)*%
X114985800Y-93224401D03*
%TO.P,U3,13,D1*%
%TO.N,Net-(U2-N15)*%
X114985800Y-94024399D03*
%TO.P,U3,14,D2*%
%TO.N,Net-(U2-N13)*%
X114985800Y-94824400D03*
%TO.P,U3,15,D3*%
%TO.N,Net-(U2-P15)*%
X114985800Y-95624399D03*
%TO.P,U3,16,D4*%
%TO.N,Net-(U2-P14)*%
X114985800Y-96424399D03*
D14*
%TO.P,U3,17,D5*%
%TO.N,Net-(U2-N1)*%
X116503801Y-97942400D03*
%TO.P,U3,18,D6*%
%TO.N,Net-(U2-P1)*%
X117303799Y-97942400D03*
%TO.P,U3,19,D7*%
%TO.N,Net-(U2-N3)*%
X118103800Y-97942400D03*
%TO.P,U3,20,DRGND*%
%TO.N,GND*%
X118903801Y-97942400D03*
%TO.P,U3,21,VDR*%
%TO.N,+3.3V*%
X119703799Y-97942400D03*
%TO.P,U3,22,D8*%
%TO.N,Net-(U2-P3)*%
X120503800Y-97942400D03*
%TO.P,U3,23,D9*%
%TO.N,Net-(U2-M2)*%
X121303799Y-97942400D03*
%TO.P,U3,24,D10*%
%TO.N,Net-(U2-N2)*%
X122103799Y-97942400D03*
D15*
%TO.P,U3,25,D11*%
%TO.N,Net-(U2-M3)*%
X123621800Y-96424399D03*
%TO.P,U3,26,D12*%
%TO.N,Net-(U2-M4)*%
X123621800Y-95624401D03*
%TO.P,U3,27,D13(MSB)*%
%TO.N,Net-(U2-L1)*%
X123621800Y-94824400D03*
%TO.P,U3,28,AGND*%
%TO.N,GND*%
X123621800Y-94024399D03*
%TO.P,U3,29,VA*%
%TO.N,+3.3V*%
X123621800Y-93224401D03*
%TO.P,U3,30,VRN*%
%TO.N,Net-(U3-VRN)*%
X123621800Y-92424400D03*
%TO.P,U3,31,VRP*%
%TO.N,Net-(U3-VRP)*%
X123621800Y-91624401D03*
%TO.P,U3,32,VRM*%
%TO.N,Net-(U3-VRM)*%
X123621800Y-90824401D03*
%TD*%
D16*
%TO.P,R5,1*%
%TO.N,Net-(R1-Pad2)*%
X134620000Y-86423000D03*
%TO.P,R5,2*%
%TO.N,Net-(R4-Pad2)*%
X134620000Y-84773000D03*
%TD*%
D17*
%TO.P,R4,1*%
%TO.N,Net-(U3-VIN-)*%
X130747000Y-84328000D03*
%TO.P,R4,2*%
%TO.N,Net-(R4-Pad2)*%
X132397000Y-84328000D03*
%TD*%
%TO.P,R1,1*%
%TO.N,Net-(U3-VIN+)*%
X130747000Y-86868000D03*
%TO.P,R1,2*%
%TO.N,Net-(R1-Pad2)*%
X132397000Y-86868000D03*
%TD*%
D18*
%TO.P,C12,2*%
%TO.N,GND*%
X125375500Y-86868000D03*
%TO.P,C12,1*%
%TO.N,Net-(U3-VIN+)*%
X127100500Y-86868000D03*
%TD*%
D12*
%TO.P,C10,1*%
%TO.N,GND*%
X125375500Y-84328000D03*
%TO.P,C10,2*%
%TO.N,Net-(U3-VIN-)*%
X127100500Y-84328000D03*
%TD*%
%TO.P,C9,1*%
%TO.N,Net-(U3-VRM)*%
X139345500Y-89154000D03*
%TO.P,C9,2*%
%TO.N,GND*%
X141070500Y-89154000D03*
%TD*%
D19*
%TO.P,C8,1*%
%TO.N,Net-(U3-VRP)*%
X132588000Y-90975401D03*
D20*
%TO.P,C8,2*%
%TO.N,Net-(U3-VRN)*%
X132588000Y-92975401D03*
%TD*%
D18*
%TO.P,C7,2*%
%TO.N,Net-(U3-VRN)*%
X125629500Y-93218000D03*
%TO.P,C7,1*%
%TO.N,GND*%
X127354500Y-93218000D03*
%TD*%
%TO.P,C6,1*%
%TO.N,GND*%
X127354500Y-89408000D03*
%TO.P,C6,2*%
%TO.N,Net-(U3-VRM)*%
X125629500Y-89408000D03*
%TD*%
%TO.P,C5,2*%
%TO.N,Net-(U3-VRP)*%
X125629500Y-91186000D03*
%TO.P,C5,1*%
%TO.N,GND*%
X127354500Y-91186000D03*
%TD*%
D19*
%TO.P,C4,1*%
%TO.N,+3.3V*%
X113792000Y-84836000D03*
D20*
%TO.P,C4,2*%
%TO.N,GND*%
X111792000Y-84836000D03*
%TD*%
D18*
%TO.P,C3,1*%
%TO.N,GND*%
X127354500Y-94742000D03*
%TO.P,C3,2*%
%TO.N,+3.3V*%
X125629500Y-94742000D03*
%TD*%
D12*
%TO.P,C2,1*%
%TO.N,GND*%
X116485500Y-87376000D03*
%TO.P,C2,2*%
%TO.N,+3.3V*%
X118210500Y-87376000D03*
%TD*%
D21*
%TO.P,J5,1*%
%TO.N,Net-(U2-A33)*%
X102870000Y-125984000D03*
D22*
%TO.P,J5,2*%
%TO.N,Net-(U2-A32)*%
X100330000Y-125984000D03*
%TO.P,J5,3*%
%TO.N,Net-(U2-J11)*%
X97790000Y-125984000D03*
%TO.P,J5,4*%
%TO.N,Net-(U2-M13)*%
X95250000Y-125984000D03*
%TO.P,J5,5*%
%TO.N,Net-(U2-L13)*%
X92710000Y-125984000D03*
%TO.P,J5,6*%
%TO.N,Net-(U2-J15)*%
X90170000Y-125984000D03*
%TO.P,J5,7*%
%TO.N,Net-(U2-K14)*%
X87630000Y-125984000D03*
%TO.P,J5,8*%
%TO.N,Net-(U2-L14)*%
X85090000Y-125984000D03*
%TO.P,J5,9*%
%TO.N,GND*%
X82550000Y-125984000D03*
%TD*%
D21*
%TO.P,J3,1*%
%TO.N,Net-(U2-A3)*%
X140716000Y-125984000D03*
D22*
%TO.P,J3,2*%
%TO.N,Net-(U2-B4)*%
X138176000Y-125984000D03*
%TO.P,J3,3*%
%TO.N,Net-(U2-B3)*%
X135636000Y-125984000D03*
%TO.P,J3,4*%
%TO.N,Net-(U2-C1)*%
X133096000Y-125984000D03*
%TO.P,J3,5*%
%TO.N,Net-(U2-B1)*%
X130556000Y-125984000D03*
%TO.P,J3,6*%
%TO.N,Net-(U2-B2)*%
X128016000Y-125984000D03*
%TO.P,J3,7*%
%TO.N,Net-(U2-A2)*%
X125476000Y-125984000D03*
%TO.P,J3,8*%
%TO.N,Net-(U2-C5)*%
X122936000Y-125984000D03*
%TO.P,J3,9*%
%TO.N,GND*%
X120396000Y-125984000D03*
%TD*%
D23*
%TO.P,J1,1,In*%
%TO.N,Net-(J1-In)*%
X151892000Y-85959500D03*
D24*
%TO.P,J1,2,Ext*%
%TO.N,GND*%
X154432000Y-83419500D03*
X149352000Y-83419500D03*
X154432000Y-88499500D03*
X149352000Y-88499500D03*
%TD*%
D25*
%TO.P,T1,6*%
%TO.N,Net-(C11-Pad2)*%
X141290000Y-86871000D03*
%TO.P,T1,4*%
%TO.N,GND*%
X141290000Y-84331000D03*
%TO.P,T1,3*%
%TO.N,Net-(R4-Pad2)*%
X138110000Y-84331000D03*
%TO.P,T1,2*%
%TO.N,Net-(U3-VRM)*%
X138110000Y-85601000D03*
%TO.P,T1,1*%
%TO.N,Net-(R1-Pad2)*%
X138110000Y-86871000D03*
%TD*%
D13*
%TO.P,C11,2*%
%TO.N,Net-(C11-Pad2)*%
X144254000Y-86460500D03*
%TO.P,C11,1*%
%TO.N,Net-(J1-In)*%
X144254000Y-84735500D03*
%TD*%
D26*
%TO.P,C17,1*%
%TO.N,Net-(U1-+)*%
X136906000Y-130806500D03*
%TO.P,C17,2*%
%TO.N,GND*%
X136906000Y-129081500D03*
%TD*%
D19*
%TO.P,C19,1*%
%TO.N,Net-(U1--)*%
X119844600Y-130302000D03*
D20*
%TO.P,C19,2*%
%TO.N,Net-(J2-Pin_1)*%
X117844600Y-130302000D03*
%TD*%
D27*
%TO.P,R3,1*%
%TO.N,Net-(C18-Pad2)*%
X139954000Y-129119000D03*
%TO.P,R3,2*%
%TO.N,Net-(U1-+)*%
X139954000Y-130769000D03*
%TD*%
D12*
%TO.P,C1,2*%
%TO.N,GND*%
X91540500Y-104140000D03*
%TO.P,C1,1*%
%TO.N,+5V*%
X89815500Y-104140000D03*
%TD*%
D28*
%TO.P,U4,1,GND*%
%TO.N,GND*%
X80822000Y-93712000D03*
%TO.P,U4,2,VO*%
%TO.N,+3.3V*%
X80822000Y-96012000D03*
D29*
X87122000Y-96012000D03*
D28*
%TO.P,U4,3,VI*%
%TO.N,+5V*%
X80822000Y-98312000D03*
%TD*%
D30*
%TO.P,J2,1,Pin_1*%
%TO.N,Net-(J2-Pin_1)*%
X109220000Y-128524000D03*
D31*
%TO.P,J2,2,Pin_2*%
%TO.N,GND*%
X111760000Y-128524000D03*
%TD*%
D19*
%TO.P,C15,1*%
%TO.N,+3.3V*%
X90932000Y-96012000D03*
D20*
%TO.P,C15,2*%
%TO.N,GND*%
X92932000Y-96012000D03*
%TD*%
D26*
%TO.P,C18,1*%
%TO.N,Net-(U1--)*%
X132842000Y-130806500D03*
%TO.P,C18,2*%
%TO.N,Net-(C18-Pad2)*%
X132842000Y-129081500D03*
%TD*%
D32*
%TO.P,U1,1,+*%
%TO.N,Net-(U1-+)*%
X127874000Y-130698000D03*
%TO.P,U1,2,V-*%
%TO.N,GND*%
X128524000Y-130698000D03*
%TO.P,U1,3,-*%
%TO.N,Net-(U1--)*%
X129174000Y-130698000D03*
%TO.P,U1,4*%
X129174000Y-128778000D03*
%TO.P,U1,5,V+*%
%TO.N,+5V*%
X127874000Y-128778000D03*
%TD*%
D30*
%TO.P,J4,1,Pin_1*%
%TO.N,GND*%
X82550000Y-85344000D03*
D31*
%TO.P,J4,2,Pin_2*%
%TO.N,+5V*%
X80010000Y-85344000D03*
%TD*%
D13*
%TO.P,C16,1*%
%TO.N,+5V*%
X123698000Y-129081500D03*
%TO.P,C16,2*%
%TO.N,GND*%
X123698000Y-130806500D03*
%TD*%
D27*
%TO.P,R2,1*%
%TO.N,Net-(U2-A4)*%
X143764000Y-129119000D03*
%TO.P,R2,2*%
%TO.N,Net-(C18-Pad2)*%
X143764000Y-130769000D03*
%TD*%
D33*
%TO.N,GND*%
X99822000Y-105410000D03*
X96012000Y-105410000D03*
X141224000Y-83312000D03*
%TO.N,+3.3V*%
X120142000Y-96520000D03*
%TO.N,GND*%
X120396000Y-102870000D03*
X128524000Y-89408000D03*
X128524000Y-94742000D03*
X128524000Y-93218000D03*
%TO.N,+3.3V*%
X118364000Y-90932000D03*
X121920000Y-92456000D03*
%TO.N,GND*%
X128524000Y-91186000D03*
X124206000Y-84328000D03*
X124206000Y-86868000D03*
X116332000Y-91186000D03*
X115316000Y-87376000D03*
X122428000Y-93980000D03*
X118872000Y-96520000D03*
X116332000Y-92456000D03*
X119634000Y-90424000D03*
X117348000Y-90424000D03*
X116586000Y-90424000D03*
X136736000Y-83312000D03*
X130302000Y-129794000D03*
X123698000Y-132588000D03*
X138176000Y-129032000D03*
X92710000Y-104140000D03*
%TD*%
D34*
%TO.N,Net-(U1--)*%
X119833199Y-127998801D02*
X119833199Y-129943999D01*
X120324000Y-127508000D02*
X119833199Y-127998801D01*
X130810000Y-127508000D02*
X120324000Y-127508000D01*
X130938750Y-127636750D02*
X130810000Y-127508000D01*
X130938750Y-128903250D02*
X130938750Y-127636750D01*
%TO.N,+3.3V*%
X87122000Y-90932000D02*
X87122000Y-96012000D01*
X88900000Y-89154000D02*
X87122000Y-90932000D01*
%TO.N,Net-(U3-VRM)*%
X137668000Y-90831500D02*
X139345500Y-89154000D01*
X137668000Y-92710000D02*
X137668000Y-90831500D01*
%TO.N,Net-(U2-M3)*%
X143074000Y-108530000D02*
X143165000Y-108530000D01*
X139954000Y-105410000D02*
X143074000Y-108530000D01*
X133350000Y-105410000D02*
X139954000Y-105410000D01*
X124364399Y-96424399D02*
X133350000Y-105410000D01*
X123621800Y-96424399D02*
X124364399Y-96424399D01*
%TO.N,Net-(U2-L1)*%
X144109000Y-104394000D02*
X148245000Y-108530000D01*
X124507943Y-95053200D02*
X133848743Y-104394000D01*
X123850600Y-95053200D02*
X124507943Y-95053200D01*
X123621800Y-94824400D02*
X123850600Y-95053200D01*
X133848743Y-104394000D02*
X144109000Y-104394000D01*
%TO.N,Net-(U2-M4)*%
X142077000Y-104902000D02*
X145705000Y-108530000D01*
X133604000Y-104902000D02*
X142077000Y-104902000D01*
X124326401Y-95624401D02*
X133604000Y-104902000D01*
X123621800Y-95624401D02*
X124326401Y-95624401D01*
%TO.N,Net-(U2-N14)*%
X114985800Y-93224401D02*
X114284098Y-93224401D01*
X102590000Y-107468000D02*
X101047000Y-107468000D01*
X114284098Y-93224401D02*
X113949200Y-93559299D01*
X101047000Y-107468000D02*
X99985000Y-108530000D01*
X113949200Y-93559299D02*
X113949200Y-93793614D01*
X110699600Y-99358400D02*
X102590000Y-107468000D01*
X113949200Y-93793614D02*
X110699600Y-97043214D01*
X110699600Y-97043214D02*
X110699600Y-99358400D01*
%TO.N,GND*%
X99922500Y-105309500D02*
X99822000Y-105410000D01*
X99922500Y-104140000D02*
X99922500Y-105309500D01*
X96112500Y-105309500D02*
X96012000Y-105410000D01*
X96112500Y-104140000D02*
X96112500Y-105309500D01*
%TO.N,Net-(U2-M14)*%
X98197500Y-105237500D02*
X94905000Y-108530000D01*
X98197500Y-104140000D02*
X98197500Y-105237500D01*
%TO.N,Net-(U2-L15)*%
X94387500Y-106507500D02*
X92365000Y-108530000D01*
X94387500Y-104140000D02*
X94387500Y-106507500D01*
D35*
%TO.N,+5V*%
X89825000Y-104149500D02*
X89815500Y-104140000D01*
X89825000Y-108530000D02*
X89825000Y-104149500D01*
X89815500Y-102108000D02*
X89815500Y-104140000D01*
D34*
%TO.N,GND*%
X141224000Y-83312000D02*
X141290000Y-84331000D01*
%TO.N,+3.3V*%
X120142000Y-96520000D02*
X119703799Y-96958201D01*
X119703799Y-96958201D02*
X119703799Y-97942400D01*
%TO.N,GND*%
X120396000Y-102208500D02*
X119888000Y-101700500D01*
X120396000Y-102870000D02*
X120396000Y-102208500D01*
%TO.N,+3.3V*%
X119888000Y-98126601D02*
X119703799Y-97942400D01*
X119888000Y-99975500D02*
X119888000Y-98126601D01*
%TO.N,Net-(U2-N3)*%
X131543000Y-107068000D02*
X133005000Y-108530000D01*
X123693372Y-107068000D02*
X131543000Y-107068000D01*
X118103800Y-101478428D02*
X123693372Y-107068000D01*
X118103800Y-97942400D02*
X118103800Y-101478428D01*
%TO.N,Net-(U2-P1)*%
X129403000Y-107468000D02*
X130465000Y-108530000D01*
X117303799Y-101244113D02*
X123527686Y-107468000D01*
X123527686Y-107468000D02*
X129403000Y-107468000D01*
X117303799Y-97942400D02*
X117303799Y-101244113D01*
%TO.N,Net-(U2-N1)*%
X124024000Y-108530000D02*
X127925000Y-108530000D01*
X116503801Y-101009801D02*
X124024000Y-108530000D01*
X116503801Y-97942400D02*
X116503801Y-101009801D01*
%TO.N,Net-(U2-N2)*%
X137963000Y-105868000D02*
X140625000Y-108530000D01*
X126143000Y-105868000D02*
X137963000Y-105868000D01*
X123190000Y-102915000D02*
X126143000Y-105868000D01*
X123190000Y-99028601D02*
X123190000Y-102915000D01*
X122103799Y-97942400D02*
X123190000Y-99028601D01*
%TO.N,Net-(U2-P3)*%
X125643000Y-106668000D02*
X133683000Y-106668000D01*
X133683000Y-106668000D02*
X135545000Y-108530000D01*
X121920000Y-102945000D02*
X125643000Y-106668000D01*
X120838699Y-98979000D02*
X121920000Y-100060301D01*
X121920000Y-100060301D02*
X121920000Y-102945000D01*
X120838699Y-98277299D02*
X120838699Y-98979000D01*
X120503800Y-97942400D02*
X120838699Y-98277299D01*
%TO.N,Net-(U2-M2)*%
X125950107Y-106268000D02*
X135823000Y-106268000D01*
X122428000Y-102745893D02*
X125950107Y-106268000D01*
X121638699Y-98277300D02*
X121638699Y-98979000D01*
X121303799Y-97942400D02*
X121638699Y-98277300D01*
X121638699Y-98979000D02*
X122428000Y-99768301D01*
X122428000Y-99768301D02*
X122428000Y-102745893D01*
X135823000Y-106268000D02*
X138085000Y-108530000D01*
D35*
%TO.N,GND*%
X92710000Y-104140000D02*
X91540500Y-104140000D01*
%TO.N,+5V*%
X86019500Y-98312000D02*
X89815500Y-102108000D01*
D34*
%TO.N,GND*%
X128524000Y-89408000D02*
X127354500Y-89408000D01*
%TO.N,Net-(U3-VRM)*%
X138329500Y-88138000D02*
X139345500Y-89154000D01*
X125038201Y-89408000D02*
X125629500Y-89408000D01*
X125629500Y-89408000D02*
X126899500Y-88138000D01*
X123621800Y-90824401D02*
X125038201Y-89408000D01*
X126899500Y-88138000D02*
X138329500Y-88138000D01*
%TO.N,Net-(U3-VRP)*%
X132023599Y-90411000D02*
X132588000Y-90975401D01*
X126404500Y-90411000D02*
X132023599Y-90411000D01*
X125629500Y-91186000D02*
X126404500Y-90411000D01*
%TO.N,Net-(U3-VRN)*%
X132055599Y-92443000D02*
X132588000Y-92975401D01*
X126404500Y-92443000D02*
X132055599Y-92443000D01*
X125629500Y-93218000D02*
X126404500Y-92443000D01*
%TO.N,GND*%
X127354500Y-94742000D02*
X128524000Y-94742000D01*
X127354500Y-93218000D02*
X128524000Y-93218000D01*
X127354500Y-91186000D02*
X128524000Y-91186000D01*
%TO.N,+3.3V*%
X118103800Y-90671800D02*
X118364000Y-90932000D01*
X118103800Y-89306400D02*
X118103800Y-90671800D01*
X122103799Y-92272201D02*
X122103799Y-89306400D01*
X121920000Y-92456000D02*
X122103799Y-92272201D01*
X123050300Y-93224401D02*
X123621800Y-93224401D01*
X122281899Y-92456000D02*
X123050300Y-93224401D01*
X121920000Y-92456000D02*
X122281899Y-92456000D01*
X125629500Y-94660601D02*
X125629500Y-94742000D01*
X124193300Y-93224401D02*
X125629500Y-94660601D01*
X123621800Y-93224401D02*
X124193300Y-93224401D01*
%TO.N,Net-(U3-VIN+)*%
X121303801Y-88236549D02*
X121303801Y-89306400D01*
X123810550Y-85729800D02*
X121303801Y-88236549D01*
X124591800Y-85729800D02*
X123810550Y-85729800D01*
X127000000Y-85744000D02*
X124606000Y-85744000D01*
X124606000Y-85744000D02*
X124591800Y-85729800D01*
%TO.N,Net-(U3-VIN-)*%
X120503800Y-88284200D02*
X120503800Y-89306400D01*
X123458200Y-85329800D02*
X120503800Y-88284200D01*
X124953800Y-85329800D02*
X123458200Y-85329800D01*
D35*
%TO.N,Net-(J1-In)*%
X148618000Y-85959500D02*
X151892000Y-85959500D01*
X144254000Y-84735500D02*
X147394000Y-84735500D01*
X147394000Y-84735500D02*
X148618000Y-85959500D01*
D34*
%TO.N,Net-(R4-Pad2)*%
X135062000Y-84331000D02*
X134620000Y-84773000D01*
X138110000Y-84331000D02*
X135062000Y-84331000D01*
%TO.N,Net-(R1-Pad2)*%
X135068000Y-86871000D02*
X134620000Y-86423000D01*
X138110000Y-86871000D02*
X135068000Y-86871000D01*
%TO.N,Net-(U3-VRM)*%
X138935000Y-85601000D02*
X138110000Y-85601000D01*
X139345500Y-86011500D02*
X138935000Y-85601000D01*
X139345500Y-89154000D02*
X139345500Y-86011500D01*
%TO.N,GND*%
X127254000Y-93117500D02*
X127354500Y-93218000D01*
X127354500Y-91186000D02*
X127254000Y-91286500D01*
%TO.N,Net-(U3-VRN)*%
X125629500Y-93218000D02*
X124835900Y-92424400D01*
X124835900Y-92424400D02*
X123621800Y-92424400D01*
%TO.N,Net-(U3-VRP)*%
X125629500Y-91186000D02*
X125191099Y-91624401D01*
X125191099Y-91624401D02*
X123621800Y-91624401D01*
%TO.N,GND*%
X124206000Y-86868000D02*
X125375500Y-86868000D01*
X124206000Y-84328000D02*
X125375500Y-84328000D01*
%TO.N,Net-(U3-VIN+)*%
X127100500Y-85844500D02*
X127000000Y-85744000D01*
X128770500Y-85744000D02*
X127000000Y-85744000D01*
X127100500Y-86868000D02*
X127100500Y-85844500D01*
%TO.N,Net-(U3-VIN-)*%
X127100500Y-85190500D02*
X127254000Y-85344000D01*
X124968000Y-85344000D02*
X127254000Y-85344000D01*
X127254000Y-85344000D02*
X128524000Y-85344000D01*
X127100500Y-84328000D02*
X127100500Y-85190500D01*
%TO.N,+3.3V*%
X115670500Y-84836000D02*
X118210500Y-87376000D01*
X113792000Y-84836000D02*
X115670500Y-84836000D01*
%TO.N,GND*%
X115970401Y-90824401D02*
X116332000Y-91186000D01*
X114985800Y-90824401D02*
X115970401Y-90824401D01*
X116485500Y-87376000D02*
X115316000Y-87376000D01*
X119634000Y-89376199D02*
X119703799Y-89306400D01*
X119634000Y-90424000D02*
X119634000Y-89376199D01*
X117348000Y-90424000D02*
X117348000Y-89350599D01*
X117348000Y-89350599D02*
X117303801Y-89306400D01*
X116586000Y-89388599D02*
X116503801Y-89306400D01*
X116586000Y-90424000D02*
X116586000Y-89388599D01*
X115017400Y-92456000D02*
X114985800Y-92424400D01*
X116332000Y-92456000D02*
X115017400Y-92456000D01*
X123577401Y-93980000D02*
X123621800Y-94024399D01*
X122428000Y-93980000D02*
X123577401Y-93980000D01*
X118872000Y-97910599D02*
X118903801Y-97942400D01*
X118872000Y-96520000D02*
X118872000Y-97910599D01*
%TO.N,+3.3V*%
X118903801Y-88169801D02*
X118903801Y-89306400D01*
X118872000Y-88138000D02*
X118903801Y-88169801D01*
X118872000Y-88037500D02*
X118872000Y-88138000D01*
X118210500Y-87376000D02*
X118872000Y-88037500D01*
X118210500Y-89199700D02*
X118103800Y-89306400D01*
X118210500Y-87376000D02*
X118210500Y-89199700D01*
%TO.N,Net-(U3-VIN-)*%
X124968000Y-85344000D02*
X124953800Y-85329800D01*
%TO.N,Net-(U3-VIN+)*%
X129894500Y-86868000D02*
X128770500Y-85744000D01*
%TO.N,Net-(U3-VIN-)*%
X128524000Y-85344000D02*
X129590250Y-84277750D01*
X129640500Y-84328000D02*
X129590250Y-84277750D01*
%TO.N,Net-(U3-VIN+)*%
X130747000Y-86868000D02*
X129894500Y-86868000D01*
%TO.N,Net-(U3-VIN-)*%
X130747000Y-84328000D02*
X129640500Y-84328000D01*
%TO.N,Net-(R1-Pad2)*%
X134175000Y-86868000D02*
X134620000Y-86423000D01*
X132397000Y-86868000D02*
X134175000Y-86868000D01*
%TO.N,Net-(R4-Pad2)*%
X132397000Y-84328000D02*
X134175000Y-84328000D01*
X134175000Y-84328000D02*
X134620000Y-84773000D01*
%TO.N,Net-(U2-M15)*%
X110299600Y-99192714D02*
X110299600Y-95608900D01*
X102424314Y-107068000D02*
X110299600Y-99192714D01*
X99945105Y-107068000D02*
X102424314Y-107068000D01*
X110299600Y-95608900D02*
X114284101Y-91624399D01*
X114284101Y-91624399D02*
X114985800Y-91624399D01*
X98923000Y-108530000D02*
X98923000Y-108090105D01*
X98923000Y-108090105D02*
X99945105Y-107068000D01*
X97445000Y-108530000D02*
X98923000Y-108530000D01*
%TO.N,Net-(U2-P14)*%
X110145000Y-102227058D02*
X110145000Y-108530000D01*
X112299600Y-100072458D02*
X110145000Y-102227058D01*
X112299600Y-98012400D02*
X112299600Y-100072458D01*
X113887601Y-96424399D02*
X112299600Y-98012400D01*
X114985800Y-96424399D02*
X113887601Y-96424399D01*
%TO.N,Net-(U2-P15)*%
X107605000Y-104201372D02*
X107605000Y-108530000D01*
X111899600Y-99906772D02*
X107605000Y-104201372D01*
X111899600Y-97726600D02*
X111899600Y-99906772D01*
X114001801Y-95624399D02*
X111899600Y-97726600D01*
X114985800Y-95624399D02*
X114001801Y-95624399D01*
%TO.N,Net-(U2-N13)*%
X105065000Y-108460000D02*
X105065000Y-108530000D01*
X106300000Y-107225000D02*
X105065000Y-108460000D01*
X111499600Y-99741086D02*
X106300000Y-104940686D01*
X114166800Y-94824400D02*
X111499600Y-97491600D01*
X106300000Y-104940686D02*
X106300000Y-107225000D01*
X114985800Y-94824400D02*
X114166800Y-94824400D01*
X111499600Y-97491600D02*
X111499600Y-99741086D01*
%TO.N,Net-(U2-N15)*%
X111099600Y-97208900D02*
X111099600Y-99575400D01*
X111099600Y-99575400D02*
X102525000Y-108150000D01*
X114284101Y-94024399D02*
X111099600Y-97208900D01*
X102525000Y-108150000D02*
X102525000Y-108530000D01*
X114985800Y-94024399D02*
X114284101Y-94024399D01*
D35*
%TO.N,+5V*%
X120445500Y-132334000D02*
X123698000Y-129081500D01*
X85090000Y-132334000D02*
X120445500Y-132334000D01*
X80264000Y-118091000D02*
X80264000Y-127508000D01*
X80264000Y-127508000D02*
X85090000Y-132334000D01*
X83937500Y-114417500D02*
X80264000Y-118091000D01*
D34*
%TO.N,GND*%
X141290000Y-83312000D02*
X141224000Y-83312000D01*
D35*
%TO.N,+5V*%
X89825000Y-108530000D02*
X83790000Y-114565000D01*
X80822000Y-98312000D02*
X86019500Y-98312000D01*
X78910001Y-96400001D02*
X80822000Y-98312000D01*
X78910001Y-86443999D02*
X78910001Y-96400001D01*
X80010000Y-85344000D02*
X78910001Y-86443999D01*
D34*
%TO.N,Net-(U2-A32)*%
X104276000Y-122292000D02*
X106543000Y-122292000D01*
X100584000Y-125984000D02*
X104276000Y-122292000D01*
X106543000Y-122292000D02*
X107605000Y-121230000D01*
X100330000Y-125984000D02*
X100584000Y-125984000D01*
%TO.N,Net-(U2-M13)*%
X99441000Y-124314000D02*
X102525000Y-121230000D01*
X97485685Y-124314000D02*
X99441000Y-124314000D01*
X95250000Y-125984000D02*
X95815685Y-125984000D01*
X95815685Y-125984000D02*
X97485685Y-124314000D01*
%TO.N,Net-(U2-J11)*%
X100955500Y-124714000D02*
X104439500Y-121230000D01*
X104439500Y-121230000D02*
X105065000Y-121230000D01*
X99060000Y-124714000D02*
X100955500Y-124714000D01*
X97790000Y-125984000D02*
X99060000Y-124714000D01*
%TO.N,Net-(U2-L13)*%
X96774000Y-124460000D02*
X97282000Y-123952000D01*
X97282000Y-123952000D02*
X97282000Y-123933000D01*
X95147654Y-124460000D02*
X96774000Y-124460000D01*
X93623654Y-125984000D02*
X95147654Y-124460000D01*
X97282000Y-123933000D02*
X99985000Y-121230000D01*
X92710000Y-125984000D02*
X93623654Y-125984000D01*
%TO.N,Net-(U2-A33)*%
X102870000Y-125984000D02*
X105391000Y-125984000D01*
X105391000Y-125984000D02*
X110145000Y-121230000D01*
%TO.N,Net-(U2-J15)*%
X94215000Y-124460000D02*
X97445000Y-121230000D01*
X92607654Y-124460000D02*
X94215000Y-124460000D01*
X91083654Y-125984000D02*
X92607654Y-124460000D01*
X90170000Y-125984000D02*
X91083654Y-125984000D01*
%TO.N,Net-(U2-K14)*%
X91675000Y-124460000D02*
X94905000Y-121230000D01*
X89700686Y-124460000D02*
X91675000Y-124460000D01*
X88176686Y-125984000D02*
X89700686Y-124460000D01*
X87630000Y-125984000D02*
X88176686Y-125984000D01*
%TO.N,Net-(U2-L14)*%
X89131895Y-124463105D02*
X92365000Y-121230000D01*
X86610895Y-124463105D02*
X89131895Y-124463105D01*
X85090000Y-125984000D02*
X86610895Y-124463105D01*
%TO.N,GND*%
X138126500Y-129081500D02*
X138176000Y-129032000D01*
X128833000Y-129794000D02*
X130302000Y-129794000D01*
X128524000Y-130698000D02*
X128524000Y-130103000D01*
D35*
X80822000Y-87072000D02*
X82550000Y-85344000D01*
X80822000Y-93712000D02*
X80822000Y-87072000D01*
D34*
X136906000Y-129081500D02*
X138126500Y-129081500D01*
X128524000Y-130103000D02*
X128833000Y-129794000D01*
X123698000Y-130806500D02*
X123698000Y-132588000D01*
D35*
%TO.N,+5V*%
X127570500Y-129081500D02*
X127874000Y-128778000D01*
X123698000Y-129081500D02*
X127570500Y-129081500D01*
%TO.N,+3.3V*%
X80822000Y-96012000D02*
X87122000Y-96012000D01*
X87122000Y-96012000D02*
X90932000Y-96012000D01*
D34*
%TO.N,Net-(U2-A4)*%
X148245000Y-121230000D02*
X148245000Y-124638000D01*
X148245000Y-124638000D02*
X143764000Y-129119000D01*
%TO.N,Net-(C11-Pad2)*%
X141700500Y-86460500D02*
X141290000Y-86871000D01*
X144254000Y-86460500D02*
X141700500Y-86460500D01*
%TO.N,Net-(U2-B2)*%
X133005000Y-121230000D02*
X128485000Y-125750000D01*
X128485000Y-125750000D02*
X127670000Y-125750000D01*
%TO.N,Net-(U2-C5)*%
X123405000Y-125750000D02*
X122590000Y-125750000D01*
X127925000Y-121230000D02*
X123405000Y-125750000D01*
%TO.N,Net-(U2-B4)*%
X139440000Y-124600000D02*
X138900000Y-124600000D01*
X143165000Y-121230000D02*
X142810000Y-121230000D01*
X142810000Y-121230000D02*
X139440000Y-124600000D01*
X137830000Y-125670000D02*
X137830000Y-125750000D01*
X138900000Y-124600000D02*
X137830000Y-125670000D01*
%TO.N,Net-(U2-C1)*%
X138085000Y-121230000D02*
X133565000Y-125750000D01*
X133565000Y-125750000D02*
X132750000Y-125750000D01*
%TO.N,Net-(U2-A3)*%
X141185000Y-125750000D02*
X140370000Y-125750000D01*
X145705000Y-121230000D02*
X141185000Y-125750000D01*
%TO.N,Net-(U2-B1)*%
X131025000Y-125750000D02*
X130210000Y-125750000D01*
X135545000Y-121230000D02*
X131025000Y-125750000D01*
%TO.N,Net-(U2-A2)*%
X125945000Y-125750000D02*
X125130000Y-125750000D01*
X130465000Y-121230000D02*
X125945000Y-125750000D01*
%TO.N,Net-(U2-B3)*%
X140625000Y-121230000D02*
X136105000Y-125750000D01*
X136105000Y-125750000D02*
X135290000Y-125750000D01*
%TO.N,Net-(U2-M14)*%
X94905000Y-108495000D02*
X94905000Y-108530000D01*
%TO.N,Net-(U2-L15)*%
X92365000Y-108530000D02*
X92365000Y-108185000D01*
%TO.N,Net-(U1-+)*%
X127874000Y-131244942D02*
X127874000Y-130698000D01*
X139954000Y-130769000D02*
X136943500Y-130769000D01*
X136906000Y-130806500D02*
X136068500Y-131644000D01*
X136943500Y-130769000D02*
X136906000Y-130806500D01*
X136068500Y-131644000D02*
X128273058Y-131644000D01*
X128273058Y-131644000D02*
X127874000Y-131244942D01*
%TO.N,Net-(C18-Pad2)*%
X141604000Y-130769000D02*
X139954000Y-129119000D01*
X143764000Y-130769000D02*
X141604000Y-130769000D01*
X139954000Y-129119000D02*
X139079000Y-128244000D01*
X133679500Y-128244000D02*
X132842000Y-129081500D01*
X139079000Y-128244000D02*
X133679500Y-128244000D01*
%TO.N,Net-(J2-Pin_1)*%
X117833199Y-129943999D02*
X117833199Y-129009199D01*
X117833199Y-129009199D02*
X114554000Y-125730000D01*
X109220000Y-125984000D02*
X109220000Y-128524000D01*
X109474000Y-125730000D02*
X109220000Y-125984000D01*
X114554000Y-125730000D02*
X109474000Y-125730000D01*
%TO.N,Net-(U1--)*%
X132842000Y-130806500D02*
X130938750Y-128903250D01*
X132733500Y-130698000D02*
X132842000Y-130806500D01*
X129174000Y-128778000D02*
X130813500Y-128778000D01*
X130813500Y-128778000D02*
X130938750Y-128903250D01*
X129174000Y-130698000D02*
X132733500Y-130698000D01*
%TD*%
M02*
