%TF.GenerationSoftware,KiCad,Pcbnew,8.0.1*%
%TF.CreationDate,2024-04-12T18:49:37-04:00*%
%TF.ProjectId,adc_fpga,6164635f-6670-4676-912e-6b696361645f,rev?*%
%TF.SameCoordinates,Original*%
%TF.FileFunction,Soldermask,Bot*%
%TF.FilePolarity,Negative*%
%FSLAX46Y46*%
G04 Gerber Fmt 4.6, Leading zero omitted, Abs format (unit mm)*
G04 Created by KiCad (PCBNEW 8.0.1) date 2024-04-12 18:49:37*
%MOMM*%
%LPD*%
G01*
G04 APERTURE LIST*
%ADD10C,1.500000*%
%ADD11C,1.524000*%
%ADD12R,1.200000X1.200000*%
%ADD13C,1.200000*%
%ADD14R,1.700000X1.700000*%
%ADD15O,1.700000X1.700000*%
%ADD16R,2.250000X2.250000*%
%ADD17C,2.250000*%
%ADD18C,1.100000*%
%ADD19R,2.200000X2.200000*%
%ADD20C,2.200000*%
G04 APERTURE END LIST*
D10*
%TO.C,TP2*%
X137668000Y-92710000D03*
%TD*%
%TO.C,TP4*%
X88900000Y-89154000D03*
%TD*%
%TO.C,TP1*%
X148336000Y-128016000D03*
%TD*%
D11*
%TO.C,U2*%
X148245000Y-108530000D03*
X145705000Y-108530000D03*
X143165000Y-108530000D03*
X140625000Y-108530000D03*
X138085000Y-108530000D03*
X135545000Y-108530000D03*
X133005000Y-108530000D03*
X130465000Y-108530000D03*
X127925000Y-108530000D03*
X110145000Y-108530000D03*
X107605000Y-108530000D03*
X105065000Y-108530000D03*
X102525000Y-108530000D03*
X99985000Y-108530000D03*
X97445000Y-108530000D03*
X94905000Y-108530000D03*
X92365000Y-108530000D03*
X89825000Y-108530000D03*
X89825000Y-121230000D03*
X92365000Y-121230000D03*
X94905000Y-121230000D03*
X97445000Y-121230000D03*
X99985000Y-121230000D03*
X102525000Y-121230000D03*
X105065000Y-121230000D03*
X107605000Y-121230000D03*
X110145000Y-121230000D03*
X127925000Y-121230000D03*
X130465000Y-121230000D03*
X133005000Y-121230000D03*
X135545000Y-121230000D03*
X138085000Y-121230000D03*
X140625000Y-121230000D03*
X143165000Y-121230000D03*
X145705000Y-121230000D03*
X148245000Y-121230000D03*
%TD*%
D12*
%TO.C,C8*%
X132588000Y-90975401D03*
D13*
X132588000Y-92975401D03*
%TD*%
D12*
%TO.C,C4*%
X113792000Y-84836000D03*
D13*
X111792000Y-84836000D03*
%TD*%
D14*
%TO.C,J5*%
X102870000Y-125984000D03*
D15*
X100330000Y-125984000D03*
X97790000Y-125984000D03*
X95250000Y-125984000D03*
X92710000Y-125984000D03*
X90170000Y-125984000D03*
X87630000Y-125984000D03*
X85090000Y-125984000D03*
X82550000Y-125984000D03*
%TD*%
D14*
%TO.C,J3*%
X140716000Y-125984000D03*
D15*
X138176000Y-125984000D03*
X135636000Y-125984000D03*
X133096000Y-125984000D03*
X130556000Y-125984000D03*
X128016000Y-125984000D03*
X125476000Y-125984000D03*
X122936000Y-125984000D03*
X120396000Y-125984000D03*
%TD*%
D16*
%TO.C,J1*%
X151892000Y-85959500D03*
D17*
X154432000Y-83419500D03*
X149352000Y-83419500D03*
X154432000Y-88499500D03*
X149352000Y-88499500D03*
%TD*%
D12*
%TO.C,C19*%
X119844600Y-130302000D03*
D13*
X117844600Y-130302000D03*
%TD*%
D18*
%TO.C,J2*%
X109220000Y-131064000D03*
X111760000Y-131064000D03*
D19*
X109220000Y-128524000D03*
D20*
X111760000Y-128524000D03*
%TD*%
D12*
%TO.C,C15*%
X90932000Y-96012000D03*
D13*
X92932000Y-96012000D03*
%TD*%
D18*
%TO.C,J4*%
X82550000Y-82804000D03*
X80010000Y-82804000D03*
D19*
X82550000Y-85344000D03*
D20*
X80010000Y-85344000D03*
%TD*%
M02*
