M48
; DRILL file {KiCad 8.0.1} date 2024-06-11T21:07:36-0400
; FORMAT={-:-/ absolute / inch / decimal}
; #@! TF.CreationDate,2024-06-11T21:07:36-04:00
; #@! TF.GenerationSoftware,Kicad,Pcbnew,8.0.1
; #@! TF.FileFunction,Plated,1,2,PTH
FMAT,2
INCH
; #@! TA.AperFunction,Plated,PTH,ViaDrill
T1C0.0118
; #@! TA.AperFunction,Plated,PTH,ComponentDrill
T2C0.0276
; #@! TA.AperFunction,Plated,PTH,ComponentDrill
T3C0.0315
; #@! TA.AperFunction,Plated,PTH,ComponentDrill
T4C0.0394
; #@! TA.AperFunction,Plated,PTH,ComponentDrill
T5C0.0591
; #@! TA.AperFunction,Plated,PTH,ComponentDrill
T6C0.0669
; #@! TA.AperFunction,Plated,PTH,ComponentDrill
T7C0.0866
%
G90
G05
T1
X3.96Y-3.82
X3.96Y-3.99
X4.0Y-3.86
X4.0Y-4.02
X4.01Y-4.06
X4.04Y-3.9
X4.06Y-4.07
X4.08Y-3.94
X4.11Y-3.65
X4.11Y-3.77
X4.11Y-4.07
X4.13Y-3.98
X4.13Y-4.02
X4.15Y-3.65
X4.15Y-3.77
X4.3Y-3.85
X4.31Y-3.68
X4.34Y-3.87
X4.36Y-3.72
X4.39Y-3.76
X4.42Y-3.79
X4.44Y-3.75
X4.47Y-3.7
X4.5Y-3.67
X4.5Y-3.87
X4.54Y-3.66
X4.54Y-3.83
X4.58Y-3.8
X4.59Y-3.66
X4.61Y-3.79
X4.64Y-3.66
X4.66Y-3.79
X4.68Y-3.66
X4.71Y-3.79
X4.73Y-3.66
X4.87Y-3.76
X4.87Y-3.88
X4.92Y-3.76
X4.96Y-3.78
X5.17Y-3.81
X5.2Y-3.78
X5.23Y-3.75
X5.25Y-3.91
X5.26Y-3.72
X5.28Y-3.69
X5.28Y-3.88
X5.32Y-3.67
X5.37Y-3.66
X5.41Y-3.85
X5.42Y-3.67
X5.45Y-3.7
X5.45Y-3.88
X5.48Y-3.73
X5.51Y-3.76
X5.54Y-3.79
X5.56Y-3.76
X5.6Y-3.75
X5.6Y-3.89
X5.62Y-3.87
X5.64Y-3.75
X5.66Y-3.87
X5.68Y-3.75
X5.72Y-3.75
X5.77Y-3.75
X5.82Y-3.88
X5.83Y-3.7
X5.83Y-3.75
X5.86Y-3.88
X5.87Y-3.65
X5.9Y-3.88
X5.94Y-3.65
X5.97Y-3.86
X6.0Y-3.71
X6.0Y-3.89
X6.04Y-3.75
X6.06Y-3.94
X6.08Y-3.79
X6.14Y-3.81
X6.14Y-3.94
X6.17Y-3.87
X6.23Y-3.82
X6.23Y-3.91
X6.28Y-3.78
X6.28Y-3.95
X6.34Y-3.95
X6.35Y-3.81
X6.39Y-3.79
X6.4Y-3.94
X6.45Y-3.91
X6.5Y-3.87
X6.56Y-3.74
X6.57Y-3.88
X6.61Y-3.74
X6.61Y-3.93
X6.66Y-3.79
X6.66Y-3.97
X6.72Y-3.82
X6.72Y-4.0
X6.76Y-3.87
X6.79Y-4.0
X6.85Y-4.0
X6.92Y-4.0
X6.94Y-3.87
X6.97Y-3.85
X7.13Y-3.81
X7.13Y-3.96
X7.21Y-3.89
T2
X4.06Y-3.71
X4.06Y-4.01
T3
X4.23Y-3.7108
X4.23Y-3.8092
X4.79Y-3.7208
X4.79Y-3.8192
X5.35Y-3.7208
X5.35Y-3.8192
X5.91Y-3.7108
X5.91Y-3.8092
X6.47Y-3.7008
X6.47Y-3.7992
T4
X4.41Y-3.87
X4.61Y-3.87
X4.97Y-3.88
X5.17Y-3.88
X5.53Y-3.88
X5.73Y-3.88
X6.09Y-3.87
X6.29Y-3.87
X6.65Y-3.87
X6.85Y-3.87
T5
X3.775Y-3.88
X7.13Y-3.88
T6
X3.675Y-3.78
X3.675Y-3.98
X3.875Y-3.78
X3.875Y-3.98
X7.03Y-3.78
X7.03Y-3.98
X7.23Y-3.78
X7.23Y-3.98
T7
X3.45Y-3.61
X3.45Y-4.1
X7.39Y-3.61
X7.39Y-4.1
M30
